<svg width="838" height="612" viewBox="0 0 838 612" fill="none" xmlns="http://www.w3.org/2000/svg">
<g clip-path="url(#clip0_407_2606)">
<path fill-rule="evenodd" clip-rule="evenodd" d="M91.7977 416.154C113.201 470.25 128.943 528.393 177.412 560.569C224.228 591.648 282.318 583.064 338.42 579.878C404.53 576.123 474.186 582.687 525.471 540.8C591.028 487.256 672.753 408.853 646.232 328.471C619.352 247.002 490.369 275.931 421.293 225.057C351.21 173.44 339.261 49.0927 252.839 38.7352C161.29 27.7632 62.094 92.8639 25.9079 177.67C-7.7405 256.528 60.253 336.432 91.7977 416.154Z" fill="#C2CEE7"/>
</g>
<path d="M87.4144 581.78C87.4144 582.457 87.9581 583 88.6352 583H836.779C837.456 583 838 582.457 838 581.78C838 581.103 837.456 580.56 836.779 580.56H88.6352C87.9581 580.56 87.4144 581.103 87.4144 581.78Z" fill="#173E6D"/>
<path d="M820.982 127.545H581.035C571.885 127.545 564.437 120.103 564.437 110.958C564.437 101.814 571.885 94.3707 581.035 94.3707H820.982C830.133 94.3707 837.581 101.814 837.581 110.958C837.581 120.103 830.133 127.545 820.982 127.545ZM581.035 96.4211C573.013 96.4211 566.489 102.941 566.489 110.958C566.489 118.975 573.013 125.495 581.035 125.495H820.982C829.004 125.495 835.529 118.975 835.529 110.958C835.529 102.941 829.004 96.4211 820.982 96.4211H581.035Z" fill="#173E6D"/>
<path d="M820.982 321.662H581.035C572.162 321.662 564.95 314.455 564.95 305.588C564.95 296.72 572.162 289.513 581.035 289.513H820.982C829.856 289.513 837.068 296.72 837.068 305.588C837.068 314.455 829.856 321.662 820.982 321.662Z" fill="#E6AD47"/>
<path d="M742.351 62.1495H577.086C568.212 62.1495 561 54.9425 561 46.0747C561 37.207 568.212 30 577.086 30H742.351C751.224 30 758.436 37.207 758.436 46.0747C758.436 54.9425 751.224 62.1495 742.351 62.1495Z" fill="#173E6D"/>
<path d="M820.982 192.419H581.035C571.885 192.419 564.437 184.976 564.437 175.831C564.437 166.687 571.885 159.244 581.035 159.244H820.982C830.133 159.244 837.581 166.687 837.581 175.831C837.581 184.976 830.133 192.419 820.982 192.419ZM581.035 161.294C573.013 161.294 566.489 167.814 566.489 175.831C566.489 183.848 573.013 190.368 581.035 190.368H820.982C829.004 190.368 835.529 183.848 835.529 175.831C835.529 167.814 829.004 161.294 820.982 161.294H581.035Z" fill="#173E6D"/>
<path d="M820.982 257.302H581.035C571.885 257.302 564.437 249.859 564.437 240.715C564.437 231.57 571.885 224.127 581.035 224.127H820.982C830.133 224.127 837.581 231.57 837.581 240.715C837.581 249.859 830.133 257.302 820.982 257.302ZM581.035 226.178C573.013 226.178 566.489 232.698 566.489 240.715C566.489 248.731 573.013 255.252 581.035 255.252H820.982C829.004 255.252 835.529 248.731 835.529 240.715C835.529 232.698 829.004 226.178 820.982 226.178H581.035Z" fill="#173E6D"/>
<path d="M572.787 82.4583H635.672C637.17 82.4583 638.391 83.6679 638.391 85.1749C638.391 86.6716 637.17 87.8917 635.672 87.8917H572.787C571.29 87.8917 570.069 86.6819 570.069 85.1749C570.069 83.6781 571.29 82.4583 572.787 82.4583Z" fill="#173E6D"/>
<path d="M572.787 148.869H635.672C637.17 148.869 638.391 150.079 638.391 151.575C638.391 153.072 637.17 154.292 635.672 154.292H572.787C571.29 154.292 570.069 153.082 570.069 151.586C570.069 150.089 571.29 148.869 572.787 148.869Z" fill="#173E6D"/>
<path d="M572.787 215.29H635.672C637.17 215.29 638.391 216.5 638.391 218.007C638.391 219.504 637.17 220.713 635.672 220.713H572.787C571.29 220.713 570.069 219.504 570.069 217.997C570.069 216.5 571.29 215.29 572.787 215.29Z" fill="#173E6D"/>
<path d="M256 116.651C247.412 130.935 263.583 155.002 247.286 160L248.628 158.704C258.466 147.021 237.904 122.293 247.742 110.61C249.27 108.896 250.582 107.013 251.65 105" fill="#2F2E41"/>
<path d="M333.823 325.857C334.097 324.438 334.052 322.976 333.691 321.576C333.33 320.176 332.662 318.871 331.733 317.752C330.805 316.634 329.639 315.73 328.317 315.104C326.996 314.478 325.551 314.145 324.085 314.128L303.432 255L292 269.359L313.837 324.607C313.972 327.036 315.006 329.332 316.744 331.059C318.482 332.787 320.803 333.826 323.267 333.98C325.73 334.134 328.166 333.392 330.111 331.895C332.057 330.398 333.378 328.25 333.823 325.857Z" fill="#FFB8B8"/>
<path d="M244.002 182.013C244.002 182.013 243.372 160.478 262.434 172.814C281.496 185.151 323 300.711 323 300.711L302.346 312L255.459 206.249L244.002 182.013Z" fill="#E6AD47"/>
<path d="M300 550.911L290.397 555L270 520.036L284.173 514L300 550.911Z" fill="#FFB6B6"/>
<path d="M313 565.79L306.065 568.785L302.029 562.702L301.657 570.69L283.263 578.634C282.382 579.015 281.403 579.101 280.469 578.88C279.536 578.658 278.697 578.141 278.075 577.404C277.453 576.666 277.08 575.747 277.012 574.78C276.943 573.814 277.182 572.85 277.693 572.031L288.047 555.432L285.218 548.741L301.062 543L313 565.79Z" fill="#2F2E41"/>
<path d="M149.956 563L139.116 562.49L136 522L152 522.752L149.956 563Z" fill="#FFB6B6"/>
<path d="M154 582L146.586 581.623L145.605 574.266L141.873 581.383L122.21 580.382C121.267 580.334 120.364 579.974 119.632 579.353C118.9 578.733 118.378 577.885 118.141 576.934C117.905 575.983 117.966 574.978 118.317 574.065C118.668 573.153 119.29 572.382 120.092 571.863L136.325 561.369L136.67 554L153.139 555.867L154 582Z" fill="#2F2E41"/>
<path d="M176.013 299.903C176.013 299.903 154.808 357.648 154.466 364.11C154.123 370.572 148.076 452.288 143.004 457.036C137.932 461.784 122.426 535.395 134.491 541.152C146.556 546.91 184.621 537.372 184.621 537.372L197.863 450.42L202.361 383.804C202.361 383.804 216.056 540.673 240.894 540.212C265.733 539.75 296 530.299 296 530.299L261.235 435.298C261.235 435.298 261.726 322.829 253.668 300.145C245.609 277.461 176.013 299.903 176.013 299.903Z" fill="#2F2E41"/>
<path d="M238.936 151L210.446 153.601L205.856 167.644C205.856 167.644 182.013 180.695 187.292 186.624C192.572 192.553 186.112 232.509 186.112 232.509L187.571 264.943C187.571 264.943 186.004 287.413 181.313 292.591C176.623 297.768 164.351 310.463 173.022 304.39C203.424 283.093 256.564 301.063 256.564 301.063L248.972 254.72C248.972 254.72 266.215 178.845 259.41 172.437C252.606 166.029 246.185 165.219 246.185 165.219L238.936 151Z" fill="#E6AD47"/>
<path d="M89.8291 297.82C91.2508 297.556 92.5971 296.985 93.7733 296.146C94.9494 295.307 95.9268 294.221 96.6366 292.964C97.3463 291.708 97.7712 290.312 97.8813 288.874C97.9914 287.436 97.784 285.991 97.2737 284.642L145 244.264L127.513 239L83.8281 279.055C81.6118 280.06 79.8423 281.841 78.8548 284.06C77.8673 286.279 77.7304 288.782 78.4701 291.096C79.2098 293.409 80.7747 295.371 82.8682 296.61C84.9618 297.85 87.4385 298.28 89.8291 297.82Z" fill="#FFB8B8"/>
<path d="M211.051 191.493C211.051 191.493 220.459 172.062 197.936 175.381C175.412 178.701 90 267.048 90 267.048L104.294 286L190.616 208.872L211.051 191.493Z" fill="#173E6D"/>
<path d="M174.637 158.66L85.0105 273.532C83.46 275.526 82.7628 278.053 83.0717 280.56C83.3805 283.067 84.6702 285.349 86.6581 286.907C107.472 337.465 169.741 374.957 242.991 408.986C244.983 410.539 247.51 411.237 250.016 410.928C252.523 410.619 254.805 409.328 256.36 407.338L345.987 292.466C347.539 290.473 348.237 287.945 347.928 285.437C347.619 282.93 346.329 280.647 344.339 279.091C282.868 244.366 230.034 204.134 188.007 157.011C186.014 155.46 183.487 154.763 180.981 155.072C178.475 155.381 176.194 156.671 174.637 158.66Z" fill="#173E6D"/>
<path d="M339.856 289.906L312.563 324.899C295.891 346.146 271.495 359.927 244.703 363.232C217.912 366.536 190.902 359.095 169.574 342.535L93.0875 282.785C91.9545 281.899 91.2186 280.6 91.0414 279.173C90.8642 277.745 91.2601 276.305 92.1423 275.169L178.785 164.081C179.672 162.949 180.971 162.215 182.398 162.04C183.825 161.866 185.263 162.265 186.397 163.15C225.088 213.151 276.879 252.062 338.918 282.296C340.05 283.182 340.784 284.481 340.959 285.907C341.135 287.334 340.738 288.772 339.856 289.906Z" fill="white"/>
<path d="M173.375 221.578L155.263 243.912C154.782 244.504 154.077 244.887 153.302 244.979C152.528 245.07 151.747 244.862 151.132 244.4C150.517 243.938 150.118 243.26 150.022 242.515C149.926 241.769 150.142 241.018 150.622 240.426L168.734 218.092C168.972 217.798 169.267 217.553 169.604 217.369C169.94 217.185 170.311 217.067 170.695 217.021C171.079 216.976 171.468 217.003 171.841 217.103C172.214 217.202 172.563 217.371 172.868 217.6C173.172 217.829 173.428 218.114 173.618 218.437C173.809 218.761 173.931 219.118 173.978 219.488C174.025 219.857 173.996 220.232 173.893 220.591C173.789 220.95 173.613 221.285 173.375 221.578Z" fill="#CCCCCC"/>
<path d="M206.383 204.688L167.187 254.885C166.953 255.185 166.662 255.436 166.33 255.623C165.999 255.811 165.634 255.932 165.255 255.978C164.877 256.025 164.494 255.996 164.127 255.895C163.76 255.793 163.416 255.62 163.116 255.386C162.816 255.152 162.564 254.861 162.377 254.529C162.189 254.198 162.068 253.833 162.022 253.455C161.975 253.077 162.004 252.694 162.105 252.327C162.207 251.96 162.38 251.616 162.614 251.316L201.81 201.119C202.044 200.818 202.335 200.567 202.667 200.378C202.998 200.19 203.364 200.069 203.742 200.022C204.121 199.975 204.505 200.003 204.872 200.105C205.24 200.206 205.584 200.379 205.884 200.614C206.185 200.848 206.436 201.14 206.624 201.472C206.812 201.804 206.932 202.169 206.979 202.547C207.025 202.926 206.996 203.31 206.894 203.677C206.792 204.044 206.618 204.388 206.383 204.688Z" fill="#CCCCCC"/>
<path d="M140 288C150.493 288 159 279.493 159 269C159 258.507 150.493 250 140 250C129.507 250 121 258.507 121 269C121 279.493 129.507 288 140 288Z" fill="#173E6D"/>
<path d="M208.567 244.378L160.042 305.139C159.536 305.643 158.858 305.947 158.136 305.994C157.415 306.04 156.702 305.826 156.132 305.391C155.562 304.956 155.176 304.332 155.047 303.637C154.918 302.942 155.056 302.225 155.433 301.622L203.958 240.861C204.464 240.357 205.142 240.053 205.864 240.006C206.585 239.96 207.298 240.174 207.868 240.609C208.438 241.044 208.824 241.668 208.953 242.363C209.082 243.058 208.944 243.775 208.567 244.378Z" fill="#CCCCCC"/>
<path d="M239.574 230.424L172.96 316.13C172.462 316.639 171.794 316.947 171.085 316.994C170.376 317.041 169.674 316.824 169.113 316.385C168.553 315.945 168.173 315.314 168.046 314.612C167.92 313.91 168.055 313.185 168.426 312.576L235.04 226.87C235.539 226.361 236.206 226.053 236.915 226.006C237.624 225.959 238.326 226.176 238.887 226.615C239.447 227.055 239.827 227.686 239.954 228.388C240.08 229.091 239.945 229.815 239.574 230.424Z" fill="#CCCCCC"/>
<path d="M239.567 268.444L191.042 330.126C190.536 330.638 189.858 330.946 189.136 330.994C188.415 331.041 187.702 330.823 187.132 330.382C186.562 329.941 186.176 329.307 186.047 328.601C185.918 327.896 186.056 327.168 186.433 326.556L234.958 264.874C235.464 264.362 236.142 264.054 236.864 264.006C237.585 263.959 238.298 264.177 238.868 264.618C239.438 265.059 239.824 265.693 239.953 266.399C240.082 267.104 239.944 267.832 239.567 268.444Z" fill="#CCCCCC"/>
<path d="M302.575 275.444L254.949 337.126C254.452 337.638 253.786 337.946 253.078 337.994C252.37 338.041 251.67 337.823 251.111 337.382C250.552 336.941 250.173 336.307 250.046 335.601C249.92 334.896 250.054 334.168 250.425 333.556L298.051 271.874C298.548 271.362 299.214 271.054 299.922 271.006C300.629 270.959 301.33 271.177 301.889 271.618C302.448 272.059 302.827 272.693 302.954 273.399C303.08 274.104 302.946 274.832 302.575 275.444Z" fill="#173E6D"/>
<path d="M270.568 254.424L203.028 340.13C202.523 340.639 201.847 340.947 201.128 340.994C200.409 341.041 199.697 340.824 199.129 340.385C198.561 339.945 198.176 339.314 198.047 338.612C197.918 337.909 198.055 337.185 198.432 336.576L265.972 250.87C266.477 250.361 267.153 250.053 267.872 250.006C268.591 249.959 269.303 250.176 269.871 250.615C270.439 251.055 270.824 251.686 270.953 252.388C271.081 253.09 270.945 253.815 270.568 254.424Z" fill="#CCCCCC"/>
<path d="M191 114.495C190.998 119.159 192.142 123.752 194.33 127.872C196.518 131.991 199.685 135.51 203.551 138.12C207.417 140.73 211.865 142.352 216.504 142.842C221.144 143.332 225.832 142.677 230.159 140.932C234.485 139.188 238.318 136.408 241.319 132.837C244.32 129.267 246.399 125.014 247.372 120.452C248.346 115.891 248.185 111.16 246.903 106.675C245.621 102.19 243.257 98.089 240.02 94.7307L239.883 94.5941C239.655 94.3546 239.427 94.1153 239.188 93.8873C239.186 93.8873 239.185 93.887 239.183 93.8865C239.182 93.8859 239.181 93.8851 239.18 93.884C239.179 93.8829 239.178 93.8817 239.177 93.8803C239.177 93.8789 239.176 93.8774 239.176 93.8759C238.88 93.6023 238.584 93.3288 238.276 93.0667C234.158 89.4568 229.086 87.1101 223.668 86.3076C218.251 85.5051 212.716 86.2807 207.728 88.5417C202.74 90.8026 198.509 94.453 195.542 99.0559C192.576 103.659 190.999 109.019 191 114.495Z" fill="#2F2E41"/>
<path d="M226.5 145C239.479 145 250 134.255 250 121C250 107.745 239.479 97 226.5 97C213.521 97 203 107.745 203 121C203 134.255 213.521 145 226.5 145Z" fill="#FFB8B8"/>
<path d="M201.719 127.2C199.425 116.794 202.74 105.136 209.967 98.1886C213.602 94.7635 218.123 92.4406 223.01 91.4868C227.898 90.5329 232.953 90.9869 237.596 92.7964C238.186 93.0363 238.776 93.2987 239.355 93.5727L239.624 93.7005V93.7402C239.676 93.7766 239.729 93.8149 239.781 93.8536C239.89 93.9569 240.023 94.0309 240.168 94.069C242.206 94.0154 244.231 94.3958 246.112 95.1853C247.993 95.9748 249.687 97.1556 251.083 98.6503C254.72 102.623 256.432 109.044 255.907 116.729L255.891 116.969L255.687 117.097C252.934 118.853 250.077 120.439 247.133 121.846C236.832 126.722 227.429 127.626 218.392 124.605L218.226 124.549L214.433 118.148C213.654 122.563 214.07 137.207 209.602 138L201.816 127.642L201.719 127.2Z" fill="#2F2E41"/>
<path d="M151.721 148.291C159.78 144.119 149.415 128.976 151.498 120.123C153.581 111.269 168.579 108.422 169.535 99.3757C170.49 90.3297 172.738 80.9998 178.689 74.1356C182.492 69.7495 188.096 66.5114 193.865 67.0608C195.817 67.2467 197.706 67.8524 199.404 68.8366C201.102 69.8208 202.568 71.1604 203.703 72.7642C204.838 74.368 205.615 76.1983 205.981 78.1304C206.347 80.0626 206.294 82.0512 205.824 83.9607C207.467 81.6262 211.718 82.1322 212.77 84.7876C213.706 87.1483 211.639 90.0077 209.207 90.2166C206.025 94.1585 202.38 98.3419 197.395 99.1371C196.6 99.32 195.775 99.3196 194.981 99.1357C194.187 98.9519 193.445 98.5894 192.81 98.0758C191.638 96.946 191.546 94.6873 192.938 93.843C186.672 96.3393 182.999 103.134 182.069 109.832C181.139 116.529 182.426 123.305 183.273 130.014C184.121 136.722 184.486 143.779 181.863 150.009C178.765 157.369 171.631 162.644 163.846 164.336C156.061 166.028 147.77 164.374 140.724 160.649C133.677 156.924 127.8 151.237 123 144.861C131.269 150.75 142.709 152.956 151.721 148.291Z" fill="#2F2E41"/>
<path d="M215 119.651C207.193 133.935 221.894 158.002 207.078 163L208.298 161.704C217.242 150.021 198.549 125.293 207.492 113.61C208.882 111.896 210.075 110.013 211.046 108" fill="#2F2E41"/>
<path d="M202 127C202 127 209.072 100.831 239.385 94.791C239.419 94.7799 239.533 94.7347 239.681 94.667C239.772 94.6105 239.886 94.554 240 94.4976C239.658 94.3056 239.328 94.1364 238.987 93.9669L238.982 93.9661L238.978 93.9636L238.976 93.9599L238.975 93.9556C238.679 93.6846 238.383 93.4137 238.076 93.1541L237.21 93.188C237.21 93.188 206.794 88.4126 202 127Z" fill="#FD6584"/>
<path d="M499.728 140.188C475.692 167.221 403.376 172.377 356.303 222C340.522 174.035 362.878 91.2384 385.159 59.6637C395.858 44.501 412.154 34.2012 430.463 31.0301C448.771 27.859 467.592 32.0764 482.785 42.7546C514.423 64.9906 525.411 111.301 499.728 140.188Z" fill="#173E6D"/>
<path d="M441.5 114C453.926 114 464 103.703 464 91C464 78.2975 453.926 68 441.5 68C429.074 68 419 78.2975 419 91C419 103.703 429.074 114 441.5 114Z" fill="white"/>
<path d="M349 261C357.284 261 364 254.284 364 246C364 237.716 357.284 231 349 231C340.716 231 334 237.716 334 246C334 254.284 340.716 261 349 261Z" fill="#173E6D"/>
<path opacity="0.2" d="M461.129 80C463.895 84.6788 464.888 90.1789 463.93 95.5158C462.972 100.853 460.125 105.678 455.9 109.128C451.674 112.579 446.345 114.428 440.867 114.347C435.389 114.265 430.119 112.257 426 108.682C427.686 111.539 429.98 114 432.722 115.893C435.464 117.786 438.59 119.067 441.882 119.647C445.174 120.226 448.555 120.091 451.789 119.251C455.023 118.41 458.034 116.884 460.613 114.778C463.192 112.673 465.278 110.037 466.725 107.055C468.173 104.073 468.948 100.815 468.998 97.5072C469.047 94.1993 468.368 90.9203 467.01 87.8974C465.651 84.8744 463.645 82.1798 461.129 80Z" fill="#231F20"/>
<path opacity="0.2" d="M490.287 48C509.035 72.3192 512.269 107.27 491.495 130.757C468.283 156.999 400.026 162.727 353 208.051C353.783 212.778 354.913 217.44 356.382 222C403.431 172.144 475.712 166.963 499.736 139.803C523.261 113.207 516 71.9121 490.287 48Z" fill="#231F20"/>
<defs>
<clipPath id="clip0_407_2606">
<rect width="621" height="556" fill="white" transform="matrix(-0.995664 0.0930212 0.0930212 0.995664 618.307 0)"/>
</clipPath>
</defs>
</svg>
