<svg width="217" height="127" viewBox="0 0 217 127" fill="none" xmlns="http://www.w3.org/2000/svg">
<path d="M164.792 30.6689C170.223 30.6689 174.623 26.2881 174.623 20.8857C174.623 15.4817 170.223 11.1025 164.792 11.1025C159.362 11.1025 154.958 15.4817 154.958 20.8857C154.958 26.2881 159.362 30.6689 164.792 30.6689Z" fill="#FFB6B6"/>
<path d="M161.106 16.8303C160.303 19.0681 162.067 21.3909 164.45 21.2339L164.507 21.229C166.11 23.2216 166.156 26.0397 164.615 28.0814C164.491 30.7115 164.901 33.3415 165.833 35.8065L168.443 42.7357L172.465 40.8689L174.372 45.9362L185.598 40.1824L178.795 24.9527L176.718 16.6897C175.24 10.8116 169.214 7.2727 163.328 8.82886L158.813 10.0221C155.245 10.9653 153.191 14.6808 154.303 18.1837L161.106 16.8303Z" fill="#2F2E41"/>
<path d="M119.315 30.8558C113.829 30.8558 109.384 26.3868 109.384 20.8732C109.384 15.3597 113.829 10.8906 119.315 10.8906C124.802 10.8906 129.248 15.3597 129.248 20.8732C129.248 26.3868 124.802 30.8558 119.315 30.8558Z" fill="#2F2E41"/>
<path d="M116.604 29.807C113.533 29.807 111.044 27.3061 111.044 24.2199C111.044 21.1338 113.533 18.6328 116.604 18.6328C119.675 18.6328 122.163 21.1338 122.163 24.2199C122.163 27.3061 119.675 29.807 116.604 29.807Z" fill="#A0616A"/>
<path d="M119.715 27.1562C119.715 27.1562 118.298 30.5661 120.468 31.5125C122.634 32.459 121.785 38.0461 121.785 38.0461L113.306 36.248C113.306 36.248 113.306 33.8794 115.001 32.8382C116.699 31.7969 112.74 27.1562 112.74 27.1562H119.715Z" fill="#A0616A"/>
<path d="M116.614 24.1988C112.912 24.1988 109.906 22.5919 109.906 20.6091C109.906 18.6264 112.912 17.0195 116.614 17.0195C120.32 17.0195 123.325 18.6264 123.325 20.6091C123.325 22.5919 120.32 24.1988 116.614 24.1988Z" fill="#2F2E41"/>
<path d="M122.192 26.6505C121.662 26.6505 121.232 25.9852 121.232 25.163C121.232 24.3407 121.662 23.6738 122.192 23.6738C122.718 23.6738 123.15 24.3407 123.15 25.163C123.15 25.9852 122.718 26.6505 122.192 26.6505Z" fill="#A0616A"/>
<path d="M125.415 15.6174C122.818 15.6174 120.71 13.5006 120.71 10.8901C120.71 8.27797 122.818 6.16113 125.415 6.16113C128.012 6.16113 130.119 8.27797 130.119 10.8901C130.119 13.5006 128.012 15.6174 125.415 15.6174Z" fill="#2F2E41"/>
<path d="M45.062 126.364C59.0524 126.364 70.3953 115.037 70.3953 101.066C70.3953 87.0935 59.0524 75.7656 45.062 75.7656C31.0699 75.7656 19.7271 87.0935 19.7271 101.066C19.7271 115.037 31.0699 126.364 45.062 126.364Z" fill="#727277"/>
<path d="M45.0617 114.38C52.4257 114.38 58.3948 108.421 58.3948 101.067C58.3948 93.7108 52.4257 87.751 45.0617 87.751C37.6961 87.751 31.7271 93.7108 31.7271 101.067C31.7271 108.421 37.6961 114.38 45.0617 114.38Z" fill="#CCCCCC"/>
<path d="M170.07 126.435C184.059 126.435 195.402 115.107 195.402 101.133C195.402 87.1599 184.059 75.832 170.07 75.832C156.078 75.832 144.735 87.1599 144.735 101.133C144.735 115.107 156.078 126.435 170.07 126.435Z" fill="#727277"/>
<path d="M170.07 114.449C177.434 114.449 183.405 108.486 183.405 101.132C183.405 93.7795 177.434 87.8164 170.07 87.8164C162.705 87.8164 156.737 93.7795 156.737 101.132C156.737 108.486 162.705 114.449 170.07 114.449Z" fill="#CCCCCC"/>
<path d="M135.622 57.9781L139.775 57.9814L139.779 50.1009L135.625 50.0977L135.622 57.9781Z" fill="#173E6D"/>
<path d="M74.9941 43.0152L74.9974 38.8682L67.1068 38.8633L67.1035 43.012L74.9941 43.0152Z" fill="#173E6D"/>
<path d="M72.0884 40.6902H71.6321C70.4923 40.6902 69.3639 40.4647 68.3107 40.0282C67.2575 39.5918 66.3008 38.9526 65.4946 38.1484C64.69 37.3425 64.0506 36.3863 63.6156 35.3352C63.179 34.2825 62.9565 33.1563 62.9565 32.017C62.9565 30.8793 63.1822 29.7514 63.6189 28.7003C64.0555 27.6493 64.6949 26.693 65.5012 25.8888C66.309 25.0846 67.2657 24.4471 68.3189 24.0106C69.3721 23.5758 70.5004 23.3535 71.6403 23.3535H72.0982L72.0884 40.6902Z" fill="#173E6D"/>
<path fill-rule="evenodd" clip-rule="evenodd" d="M5.3983 103.326L0 102.08L1.65005 74.9342L2.09487 67.6536C2.5168 61.0727 4.91424 54.7696 8.97319 49.5666C20.2277 35.5743 40.9427 35.9453 40.9427 35.9453L84.8586 0.572266L198.364 0.774971L207.468 61.3358C212.498 63.8924 214.712 69.7835 215.595 75.7139C216.727 83.668 215.625 91.7773 212.405 99.1412L210.562 103.434L5.3983 103.326ZM119.675 31.8376L58.392 31.8114L87.8889 7.35267L103.188 7.36247H110.669L123.921 7.37227L131.402 7.37881H139.805L139.795 19.8346L139.785 30.9271V31.8474L127.157 31.8376H119.675ZM149.769 7.38867H149.759V31.8572V31.8736H182.147H182.163V7.40666V7.38867H149.769Z" fill="#173E6D"/>
<path d="M1.6499 74.934C4.79142 75.2724 7.95093 74.4976 10.574 72.7387C13.1988 70.9831 15.1171 68.3563 15.992 65.3257C16.8669 62.2919 16.6429 59.0504 15.3591 56.167C14.0753 53.2851 11.8137 50.9477 8.97304 49.5664C4.91409 54.7694 2.51665 61.0725 2.09472 67.6534L1.6499 74.934Z" fill="#CCCCCC"/>
</svg>
