<svg width="217" height="127" viewBox="0 0 217 127" fill="none" xmlns="http://www.w3.org/2000/svg">
<path d="M164.793 30.6412C170.224 30.6412 174.624 26.2604 174.624 20.858C174.624 15.454 170.224 11.0732 164.793 11.0732C159.362 11.0732 154.957 15.454 154.957 20.858C154.957 26.2604 159.362 30.6412 164.793 30.6412Z" fill="#A0616A"/>
<path d="M161.106 16.8014C160.303 19.0392 162.068 21.3636 164.451 21.2051L164.506 21.2018C166.109 23.1944 166.155 26.0125 164.614 28.0541C164.49 30.6842 164.902 33.3127 165.833 35.7793L168.443 42.7068L172.466 40.8401L174.371 45.9074L185.597 40.1535L178.794 24.9238L176.717 16.6625C175.239 10.7828 169.213 7.24546 163.327 8.80162L158.812 9.99488C155.244 10.9381 153.19 14.6535 154.303 18.1565L161.106 16.8014Z" fill="#2F2E41"/>
<path d="M45.0599 126.337C59.052 126.337 70.3948 115.009 70.3948 101.04C70.3948 87.0652 59.052 75.7373 45.0599 75.7373C31.0711 75.7373 19.7283 87.0652 19.7283 101.04C19.7283 115.009 31.0711 126.337 45.0599 126.337Z" fill="#727277"/>
<path d="M45.0603 114.352C52.4259 114.352 58.3933 108.392 58.3933 101.04C58.3933 93.6825 52.4259 87.7227 45.0603 87.7227C37.6963 87.7227 31.7256 93.6825 31.7256 101.04C31.7256 108.392 37.6963 114.352 45.0603 114.352Z" fill="#CCCCCC"/>
<path d="M170.07 126.406C184.059 126.406 195.402 115.08 195.402 101.105C195.402 87.131 184.059 75.8047 170.07 75.8047C156.078 75.8047 144.735 87.131 144.735 101.105C144.735 115.08 156.078 126.406 170.07 126.406Z" fill="#727277"/>
<path opacity="0.3" d="M58.3904 31.7839L119.675 31.8101H127.157L139.785 31.8183V30.898L139.795 19.8071L139.807 7.35133H131.402L123.921 7.34318L110.669 7.33335H103.188L87.889 7.3252L58.3904 31.7839Z" fill="white"/>
<path d="M170.07 114.42C177.432 114.42 183.403 108.457 183.403 101.105C183.403 93.7505 177.432 87.7891 170.07 87.7891C162.704 87.7891 156.737 93.7505 156.737 101.105C156.737 108.457 162.704 114.42 170.07 114.42Z" fill="#CCCCCC"/>
<path d="M108.094 57.9508L112.247 57.9524L112.251 50.072L108.097 50.0703L108.094 57.9508Z" fill="#173E6D"/>
<path d="M155.36 42.9879L155.363 38.8392L147.474 38.8359L147.471 42.983L155.36 42.9879Z" fill="#173E6D"/>
<path d="M72.0893 40.6626H71.6314C70.4932 40.6609 69.3648 40.437 68.3116 40.0006C67.2568 39.5641 66.3001 38.925 65.4971 38.1191C64.6909 37.3149 64.0515 36.3586 63.6132 35.306C63.1798 34.2549 62.9558 33.127 62.9558 31.9893C62.9558 30.85 63.1831 29.7237 63.6165 28.6727C64.0548 27.62 64.6974 26.6654 65.5037 25.8611C66.3099 25.0569 67.265 24.4178 68.3181 23.983C69.3713 23.5482 70.4997 23.3242 71.6412 23.3242L72.0958 23.3259L72.0893 40.6626Z" fill="#173E6D"/>
<path d="M126.231 23.0483C126.231 24.8382 125.704 26.5889 124.72 28.078C123.735 29.5655 122.337 30.7261 120.702 31.4126C119.065 32.0975 117.261 32.2757 115.524 31.9275C113.786 31.5777 112.19 30.7146 110.939 29.4494C109.684 28.1826 108.832 26.5692 108.486 24.8137C108.141 23.0581 108.319 21.2371 108.996 19.5829C109.675 17.9287 110.823 16.5147 112.294 15.5209C113.77 14.5254 115.5 13.9942 117.271 13.9942C119.64 13.9893 121.919 14.9341 123.598 16.6242C125.276 18.3128 126.224 20.6078 126.231 23.0025C126.231 23.0172 126.231 23.0319 126.231 23.0483Z" fill="#FFB6B6"/>
<path d="M108.345 10.8882C109.395 8.6063 111.426 9.05745 113.2 9.83062C115.452 9.32716 117.588 7.81678 120.013 8.71091C122.399 12.2188 130.414 11.1857 128.71 16.8987C128.707 18.2669 131.258 17.4708 130.813 19.7119C132.162 24.0256 125.935 32.1971 122.36 30.4758C123.243 28.8379 125.263 25.1175 122.2 24.7498C115.609 30.9466 121.518 12.9462 113.236 18.1819C110.494 20.7172 106.742 13.4235 108.345 10.8882Z" fill="#2F2E41"/>
<path fill-rule="evenodd" clip-rule="evenodd" d="M5.3983 103.297L0 102.051L1.65172 74.9069L2.09325 67.6246C2.51845 61.0437 4.91423 54.7406 8.97155 49.5376C20.2293 35.5469 40.9428 35.918 40.9428 35.918L84.857 0.544922L198.364 0.747628L207.468 61.3069C212.498 63.865 214.712 69.7562 215.595 75.6849C216.727 83.6406 215.625 91.7499 212.405 99.1122L210.562 103.406L5.3983 103.297ZM119.675 31.8102L58.3903 31.7841L87.8889 7.32532L103.188 7.33348H110.669L123.921 7.34331L131.402 7.35146H139.805L139.795 19.8072L139.785 30.8981V31.8184L127.155 31.8102H119.675ZM149.769 7.36133H149.759V31.8283V31.8462H182.147H182.165V7.36133H149.769Z" fill="#173E6D"/>
<path d="M1.65308 74.9063C4.79296 75.2447 7.9525 74.4683 10.5756 72.7094C13.1987 70.9555 15.1186 68.3286 15.9935 65.2981C16.8684 62.2642 16.6444 59.0228 15.3607 56.1393C14.0736 53.2559 11.8136 50.9184 8.97295 49.5371C4.914 54.7401 2.5182 61.0432 2.09301 67.6241L1.65308 74.9063Z" fill="#CCCCCC"/>
</svg>
