<svg width="334" height="322" viewBox="0 0 334 322" fill="none" xmlns="http://www.w3.org/2000/svg">
<g clip-path="url(#clip0_831_3149)">
<path d="M32.834 81.6367H218.58V142.63H211.544V158.582L195.596 142.63H32.834V81.6367Z" fill="#173E6D"/>
<path d="M213.42 87.5771H37.9935V136.372H213.42V87.5771Z" fill="white"/>
<path d="M136.564 101.822H52.1005V104.386H136.564V101.822Z" fill="#173E6D"/>
<path d="M199.313 110.691H52.1005V113.255H199.313V110.691Z" fill="#E6E6E6"/>
<path d="M199.169 119.562H52.1005V122.126H199.169V119.562Z" fill="#E6E6E6"/>
<path d="M185.745 163.273H0V224.267H7.03588V240.219L22.9836 224.267H185.745V163.273Z" fill="#173E6D"/>
<path d="M180.586 169.213H5.15961V218.008H180.586V169.213Z" fill="white"/>
<path d="M105.137 183.929H20.6738V186.493H105.137V183.929Z" fill="#173E6D"/>
<path d="M167.886 192.798H20.6738V195.362H167.886V192.798Z" fill="#E6E6E6"/>
<path d="M167.742 201.668H20.6738V204.232H167.742V201.668Z" fill="#E6E6E6"/>
<path d="M185.745 0H0V60.9927H7.03588V76.9456L22.9836 60.9927H185.745V0Z" fill="#173E6D"/>
<path d="M180.586 5.93945H5.15961V54.734H180.586V5.93945Z" fill="white"/>
<path d="M105.137 20.6543H20.6738V23.2183H105.137V20.6543Z" fill="#173E6D"/>
<path d="M167.886 29.5234H20.6738V32.0873H167.886V29.5234Z" fill="#E6E6E6"/>
<path d="M167.742 38.3936H20.6738V40.9575H167.742V38.3936Z" fill="#E6E6E6"/>
<path d="M296.339 314.207L288.695 314.207L285.057 284.711L296.34 284.712L296.339 314.207Z" fill="#FFB8B8"/>
<path d="M298.289 321.62L273.638 321.619V321.307C273.638 318.762 274.65 316.32 276.448 314.521C278.248 312.721 280.688 311.71 283.233 311.71L298.289 311.711L298.289 321.62Z" fill="#2F2E41"/>
<path d="M285.59 292.03L278.476 294.83L264.294 268.716L274.793 264.583L285.59 292.03Z" fill="#FFB8B8"/>
<path d="M290.118 298.214L267.179 307.242L267.065 306.952C266.134 304.583 266.181 301.942 267.196 299.608C268.212 297.274 270.112 295.439 272.48 294.507L272.481 294.506L286.491 288.992L290.118 298.214Z" fill="#2F2E41"/>
<path d="M283.26 304.623L285.695 215.139L274.862 253.5L282.689 280.118L269.704 291.158L256.468 248.917L256.445 248.843L269.601 179.288L308.508 177.406L308.786 177.392L308.831 177.667C308.868 177.899 312.545 200.992 309.453 217.693C306.373 234.33 298.931 304.906 298.856 305.617L298.824 305.921L283.26 304.623Z" fill="#2F2E41"/>
<path d="M271.616 184.867L271.396 184.78L278.617 118.523L278.828 118.471C286.165 116.635 296.053 116.796 301.293 117.054C302.087 117.096 302.843 117.409 303.434 117.942C304.024 118.475 304.413 119.196 304.535 119.982L313.215 177.17L313.144 177.272C307.142 185.847 297.972 188.178 289.773 188.178C283.578 188.099 277.44 186.98 271.616 184.867Z" fill="#173E6D"/>
<path d="M306.001 204.224L305.74 204.201L301.128 116.883L315.142 120.048C316.672 120.399 318.018 121.307 318.917 122.595C319.816 123.883 320.204 125.46 320.006 127.018L318.188 141.532L318.811 167.066C319.245 168.635 326.34 194.617 322.398 201.387C322.199 201.771 321.923 202.109 321.588 202.382C321.252 202.654 320.864 202.854 320.447 202.969C316.662 203.879 312.782 204.333 308.89 204.322C307.12 204.321 306.028 204.227 306.001 204.224Z" fill="#3F3D56"/>
<path d="M264.733 204.817C264.052 204.511 263.448 204.056 262.967 203.485C262.487 202.914 262.141 202.241 261.957 201.517C261.044 197.84 264.126 193.215 264.571 192.574L268.3 157.143L262.754 124.412C262.659 123.853 262.679 123.28 262.813 122.728C262.948 122.176 263.193 121.658 263.535 121.205C263.877 120.751 264.307 120.372 264.801 120.091C265.293 119.81 265.839 119.633 266.403 119.57L282.201 117.808L281.399 151.478C288.179 174.401 273.413 207.454 273.263 207.785L273.18 207.968H272.979C272.9 207.968 270.963 207.932 264.733 204.817Z" fill="#3F3D56"/>
<path d="M297.194 109.205C304.616 105.147 307.344 95.8388 303.287 88.4145C299.229 80.9908 289.923 78.2625 282.501 82.3205C275.079 86.379 272.352 95.6875 276.409 103.111C280.466 110.535 289.772 113.264 297.194 109.205Z" fill="#FFB8B8"/>
<path d="M307.385 188.423C307.248 187.579 307.296 186.715 307.528 185.892C307.761 185.069 308.17 184.307 308.729 183.659C309.287 183.012 309.981 182.495 310.76 182.144C311.54 181.794 312.387 181.619 313.242 181.632L318.544 169.363L326.783 170.767L319.053 187.988C318.937 189.423 318.298 190.765 317.259 191.76C316.219 192.756 314.851 193.336 313.412 193.389C311.974 193.442 310.566 192.967 309.455 192.051C308.344 191.136 307.608 189.845 307.385 188.423Z" fill="#FFB8B8"/>
<path d="M314.849 177.181L319.227 150.908L311.75 138.441L313.655 120.656L314.079 120.55C315.497 120.2 316.992 120.348 318.314 120.97C319.636 121.591 320.703 122.648 321.338 123.964L333.554 149.464L333.602 149.565L324.73 184.429L314.849 177.181Z" fill="#3F3D56"/>
<path d="M299.886 108.117C300.236 108.218 301.706 106.557 303.315 104.567C305.006 102.492 306.227 100.075 306.891 97.4818C307.557 94.8888 307.651 92.1824 307.168 89.5495C307.146 89.4311 307.123 89.3187 307.101 89.213C306.568 86.6754 304.148 84.3384 301.613 84.876C301.804 82.6278 300.29 80.5111 298.372 79.3246C296.454 78.138 294.181 77.6979 291.964 77.2797C289.436 76.8023 286.876 76.3227 284.308 76.4855C281.832 76.6379 279.433 77.4046 277.326 78.7167C274.769 80.3993 272.798 82.8377 271.688 85.6927C270.579 88.547 270.386 91.6766 271.136 94.6455C274.363 90.9805 278.187 86.9932 283.714 88.5821C284.966 88.9548 286.133 89.5654 287.153 90.3815C290.513 93.0204 292.201 96.9069 293.835 100.704C294.651 98.6262 297.678 97.8441 299.399 99.2674C300.502 100.181 300.957 101.7 300.915 103.132C300.8 104.563 300.47 105.969 299.935 107.301" fill="#2F2E41"/>
<path d="M297.911 165.35H297.19V162.514C297.189 161.674 296.855 160.868 296.261 160.273C295.667 159.679 294.861 159.344 294.02 159.344H284.987C284.147 159.344 283.342 159.679 282.747 160.273C282.153 160.868 281.819 161.674 281.818 162.514V182.121C281.819 182.961 282.153 183.768 282.747 184.362C283.342 184.956 284.147 185.291 284.987 185.292H294.02C294.861 185.291 295.667 184.956 296.261 184.362C296.855 183.768 297.189 182.961 297.19 182.121V168.714H297.911V165.35Z" fill="#2F2E41"/>
<path d="M289.744 170.635C290.805 170.635 291.666 169.775 291.666 168.713C291.666 167.652 290.805 166.791 289.744 166.791C288.683 166.791 287.823 167.652 287.823 168.713C287.823 169.775 288.683 170.635 289.744 170.635Z" fill="white"/>
<path d="M291.312 176.372C290.947 175.599 290.416 174.916 289.758 174.371C289.1 173.825 288.33 173.43 287.503 173.214C286.676 172.998 285.812 172.966 284.971 173.12C284.13 173.275 283.333 173.612 282.637 174.108L271.31 167.018L265.324 172.852L281.46 182.64C282.37 183.755 283.657 184.497 285.078 184.726C286.499 184.956 287.955 184.656 289.169 183.884C290.384 183.111 291.273 181.919 291.667 180.535C292.063 179.151 291.936 177.67 291.312 176.372Z" fill="#FFB8B8"/>
<path d="M250.8 162.866L261.164 123.7C261.437 122.689 262.079 121.816 262.963 121.253C263.848 120.691 264.91 120.481 265.942 120.664L269.506 121.312L273.303 142.201L265.58 159.809L279.549 168.198L277.585 183.916L250.8 162.866Z" fill="#3F3D56"/>
</g>
<defs>
<clipPath id="clip0_831_3149">
<rect width="334" height="322" fill="white"/>
</clipPath>
</defs>
</svg>
