<svg width="743" height="561" viewBox="0 0 743 561" fill="none" xmlns="http://www.w3.org/2000/svg">
<g clip-path="url(#clip0_556_2368)">
<path fill-rule="evenodd" clip-rule="evenodd" d="M356.104 36.6983C444.176 45.0689 508.275 94.986 573.07 142.304C638.85 190.342 714.549 236.421 726.134 306.925C738.704 383.412 711.684 470.137 634.959 518.906C562.867 564.729 461.839 535.999 370.004 533.29C289.187 530.906 204.596 541.989 139.895 504.303C68.3045 462.605 28.3584 396.636 15.5129 326.815C0.681719 246.202 -6.34207 154.218 64.4007 93.9592C135.461 33.4302 253.179 26.916 356.104 36.6983Z" fill="#C2CEE7"/>
</g>
<g clip-path="url(#clip1_556_2368)">
<path d="M280.623 338.702C305.332 295.257 352.464 261.899 402.358 265.113C365.555 305.115 344.094 356.839 341.773 411.135C340.954 432.077 342.224 455.456 328.312 471.137C319.656 480.895 306.425 485.62 293.416 486.612C280.406 487.603 267.399 485.253 254.563 482.914L251.45 483.869C250.264 433.91 255.914 382.146 280.623 338.702Z" fill="#768F67"/>
<path d="M402.432 266.159C365.536 283.912 334.076 313.561 314.763 349.721C310.588 357.539 307.033 365.832 305.483 374.601C303.931 383.374 305.015 391.725 308.013 400.058C310.753 407.675 314.439 415.15 315.28 423.301C316.166 431.892 313.003 439.925 307.31 446.3C300.345 454.101 290.99 458.935 281.678 463.344C271.339 468.24 260.522 473.161 253.199 482.298C252.312 483.405 250.645 481.964 251.531 480.859C264.272 464.962 286.081 461.974 301.205 449.168C308.262 443.193 313.56 435.055 313.226 425.521C312.933 417.183 309.139 409.472 306.297 401.783C303.313 393.71 301.825 385.592 302.895 376.984C303.99 368.179 307.228 359.729 311.185 351.839C320.109 334.045 332.322 317.709 346.313 303.587C362.392 287.355 381.131 273.991 401.719 264.074C402.993 263.461 403.698 265.549 402.432 266.159Z" fill="#6D494F"/>
<path d="M320.421 337.636C314.764 333.503 310.762 327.494 309.13 320.683C307.497 313.872 308.339 306.703 311.506 300.456C312.152 299.194 314.144 300.137 313.498 301.4C310.537 307.212 309.753 313.89 311.287 320.23C312.821 326.569 316.571 332.151 321.86 335.969C323.009 336.8 321.563 338.463 320.421 337.636Z" fill="#6D494F"/>
<path d="M306.114 396.378C320.287 394.308 333.159 386.975 342.163 375.841C343.055 374.737 344.722 376.177 343.831 377.28C334.44 388.849 321.029 396.453 306.276 398.575C304.869 398.776 304.715 396.578 306.114 396.378Z" fill="#6D494F"/>
<path d="M363.48 290.065C365.335 292.12 367.672 293.683 370.281 294.612C372.889 295.542 375.688 295.809 378.426 295.39C379.829 295.171 379.981 297.369 378.587 297.587C375.56 298.036 372.47 297.736 369.585 296.716C366.701 295.695 364.111 293.984 362.041 291.732C361.828 291.536 361.697 291.267 361.676 290.978C361.655 290.69 361.744 290.404 361.926 290.179C362.118 289.959 362.389 289.824 362.68 289.802C362.971 289.781 363.259 289.875 363.48 290.065Z" fill="#6D494F"/>
<path d="M501.631 402.164C500.759 402.325 499.887 402.487 499.007 402.666C487.291 404.899 475.776 408.081 464.576 412.178C463.705 412.481 462.827 412.802 461.967 413.129C435.089 423.289 410.331 438.348 388.953 457.541C380.453 465.186 372.547 473.466 365.305 482.31C355.302 494.525 345.43 508.564 332.36 516.528C331.005 517.374 329.6 518.135 328.151 518.808L252.857 487.592C252.722 487.435 252.578 487.295 252.442 487.138L249.379 486.029C249.72 485.547 250.085 485.054 250.427 484.572C250.624 484.291 250.837 484.018 251.035 483.737C251.171 483.552 251.309 483.368 251.422 483.193C251.467 483.132 251.513 483.07 251.551 483.026C251.664 482.851 251.787 482.701 251.893 482.544C253.924 479.783 255.978 477.033 258.055 474.292C258.062 474.274 258.062 474.274 258.086 474.264C273.966 453.418 291.726 433.714 311.914 417.33C312.522 416.838 313.136 416.327 313.778 415.849C322.919 408.514 332.644 401.939 342.856 396.188C348.459 393.057 354.216 390.212 360.106 387.663C375.338 381.106 391.507 376.984 408.02 375.449C440.939 372.393 474.47 379.895 499.718 400.566C500.363 401.095 500.993 401.617 501.631 402.164Z" fill="#768F67"/>
<path d="M501.066 403.049C460.913 395.021 417.934 399.762 380.732 417.012C372.69 420.741 364.856 425.224 358.335 431.292C351.812 437.363 347.647 444.683 345.021 453.14C342.621 460.872 341.062 469.058 336.823 476.072C332.355 483.464 324.991 487.975 316.606 489.64C306.345 491.676 295.965 489.907 285.874 487.823C274.67 485.51 263.069 482.93 251.718 485.819C250.342 486.169 249.879 484.015 251.253 483.666C271.001 478.64 290.215 489.379 310.004 488.255C319.238 487.731 328.37 484.422 333.846 476.608C338.635 469.775 340.25 461.335 342.612 453.485C345.093 445.244 348.795 437.867 354.834 431.638C361.012 425.266 368.687 420.468 376.599 416.549C394.443 407.712 414.035 402.018 433.712 399.162C456.328 395.877 479.34 396.484 501.751 400.955C503.138 401.233 502.444 403.324 501.066 403.049Z" fill="#6D494F"/>
<path d="M392.529 410.767C390.503 404.063 390.927 396.857 393.725 390.436C396.524 384.015 401.515 378.798 407.807 375.716C409.083 375.097 410.105 377.048 408.828 377.669C402.964 380.528 398.315 385.388 395.721 391.372C393.127 397.357 392.759 404.071 394.683 410.302C395.099 411.657 392.943 412.114 392.529 410.767Z" fill="#6D494F"/>
<path d="M345.722 449.06C358.285 455.936 372.98 457.827 386.876 454.355C388.253 454.01 388.716 456.163 387.341 456.508C372.874 460.094 357.585 458.095 344.528 450.911C343.283 450.225 344.484 448.378 345.722 449.06Z" fill="#6D494F"/>
<path d="M455.565 398.696C455.808 401.454 456.732 404.108 458.255 406.419C459.778 408.731 461.852 410.629 464.29 411.942C465.542 412.612 464.34 414.458 463.095 413.793C460.409 412.33 458.121 410.231 456.433 407.681C454.745 405.13 453.707 402.205 453.411 399.161C453.359 398.876 453.417 398.583 453.574 398.34C453.731 398.097 453.975 397.922 454.255 397.852C454.541 397.792 454.839 397.847 455.084 398.005C455.329 398.163 455.502 398.412 455.565 398.696Z" fill="#6D494F"/>
<path d="M358.201 453.664C347.656 402.703 334.475 385.712 334.475 385.712L329.44 381.809L323.384 377.108L323.413 376.503L321.977 376.015L321.64 375.754L321.087 375.329L320.998 375.425L320.81 375.619L293.408 366.309L258.644 354.506L242.546 333.592C239.924 330.186 236.549 327.433 232.684 325.549C228.82 323.665 224.571 322.701 220.272 322.733L168.86 323.113C161.909 323.165 155.228 325.813 150.131 330.539L116.339 361.868L63.6839 387.004L63.595 386.915L63.0421 387.31L54.9065 391.198L55.2422 392.944L50.2067 396.576C50.2067 396.576 37.0258 412.386 26.481 459.804C23.7985 471.87 22.4781 497.752 22.0015 529.646C21.9775 531.259 22.2747 532.861 22.8758 534.359C23.4768 535.856 24.3697 537.219 25.5026 538.369C26.6354 539.518 27.9856 540.432 29.4746 541.055C30.9637 541.678 32.5618 541.999 34.1762 542H315.416L350.518 542C352.132 541.999 353.729 541.678 355.217 541.055C356.705 540.433 358.054 539.521 359.187 538.373C360.32 537.225 361.213 535.863 361.815 534.367C362.417 532.871 362.715 531.27 362.693 529.658C362.228 494.953 360.908 466.749 358.201 453.664Z" fill="#3F3D56"/>
<path d="M394.285 107.52C383.343 107.52 372.849 111.864 365.112 119.598C357.375 127.331 353.029 137.82 353.029 148.756C353.029 159.693 357.375 170.181 365.112 177.915C372.849 185.648 383.343 189.993 394.285 189.993H701.744C712.685 189.993 723.179 185.648 730.916 177.915C738.653 170.181 743 159.693 743 148.756C743 137.82 738.653 127.331 730.916 119.598C723.179 111.864 712.685 107.52 701.744 107.52H394.285Z" fill="#173E6D"/>
<path d="M394.285 115.865C385.558 115.865 377.188 119.33 371.016 125.499C364.845 131.667 361.378 140.033 361.378 148.756C361.378 157.479 364.845 165.845 371.016 172.014C377.188 178.182 385.558 181.647 394.285 181.647H701.744C710.471 181.647 718.841 178.182 725.012 172.014C731.183 165.845 734.65 157.479 734.65 148.756C734.65 140.033 731.183 131.667 725.012 125.499C718.841 119.33 710.471 115.865 701.744 115.865H394.285Z" fill="white"/>
<path d="M202.64 303.428C239.839 303.428 269.994 273.287 269.994 236.106C269.994 198.925 239.839 168.784 202.64 168.784C165.441 168.784 135.285 198.925 135.285 236.106C135.285 273.287 165.441 303.428 202.64 303.428Z" fill="#9E616A"/>
<path d="M185.409 300.132C185.121 299.498 184.834 298.863 184.548 298.225C184.658 298.229 184.768 298.245 184.878 298.248L185.409 300.132Z" fill="#2F2E41"/>
<path d="M133.412 171.846C136.819 169.129 140.8 166.63 145.156 166.771C149.511 166.911 153.928 170.843 153.025 175.104C161.025 160.946 173.759 150.057 188.991 144.348C204.223 138.639 220.981 138.475 236.322 143.885C247.147 147.702 257.762 155.339 260.249 166.54C260.888 169.416 261.025 172.568 262.821 174.903C265.085 177.847 269.418 178.513 272.986 177.477C273.022 177.467 273.058 177.457 273.093 177.446C273.696 177.24 274.347 177.22 274.961 177.388C275.575 177.556 276.125 177.904 276.539 178.388C276.953 178.871 277.213 179.468 277.284 180.101C277.355 180.733 277.235 181.373 276.939 181.936L273.876 187.646C277.737 188.506 281.749 188.421 285.569 187.397C286.204 187.231 286.875 187.265 287.49 187.495C288.104 187.724 288.633 188.138 289.003 188.68C289.372 189.222 289.566 189.865 289.555 190.521C289.545 191.176 289.332 191.813 288.946 192.343C278.846 206.203 261.973 215.152 244.754 215.047C232.516 214.973 220.152 210.757 208.242 213.57C203.634 214.658 199.329 216.763 195.641 219.732C191.954 222.7 188.978 226.456 186.933 230.723C184.887 234.991 183.823 239.662 183.819 244.395C183.815 249.127 184.871 253.8 186.91 258.071C183.251 254.071 176.178 255.018 172.435 258.94C168.693 262.862 167.724 268.716 168.101 274.123C168.677 282.392 171.919 290.185 175.337 297.769C146.685 296.867 119.585 276.778 110.463 249.607C101.303 222.322 110.903 189.793 133.412 171.846Z" fill="#2F2E41"/>
<path opacity="0.2" d="M88.2944 438.278L107.186 541.013L118.521 542L88.2944 438.278Z" fill="black"/>
<path opacity="0.2" d="M296.387 430.53L277.496 540.939L266.161 542L296.387 430.53Z" fill="black"/>
<path d="M146.15 136.811C139.434 139.599 132.426 136.544 129.487 129.547C126.503 122.444 129.29 115.233 136.114 112.401C142.938 109.568 149.821 112.631 152.853 119.849C155.84 126.958 153.083 133.933 146.15 136.811ZM133.285 98.4189L127.945 100.635C126.611 101.183 125.119 101.212 123.764 100.718C122.409 100.224 121.29 99.2426 120.628 97.9679L120.364 97.4543C114.619 87.1537 113.961 74.6348 118.419 60.2648C122.55 47.3743 124.265 38.3084 120.815 30.0952C116.826 20.5992 108.308 17.6246 97.4463 21.9337C93.2335 23.6823 91.8929 23.6545 88.5776 26.9237C87.8564 27.6435 86.9968 28.2116 86.05 28.594C85.1033 28.9765 84.0887 29.1655 83.0669 29.1498C82.079 29.1382 81.1037 28.929 80.1989 28.5347C79.2942 28.1404 78.4786 27.5689 77.8008 26.8545C76.495 25.4777 75.7634 23.6597 75.7538 21.7675C75.7441 19.8753 76.4572 18.05 77.749 16.6601C83.3215 10.8615 90.0427 6.27407 97.4884 3.18728C120.826 -6.49993 132.575 7.80185 137.951 20.6006C143.21 33.1192 140.252 44.7344 135.499 59.7773C131.516 72.277 131.748 81.5391 136.272 90.7485C136.599 91.4447 136.781 92.1994 136.807 92.9672C136.833 93.735 136.702 94.5 136.423 95.2165C136.144 95.9329 135.722 96.5858 135.183 97.1361C134.644 97.6865 133.998 98.1228 133.285 98.4189Z" fill="#173E6D"/>
<path d="M462.199 168.423H401.026C400.832 168.424 400.639 168.387 400.459 168.314C400.279 168.24 400.115 168.132 399.978 167.995C399.84 167.858 399.73 167.696 399.656 167.516C399.581 167.337 399.542 167.145 399.542 166.95C399.542 166.756 399.581 166.564 399.656 166.384C399.73 166.205 399.84 166.042 399.978 165.905C400.115 165.769 400.279 165.66 400.459 165.587C400.639 165.513 400.832 165.476 401.026 165.478H462.199C462.588 165.48 462.96 165.637 463.234 165.913C463.508 166.188 463.662 166.562 463.662 166.95C463.662 167.339 463.508 167.712 463.234 167.988C462.96 168.264 462.588 168.42 462.199 168.423Z" fill="#173E6D"/>
<path d="M539.8 168.914H478.627C478.433 168.915 478.24 168.878 478.06 168.805C477.88 168.731 477.717 168.623 477.579 168.486C477.441 168.349 477.332 168.187 477.257 168.007C477.182 167.828 477.144 167.636 477.144 167.441C477.144 167.247 477.182 167.055 477.257 166.875C477.332 166.696 477.441 166.533 477.579 166.396C477.717 166.259 477.88 166.151 478.06 166.078C478.24 166.004 478.433 165.967 478.627 165.969H539.8C539.994 165.967 540.187 166.004 540.367 166.078C540.547 166.151 540.711 166.259 540.848 166.396C540.986 166.533 541.096 166.696 541.171 166.875C541.245 167.055 541.284 167.247 541.284 167.441C541.284 167.636 541.245 167.828 541.171 168.007C541.096 168.187 540.986 168.349 540.848 168.486C540.711 168.623 540.547 168.731 540.367 168.805C540.187 168.878 539.994 168.915 539.8 168.914Z" fill="#173E6D"/>
<path d="M617.401 169.405H556.229C555.84 169.402 555.467 169.246 555.193 168.97C554.919 168.694 554.765 168.321 554.765 167.932C554.765 167.543 554.919 167.17 555.193 166.894C555.467 166.618 555.84 166.462 556.229 166.459H617.401C617.596 166.458 617.788 166.495 617.968 166.569C618.148 166.642 618.312 166.75 618.45 166.887C618.588 167.024 618.697 167.187 618.772 167.366C618.846 167.546 618.885 167.738 618.885 167.932C618.885 168.126 618.846 168.319 618.772 168.498C618.697 168.677 618.588 168.84 618.45 168.977C618.312 169.114 618.148 169.222 617.968 169.296C617.788 169.369 617.596 169.406 617.401 169.405Z" fill="#173E6D"/>
<path d="M695.003 169.896H633.83C633.441 169.893 633.069 169.737 632.795 169.461C632.52 169.185 632.366 168.812 632.366 168.423C632.366 168.034 632.52 167.661 632.795 167.385C633.069 167.109 633.441 166.953 633.83 166.95H695.003C695.392 166.953 695.764 167.109 696.038 167.385C696.312 167.661 696.466 168.034 696.466 168.423C696.466 168.812 696.312 169.185 696.038 169.461C695.764 169.737 695.392 169.893 695.003 169.896Z" fill="#173E6D"/>
<path d="M431.478 154.869C437.757 154.869 442.847 149.782 442.847 143.505C442.847 137.229 437.757 132.142 431.478 132.142C425.199 132.142 420.108 137.229 420.108 143.505C420.108 149.782 425.199 154.869 431.478 154.869Z" fill="#173E6D"/>
<path d="M509.548 154.869C515.827 154.869 520.917 149.782 520.917 143.505C520.917 137.229 515.827 132.142 509.548 132.142C503.269 132.142 498.178 137.229 498.178 143.505C498.178 149.782 503.269 154.869 509.548 154.869Z" fill="#173E6D"/>
<path d="M587.618 154.869C593.897 154.869 598.987 149.782 598.987 143.505C598.987 137.229 593.897 132.142 587.618 132.142C581.339 132.142 576.249 137.229 576.249 143.505C576.249 149.782 581.339 154.869 587.618 154.869Z" fill="#173E6D"/>
<path d="M665.688 154.869C671.967 154.869 677.057 149.782 677.057 143.505C677.057 137.229 671.967 132.142 665.688 132.142C659.409 132.142 654.319 137.229 654.319 143.505C654.319 149.782 659.409 154.869 665.688 154.869Z" fill="#173E6D"/>
</g>
<defs>
<clipPath id="clip0_556_2368">
<rect width="720.851" height="520.074" fill="white" transform="translate(0 40.1689) rotate(-1.60331)"/>
</clipPath>
<clipPath id="clip1_556_2368">
<rect width="721" height="542" fill="white" transform="translate(22)"/>
</clipPath>
</defs>
</svg>
