<svg width="2313" height="619" viewBox="0 0 2313 619" fill="none" xmlns="http://www.w3.org/2000/svg">
<rect width="2313" height="544" fill="#C2CEE7"/>
<mask id="mask0_269_9201" style="mask-type:luminance" maskUnits="userSpaceOnUse" x="1955" y="30" width="346" height="442">
<path d="M2301 30H1955V472H2301V30Z" fill="white"/>
</mask>
<g mask="url(#mask0_269_9201)">
<mask id="mask1_269_9201" style="mask-type:luminance" maskUnits="userSpaceOnUse" x="1955" y="30" width="346" height="442">
<path d="M2301 30H1955V472H2301V30Z" fill="white"/>
</mask>
<g mask="url(#mask1_269_9201)">
<path d="M1969.75 34.7969H2285.92V471.243H1969.75V34.7969Z" fill="#9897B6"/>
<path d="M2217.18 65.3982H2254.37V143.712H2217.18V65.3982Z" fill="white"/>
<path d="M2159.64 65.3982H2196.84V143.712H2159.64V65.3982Z" fill="white"/>
<path d="M2222.08 176.397H2259.28V254.71H2222.08V176.397Z" fill="white"/>
<path d="M2159.64 176.397H2196.84V254.71H2159.64V176.397Z" fill="white"/>
<path d="M2222.08 279.101H2259.28V357.415H2222.08V279.101Z" fill="white"/>
<path d="M2161.04 277.702H2198.24V356.015H2161.04V277.702Z" fill="white"/>
<path d="M2106.98 393.105H2144.18V471.419H2106.98V393.105Z" fill="#CCCCCC"/>
<path d="M2050.78 277.702H2087.98V356.015H2050.78V277.702Z" fill="white"/>
<path d="M1988.35 277.702H2025.54V356.015H1988.35V277.702Z" fill="white"/>
<path d="M2049.38 175.568H2086.58V253.882H2049.38V175.568Z" fill="white"/>
<path d="M1986.95 175.568H2024.14V253.882H1986.95V175.568Z" fill="white"/>
<path d="M2049.38 65.3982H2086.58V143.712H2049.38V65.3982Z" fill="white"/>
<path d="M1986.95 65.3982H2024.14V143.712H1986.95V65.3982Z" fill="white"/>
<path d="M1969.75 135.676H2285.92V147.622H1969.75V135.676Z" fill="#3F3D56"/>
<path d="M1969.75 228.59H2285.92V235.227H1969.75V228.59Z" fill="#3F3D56"/>
<path d="M1969.75 207.352H2285.92V213.989H1969.75V207.352Z" fill="#3F3D56"/>
<path d="M2254.7 362.652V309.558H2261.34V362.652H2254.7Z" fill="#3F3D56"/>
<path d="M2217.5 362.652V309.558H2224.14V362.652H2217.5Z" fill="#3F3D56"/>
<path d="M2180.31 362.652V309.558H2186.95V362.652H2180.31Z" fill="#3F3D56"/>
<path d="M2143.11 362.652V309.558H2149.75V362.652H2143.11Z" fill="#3F3D56"/>
<path d="M2105.91 362.652V309.558H2112.56V362.652H2105.91Z" fill="#3F3D56"/>
<path d="M2068.72 362.652V309.558H2075.36V362.652H2068.72Z" fill="#3F3D56"/>
<path d="M2031.52 362.652V309.558H2038.16V362.652H2031.52Z" fill="#3F3D56"/>
<path d="M1994.32 362.652V309.558H2000.97V362.652H1994.32Z" fill="#3F3D56"/>
<path d="M2254.03 261.773V208.679H2260.68V261.773H2254.03Z" fill="#3F3D56"/>
<path d="M2216.84 261.773V208.679H2223.48V261.773H2216.84Z" fill="#3F3D56"/>
<path d="M2179.64 261.773V208.679H2186.28V261.773H2179.64Z" fill="#3F3D56"/>
<path d="M2142.45 261.773V208.679H2149.09V261.773H2142.45Z" fill="#3F3D56"/>
<path d="M2105.25 261.773V208.679H2111.89V261.773H2105.25Z" fill="#3F3D56"/>
<path d="M2068.05 261.773V208.679H2074.69V261.773H2068.05Z" fill="#3F3D56"/>
<path d="M2030.86 261.773V208.679H2037.5V261.773H2030.86Z" fill="#3F3D56"/>
<path d="M1993.66 261.773V208.679H2000.3V261.773H1993.66Z" fill="#3F3D56"/>
<path d="M2254.03 143.64V90.546H2260.68V143.64H2254.03Z" fill="#3F3D56"/>
<path d="M2216.84 143.64V90.546H2223.48V143.64H2216.84Z" fill="#3F3D56"/>
<path d="M2179.64 143.64V90.546H2186.28V143.64H2179.64Z" fill="#3F3D56"/>
<path d="M2142.45 143.64V90.546H2149.09V143.64H2142.45Z" fill="#3F3D56"/>
<path d="M2105.25 143.64V90.546H2111.89V143.64H2105.25Z" fill="#3F3D56"/>
<path d="M2068.05 143.64V90.546H2074.69V143.64H2068.05Z" fill="#3F3D56"/>
<path d="M2030.86 143.64V90.546H2037.5V143.64H2030.86Z" fill="#3F3D56"/>
<path d="M1993.66 143.64V90.546H2000.3V143.64H1993.66Z" fill="#3F3D56"/>
<path d="M1969.75 109.128H2285.92V115.765H1969.75V109.128Z" fill="#3F3D56"/>
<path d="M1969.75 87.89H2285.92V94.528H1969.75V87.89Z" fill="#3F3D56"/>
<path d="M1969.75 251.154H2285.92V263.1H1969.75V251.154Z" fill="#3F3D56"/>
<path d="M1955.2 29.8862H2300.47V47.6878H1955.2V29.8862Z" fill="#3F3D56"/>
<path d="M2217.11 410.039V393.105H2237.44V410.039H2218.8H2217.11Z" fill="white"/>
<path d="M2218.8 423.587H2237.44V440.521H2217.11V423.587H2218.8Z" fill="white"/>
<path d="M2183.21 393.105H2203.55V410.039H2183.21V393.105Z" fill="white"/>
<path d="M2183.21 423.587H2203.55V440.521H2183.21V423.587Z" fill="white"/>
<path d="M2051.23 410.039V393.105H2071.57V410.039H2052.93H2051.23Z" fill="white"/>
<path d="M2052.93 423.587H2071.57V440.521H2051.23V423.587H2052.93Z" fill="white"/>
<path d="M2017.34 393.105H2037.67V410.039H2017.34V393.105Z" fill="white"/>
<path d="M2017.34 423.587H2037.67V440.521H2017.34V423.587Z" fill="white"/>
<path d="M1969.75 352.034H2285.92V363.98H1969.75V352.034Z" fill="#3F3D56"/>
<path d="M1969.75 330.796H2285.92V337.432H1969.75V330.796Z" fill="#3F3D56"/>
<path d="M1969.75 309.558H2285.92V316.195H1969.75V309.558Z" fill="#3F3D56"/>
<path d="M2190.2 465.555C2190.2 465.185 2190.2 464.818 2190.21 464.451C2190.5 454.667 2200.21 452.013 2205.42 456.645C2207.06 455.22 2209.17 454.434 2211.34 454.434C2213.52 454.434 2215.62 455.22 2217.27 456.645C2222.5 452.087 2232.02 454.551 2232.33 464.225C2232.34 464.59 2232.35 464.958 2232.35 465.328C2232.34 467.362 2232.21 469.394 2231.98 471.415H2190.57C2190.34 469.47 2190.22 467.513 2190.2 465.555Z" fill="#4F7962"/>
<path d="M2025.62 465.555C2025.62 465.185 2025.62 464.818 2025.63 464.451C2025.92 454.667 2035.63 452.013 2040.84 456.645C2042.48 455.22 2044.59 454.434 2046.76 454.434C2048.94 454.434 2051.04 455.22 2052.69 456.645C2057.92 452.087 2067.44 454.551 2067.75 464.225C2067.77 464.59 2067.77 464.958 2067.77 465.328C2067.76 467.362 2067.63 469.394 2067.4 471.415H2025.99C2025.76 469.47 2025.64 467.513 2025.62 465.555Z" fill="#4F7962"/>
</g>
</g>
<path d="M2053 299H2142V364.049H2141.95V377L2128.9 364.049H2053V299Z" fill="#E6AD47"/>
<path d="M2094.2 346.273L2082.67 331.713L2089.37 326.59L2094.84 333.484L2113.28 314.364L2119.45 320.102L2094.2 346.273Z" fill="white"/>
<path d="M1653 191H1936V471H1653V191Z" fill="#9897B6"/>
<path d="M1879.29 206.977H1912.62V277.188H1879.29V206.977Z" fill="white"/>
<path d="M1823.35 206.977H1856.68V277.188H1823.35V206.977Z" fill="white"/>
<path d="M1879.29 299.056H1912.62V369.269H1879.29V299.056Z" fill="white"/>
<path d="M1824.6 297.802H1857.93V368.014H1824.6V297.802Z" fill="white"/>
<path d="M1776 385H1817V471H1776V385Z" fill="#CCCCCC"/>
<path d="M1725.82 297.802H1759.14V368.014H1725.82V297.802Z" fill="white"/>
<path d="M1669.88 297.802H1703.2V368.014H1669.88V297.802Z" fill="white"/>
<path d="M1724.56 206.234H1757.89V276.446H1724.56V206.234Z" fill="white"/>
<path d="M1668.62 206.234H1701.95V276.446H1668.62V206.234Z" fill="white"/>
<path d="M1653.21 253.77H1936.49V259.72H1653.21V253.77Z" fill="#3F3D56"/>
<path d="M1653.21 234.729H1936.49V240.68H1653.21V234.729Z" fill="#3F3D56"/>
<path d="M1908.52 373.964V326.363H1914.47V373.964H1908.52Z" fill="#3F3D56"/>
<path d="M1875.19 373.964V326.363H1881.14V373.964H1875.19Z" fill="#3F3D56"/>
<path d="M1841.86 373.964V326.363H1847.82V373.964H1841.86Z" fill="#3F3D56"/>
<path d="M1808.54 373.964V326.363H1814.49V373.964H1808.54Z" fill="#3F3D56"/>
<path d="M1775.21 373.964V326.363H1781.16V373.964H1775.21Z" fill="#3F3D56"/>
<path d="M1741.89 373.963V326.363H1747.84V373.963H1741.89Z" fill="#3F3D56"/>
<path d="M1708.56 373.964V326.363H1714.51V373.964H1708.56Z" fill="#3F3D56"/>
<path d="M1675.23 373.963V326.363H1681.18V373.963H1675.23Z" fill="#3F3D56"/>
<path d="M1907.92 283.521V235.919H1913.87V283.521H1907.92Z" fill="#3F3D56"/>
<path d="M1874.59 283.521V235.919H1880.55V283.521H1874.59Z" fill="#3F3D56"/>
<path d="M1841.27 283.521V235.919H1847.22V283.521H1841.27Z" fill="#3F3D56"/>
<path d="M1807.94 283.521V235.919H1813.89V283.521H1807.94Z" fill="#3F3D56"/>
<path d="M1774.62 283.521V235.919H1780.57V283.521H1774.62Z" fill="#3F3D56"/>
<path d="M1741.29 283.521V235.919H1747.24V283.521H1741.29Z" fill="#3F3D56"/>
<path d="M1707.96 283.521V235.919H1713.91V283.521H1707.96Z" fill="#3F3D56"/>
<path d="M1674.64 283.521V235.919H1680.59V283.521H1674.64Z" fill="#3F3D56"/>
<path d="M1653.21 274H1936.49V284.711H1653.21V274Z" fill="#3F3D56"/>
<path d="M1640.18 175H1949.52V190.96H1640.18V175Z" fill="#3F3D56"/>
<path d="M1874.84 416.449V401.267H1893.06V416.449H1876.35H1874.84Z" fill="white"/>
<path d="M1876.35 428.595H1893.06V443.777H1874.84V428.595H1876.35Z" fill="white"/>
<path d="M1844.47 401.267H1862.69V416.449H1844.47V401.267Z" fill="white"/>
<path d="M1844.47 428.595H1862.69V443.777H1844.47V428.595Z" fill="white"/>
<path d="M1726.22 416.449V401.267H1744.44V416.449H1727.74H1726.22Z" fill="white"/>
<path d="M1727.74 428.595H1744.44V443.777H1726.22V428.595H1727.74Z" fill="white"/>
<path d="M1695.85 401.267H1714.07V416.449H1695.85V401.267Z" fill="white"/>
<path d="M1695.85 428.595H1714.07V443.777H1695.85V428.595Z" fill="white"/>
<path d="M1653.21 364.444H1936.49V375.154H1653.21V364.444Z" fill="#3F3D56"/>
<path d="M1653.21 345.403H1936.49V351.353H1653.21V345.403Z" fill="#3F3D56"/>
<path d="M1653.21 326.363H1936.49V332.312H1653.21V326.363Z" fill="#3F3D56"/>
<path d="M1850.73 466.222C1850.73 465.89 1850.73 465.561 1850.74 465.232C1851 456.46 1859.7 454.081 1864.37 458.234C1865.84 456.956 1867.72 456.251 1869.67 456.251C1871.62 456.251 1873.51 456.956 1874.98 458.234C1879.67 454.147 1888.2 456.356 1888.48 465.029C1888.49 465.357 1888.49 465.687 1888.49 466.018C1888.48 467.841 1888.37 469.664 1888.16 471.476H1851.06C1850.86 469.731 1850.75 467.977 1850.73 466.222Z" fill="#4F7962"/>
<path d="M1703.27 466.222C1703.27 465.89 1703.28 465.561 1703.29 465.232C1703.54 456.46 1712.24 454.081 1716.91 458.234C1718.38 456.956 1720.27 456.251 1722.22 456.251C1724.17 456.251 1726.05 456.956 1727.52 458.234C1732.21 454.147 1740.74 456.356 1741.02 465.029C1741.03 465.357 1741.04 465.687 1741.04 466.018C1741.03 467.841 1740.91 469.664 1740.7 471.476H1703.6C1703.4 469.731 1703.29 467.977 1703.27 466.222Z" fill="#4F7962"/>
<path fill-rule="evenodd" clip-rule="evenodd" d="M1955.59 384.848C1960.11 376.732 1968 361.853 1968 356.807C1968 349.734 1961.06 344 1952.5 344C1943.94 344 1937 349.734 1937 356.807C1937 361.853 1944.89 376.732 1949.41 384.848C1949.72 385.399 1950.16 385.859 1950.71 386.178C1951.25 386.497 1951.87 386.665 1952.5 386.665C1953.13 386.665 1953.75 386.497 1954.29 386.178C1954.84 385.859 1955.28 385.399 1955.59 384.848ZM1961.01 358.395C1961.01 363.056 1957.23 366.835 1952.57 366.835C1947.91 366.835 1944.13 363.056 1944.13 358.395C1944.13 353.733 1947.91 349.953 1952.57 349.953C1957.23 349.953 1961.01 353.733 1961.01 358.395Z" fill="#173E6D"/>
<g clip-path="url(#clip0_269_9201)">
<path d="M1951.54 407.69C1951.26 407.375 1950.88 407.183 1950.46 407.154C1950.05 407.125 1949.64 407.262 1949.32 407.535C1949.26 407.592 1949.2 407.654 1949.14 407.72L1943.9 405.812L1942.01 408.179L1949.47 410.002C1949.76 410.207 1950.11 410.309 1950.46 410.292C1950.81 410.275 1951.15 410.14 1951.41 409.908C1951.57 409.775 1951.69 409.613 1951.78 409.431C1951.87 409.249 1951.92 409.051 1951.94 408.848C1951.95 408.645 1951.93 408.441 1951.86 408.248C1951.8 408.055 1951.7 407.876 1951.57 407.722C1951.56 407.711 1951.55 407.701 1951.54 407.69Z" fill="#FFB8B8"/>
<path d="M1929.91 467.943H1932.77L1934.13 456.709L1929.91 456.71L1929.91 467.943Z" fill="#FFB8B8"/>
<path d="M1929.81 470.98H1938.61V470.867C1938.61 469.943 1938.25 469.056 1937.61 468.403C1936.97 467.749 1936.09 467.382 1935.19 467.382L1933.58 466.141L1930.58 467.382H1929.81L1929.81 470.98Z" fill="#2F2E41"/>
<path d="M1909.84 462.586L1912.19 464.261L1919.65 455.869L1916.19 453.397L1909.84 462.586Z" fill="#FFB8B8"/>
<path d="M1908.04 465.012L1915.24 470.163L1915.31 470.07C1915.83 469.314 1916.04 468.378 1915.88 467.467C1915.73 466.556 1915.22 465.746 1914.48 465.214L1913.86 463.258L1910.71 462.517L1910.08 462.068L1908.04 465.012Z" fill="#2F2E41"/>
<path d="M1918.5 412.06L1918.27 412.577C1916.7 415.975 1916.3 419.773 1916.91 423.474C1916.96 423.618 1916.95 423.774 1916.89 423.913C1916.51 424.362 1917.1 426.316 1917.44 427.407L1917.74 429.335C1917.74 429.335 1917.24 431.127 1918.01 430.995C1918.78 430.863 1917.63 432.774 1918.36 433.253L1920.27 445.274L1912.33 458.589L1915.27 462.928L1927.03 447.518L1927.18 433.604L1928.95 444.825L1929.09 462.479L1934.44 461.901L1934.24 443.179L1934.54 421.114L1931.59 410.85L1918.5 412.06Z" fill="#2F2E41"/>
<path d="M1919.5 380.94L1927 381.09L1928.47 384.83L1931.42 385.728L1933.92 392.012L1932.45 411.91L1916.41 413.406L1917.15 411.761C1917.15 411.761 1914.21 411.91 1915.24 410.863C1916.27 409.815 1918.25 410.048 1917.26 408.809C1916.27 407.571 1916.12 406.674 1916.12 406.674L1915.68 400.539L1914.58 387.448L1918.03 384.681L1919.5 380.94Z" fill="#173E6D"/>
<path d="M1911.86 423.743C1911.62 423.392 1911.54 422.963 1911.61 422.547C1911.68 422.13 1911.91 421.76 1912.25 421.514C1912.32 421.465 1912.4 421.422 1912.47 421.385L1911.94 415.746L1914.65 414.462L1914.57 422.268C1914.69 422.603 1914.7 422.97 1914.6 423.312C1914.5 423.654 1914.29 423.953 1914 424.16C1913.84 424.277 1913.65 424.36 1913.46 424.404C1913.26 424.447 1913.06 424.452 1912.86 424.416C1912.67 424.381 1912.48 424.306 1912.31 424.197C1912.14 424.087 1912 423.945 1911.88 423.778C1911.87 423.766 1911.86 423.755 1911.86 423.743Z" fill="#FFB8B8"/>
<path d="M1915.96 387.127C1915.96 387.127 1911.58 387.04 1911.44 395.256C1911.44 395.256 1906.13 406.51 1909.37 410.564L1911.47 418.822L1915.16 418.472L1915.46 411.641C1915.46 411.641 1920.6 404.292 1919.46 397.24L1915.96 387.127Z" fill="#173E6D"/>
<path d="M1931.12 385.578C1931.12 385.578 1933.11 387.299 1936.86 392.61C1936.86 392.61 1942.45 400.839 1941.86 404.13L1944.36 404.878L1944.95 410.564L1938.84 408.993C1938.84 408.993 1930.98 402.335 1931.27 399.043C1931.56 395.752 1931.12 385.578 1931.12 385.578Z" fill="#173E6D"/>
<path d="M1923.44 379.736C1926.28 379.736 1928.58 377.392 1928.58 374.502C1928.58 371.611 1926.28 369.267 1923.44 369.267C1920.59 369.267 1918.29 371.611 1918.29 374.502C1918.29 377.392 1920.59 379.736 1923.44 379.736Z" fill="#FFB8B8"/>
<path d="M1921.93 374.365C1921.94 374.306 1921.94 374.248 1921.95 374.19C1921.96 374.249 1921.95 374.308 1921.93 374.365Z" fill="#2F2E41"/>
<path d="M1928.68 368.38C1928.53 367.765 1927.94 367.243 1927.32 367.318C1926.93 367.364 1926.6 367.617 1926.25 367.776C1925.25 368.22 1922.76 367.275 1921.68 367.426C1920.61 367.578 1919.57 368.657 1919.91 369.71C1917.11 370.013 1915.91 372.524 1916.9 375.261C1917.67 377.402 1920.61 379.52 1922.84 379.669C1922.57 378.349 1920.97 376.872 1920.7 375.554C1920.6 375.201 1920.57 374.831 1920.62 374.466C1920.65 374.285 1920.73 374.115 1920.85 373.98C1920.97 373.845 1921.13 373.749 1921.31 373.706C1921.45 373.69 1921.6 373.731 1921.72 373.82C1921.84 373.91 1921.92 374.042 1921.95 374.19C1922.01 373.784 1922.16 373.399 1922.4 373.069C1922.64 372.739 1922.95 372.475 1923.31 372.3C1923.68 372.125 1924.08 372.045 1924.48 372.067C1924.88 372.089 1925.27 372.213 1925.61 372.427L1924.9 371.44C1925.87 371.902 1926.95 372.072 1928.02 371.93C1928.04 371.838 1928.05 371.742 1928.04 371.646C1928.03 371.548 1928 371.453 1927.95 371.371C1927.89 371.289 1927.82 371.223 1927.73 371.179C1927.9 371.226 1928.06 371.307 1928.2 371.418C1928.34 371.529 1928.45 371.667 1928.54 371.824C1929.15 371.681 1929.69 371.312 1930.06 370.787C1930.4 370.255 1928.84 368.995 1928.68 368.38Z" fill="#9D773C"/>
</g>
<path d="M1952.7 401.971L1951.82 402.595C1951.81 402.601 1951.8 402.61 1951.8 402.62C1951.8 402.63 1951.8 402.64 1951.81 402.648L1951.82 402.67L1947.21 405.922C1947.08 406.012 1946.99 406.149 1946.96 406.303C1946.94 406.457 1946.97 406.615 1947.06 406.743L1949.09 409.627C1949.13 409.691 1949.19 409.745 1949.25 409.786C1949.32 409.827 1949.39 409.855 1949.47 409.869C1949.54 409.882 1949.62 409.88 1949.7 409.863C1949.77 409.846 1949.84 409.814 1949.91 409.77L1954.36 406.632L1954.37 406.648C1954.38 406.653 1954.38 406.657 1954.39 406.659C1954.4 406.66 1954.4 406.658 1954.41 406.654L1954.91 406.299C1954.92 406.297 1954.92 406.294 1954.92 406.291C1954.92 406.288 1954.92 406.285 1954.92 406.282C1954.93 406.278 1954.92 406.275 1954.92 406.271C1954.92 406.268 1954.92 406.265 1954.92 406.262L1954.91 406.246L1955.1 406.112L1955.11 406.128C1955.11 406.134 1955.12 406.138 1955.13 406.139C1955.14 406.141 1955.14 406.139 1955.15 406.135L1955.65 405.784C1955.65 405.78 1955.66 405.773 1955.66 405.766C1955.66 405.759 1955.66 405.751 1955.65 405.745L1955.64 405.729L1955.9 405.547L1955.91 405.563C1955.92 405.568 1955.92 405.572 1955.93 405.573C1955.94 405.574 1955.94 405.573 1955.95 405.569L1956.22 405.378C1956.22 405.374 1956.23 405.368 1956.23 405.362C1956.23 405.355 1956.23 405.349 1956.22 405.343L1956.21 405.327L1956.76 404.94C1956.89 404.85 1956.98 404.713 1957 404.559C1957.03 404.405 1957 404.247 1956.91 404.119L1954.88 401.234C1954.79 401.106 1954.66 401.02 1954.5 400.993C1954.35 400.966 1954.19 401.002 1954.06 401.092L1952.77 402.002L1952.76 401.98C1952.75 401.972 1952.74 401.966 1952.73 401.965C1952.72 401.963 1952.71 401.965 1952.7 401.971Z" fill="#3F3D56"/>
<path d="M1954.13 401.389L1947.33 406.181C1947.25 406.238 1947.19 406.325 1947.18 406.422C1947.16 406.52 1947.18 406.62 1947.24 406.701L1949.17 409.463C1949.23 409.544 1949.32 409.599 1949.42 409.616C1949.51 409.633 1949.61 409.611 1949.69 409.554L1949.69 409.553L1956.5 404.762C1956.54 404.734 1956.57 404.698 1956.6 404.656C1956.62 404.615 1956.64 404.569 1956.65 404.52C1956.66 404.472 1956.66 404.422 1956.65 404.374C1956.64 404.327 1956.62 404.281 1956.59 404.241L1956.3 403.828L1956.24 403.865C1956.21 403.888 1956.17 403.905 1956.13 403.914C1956.1 403.923 1956.05 403.924 1956.01 403.917C1955.97 403.91 1955.94 403.895 1955.9 403.874C1955.87 403.852 1955.84 403.824 1955.82 403.791L1954.83 402.386C1954.78 402.32 1954.77 402.237 1954.78 402.157C1954.79 402.076 1954.84 402.005 1954.91 401.958L1954.96 401.92L1954.65 401.48C1954.59 401.399 1954.51 401.344 1954.41 401.327C1954.31 401.31 1954.21 401.332 1954.13 401.389Z" fill="white"/>
<path d="M1152.76 471.173H137.208V544.731H1152.76V471.173Z" fill="#3F3D56"/>
<path d="M2313 471H0V619H2313V471Z" fill="#3F3D56"/>
<path d="M506 470.999H138.375C137.914 471.006 137.454 470.967 137 470.892L310.871 171.15C311.933 169.283 313.471 167.73 315.333 166.65C317.192 165.569 319.31 165 321.466 165C323.62 165 325.736 165.569 327.597 166.65C329.46 167.73 331 169.283 332.063 171.15L448.748 372.299L454.34 381.924L506 470.999Z" fill="#768F67"/>
<path opacity="0.2" d="M601.757 467.814H487.395L543.534 386.377L547.576 380.511L549.597 377.578L554.688 386.377L601.757 467.814Z" fill="black"/>
<path d="M710 471H392L453.624 381.376L458.056 374.92L538.359 258.124C543.622 250.47 556.287 249.993 562.474 256.681C562.891 257.137 563.277 257.619 563.63 258.124L710 471Z" fill="#768F67"/>
<path d="M799.231 422.731C810.593 422.731 819.805 413.532 819.805 402.184C819.805 390.837 810.593 381.637 799.231 381.637C787.868 381.637 778.655 390.837 778.655 402.184C778.655 413.532 787.868 422.731 799.231 422.731Z" fill="#4F7962"/>
<path d="M875.275 464.074H871.063L872.986 399.09L875.275 464.074Z" fill="#6D494F"/>
<path d="M873.354 411.407L877.88 405.154L873.295 412.953L872.798 412.087L873.354 411.407Z" fill="#6D494F"/>
<path d="M872.86 417.718L868.335 411.467L872.922 419.266L873.416 418.399L872.86 417.718Z" fill="#6D494F"/>
<path d="M987.961 429.731C999.323 429.731 1008.54 420.532 1008.54 409.184C1008.54 397.837 999.323 388.637 987.961 388.637C976.598 388.637 967.386 397.837 967.386 409.184C967.386 420.532 976.598 429.731 987.961 429.731Z" fill="#4F7962"/>
<path d="M989.943 471.074H985.728L987.651 406.09L989.943 471.074Z" fill="#6D494F"/>
<path d="M988.024 418.407L992.546 412.154L987.96 419.953L987.463 419.087L988.024 418.407Z" fill="#6D494F"/>
<path d="M987.526 424.718L983.004 418.467L987.589 426.266L988.087 425.399L987.526 424.718Z" fill="#6D494F"/>
<path d="M858.242 395C878.973 395 895.775 378.212 895.775 357.499C895.775 336.788 878.973 320 858.242 320C837.516 320 820.71 336.788 820.71 357.499C820.71 378.212 837.516 395 858.242 395Z" fill="#4F7962"/>
<path d="M861.758 464.074H855.534L858.371 368.097L861.758 464.074Z" fill="#6D494F"/>
<path d="M858.921 386.287L865.603 377.057L858.829 388.573L858.098 387.293L858.921 386.287Z" fill="#6D494F"/>
<path d="M932.251 395.61L925.574 386.381L932.344 397.895L933.078 396.617L932.251 395.61Z" fill="#6D494F"/>
<path d="M932.934 410.014C949.714 410.014 963.321 396.429 963.321 379.668C963.321 362.908 949.714 349.323 932.934 349.323C916.15 349.323 902.547 362.908 902.547 379.668C902.547 396.429 916.15 410.014 932.934 410.014Z" fill="#4F7962"/>
<path d="M935.863 471.074H929.639L932.476 375.097L935.863 471.074Z" fill="#6D494F"/>
<path d="M933.022 393.287L939.708 384.057L932.934 395.573L932.2 394.293L933.022 393.287Z" fill="#6D494F"/>
<path d="M932.291 402.61L925.611 393.381L932.385 404.895L933.115 403.617L932.291 402.61Z" fill="#6D494F"/>
<path d="M740.727 403.014C757.511 403.014 771.114 389.429 771.114 372.668C771.114 355.908 757.511 342.323 740.727 342.323C723.947 342.323 710.341 355.908 710.341 372.668C710.341 389.429 723.947 403.014 740.727 403.014Z" fill="#4F7962"/>
<path d="M743.657 464.074H737.433L740.27 368.097L743.657 464.074Z" fill="#6D494F"/>
<path d="M740.819 386.287L747.501 377.057L740.727 388.573L739.996 387.293L740.819 386.287Z" fill="#6D494F"/>
<path d="M740.09 395.61L733.408 386.381L740.181 397.895L740.912 396.617L740.09 395.61Z" fill="#6D494F"/>
<path d="M231.68 525.574H186.306V528.497H231.68V525.574Z" fill="#E6AD47"/>
<path d="M360.485 485.574H315.11V488.497H360.485V485.574Z" fill="white"/>
<path d="M489.287 485.574H443.914V488.497H489.287V485.574Z" fill="white"/>
<path d="M618.093 525.574H572.72V528.497H618.093V525.574Z" fill="#E6AD47"/>
<path d="M743.373 525.574H698V528.497H743.373V525.574Z" fill="#E6AD47"/>
<path d="M365.373 525.574H320V528.497H365.373V525.574Z" fill="#E6AD47"/>
<path d="M490.653 525.574H445.28V528.497H490.653V525.574Z" fill="#E6AD47"/>
<path d="M871.373 525.574H826V528.497H871.373V525.574Z" fill="#E6AD47"/>
<path d="M746.898 485.574H701.522V488.497H746.898V485.574Z" fill="#E6AD47"/>
<path d="M875.7 485.574H830.327V488.497H875.7V485.574Z" fill="white"/>
<path d="M1004.51 525.574H959.133V528.497H1004.51V525.574Z" fill="#E6AD47"/>
<path d="M1133.31 525.574H1087.94V528.497H1133.31V525.574Z" fill="#E6AD47"/>
<path d="M1260.43 525.574H1215.05V528.497H1260.43V525.574Z" fill="#E6AD47"/>
<path d="M1389.37 525.574H1344V528.497H1389.37V525.574Z" fill="#E6AD47"/>
<path d="M1518.18 525.574H1472.8V528.497H1518.18V525.574Z" fill="#E6AD47"/>
<path d="M1645.3 525.574H1599.92V528.497H1645.3V525.574Z" fill="#E6AD47"/>
<path d="M1774.37 525.574H1729V528.497H1774.37V525.574Z" fill="#E6AD47"/>
<path d="M1903.18 525.574H1857.8V528.497H1903.18V525.574Z" fill="#E6AD47"/>
<path d="M2030.3 525.574H1984.92V528.497H2030.3V525.574Z" fill="#E6AD47"/>
<path d="M2157.38 525.574H2112V528.497H2157.38V525.574Z" fill="#E6AD47"/>
<path d="M2284.49 525.574H2239.12V528.497H2284.49V525.574Z" fill="#E6AD47"/>
<path d="M2159.38 485.574H2114V488.497H2159.38V485.574Z" fill="#E6AD47"/>
<path d="M763.128 235.394C767.994 235.39 772.783 236.493 777.038 238.598H749.25C753.495 236.494 758.271 235.391 763.128 235.394Z" fill="#E6E6E6"/>
<path d="M710.225 231.123C718.074 231.113 725.736 233.725 732.15 238.598H688.332C694.737 233.731 702.385 231.119 710.225 231.123Z" fill="#E6E6E6"/>
<path d="M411.606 187.035C412.571 169.974 419.557 153.81 431.321 141.425C443.086 129.04 458.862 121.239 475.84 119.413C492.813 117.587 509.886 121.855 524.013 131.456C538.139 141.056 548.396 155.366 552.961 171.833C553.831 171.802 554.706 171.766 555.586 171.766C571.15 171.769 586.295 176.816 598.758 186.152C611.217 195.487 620.322 208.61 624.709 223.557C635.023 219.021 646.55 218.037 657.482 220.759C668.416 223.481 678.137 229.754 685.125 238.598H460.393C453.838 238.616 447.346 237.311 441.305 234.759C435.267 232.207 429.802 228.462 425.241 223.747C420.682 219.032 417.119 213.444 414.767 207.319C412.418 201.194 411.322 194.657 411.556 188.099C411.569 187.745 411.587 187.39 411.606 187.035Z" fill="#E6E6E6"/>
<path d="M729.652 514.337C743.644 514.337 754.987 503.009 754.987 489.039C754.987 475.065 743.644 463.737 729.652 463.737C715.663 463.737 704.32 475.065 704.32 489.039C704.32 503.009 715.663 514.337 729.652 514.337Z" fill="#727277"/>
<path d="M729.652 502.352C737.018 502.352 742.985 496.392 742.985 489.039C742.985 481.682 737.018 475.722 729.652 475.722C722.288 475.722 716.318 481.682 716.318 489.039C716.318 496.392 722.288 502.352 729.652 502.352Z" fill="#CCCCCC"/>
<path d="M854.662 514.405C868.651 514.405 879.994 503.079 879.994 489.105C879.994 475.13 868.651 463.804 854.662 463.804C840.67 463.804 829.327 475.13 829.327 489.105C829.327 503.079 840.67 514.405 854.662 514.405Z" fill="#727277"/>
<path opacity="0.3" d="M742.982 419.784L804.267 419.81H811.749L824.377 419.818V418.898L824.387 407.807L824.399 395.351H815.995L808.513 395.343L795.261 395.333H787.78L772.481 395.325L742.982 419.784Z" fill="white"/>
<path d="M854.662 502.42C862.024 502.42 867.995 496.457 867.995 489.105C867.995 481.751 862.024 475.789 854.662 475.789C847.296 475.789 841.329 481.751 841.329 489.105C841.329 496.457 847.296 502.42 854.662 502.42Z" fill="#CCCCCC"/>
<path fill-rule="evenodd" clip-rule="evenodd" d="M689.99 491.297L684.592 490.051L686.244 462.907L686.685 455.625C687.11 449.044 689.506 442.74 693.564 437.537C704.821 423.547 725.535 423.918 725.535 423.918L769.449 388.545L882.956 388.748L892.06 449.307C897.09 451.865 899.304 457.756 900.187 463.685C901.319 471.64 900.217 479.75 896.997 487.112L895.154 491.406L689.99 491.297ZM804.267 419.81L742.982 419.784L772.481 395.325L787.78 395.333H795.261L808.513 395.343L815.994 395.351H824.397L824.387 407.807L824.377 418.898V419.818L811.747 419.81H804.267Z" fill="#173E6D"/>
<path d="M792.686 445.951L796.839 445.952L796.843 438.072L792.689 438.07L792.686 445.951Z" fill="#173E6D"/>
<path d="M839.952 430.988L839.955 426.839L832.066 426.836L832.063 430.983L839.952 430.988Z" fill="#173E6D"/>
<path d="M756.681 428.663H756.223C755.085 428.662 753.957 428.438 752.904 428.001C751.849 427.565 750.892 426.926 750.089 426.12C749.283 425.315 748.644 424.359 748.205 423.307C747.772 422.255 747.548 421.128 747.548 419.99C747.548 418.851 747.775 417.724 748.209 416.673C748.647 415.621 749.289 414.666 750.096 413.862C750.902 413.057 751.857 412.418 752.91 411.984C753.963 411.549 755.092 411.325 756.233 411.325L756.688 411.326L756.681 428.663Z" fill="#173E6D"/>
<path d="M686.245 462.907C689.385 463.245 692.545 462.469 695.168 460.71C697.791 458.956 699.711 456.329 700.586 453.298C701.46 450.265 701.236 447.023 699.953 444.14C698.666 441.256 696.406 438.919 693.565 437.538C689.506 442.74 687.11 449.044 686.685 455.625L686.245 462.907Z" fill="#CCCCCC"/>
<path d="M810.823 411.049C810.823 412.838 810.296 414.589 809.312 416.078C808.327 417.566 806.929 418.726 805.294 419.413C803.657 420.098 801.853 420.276 800.116 419.928C798.378 419.578 796.782 418.715 795.531 417.45C794.277 416.183 793.424 414.569 793.078 412.814C792.733 411.058 792.911 409.237 793.588 407.583C794.267 405.929 795.415 404.515 796.886 403.521C798.362 402.526 800.092 401.994 801.863 401.994C804.233 401.989 806.511 402.934 808.19 404.624C809.868 406.313 810.816 408.608 810.823 411.003C810.823 411.017 810.823 411.032 810.823 411.049Z" fill="#FFB6B6"/>
<path d="M792.937 398.889C793.987 396.607 796.018 397.058 797.792 397.831C800.044 397.328 802.18 395.817 804.605 396.711C806.991 400.219 815.006 399.186 813.302 404.899C813.299 406.267 815.85 405.471 815.405 407.712C816.754 412.026 810.527 420.197 806.952 418.476C807.835 416.838 809.855 413.118 806.792 412.75C800.201 418.947 806.11 400.947 797.828 406.182C795.086 408.718 791.334 401.424 792.937 398.889Z" fill="#2F2E41"/>
<mask id="mask2_269_9201" style="mask-type:luminance" maskUnits="userSpaceOnUse" x="834" y="395" width="33" height="25">
<path d="M866.757 395.361H834.351V419.846H866.757V395.361Z" fill="white"/>
</mask>
<g mask="url(#mask2_269_9201)">
<path d="M834.351 419.828L866.739 419.846L866.746 413.499V402.406L866.755 395.379H862.013L854.531 395.369L834.361 395.361L834.351 419.828Z" fill="#C2CEE7"/>
<path d="M848.109 418.641C853.54 418.641 857.941 414.261 857.941 408.858C857.941 403.454 853.54 399.073 848.109 399.073C842.678 399.073 838.274 403.454 838.274 408.858C838.274 414.261 842.678 418.641 848.109 418.641Z" fill="#A0616A"/>
<path d="M844.423 404.801C843.62 407.039 845.385 409.363 847.767 409.205L847.823 409.201C849.426 411.194 849.471 414.012 847.931 416.054C847.807 418.684 848.219 421.312 849.149 423.779L851.759 430.706L855.782 428.84L857.687 433.907L868.914 428.153L862.111 412.923L860.034 404.662C858.556 398.782 852.53 395.245 846.644 396.801L842.129 397.995C838.56 398.938 836.506 402.653 837.62 406.156L844.423 404.801Z" fill="#2F2E41"/>
</g>
<path d="M413.593 416.855C408.107 416.855 403.662 412.386 403.662 406.872C403.662 401.359 408.107 396.89 413.593 396.89C419.08 396.89 423.526 401.359 423.526 406.872C423.526 412.386 419.08 416.855 413.593 416.855Z" fill="#2F2E41"/>
<path d="M410.882 415.807C407.811 415.807 405.322 413.306 405.322 410.22C405.322 407.134 407.811 404.633 410.882 404.633C413.953 404.633 416.441 407.134 416.441 410.22C416.441 413.306 413.953 415.807 410.882 415.807Z" fill="#A0616A"/>
<path d="M413.992 413.156C413.992 413.156 412.576 416.565 414.746 417.512C416.911 418.458 416.063 424.045 416.063 424.045L407.583 422.247C407.583 422.247 407.583 419.879 409.279 418.837C410.977 417.796 407.018 413.156 407.018 413.156H413.992Z" fill="#A0616A"/>
<path d="M410.892 410.199C407.189 410.199 404.184 408.592 404.184 406.609C404.184 404.626 407.189 403.019 410.892 403.019C414.598 403.019 417.603 404.626 417.603 406.609C417.603 408.592 414.598 410.199 410.892 410.199Z" fill="#2F2E41"/>
<path d="M416.47 412.65C415.94 412.65 415.51 411.985 415.51 411.163C415.51 410.341 415.94 409.674 416.47 409.674C416.996 409.674 417.428 410.341 417.428 411.163C417.428 411.985 416.996 412.65 416.47 412.65Z" fill="#A0616A"/>
<path d="M419.693 401.617C417.096 401.617 414.988 399.5 414.988 396.89C414.988 394.277 417.096 392.161 419.693 392.161C422.29 392.161 424.396 394.277 424.396 396.89C424.396 399.5 422.29 401.617 419.693 401.617Z" fill="#2F2E41"/>
<path d="M339.34 512.364C353.33 512.364 364.673 501.037 364.673 487.066C364.673 473.094 353.33 461.766 339.34 461.766C325.348 461.766 314.005 473.094 314.005 487.066C314.005 501.037 325.348 512.364 339.34 512.364Z" fill="#727277"/>
<path d="M339.34 500.38C346.704 500.38 352.673 494.42 352.673 487.066C352.673 479.711 346.704 473.751 339.34 473.751C331.974 473.751 326.005 479.711 326.005 487.066C326.005 494.42 331.974 500.38 339.34 500.38Z" fill="#CCCCCC"/>
<path d="M464.348 512.434C478.337 512.434 489.68 501.106 489.68 487.132C489.68 473.159 478.337 461.831 464.348 461.831C450.356 461.831 439.013 473.159 439.013 487.132C439.013 501.106 450.356 512.434 464.348 512.434Z" fill="#727277"/>
<path d="M464.348 500.449C471.712 500.449 477.683 494.486 477.683 487.132C477.683 479.779 471.712 473.816 464.348 473.816C456.983 473.816 451.015 479.779 451.015 487.132C451.015 494.486 456.983 500.449 464.348 500.449Z" fill="#CCCCCC"/>
<path fill-rule="evenodd" clip-rule="evenodd" d="M299.676 489.325L294.278 488.08L295.928 460.934L296.373 453.653C296.795 447.072 299.192 440.769 303.251 435.566C314.506 421.574 335.221 421.945 335.221 421.945L379.136 386.572L492.641 386.775L501.746 447.335C506.776 449.892 508.99 455.783 509.873 461.713C511.005 469.667 509.903 477.777 506.683 485.141L504.84 489.433L299.676 489.325ZM413.953 417.837L352.67 417.811L382.167 393.352L397.465 393.362H404.947L418.199 393.372L425.68 393.378H434.083L434.073 405.834L434.063 416.927V417.847L421.435 417.837H413.953Z" fill="#173E6D"/>
<path d="M429.899 443.978L434.053 443.981L434.056 436.101L429.903 436.097L429.899 443.978Z" fill="#173E6D"/>
<path d="M369.272 429.015L369.275 424.868L361.385 424.863L361.381 429.011L369.272 429.015Z" fill="#173E6D"/>
<path d="M366.366 426.69H365.91C364.77 426.69 363.642 426.465 362.589 426.028C361.535 425.592 360.579 424.953 359.772 424.148C358.968 423.343 358.328 422.386 357.893 421.335C357.457 420.283 357.234 419.156 357.234 418.017C357.234 416.879 357.46 415.751 357.897 414.7C358.333 413.649 358.973 412.693 359.779 411.889C360.587 411.085 361.544 410.447 362.597 410.011C363.65 409.576 364.778 409.353 365.918 409.353H366.376L366.366 426.69Z" fill="#173E6D"/>
<path d="M295.928 460.934C299.069 461.272 302.229 460.497 304.852 458.738C307.477 456.983 309.395 454.356 310.27 451.325C311.145 448.292 310.921 445.05 309.637 442.167C308.353 439.285 306.091 436.947 303.251 435.566C299.192 440.769 296.794 447.072 296.373 453.653L295.928 460.934Z" fill="#CCCCCC"/>
<mask id="mask3_269_9201" style="mask-type:luminance" maskUnits="userSpaceOnUse" x="444" y="393" width="33" height="25">
<path d="M476.441 393.388H444.037V417.873H476.441V393.388Z" fill="white"/>
</mask>
<g mask="url(#mask3_269_9201)">
<path d="M444.037 417.857L476.425 417.873L476.431 411.528V400.433L476.441 393.406H471.697L464.215 393.396L444.046 393.388L444.037 417.857Z" fill="#768F67"/>
<path d="M457.793 416.668C463.224 416.668 467.625 412.288 467.625 406.885C467.625 401.481 463.224 397.102 457.793 397.102C452.364 397.102 447.96 401.481 447.96 406.885C447.96 412.288 452.364 416.668 457.793 416.668Z" fill="#FFB6B6"/>
<path d="M454.107 402.83C453.304 405.067 455.069 407.39 457.451 407.233L457.509 407.228C459.111 409.221 459.157 412.039 457.617 414.081C457.492 416.711 457.903 419.341 458.835 421.806L461.445 428.735L465.466 426.868L467.373 431.936L478.6 426.182L471.797 410.952L469.72 402.689C468.241 396.811 462.215 393.272 456.33 394.828L451.814 396.022C448.246 396.965 446.192 400.68 447.304 404.183L454.107 402.83Z" fill="#2F2E41"/>
</g>
<path d="M115.1 532C154.346 532 186.161 500.212 186.161 461C186.161 421.788 154.346 390 115.1 390C75.8534 390 44.0381 421.788 44.0381 461C44.0381 500.212 75.8534 532 115.1 532Z" fill="#EFF1F5"/>
<path d="M112.11 497L70.0605 435.856L94.5136 414.347L114.424 443.298L181.684 363L204.177 387.099L112.11 497Z" fill="#173E6D"/>
<g clip-path="url(#clip1_269_9201)">
<mask id="mask4_269_9201" style="mask-type:luminance" maskUnits="userSpaceOnUse" x="2030" y="382" width="223" height="130">
<path d="M2030 382H2253V512H2030V382Z" fill="white"/>
</mask>
<g mask="url(#mask4_269_9201)">
<path d="M2076.52 511.931C2062.07 511.931 2050.36 500.231 2050.36 485.799C2050.36 471.366 2062.07 459.666 2076.52 459.666C2090.96 459.666 2102.67 471.366 2102.67 485.799C2102.67 500.231 2090.96 511.931 2076.52 511.931Z" fill="#727277"/>
<path d="M2076.52 499.553C2068.91 499.553 2062.75 493.395 2062.75 485.799C2062.75 478.203 2068.91 472.045 2076.52 472.045C2084.12 472.045 2090.28 478.203 2090.28 485.799C2090.28 493.395 2084.12 499.553 2076.52 499.553Z" fill="#CCCCCC"/>
<path d="M2205.56 512C2191.12 512 2179.41 500.3 2179.41 485.867C2179.41 471.435 2191.12 459.735 2205.56 459.735C2220 459.735 2231.71 471.435 2231.71 485.867C2231.71 500.3 2220 512 2205.56 512Z" fill="#727277"/>
<path d="M2205.56 499.621C2197.96 499.621 2191.79 493.464 2191.79 485.867C2191.79 478.271 2197.96 472.113 2205.56 472.113C2213.16 472.113 2219.32 478.271 2219.32 485.867C2219.32 493.464 2213.16 499.621 2205.56 499.621Z" fill="#CCCCCC"/>
<path d="M2225.28 485.885H2252.29V490.169H2225.28V485.885Z" fill="#3F3D56"/>
<path d="M2030 488.576L2035.57 489.885L2247.36 490L2249.26 485.493C2252.58 477.762 2253.72 469.245 2252.55 460.894C2251.64 454.669 2249.36 448.484 2244.17 445.798L2234.77 382.213L2117.6 382L2072.27 419.14C2072.27 419.14 2050.88 418.75 2039.26 433.441C2035.07 438.903 2032.6 445.521 2032.16 452.432L2031.7 460.075L2030 488.576Z" fill="#173E6D"/>
<path d="M2090.27 414.266L2153.54 414.294H2161.26L2174.3 414.303V413.352L2174.31 401.896L2174.32 389.032H2165.64L2157.92 389.021L2144.24 389.012H2136.52L2120.73 389.003L2090.27 414.266Z" fill="white"/>
<path d="M2184.59 414.313L2218.03 414.331L2218.04 407.775V396.318L2218.04 389.059H2213.15L2205.43 389.05L2184.6 389.041L2184.59 414.313Z" fill="white"/>
<path d="M2170 433.156H2174.29V441.296H2170V433.156Z" fill="#173E6D"/>
<path d="M2099.27 425.834L2099.27 421.55L2107.42 421.555L2107.42 425.839L2099.27 425.834Z" fill="#173E6D"/>
<path d="M2104.42 405.528H2103.95C2102.77 405.528 2101.61 405.76 2100.52 406.21C2099.43 406.66 2098.44 407.319 2097.61 408.151C2096.78 408.982 2096.12 409.969 2095.67 411.055C2095.22 412.142 2094.99 413.306 2094.99 414.482C2094.99 416.857 2095.93 419.134 2097.61 420.813C2099.29 422.492 2101.57 423.435 2103.95 423.435H2104.42V405.528Z" fill="#173E6D"/>
<path d="M2031.7 458.807C2034.94 459.159 2038.21 458.357 2040.92 456.541C2043.62 454.726 2045.6 452.013 2046.51 448.882C2047.41 445.751 2047.18 442.401 2045.85 439.424C2044.53 436.446 2042.19 434.032 2039.26 432.605C2035.07 437.979 2032.6 444.489 2032.16 451.288L2031.7 458.807Z" fill="#CCCCCC"/>
<path d="M2157.92 389.021L2174.3 413.352L2174.31 401.896L2165.64 389.032L2157.92 389.021Z" fill="#F2F2F2"/>
<path d="M2205.43 389.05L2218.03 407.775V396.318L2213.15 389.059L2205.43 389.05Z" fill="#F2F2F2"/>
<path d="M2136.52 389.012L2153.54 414.294H2161.26L2144.24 389.012H2136.52Z" fill="#F2F2F2"/>
</g>
</g>
<g clip-path="url(#clip2_269_9201)">
<path d="M1618.06 469.046H1615.5L1614.28 459.061H1618.06V469.046Z" fill="#FFB8B8"/>
<path d="M1618.71 471.555H1610.45V471.45C1610.45 470.588 1610.79 469.762 1611.39 469.153C1611.99 468.544 1612.81 468.202 1613.66 468.201H1618.71V471.555Z" fill="#2F2E41"/>
<path d="M1651.12 464.141L1648.92 465.474L1642.78 457.55L1646.03 455.582L1651.12 464.141Z" fill="#FFB8B8"/>
<path d="M1645.87 470.25L1645.82 470.16C1645.38 469.421 1645.25 468.537 1645.46 467.701C1645.66 466.865 1646.19 466.146 1646.92 465.702L1651.25 463.076L1652.96 465.952L1645.87 470.25Z" fill="#2F2E41"/>
<path d="M1618.73 466.985L1618.68 466.985C1617.43 466.981 1616.19 466.909 1614.95 466.768C1614.48 466.721 1613.96 466.67 1613.35 466.619L1613.33 466.615C1612.9 466.488 1612.89 462.5 1613.07 448.845C1613.16 441.852 1613.27 433.925 1613.14 428.877L1613.14 428.828L1613.18 428.795C1617.75 424.779 1623.63 423.273 1629.72 424.556L1629.76 424.565L1629.78 424.605C1632.3 428.91 1636.11 435.111 1639.79 441.107C1648.23 454.872 1650.65 458.921 1650.38 459.226L1650.35 459.251C1649.78 459.542 1649.34 459.766 1648.97 459.957C1647.74 460.595 1647.23 460.859 1644.49 461.999L1644.42 462.027L1644.37 461.973C1635.8 452.491 1628.67 441.9 1624.26 432.109C1623.75 435.452 1623.12 439.817 1622.46 444.428C1620.56 457.69 1619.27 466.422 1618.76 466.954L1618.73 466.985Z" fill="#2F2E41"/>
<path d="M1632.04 386.538C1632.9 382.94 1633.63 378.881 1632 375.568C1630.87 373.268 1626.69 372.494 1624.3 373.322C1621.91 374.151 1620.17 376.398 1619.41 378.848C1618.65 381.299 1618.74 383.939 1619.07 386.486C1623.48 386.401 1627.88 386.316 1632.04 386.538Z" fill="#2F2E41"/>
<path d="M1624.6 386.537C1627.44 386.537 1629.74 384.215 1629.74 381.351C1629.74 378.487 1627.44 376.165 1624.6 376.165C1621.77 376.165 1619.47 378.487 1619.47 381.351C1619.47 384.215 1621.77 386.537 1624.6 386.537Z" fill="#FFB8B8"/>
<path d="M1630.88 380.282C1630.9 379.41 1630.74 378.542 1630.42 377.732C1630.1 376.922 1629.62 376.186 1629.01 375.567C1628.4 374.948 1627.67 374.459 1626.87 374.129C1626.07 373.799 1625.21 373.635 1624.35 373.646C1623.48 373.658 1622.63 373.845 1621.84 374.196C1621.05 374.547 1620.33 375.055 1619.74 375.69C1619.15 376.325 1618.68 377.074 1618.38 377.893C1618.08 378.711 1617.95 379.582 1617.99 380.454C1622.38 380.464 1626.78 380.473 1630.88 380.282Z" fill="#2F2E41"/>
<path d="M1621.03 429.897C1626.14 429.874 1631.22 430.733 1636.04 432.435C1636.21 424.26 1633.42 416.07 1628.38 409.943L1628.35 409.898L1628.37 409.842C1629.71 405.914 1631.1 401.855 1632.35 397.816L1632.33 397.748C1631.46 394.618 1629.58 391.455 1626.61 388.078C1626.28 387.74 1625.85 387.539 1625.38 387.515C1624.92 387.492 1624.46 387.647 1624.11 387.95C1618.81 392.85 1615.93 400.191 1616.59 407.109L1616.6 407.13L1616.59 407.149C1614.26 415.126 1613.41 419.223 1612.67 422.838C1612.12 425.475 1611.65 427.758 1610.7 431.021C1614.1 430.275 1617.56 429.898 1621.03 429.897Z" fill="#E6AD47"/>
<path opacity="0.1" d="M1628.56 404.681L1620.97 421.357L1616.64 416.928L1628.56 404.681Z" fill="black"/>
<path d="M1611.53 413.944L1612.06 414.981C1612.06 414.991 1612.07 415.002 1612.06 415.012C1612.06 415.023 1612.05 415.031 1612.04 415.036L1612.02 415.049L1614.77 420.455C1614.85 420.605 1614.86 420.779 1614.81 420.939C1614.76 421.099 1614.65 421.232 1614.5 421.309L1611.16 423.048C1611.08 423.086 1611 423.109 1610.92 423.116C1610.84 423.123 1610.76 423.113 1610.68 423.088C1610.6 423.062 1610.53 423.021 1610.46 422.968C1610.4 422.914 1610.35 422.848 1610.31 422.774L1607.65 417.558L1607.63 417.567C1607.63 417.571 1607.62 417.572 1607.61 417.569C1607.6 417.567 1607.6 417.562 1607.59 417.555L1607.29 416.965C1607.29 416.961 1607.29 416.958 1607.29 416.954C1607.29 416.95 1607.29 416.946 1607.29 416.943C1607.29 416.939 1607.29 416.936 1607.3 416.933C1607.3 416.93 1607.3 416.928 1607.31 416.926L1607.32 416.916L1607.21 416.694L1607.19 416.703C1607.18 416.707 1607.18 416.708 1607.17 416.705C1607.16 416.703 1607.16 416.697 1607.15 416.69L1606.85 416.108C1606.85 416.101 1606.85 416.093 1606.85 416.085C1606.86 416.077 1606.86 416.071 1606.87 416.067L1606.89 416.058L1606.73 415.754L1606.71 415.764C1606.71 415.767 1606.7 415.768 1606.69 415.766C1606.69 415.763 1606.68 415.759 1606.68 415.753L1606.52 415.435C1606.51 415.428 1606.51 415.421 1606.51 415.414C1606.52 415.407 1606.52 415.402 1606.53 415.398L1606.55 415.389L1606.22 414.745C1606.14 414.595 1606.13 414.421 1606.18 414.261C1606.23 414.101 1606.34 413.968 1606.49 413.891L1609.83 412.153C1609.98 412.076 1610.15 412.061 1610.31 412.112C1610.47 412.164 1610.6 412.277 1610.68 412.426L1611.45 413.939L1611.48 413.926C1611.49 413.921 1611.5 413.92 1611.51 413.924C1611.52 413.927 1611.53 413.934 1611.53 413.944Z" fill="#3F3D56"/>
<path d="M1610.47 412.677L1614.53 420.641C1614.58 420.736 1614.59 420.846 1614.55 420.948C1614.52 421.049 1614.45 421.134 1614.36 421.183L1611.15 422.847C1611.06 422.896 1610.95 422.905 1610.85 422.873C1610.75 422.84 1610.67 422.769 1610.62 422.674L1610.62 422.673L1606.56 414.709C1606.53 414.662 1606.52 414.611 1606.52 414.558C1606.51 414.505 1606.52 414.452 1606.53 414.402C1606.55 414.352 1606.57 414.305 1606.61 414.265C1606.64 414.224 1606.68 414.191 1606.73 414.167L1607.21 413.918L1607.24 413.98C1607.26 414.019 1607.29 414.053 1607.32 414.081C1607.35 414.109 1607.39 414.131 1607.43 414.144C1607.47 414.157 1607.52 414.162 1607.56 414.159C1607.6 414.155 1607.64 414.143 1607.68 414.123L1609.31 413.277C1609.39 413.237 1609.45 413.167 1609.47 413.083C1609.5 413 1609.49 412.909 1609.45 412.831L1609.42 412.768L1609.93 412.503C1610.03 412.454 1610.14 412.445 1610.24 412.478C1610.34 412.51 1610.42 412.582 1610.47 412.677Z" fill="white"/>
<path d="M1611.65 422.406C1611.95 422.385 1612.25 422.296 1612.52 422.145C1612.79 421.995 1613.02 421.786 1613.2 421.535C1613.38 421.284 1613.51 420.996 1613.56 420.691C1613.62 420.386 1613.61 420.072 1613.54 419.771L1619.79 415.636L1616.22 414.081L1610.84 418.246C1610.34 418.407 1609.93 418.744 1609.66 419.194C1609.4 419.645 1609.31 420.177 1609.41 420.689C1609.51 421.202 1609.79 421.66 1610.2 421.977C1610.62 422.293 1611.13 422.446 1611.65 422.406Z" fill="#FFB8B8"/>
<path d="M1617.66 419.427L1617.58 419.371C1616.09 418.266 1614.44 417.122 1612.84 416.017L1612.75 415.95L1612.82 415.861C1616.23 411.834 1619.65 407.628 1622.95 403.559C1622.94 403.552 1622.94 403.548 1622.94 403.544L1622.97 403.528L1622.98 403.512L1622.99 403.518L1623.01 403.508L1622.92 403.515L1621.9 395.459C1620.98 394.193 1620.81 391.68 1622.01 389.926C1623.26 388.109 1625.9 387.501 1627.66 388.624C1628.12 388.937 1628.51 389.35 1628.79 389.834C1629.07 390.318 1629.24 390.859 1629.29 391.418C1629.35 391.916 1629.31 392.423 1629.15 392.901C1629 393.379 1628.74 393.817 1628.4 394.181C1628.83 398.445 1628.85 402.255 1628.87 405.941L1628.87 405.978L1628.84 406.008C1625.33 410.522 1621.46 415.012 1617.72 419.354L1617.66 419.427Z" fill="#E6AD47"/>
</g>
<path fill-rule="evenodd" clip-rule="evenodd" d="M1627.59 361.848C1632.11 353.732 1640 338.853 1640 333.807C1640 326.734 1633.06 321 1624.5 321C1615.94 321 1609 326.734 1609 333.807C1609 338.853 1616.89 353.732 1621.41 361.848C1621.72 362.399 1622.16 362.859 1622.71 363.178C1623.25 363.497 1623.87 363.665 1624.5 363.665C1625.13 363.665 1625.75 363.497 1626.29 363.178C1626.84 362.859 1627.28 362.399 1627.59 361.848ZM1633.01 335.395C1633.01 340.056 1629.23 343.835 1624.57 343.835C1619.91 343.835 1616.13 340.056 1616.13 335.395C1616.13 330.733 1619.91 326.953 1624.57 326.953C1629.23 326.953 1633.01 330.733 1633.01 335.395Z" fill="#173E6D"/>
<path d="M1510.18 263.03V280.502H1487.46V471.04H1534.87V287.754V280.502V263.03H1510.18Z" fill="#575A89"/>
<path d="M1385.08 380.386V350.388H1356.11V380.386H1345.25V471.37H1395.62V380.386H1385.08Z" fill="#575A89"/>
<path d="M1390.02 429.174H1350.85V471.7H1390.02V429.174Z" fill="#3F3D56"/>
<path opacity="0.1" d="M1357.1 429.174H1350.85V471.7H1357.1V429.174Z" fill="black"/>
<path d="M1470.67 253.47V263.69H1412.73V253.47H1395.62V471.7H1487.46V253.47H1470.67Z" fill="#3F3D56"/>
<path opacity="0.1" d="M1483.51 253.471H1470.67V263.69H1483.51V253.471Z" fill="black"/>
<path opacity="0.1" d="M1408.46 253.471H1395.62V471.7H1408.46V253.471Z" fill="black"/>
<path d="M1330.11 315.775V307.533H1321.55V315.775H1306.08V471.7H1345.25V315.775H1330.11Z" fill="#3F3D56"/>
<path opacity="0.1" d="M1326.16 307.533H1321.55V315.775H1326.16V307.533Z" fill="black"/>
<path opacity="0.1" d="M1310.69 315.775H1306.08V471.7H1310.69V315.775Z" fill="black"/>
<path opacity="0.1" d="M1483.51 337.532H1470.67V471.7H1483.51V337.532Z" fill="black"/>
<path opacity="0.1" d="M1345.25 315.775H1333.4V344.454H1345.25V315.775Z" fill="black"/>
<path d="M1428.21 281.161H1409.77V289.073H1428.21V281.161Z" fill="#C0C0C0"/>
<path d="M1467.38 362.585H1448.95V370.497H1467.38V362.585Z" fill="#C0C0C0"/>
<path d="M1428.21 419.614H1409.77V427.526H1428.21V419.614Z" fill="#C0C0C0"/>
<path d="M1335.05 351.377H1316.61V359.289H1335.05V351.377Z" fill="#C0C0C0"/>
<path d="M1379.82 433.79H1361.38V441.702H1379.82V433.79Z" fill="#C0C0C0"/>
<path opacity="0.1" d="M1386.4 387.309H1354.8V400.494H1386.4V387.309Z" fill="black"/>
<path opacity="0.1" d="M1524.66 295.666H1493.06V308.852H1524.66V295.666Z" fill="black"/>
<path opacity="0.1" d="M1524.66 323.686H1493.06V336.872H1524.66V323.686Z" fill="black"/>
<path opacity="0.1" d="M1524.66 351.707H1493.06V364.893H1524.66V351.707Z" fill="black"/>
<path opacity="0.1" d="M1524.66 379.727H1493.06V392.913H1524.66V379.727Z" fill="black"/>
<path opacity="0.1" d="M1524.66 407.748H1493.06V420.933H1524.66V407.748Z" fill="black"/>
<path opacity="0.1" d="M1524.66 435.767H1493.06V448.954H1524.66V435.767Z" fill="black"/>
<path d="M1545.73 355.333V319.401H1522.69V355.333H1514.46V471.7H1553.63V355.333H1545.73Z" fill="#3F3D56"/>
<path opacity="0.1" d="M1529.93 319.401H1522.69V355.333H1529.93V319.401Z" fill="black"/>
<path opacity="0.1" d="M1521.7 355.333H1514.46V471.7H1521.7V355.333Z" fill="black"/>
<path opacity="0.1" d="M1553.63 413.681H1534.21V425.219H1553.63V413.681Z" fill="black"/>
<path d="M1553.3 396.539H1534.87V404.45H1553.3V396.539Z" fill="#C0C0C0"/>
<path d="M1581.7 422.625C1581.7 444.183 1568.98 451.71 1553.29 451.71C1537.6 451.71 1524.88 444.183 1524.88 422.625C1524.88 401.069 1553.29 373.645 1553.29 373.645C1553.29 373.645 1581.7 401.069 1581.7 422.625Z" fill="#4F7962"/>
<path d="M1552.36 448.301L1552.65 430.287L1564.83 408L1552.69 427.46L1552.83 419.361L1561.22 403.237L1552.86 417.217L1553.1 402.649L1562.09 389.812L1553.13 400.358L1553.28 373.645L1552.35 409.008L1552.43 407.55L1543.29 393.558L1552.28 410.35L1551.43 426.621L1551.4 426.188L1540.86 411.465L1551.37 427.714L1551.27 429.748L1551.25 429.779L1551.26 429.946L1549.09 471.226H1551.98L1552.33 449.904L1562.81 433.694L1552.36 448.301Z" fill="#3F3D56"/>
<path d="M1328.68 422.626C1328.68 444.183 1315.96 451.71 1300.27 451.71C1284.58 451.71 1271.86 444.183 1271.86 422.626C1271.86 401.069 1300.27 373.645 1300.27 373.645C1300.27 373.645 1328.68 401.069 1328.68 422.626Z" fill="#4F7962"/>
<path d="M1299.33 448.302L1299.62 430.287L1311.81 408.001L1299.67 427.461L1299.8 419.361L1308.2 403.237L1299.84 417.217L1300.07 402.649L1309.07 389.812L1300.11 400.358L1300.26 373.645L1299.33 409.009L1299.4 407.55L1290.26 393.558L1299.26 410.35L1298.41 426.62L1298.38 426.189L1287.84 411.465L1298.35 427.714L1298.24 429.749L1298.22 429.78L1298.23 429.947L1296.07 471.226H1298.96L1299.3 449.904L1309.79 433.695L1299.33 448.302Z" fill="#3F3D56"/>
<path d="M137.867 187.683C175.348 187.683 205.731 157.085 205.731 119.341C205.731 81.5976 175.348 51 137.867 51C100.384 51 70 81.5976 70 119.341C70 157.085 100.384 187.683 137.867 187.683Z" fill="#E6AD47"/>
<path d="M800.908 134L781.58 89.2H792.78L809.676 128.88H803.084L820.236 89.2H830.54L811.148 134H800.908ZM834.139 134V99.568H844.123V134H834.139ZM839.131 94.768C837.297 94.768 835.803 94.2347 834.651 93.168C833.499 92.1013 832.923 90.7787 832.923 89.2C832.923 87.6213 833.499 86.2987 834.651 85.232C835.803 84.1653 837.297 83.632 839.131 83.632C840.966 83.632 842.459 84.144 843.611 85.168C844.763 86.1493 845.339 87.4293 845.339 89.008C845.339 90.672 844.763 92.0587 843.611 93.168C842.502 94.2347 841.009 94.768 839.131 94.768ZM874.509 134V127.28L873.869 125.808V113.776C873.869 111.643 873.208 109.979 871.885 108.784C870.605 107.589 868.621 106.992 865.933 106.992C864.099 106.992 862.285 107.291 860.493 107.888C858.744 108.443 857.251 109.211 856.013 110.192L852.429 103.216C854.307 101.893 856.568 100.869 859.213 100.144C861.859 99.4187 864.547 99.056 867.277 99.056C872.525 99.056 876.6 100.293 879.501 102.768C882.403 105.243 883.853 109.104 883.853 114.352V134H874.509ZM864.013 134.512C861.325 134.512 859.021 134.064 857.101 133.168C855.181 132.229 853.709 130.971 852.685 129.392C851.661 127.813 851.149 126.043 851.149 124.08C851.149 122.032 851.64 120.24 852.621 118.704C853.645 117.168 855.245 115.973 857.421 115.12C859.597 114.224 862.435 113.776 865.933 113.776H875.085V119.6H867.021C864.675 119.6 863.053 119.984 862.157 120.752C861.304 121.52 860.877 122.48 860.877 123.632C860.877 124.912 861.368 125.936 862.349 126.704C863.373 127.429 864.76 127.792 866.509 127.792C868.173 127.792 869.667 127.408 870.989 126.64C872.312 125.829 873.272 124.656 873.869 123.12L875.405 127.728C874.68 129.947 873.357 131.632 871.437 132.784C869.517 133.936 867.043 134.512 864.013 134.512ZM909.331 146.928C906.089 146.928 902.953 146.523 899.923 145.712C896.937 144.944 894.441 143.771 892.435 142.192L896.403 135.024C897.854 136.219 899.689 137.157 901.907 137.84C904.169 138.565 906.387 138.928 908.563 138.928C912.105 138.928 914.665 138.139 916.243 136.56C917.865 134.981 918.675 132.635 918.675 129.52V124.336L919.315 115.696L919.187 106.992V99.568H928.659V128.24C928.659 134.64 926.995 139.355 923.667 142.384C920.339 145.413 915.561 146.928 909.331 146.928ZM907.795 132.336C904.595 132.336 901.694 131.653 899.091 130.288C896.531 128.88 894.462 126.939 892.883 124.464C891.347 121.947 890.579 119.024 890.579 115.696C890.579 112.325 891.347 109.403 892.883 106.928C894.462 104.411 896.531 102.469 899.091 101.104C901.694 99.7387 904.595 99.056 907.795 99.056C910.697 99.056 913.257 99.6533 915.475 100.848C917.694 102 919.422 103.813 920.659 106.288C921.897 108.72 922.515 111.856 922.515 115.696C922.515 119.493 921.897 122.629 920.659 125.104C919.422 127.536 917.694 129.349 915.475 130.544C913.257 131.739 910.697 132.336 907.795 132.336ZM909.779 124.144C911.529 124.144 913.086 123.803 914.451 123.12C915.817 122.395 916.883 121.392 917.651 120.112C918.419 118.832 918.803 117.36 918.803 115.696C918.803 113.989 918.419 112.517 917.651 111.28C916.883 110 915.817 109.019 914.451 108.336C913.086 107.611 911.529 107.248 909.779 107.248C908.03 107.248 906.473 107.611 905.107 108.336C903.742 109.019 902.654 110 901.843 111.28C901.075 112.517 900.691 113.989 900.691 115.696C900.691 117.36 901.075 118.832 901.843 120.112C902.654 121.392 903.742 122.395 905.107 123.12C906.473 123.803 908.03 124.144 909.779 124.144ZM955.04 134.512C951.114 134.512 947.658 133.744 944.672 132.208C941.728 130.672 939.445 128.581 937.824 125.936C936.202 123.248 935.392 120.197 935.392 116.784C935.392 113.328 936.181 110.277 937.76 107.632C939.381 104.944 941.578 102.853 944.352 101.36C947.125 99.824 950.261 99.056 953.76 99.056C957.13 99.056 960.16 99.7813 962.848 101.232C965.578 102.64 967.733 104.688 969.312 107.376C970.89 110.021 971.68 113.2 971.68 116.912C971.68 117.296 971.658 117.744 971.616 118.256C971.573 118.725 971.53 119.173 971.488 119.6H943.52V113.776H966.24L962.4 115.504C962.4 113.712 962.037 112.155 961.312 110.832C960.586 109.509 959.584 108.485 958.304 107.76C957.024 106.992 955.53 106.608 953.824 106.608C952.117 106.608 950.602 106.992 949.28 107.76C948 108.485 946.997 109.531 946.272 110.896C945.546 112.219 945.184 113.797 945.184 115.632V117.168C945.184 119.045 945.589 120.709 946.4 122.16C947.253 123.568 948.426 124.656 949.92 125.424C951.456 126.149 953.248 126.512 955.296 126.512C957.13 126.512 958.73 126.235 960.096 125.68C961.504 125.125 962.784 124.293 963.936 123.184L969.248 128.944C967.669 130.736 965.685 132.123 963.296 133.104C960.906 134.043 958.154 134.512 955.04 134.512ZM999.255 99.056C1001.99 99.056 1004.42 99.6107 1006.55 100.72C1008.73 101.787 1010.43 103.451 1011.67 105.712C1012.91 107.931 1013.53 110.789 1013.53 114.288V134H1003.54V115.824C1003.54 113.051 1002.92 111.003 1001.69 109.68C1000.49 108.357 998.785 107.696 996.567 107.696C994.988 107.696 993.559 108.037 992.279 108.72C991.041 109.36 990.06 110.363 989.335 111.728C988.652 113.093 988.311 114.843 988.311 116.976V134H978.327V99.568H987.863V109.104L986.071 106.224C987.308 103.92 989.079 102.149 991.383 100.912C993.687 99.6747 996.311 99.056 999.255 99.056ZM1034.16 134.512C1031.22 134.512 1028.38 134.171 1025.65 133.488C1022.96 132.763 1020.83 131.867 1019.25 130.8L1022.58 123.632C1024.16 124.613 1026.01 125.424 1028.14 126.064C1030.32 126.661 1032.45 126.96 1034.54 126.96C1036.85 126.96 1038.47 126.683 1039.41 126.128C1040.39 125.573 1040.88 124.805 1040.88 123.824C1040.88 123.013 1040.5 122.416 1039.73 122.032C1039 121.605 1038.02 121.285 1036.78 121.072C1035.55 120.859 1034.18 120.645 1032.69 120.432C1031.24 120.219 1029.77 119.941 1028.27 119.6C1026.78 119.216 1025.41 118.661 1024.18 117.936C1022.94 117.211 1021.94 116.229 1021.17 114.992C1020.44 113.755 1020.08 112.155 1020.08 110.192C1020.08 108.016 1020.7 106.096 1021.94 104.432C1023.22 102.768 1025.05 101.467 1027.44 100.528C1029.83 99.5467 1032.69 99.056 1036.02 99.056C1038.36 99.056 1040.75 99.312 1043.18 99.824C1045.62 100.336 1047.64 101.083 1049.26 102.064L1045.94 109.168C1044.27 108.187 1042.59 107.525 1040.88 107.184C1039.22 106.8 1037.6 106.608 1036.02 106.608C1033.8 106.608 1032.18 106.907 1031.15 107.504C1030.13 108.101 1029.62 108.869 1029.62 109.808C1029.62 110.661 1029.98 111.301 1030.7 111.728C1031.47 112.155 1032.48 112.496 1033.71 112.752C1034.95 113.008 1036.29 113.243 1037.74 113.456C1039.24 113.627 1040.73 113.904 1042.22 114.288C1043.72 114.672 1045.06 115.227 1046.26 115.952C1047.49 116.635 1048.5 117.595 1049.26 118.832C1050.03 120.027 1050.42 121.605 1050.42 123.568C1050.42 125.701 1049.78 127.6 1048.5 129.264C1047.22 130.885 1045.36 132.165 1042.93 133.104C1040.54 134.043 1037.62 134.512 1034.16 134.512ZM1086.29 134.512C1083.34 134.512 1080.5 134.171 1077.77 133.488C1075.09 132.763 1072.95 131.867 1071.37 130.8L1074.7 123.632C1076.28 124.613 1078.14 125.424 1080.27 126.064C1082.45 126.661 1084.58 126.96 1086.67 126.96C1088.97 126.96 1090.6 126.683 1091.53 126.128C1092.52 125.573 1093.01 124.805 1093.01 123.824C1093.01 123.013 1092.62 122.416 1091.85 122.032C1091.13 121.605 1090.15 121.285 1088.91 121.072C1087.67 120.859 1086.31 120.645 1084.81 120.432C1083.36 120.219 1081.89 119.941 1080.4 119.6C1078.9 119.216 1077.54 118.661 1076.3 117.936C1075.06 117.211 1074.06 116.229 1073.29 114.992C1072.57 113.755 1072.21 112.155 1072.21 110.192C1072.21 108.016 1072.82 106.096 1074.06 104.432C1075.34 102.768 1077.18 101.467 1079.57 100.528C1081.96 99.5467 1084.81 99.056 1088.14 99.056C1090.49 99.056 1092.88 99.312 1095.31 99.824C1097.74 100.336 1099.77 101.083 1101.39 102.064L1098.06 109.168C1096.4 108.187 1094.71 107.525 1093.01 107.184C1091.34 106.8 1089.72 106.608 1088.14 106.608C1085.92 106.608 1084.3 106.907 1083.28 107.504C1082.25 108.101 1081.74 108.869 1081.74 109.808C1081.74 110.661 1082.1 111.301 1082.83 111.728C1083.6 112.155 1084.6 112.496 1085.84 112.752C1087.08 113.008 1088.42 113.243 1089.87 113.456C1091.36 113.627 1092.86 113.904 1094.35 114.288C1095.84 114.672 1097.19 115.227 1098.38 115.952C1099.62 116.635 1100.62 117.595 1101.39 118.832C1102.16 120.027 1102.54 121.605 1102.54 123.568C1102.54 125.701 1101.9 127.6 1100.62 129.264C1099.34 130.885 1097.49 132.165 1095.05 133.104C1092.66 134.043 1089.74 134.512 1086.29 134.512ZM1125.79 134.512C1121.86 134.512 1118.41 133.744 1115.42 132.208C1112.48 130.672 1110.2 128.581 1108.57 125.936C1106.95 123.248 1106.14 120.197 1106.14 116.784C1106.14 113.328 1106.93 110.277 1108.51 107.632C1110.13 104.944 1112.33 102.853 1115.1 101.36C1117.88 99.824 1121.01 99.056 1124.51 99.056C1127.88 99.056 1130.91 99.7813 1133.6 101.232C1136.33 102.64 1138.48 104.688 1140.06 107.376C1141.64 110.021 1142.43 113.2 1142.43 116.912C1142.43 117.296 1142.41 117.744 1142.37 118.256C1142.32 118.725 1142.28 119.173 1142.24 119.6H1114.27V113.776H1136.99L1133.15 115.504C1133.15 113.712 1132.79 112.155 1132.06 110.832C1131.34 109.509 1130.33 108.485 1129.05 107.76C1127.77 106.992 1126.28 106.608 1124.57 106.608C1122.87 106.608 1121.35 106.992 1120.03 107.76C1118.75 108.485 1117.75 109.531 1117.02 110.896C1116.3 112.219 1115.93 113.797 1115.93 115.632V117.168C1115.93 119.045 1116.34 120.709 1117.15 122.16C1118 123.568 1119.18 124.656 1120.67 125.424C1122.21 126.149 1124 126.512 1126.05 126.512C1127.88 126.512 1129.48 126.235 1130.85 125.68C1132.25 125.125 1133.53 124.293 1134.69 123.184L1140 128.944C1138.42 130.736 1136.44 132.123 1134.05 133.104C1131.66 134.043 1128.9 134.512 1125.79 134.512ZM1165.27 146.928C1162.03 146.928 1158.89 146.523 1155.86 145.712C1152.87 144.944 1150.38 143.771 1148.37 142.192L1152.34 135.024C1153.79 136.219 1155.63 137.157 1157.84 137.84C1160.11 138.565 1162.32 138.928 1164.5 138.928C1168.04 138.928 1170.6 138.139 1172.18 136.56C1173.8 134.981 1174.61 132.635 1174.61 129.52V124.336L1175.25 115.696L1175.12 106.992V99.568H1184.6V128.24C1184.6 134.64 1182.93 139.355 1179.6 142.384C1176.28 145.413 1171.5 146.928 1165.27 146.928ZM1163.73 132.336C1160.53 132.336 1157.63 131.653 1155.03 130.288C1152.47 128.88 1150.4 126.939 1148.82 124.464C1147.28 121.947 1146.52 119.024 1146.52 115.696C1146.52 112.325 1147.28 109.403 1148.82 106.928C1150.4 104.411 1152.47 102.469 1155.03 101.104C1157.63 99.7387 1160.53 99.056 1163.73 99.056C1166.63 99.056 1169.19 99.6533 1171.41 100.848C1173.63 102 1175.36 103.813 1176.6 106.288C1177.83 108.72 1178.45 111.856 1178.45 115.696C1178.45 119.493 1177.83 122.629 1176.6 125.104C1175.36 127.536 1173.63 129.349 1171.41 130.544C1169.19 131.739 1166.63 132.336 1163.73 132.336ZM1165.72 124.144C1167.47 124.144 1169.02 123.803 1170.39 123.12C1171.75 122.395 1172.82 121.392 1173.59 120.112C1174.36 118.832 1174.74 117.36 1174.74 115.696C1174.74 113.989 1174.36 112.517 1173.59 111.28C1172.82 110 1171.75 109.019 1170.39 108.336C1169.02 107.611 1167.47 107.248 1165.72 107.248C1163.97 107.248 1162.41 107.611 1161.04 108.336C1159.68 109.019 1158.59 110 1157.78 111.28C1157.01 112.517 1156.63 113.989 1156.63 115.696C1156.63 117.36 1157.01 118.832 1157.78 120.112C1158.59 121.392 1159.68 122.395 1161.04 123.12C1162.41 123.803 1163.97 124.144 1165.72 124.144ZM1208.42 134.512C1205.56 134.512 1203 133.957 1200.74 132.848C1198.52 131.739 1196.79 130.053 1195.55 127.792C1194.32 125.488 1193.7 122.565 1193.7 119.024V99.568H1203.68V117.552C1203.68 120.411 1204.28 122.523 1205.47 123.888C1206.71 125.211 1208.44 125.872 1210.66 125.872C1212.19 125.872 1213.56 125.552 1214.75 124.912C1215.95 124.229 1216.89 123.205 1217.57 121.84C1218.25 120.432 1218.59 118.683 1218.59 116.592V99.568H1228.58V134H1219.11V124.528L1220.83 127.28C1219.68 129.669 1217.97 131.483 1215.71 132.72C1213.49 133.915 1211.06 134.512 1208.42 134.512ZM1237.83 134V99.568H1247.36V109.296L1246.02 106.48C1247.04 104.048 1248.69 102.213 1250.95 100.976C1253.21 99.696 1255.96 99.056 1259.2 99.056V108.272C1258.78 108.229 1258.39 108.208 1258.05 108.208C1257.71 108.165 1257.35 108.144 1256.96 108.144C1254.23 108.144 1252.01 108.933 1250.31 110.512C1248.64 112.048 1247.81 114.459 1247.81 117.744V134H1237.83ZM1284.01 134V127.28L1283.37 125.808V113.776C1283.37 111.643 1282.71 109.979 1281.39 108.784C1280.11 107.589 1278.12 106.992 1275.43 106.992C1273.6 106.992 1271.79 107.291 1269.99 107.888C1268.24 108.443 1266.75 109.211 1265.51 110.192L1261.93 103.216C1263.81 101.893 1266.07 100.869 1268.71 100.144C1271.36 99.4187 1274.05 99.056 1276.78 99.056C1282.03 99.056 1286.1 100.293 1289 102.768C1291.9 105.243 1293.35 109.104 1293.35 114.352V134H1284.01ZM1273.51 134.512C1270.83 134.512 1268.52 134.064 1266.6 133.168C1264.68 132.229 1263.21 130.971 1262.19 129.392C1261.16 127.813 1260.65 126.043 1260.65 124.08C1260.65 122.032 1261.14 120.24 1262.12 118.704C1263.15 117.168 1264.75 115.973 1266.92 115.12C1269.1 114.224 1271.93 113.776 1275.43 113.776H1284.59V119.6H1276.52C1274.17 119.6 1272.55 119.984 1271.66 120.752C1270.8 121.52 1270.38 122.48 1270.38 123.632C1270.38 124.912 1270.87 125.936 1271.85 126.704C1272.87 127.429 1274.26 127.792 1276.01 127.792C1277.67 127.792 1279.17 127.408 1280.49 126.64C1281.81 125.829 1282.77 124.656 1283.37 123.12L1284.91 127.728C1284.18 129.947 1282.86 131.632 1280.94 132.784C1279.02 133.936 1276.54 134.512 1273.51 134.512ZM1313.97 134.512C1311.03 134.512 1308.19 134.171 1305.46 133.488C1302.77 132.763 1300.64 131.867 1299.06 130.8L1302.39 123.632C1303.97 124.613 1305.82 125.424 1307.96 126.064C1310.13 126.661 1312.27 126.96 1314.36 126.96C1316.66 126.96 1318.28 126.683 1319.22 126.128C1320.2 125.573 1320.69 124.805 1320.69 123.824C1320.69 123.013 1320.31 122.416 1319.54 122.032C1318.82 121.605 1317.83 121.285 1316.6 121.072C1315.36 120.859 1313.99 120.645 1312.5 120.432C1311.05 120.219 1309.58 119.941 1308.09 119.6C1306.59 119.216 1305.23 118.661 1303.99 117.936C1302.75 117.211 1301.75 116.229 1300.98 114.992C1300.26 113.755 1299.89 112.155 1299.89 110.192C1299.89 108.016 1300.51 106.096 1301.75 104.432C1303.03 102.768 1304.86 101.467 1307.25 100.528C1309.64 99.5467 1312.5 99.056 1315.83 99.056C1318.18 99.056 1320.57 99.312 1323 99.824C1325.43 100.336 1327.46 101.083 1329.08 102.064L1325.75 109.168C1324.09 108.187 1322.4 107.525 1320.69 107.184C1319.03 106.8 1317.41 106.608 1315.83 106.608C1313.61 106.608 1311.99 106.907 1310.97 107.504C1309.94 108.101 1309.43 108.869 1309.43 109.808C1309.43 110.661 1309.79 111.301 1310.52 111.728C1311.29 112.155 1312.29 112.496 1313.53 112.752C1314.76 113.008 1316.11 113.243 1317.56 113.456C1319.05 113.627 1320.54 113.904 1322.04 114.288C1323.53 114.672 1324.87 115.227 1326.07 115.952C1327.31 116.635 1328.31 117.595 1329.08 118.832C1329.85 120.027 1330.23 121.605 1330.23 123.568C1330.23 125.701 1329.59 127.6 1328.31 129.264C1327.03 130.885 1325.17 132.165 1322.74 133.104C1320.35 134.043 1317.43 134.512 1313.97 134.512ZM1371.6 134.512C1367.68 134.512 1364.22 133.744 1361.23 132.208C1358.29 130.672 1356.01 128.581 1354.39 125.936C1352.76 123.248 1351.95 120.197 1351.95 116.784C1351.95 113.328 1352.74 110.277 1354.32 107.632C1355.94 104.944 1358.14 102.853 1360.91 101.36C1363.69 99.824 1366.82 99.056 1370.32 99.056C1373.69 99.056 1376.72 99.7813 1379.41 101.232C1382.14 102.64 1384.3 104.688 1385.87 107.376C1387.45 110.021 1388.24 113.2 1388.24 116.912C1388.24 117.296 1388.22 117.744 1388.18 118.256C1388.14 118.725 1388.09 119.173 1388.05 119.6H1360.08V113.776H1382.8L1378.96 115.504C1378.96 113.712 1378.6 112.155 1377.87 110.832C1377.15 109.509 1376.15 108.485 1374.87 107.76C1373.59 106.992 1372.09 106.608 1370.39 106.608C1368.68 106.608 1367.16 106.992 1365.84 107.76C1364.56 108.485 1363.56 109.531 1362.83 110.896C1362.11 112.219 1361.75 113.797 1361.75 115.632V117.168C1361.75 119.045 1362.15 120.709 1362.96 122.16C1363.82 123.568 1364.99 124.656 1366.48 125.424C1368.02 126.149 1369.81 126.512 1371.86 126.512C1373.69 126.512 1375.29 126.235 1376.66 125.68C1378.07 125.125 1379.35 124.293 1380.5 123.184L1385.81 128.944C1384.23 130.736 1382.25 132.123 1379.86 133.104C1377.47 134.043 1374.72 134.512 1371.6 134.512ZM1429.65 134.512C1425.94 134.512 1422.64 133.765 1419.73 132.272C1416.83 130.736 1414.55 128.624 1412.89 125.936C1411.26 123.248 1410.45 120.197 1410.45 116.784C1410.45 113.328 1411.26 110.277 1412.89 107.632C1414.55 104.944 1416.83 102.853 1419.73 101.36C1422.64 99.824 1425.94 99.056 1429.65 99.056C1433.28 99.056 1436.44 99.824 1439.13 101.36C1441.81 102.853 1443.8 105.008 1445.08 107.824L1437.33 111.984C1436.44 110.363 1435.31 109.168 1433.94 108.4C1432.62 107.632 1431.17 107.248 1429.59 107.248C1427.88 107.248 1426.35 107.632 1424.98 108.4C1423.62 109.168 1422.53 110.256 1421.72 111.664C1420.95 113.072 1420.57 114.779 1420.57 116.784C1420.57 118.789 1420.95 120.496 1421.72 121.904C1422.53 123.312 1423.62 124.4 1424.98 125.168C1426.35 125.936 1427.88 126.32 1429.59 126.32C1431.17 126.32 1432.62 125.957 1433.94 125.232C1435.31 124.464 1436.44 123.248 1437.33 121.584L1445.08 125.808C1443.8 128.581 1441.81 130.736 1439.13 132.272C1436.44 133.765 1433.28 134.512 1429.65 134.512ZM1466.77 134.512C1463.1 134.512 1459.84 133.744 1456.98 132.208C1454.17 130.672 1451.93 128.581 1450.26 125.936C1448.64 123.248 1447.83 120.197 1447.83 116.784C1447.83 113.328 1448.64 110.277 1450.26 107.632C1451.93 104.944 1454.17 102.853 1456.98 101.36C1459.84 99.824 1463.1 99.056 1466.77 99.056C1470.4 99.056 1473.64 99.824 1476.5 101.36C1479.36 102.853 1481.6 104.923 1483.22 107.568C1484.84 110.213 1485.65 113.285 1485.65 116.784C1485.65 120.197 1484.84 123.248 1483.22 125.936C1481.6 128.581 1479.36 130.672 1476.5 132.208C1473.64 133.744 1470.4 134.512 1466.77 134.512ZM1466.77 126.32C1468.44 126.32 1469.93 125.936 1471.25 125.168C1472.58 124.4 1473.62 123.312 1474.39 121.904C1475.16 120.453 1475.54 118.747 1475.54 116.784C1475.54 114.779 1475.16 113.072 1474.39 111.664C1473.62 110.256 1472.58 109.168 1471.25 108.4C1469.93 107.632 1468.44 107.248 1466.77 107.248C1465.11 107.248 1463.62 107.632 1462.29 108.4C1460.97 109.168 1459.9 110.256 1459.09 111.664C1458.33 113.072 1457.94 114.779 1457.94 116.784C1457.94 118.747 1458.33 120.453 1459.09 121.904C1459.9 123.312 1460.97 124.4 1462.29 125.168C1463.62 125.936 1465.11 126.32 1466.77 126.32ZM1536.42 99.056C1539.15 99.056 1541.56 99.6107 1543.65 100.72C1545.79 101.787 1547.45 103.451 1548.65 105.712C1549.88 107.931 1550.5 110.789 1550.5 114.288V134H1540.52V115.824C1540.52 113.051 1539.94 111.003 1538.79 109.68C1537.64 108.357 1536.02 107.696 1533.93 107.696C1532.48 107.696 1531.17 108.037 1530.02 108.72C1528.87 109.36 1527.97 110.341 1527.33 111.664C1526.69 112.987 1526.37 114.672 1526.37 116.72V134H1516.39V115.824C1516.39 113.051 1515.81 111.003 1514.66 109.68C1513.55 108.357 1511.95 107.696 1509.86 107.696C1508.41 107.696 1507.11 108.037 1505.96 108.72C1504.81 109.36 1503.91 110.341 1503.27 111.664C1502.63 112.987 1502.31 114.672 1502.31 116.72V134H1492.33V99.568H1501.86V108.976L1500.07 106.224C1501.27 103.877 1502.95 102.107 1505.13 100.912C1507.35 99.6747 1509.86 99.056 1512.68 99.056C1515.84 99.056 1518.59 99.8667 1520.93 101.488C1523.32 103.067 1524.9 105.499 1525.67 108.784L1522.15 107.824C1523.3 105.136 1525.14 103.003 1527.65 101.424C1530.21 99.8453 1533.14 99.056 1536.42 99.056ZM863.492 212.512C859.823 212.512 856.559 211.744 853.7 210.208C850.884 208.672 848.644 206.581 846.98 203.936C845.359 201.248 844.548 198.197 844.548 194.784C844.548 191.328 845.359 188.277 846.98 185.632C848.644 182.944 850.884 180.853 853.7 179.36C856.559 177.824 859.823 177.056 863.492 177.056C867.119 177.056 870.361 177.824 873.22 179.36C876.079 180.853 878.319 182.923 879.94 185.568C881.561 188.213 882.372 191.285 882.372 194.784C882.372 198.197 881.561 201.248 879.94 203.936C878.319 206.581 876.079 208.672 873.22 210.208C870.361 211.744 867.119 212.512 863.492 212.512ZM863.492 204.32C865.156 204.32 866.649 203.936 867.972 203.168C869.295 202.4 870.34 201.312 871.108 199.904C871.876 198.453 872.26 196.747 872.26 194.784C872.26 192.779 871.876 191.072 871.108 189.664C870.34 188.256 869.295 187.168 867.972 186.4C866.649 185.632 865.156 185.248 863.492 185.248C861.828 185.248 860.335 185.632 859.012 186.4C857.689 187.168 856.623 188.256 855.812 189.664C855.044 191.072 854.66 192.779 854.66 194.784C854.66 196.747 855.044 198.453 855.812 199.904C856.623 201.312 857.689 202.4 859.012 203.168C860.335 203.936 861.828 204.32 863.492 204.32ZM900.63 212.512C897.686 212.512 894.848 212.171 892.118 211.488C889.43 210.763 887.296 209.867 885.718 208.8L889.046 201.632C890.624 202.613 892.48 203.424 894.614 204.064C896.79 204.661 898.923 204.96 901.014 204.96C903.318 204.96 904.939 204.683 905.878 204.128C906.859 203.573 907.35 202.805 907.35 201.824C907.35 201.013 906.966 200.416 906.198 200.032C905.472 199.605 904.491 199.285 903.253 199.072C902.016 198.859 900.651 198.645 899.158 198.432C897.707 198.219 896.235 197.941 894.742 197.6C893.248 197.216 891.883 196.661 890.646 195.936C889.408 195.211 888.406 194.229 887.638 192.992C886.912 191.755 886.549 190.155 886.549 188.192C886.549 186.016 887.168 184.096 888.406 182.432C889.686 180.768 891.52 179.467 893.91 178.528C896.299 177.547 899.158 177.056 902.486 177.056C904.832 177.056 907.222 177.312 909.654 177.824C912.086 178.336 914.112 179.083 915.734 180.064L912.406 187.168C910.742 186.187 909.056 185.525 907.35 185.184C905.686 184.8 904.064 184.608 902.486 184.608C900.267 184.608 898.646 184.907 897.622 185.504C896.598 186.101 896.086 186.869 896.086 187.808C896.086 188.661 896.448 189.301 897.174 189.728C897.942 190.155 898.944 190.496 900.182 190.752C901.419 191.008 902.763 191.243 904.214 191.456C905.707 191.627 907.2 191.904 908.694 192.288C910.187 192.672 911.531 193.227 912.726 193.952C913.963 194.635 914.966 195.595 915.734 196.832C916.502 198.027 916.886 199.605 916.886 201.568C916.886 203.701 916.246 205.6 914.966 207.264C913.686 208.885 911.83 210.165 909.398 211.104C907.008 212.043 904.086 212.512 900.63 212.512ZM985.267 177.056C987.997 177.056 990.408 177.611 992.499 178.72C994.632 179.787 996.296 181.451 997.491 183.712C998.728 185.931 999.347 188.789 999.347 192.288V212H989.363V193.824C989.363 191.051 988.787 189.003 987.635 187.68C986.483 186.357 984.861 185.696 982.771 185.696C981.32 185.696 980.019 186.037 978.867 186.72C977.715 187.36 976.819 188.341 976.179 189.664C975.539 190.987 975.219 192.672 975.219 194.72V212H965.235V193.824C965.235 191.051 964.659 189.003 963.507 187.68C962.397 186.357 960.797 185.696 958.707 185.696C957.256 185.696 955.955 186.037 954.803 186.72C953.651 187.36 952.755 188.341 952.115 189.664C951.475 190.987 951.155 192.672 951.155 194.72V212H941.171V177.568H950.707V186.976L948.915 184.224C950.109 181.877 951.795 180.107 953.971 178.912C956.189 177.675 958.707 177.056 961.523 177.056C964.68 177.056 967.432 177.867 969.779 179.488C972.168 181.067 973.747 183.499 974.515 186.784L970.995 185.824C972.147 183.136 973.981 181.003 976.499 179.424C979.059 177.845 981.981 177.056 985.267 177.056ZM1025.63 212.512C1021.71 212.512 1018.25 211.744 1015.27 210.208C1012.32 208.672 1010.04 206.581 1008.42 203.936C1006.8 201.248 1005.99 198.197 1005.99 194.784C1005.99 191.328 1006.77 188.277 1008.35 185.632C1009.97 182.944 1012.17 180.853 1014.95 179.36C1017.72 177.824 1020.85 177.056 1024.35 177.056C1027.72 177.056 1030.75 177.781 1033.44 179.232C1036.17 180.64 1038.33 182.688 1039.91 185.376C1041.48 188.021 1042.27 191.2 1042.27 194.912C1042.27 195.296 1042.25 195.744 1042.21 196.256C1042.17 196.725 1042.12 197.173 1042.08 197.6H1014.11V191.776H1036.83L1032.99 193.504C1032.99 191.712 1032.63 190.155 1031.91 188.832C1031.18 187.509 1030.18 186.485 1028.9 185.76C1027.62 184.992 1026.12 184.608 1024.42 184.608C1022.71 184.608 1021.2 184.992 1019.87 185.76C1018.59 186.485 1017.59 187.531 1016.87 188.896C1016.14 190.219 1015.78 191.797 1015.78 193.632V195.168C1015.78 197.045 1016.18 198.709 1016.99 200.16C1017.85 201.568 1019.02 202.656 1020.51 203.424C1022.05 204.149 1023.84 204.512 1025.89 204.512C1027.72 204.512 1029.32 204.235 1030.69 203.68C1032.1 203.125 1033.38 202.293 1034.53 201.184L1039.84 206.944C1038.26 208.736 1036.28 210.123 1033.89 211.104C1031.5 212.043 1028.75 212.512 1025.63 212.512ZM1048.92 212V164.512H1058.9V212H1048.92ZM1089.1 177.056C1091.83 177.056 1094.26 177.611 1096.39 178.72C1098.57 179.787 1100.28 181.451 1101.51 183.712C1102.75 185.931 1103.37 188.789 1103.37 192.288V212H1093.39V193.824C1093.39 191.051 1092.77 189.003 1091.53 187.68C1090.34 186.357 1088.63 185.696 1086.41 185.696C1084.83 185.696 1083.4 186.037 1082.12 186.72C1080.89 187.36 1079.9 188.363 1079.18 189.728C1078.5 191.093 1078.15 192.843 1078.15 194.976V212H1068.17V164.512H1078.15V187.104L1075.91 184.224C1077.15 181.92 1078.92 180.149 1081.23 178.912C1083.53 177.675 1086.15 177.056 1089.1 177.056ZM1129.05 212.512C1125.39 212.512 1122.12 211.744 1119.26 210.208C1116.45 208.672 1114.21 206.581 1112.54 203.936C1110.92 201.248 1110.11 198.197 1110.11 194.784C1110.11 191.328 1110.92 188.277 1112.54 185.632C1114.21 182.944 1116.45 180.853 1119.26 179.36C1122.12 177.824 1125.39 177.056 1129.05 177.056C1132.68 177.056 1135.92 177.824 1138.78 179.36C1141.64 180.853 1143.88 182.923 1145.5 185.568C1147.12 188.213 1147.93 191.285 1147.93 194.784C1147.93 198.197 1147.12 201.248 1145.5 203.936C1143.88 206.581 1141.64 208.672 1138.78 210.208C1135.92 211.744 1132.68 212.512 1129.05 212.512ZM1129.05 204.32C1130.72 204.32 1132.21 203.936 1133.53 203.168C1134.86 202.4 1135.9 201.312 1136.67 199.904C1137.44 198.453 1137.82 196.747 1137.82 194.784C1137.82 192.779 1137.44 191.072 1136.67 189.664C1135.9 188.256 1134.86 187.168 1133.53 186.4C1132.21 185.632 1130.72 185.248 1129.05 185.248C1127.39 185.248 1125.9 185.632 1124.57 186.4C1123.25 187.168 1122.19 188.256 1121.37 189.664C1120.61 191.072 1120.22 192.779 1120.22 194.784C1120.22 196.747 1120.61 198.453 1121.37 199.904C1122.19 201.312 1123.25 202.4 1124.57 203.168C1125.9 203.936 1127.39 204.32 1129.05 204.32ZM1154.61 212V177.568H1164.14V187.296L1162.8 184.48C1163.82 182.048 1165.47 180.213 1167.73 178.976C1169.99 177.696 1172.74 177.056 1175.98 177.056V186.272C1175.56 186.229 1175.17 186.208 1174.83 186.208C1174.49 186.165 1174.13 186.144 1173.74 186.144C1171.01 186.144 1168.79 186.933 1167.09 188.512C1165.42 190.048 1164.59 192.459 1164.59 195.744V212H1154.61ZM1198.76 212.512C1194.83 212.512 1191.38 211.744 1188.39 210.208C1185.45 208.672 1183.16 206.581 1181.54 203.936C1179.92 201.248 1179.11 198.197 1179.11 194.784C1179.11 191.328 1179.9 188.277 1181.48 185.632C1183.1 182.944 1185.3 180.853 1188.07 179.36C1190.84 177.824 1193.98 177.056 1197.48 177.056C1200.85 177.056 1203.88 177.781 1206.57 179.232C1209.3 180.64 1211.45 182.688 1213.03 185.376C1214.61 188.021 1215.4 191.2 1215.4 194.912C1215.4 195.296 1215.38 195.744 1215.33 196.256C1215.29 196.725 1215.25 197.173 1215.21 197.6H1187.24V191.776H1209.96L1206.12 193.504C1206.12 191.712 1205.76 190.155 1205.03 188.832C1204.31 187.509 1203.3 186.485 1202.02 185.76C1200.74 184.992 1199.25 184.608 1197.54 184.608C1195.84 184.608 1194.32 184.992 1193 185.76C1191.72 186.485 1190.72 187.531 1189.99 188.896C1189.27 190.219 1188.9 191.797 1188.9 193.632V195.168C1188.9 197.045 1189.31 198.709 1190.12 200.16C1190.97 201.568 1192.15 202.656 1193.64 203.424C1195.17 204.149 1196.97 204.512 1199.01 204.512C1200.85 204.512 1202.45 204.235 1203.81 203.68C1205.22 203.125 1206.5 202.293 1207.65 201.184L1212.97 206.944C1211.39 208.736 1209.4 210.123 1207.01 211.104C1204.63 212.043 1201.87 212.512 1198.76 212.512ZM1233.63 212.512C1230.69 212.512 1227.85 212.171 1225.12 211.488C1222.43 210.763 1220.3 209.867 1218.72 208.8L1222.05 201.632C1223.62 202.613 1225.48 203.424 1227.61 204.064C1229.79 204.661 1231.92 204.96 1234.01 204.96C1236.32 204.96 1237.94 204.683 1238.88 204.128C1239.86 203.573 1240.35 202.805 1240.35 201.824C1240.35 201.013 1239.97 200.416 1239.2 200.032C1238.47 199.605 1237.49 199.285 1236.25 199.072C1235.02 198.859 1233.65 198.645 1232.16 198.432C1230.71 198.219 1229.23 197.941 1227.74 197.6C1226.25 197.216 1224.88 196.661 1223.65 195.936C1222.41 195.211 1221.41 194.229 1220.64 192.992C1219.91 191.755 1219.55 190.155 1219.55 188.192C1219.55 186.016 1220.17 184.096 1221.41 182.432C1222.69 180.768 1224.52 179.467 1226.91 178.528C1229.3 177.547 1232.16 177.056 1235.49 177.056C1237.83 177.056 1240.22 177.312 1242.65 177.824C1245.09 178.336 1247.11 179.083 1248.73 180.064L1245.41 187.168C1243.74 186.187 1242.06 185.525 1240.35 185.184C1238.69 184.8 1237.06 184.608 1235.49 184.608C1233.27 184.608 1231.65 184.907 1230.62 185.504C1229.6 186.101 1229.09 186.869 1229.09 187.808C1229.09 188.661 1229.45 189.301 1230.17 189.728C1230.94 190.155 1231.94 190.496 1233.18 190.752C1234.42 191.008 1235.76 191.243 1237.21 191.456C1238.71 191.627 1240.2 191.904 1241.69 192.288C1243.19 192.672 1244.53 193.227 1245.73 193.952C1246.96 194.635 1247.97 195.595 1248.73 196.832C1249.5 198.027 1249.89 199.605 1249.89 201.568C1249.89 203.701 1249.25 205.6 1247.97 207.264C1246.69 208.885 1244.83 210.165 1242.4 211.104C1240.01 212.043 1237.09 212.512 1233.63 212.512ZM1294.52 212.512C1291.62 212.512 1289.08 211.872 1286.91 210.592C1284.73 209.312 1283.02 207.371 1281.79 204.768C1280.59 202.123 1279.99 198.795 1279.99 194.784C1279.99 190.731 1280.57 187.403 1281.72 184.8C1282.87 182.197 1284.54 180.256 1286.71 178.976C1288.89 177.696 1291.49 177.056 1294.52 177.056C1297.77 177.056 1300.67 177.803 1303.23 179.296C1305.83 180.747 1307.88 182.795 1309.37 185.44C1310.91 188.085 1311.67 191.2 1311.67 194.784C1311.67 198.411 1310.91 201.547 1309.37 204.192C1307.88 206.837 1305.83 208.885 1303.23 210.336C1300.67 211.787 1297.77 212.512 1294.52 212.512ZM1274.17 224.416V177.568H1283.71V184.608L1283.51 194.848L1284.15 205.024V224.416H1274.17ZM1292.79 204.32C1294.46 204.32 1295.93 203.936 1297.21 203.168C1298.53 202.4 1299.58 201.312 1300.35 199.904C1301.16 198.453 1301.56 196.747 1301.56 194.784C1301.56 192.779 1301.16 191.072 1300.35 189.664C1299.58 188.256 1298.53 187.168 1297.21 186.4C1295.93 185.632 1294.46 185.248 1292.79 185.248C1291.13 185.248 1289.64 185.632 1288.31 186.4C1286.99 187.168 1285.95 188.256 1285.18 189.664C1284.41 191.072 1284.03 192.779 1284.03 194.784C1284.03 196.747 1284.41 198.453 1285.18 199.904C1285.95 201.312 1286.99 202.4 1288.31 203.168C1289.64 203.936 1291.13 204.32 1292.79 204.32ZM1318.36 212V177.568H1327.89V187.296L1326.55 184.48C1327.57 182.048 1329.22 180.213 1331.48 178.976C1333.74 177.696 1336.49 177.056 1339.73 177.056V186.272C1339.31 186.229 1338.92 186.208 1338.58 186.208C1338.24 186.165 1337.88 186.144 1337.49 186.144C1334.76 186.144 1332.54 186.933 1330.84 188.512C1329.17 190.048 1328.34 192.459 1328.34 195.744V212H1318.36ZM1362.51 212.512C1358.58 212.512 1355.13 211.744 1352.14 210.208C1349.2 208.672 1346.91 206.581 1345.29 203.936C1343.67 201.248 1342.86 198.197 1342.86 194.784C1342.86 191.328 1343.65 188.277 1345.23 185.632C1346.85 182.944 1349.05 180.853 1351.82 179.36C1354.59 177.824 1357.73 177.056 1361.23 177.056C1364.6 177.056 1367.63 177.781 1370.32 179.232C1373.05 180.64 1375.2 182.688 1376.78 185.376C1378.36 188.021 1379.15 191.2 1379.15 194.912C1379.15 195.296 1379.13 195.744 1379.08 196.256C1379.04 196.725 1379 197.173 1378.96 197.6H1350.99V191.776H1373.71L1369.87 193.504C1369.87 191.712 1369.51 190.155 1368.78 188.832C1368.06 187.509 1367.05 186.485 1365.77 185.76C1364.49 184.992 1363 184.608 1361.29 184.608C1359.59 184.608 1358.07 184.992 1356.75 185.76C1355.47 186.485 1354.47 187.531 1353.74 188.896C1353.02 190.219 1352.65 191.797 1352.65 193.632V195.168C1352.65 197.045 1353.06 198.709 1353.87 200.16C1354.72 201.568 1355.9 202.656 1357.39 203.424C1358.92 204.149 1360.72 204.512 1362.76 204.512C1364.6 204.512 1366.2 204.235 1367.56 203.68C1368.97 203.125 1370.25 202.293 1371.4 201.184L1376.72 206.944C1375.14 208.736 1373.15 210.123 1370.76 211.104C1368.38 212.043 1365.62 212.512 1362.51 212.512ZM1402.44 212.512C1398.72 212.512 1395.42 211.765 1392.52 210.272C1389.61 208.736 1387.33 206.624 1385.67 203.936C1384.05 201.248 1383.24 198.197 1383.24 194.784C1383.24 191.328 1384.05 188.277 1385.67 185.632C1387.33 182.944 1389.61 180.853 1392.52 179.36C1395.42 177.824 1398.72 177.056 1402.44 177.056C1406.06 177.056 1409.22 177.824 1411.91 179.36C1414.6 180.853 1416.58 183.008 1417.86 185.824L1410.12 189.984C1409.22 188.363 1408.09 187.168 1406.72 186.4C1405.4 185.632 1403.95 185.248 1402.37 185.248C1400.66 185.248 1399.13 185.632 1397.76 186.4C1396.4 187.168 1395.31 188.256 1394.5 189.664C1393.73 191.072 1393.35 192.779 1393.35 194.784C1393.35 196.789 1393.73 198.496 1394.5 199.904C1395.31 201.312 1396.4 202.4 1397.76 203.168C1399.13 203.936 1400.66 204.32 1402.37 204.32C1403.95 204.32 1405.4 203.957 1406.72 203.232C1408.09 202.464 1409.22 201.248 1410.12 199.584L1417.86 203.808C1416.58 206.581 1414.6 208.736 1411.91 210.272C1409.22 211.765 1406.06 212.512 1402.44 212.512ZM1398.79 226.848C1397.68 226.848 1396.59 226.72 1395.52 226.464C1394.5 226.208 1393.6 225.888 1392.84 225.504L1394.37 221.216C1395.01 221.515 1395.67 221.749 1396.36 221.92C1397.04 222.091 1397.76 222.176 1398.53 222.176C1399.73 222.176 1400.58 221.984 1401.09 221.6C1401.6 221.216 1401.86 220.725 1401.86 220.128C1401.86 219.573 1401.6 219.125 1401.09 218.784C1400.62 218.443 1399.83 218.272 1398.72 218.272H1396.55L1398.21 211.488H1403.52L1402.63 215.2C1404.55 215.413 1405.96 216.011 1406.85 216.992C1407.75 218.016 1408.2 219.189 1408.2 220.512C1408.2 222.432 1407.34 223.968 1405.64 225.12C1403.93 226.272 1401.65 226.848 1398.79 226.848ZM1439.55 212.512C1435.89 212.512 1432.62 211.744 1429.76 210.208C1426.95 208.672 1424.71 206.581 1423.04 203.936C1421.42 201.248 1420.61 198.197 1420.61 194.784C1420.61 191.328 1421.42 188.277 1423.04 185.632C1424.71 182.944 1426.95 180.853 1429.76 179.36C1432.62 177.824 1435.89 177.056 1439.55 177.056C1443.18 177.056 1446.42 177.824 1449.28 179.36C1452.14 180.853 1454.38 182.923 1456 185.568C1457.62 188.213 1458.43 191.285 1458.43 194.784C1458.43 198.197 1457.62 201.248 1456 203.936C1454.38 206.581 1452.14 208.672 1449.28 210.208C1446.42 211.744 1443.18 212.512 1439.55 212.512ZM1439.55 204.32C1441.22 204.32 1442.71 203.936 1444.03 203.168C1445.36 202.4 1446.4 201.312 1447.17 199.904C1447.94 198.453 1448.32 196.747 1448.32 194.784C1448.32 192.779 1447.94 191.072 1447.17 189.664C1446.4 188.256 1445.36 187.168 1444.03 186.4C1442.71 185.632 1441.22 185.248 1439.55 185.248C1437.89 185.248 1436.4 185.632 1435.07 186.4C1433.75 187.168 1432.69 188.256 1431.87 189.664C1431.11 191.072 1430.72 192.779 1430.72 194.784C1430.72 196.747 1431.11 198.453 1431.87 199.904C1432.69 201.312 1433.75 202.4 1435.07 203.168C1436.4 203.936 1437.89 204.32 1439.55 204.32ZM1476.69 212.512C1473.75 212.512 1470.91 212.171 1468.18 211.488C1465.49 210.763 1463.36 209.867 1461.78 208.8L1465.11 201.632C1466.69 202.613 1468.54 203.424 1470.68 204.064C1472.85 204.661 1474.99 204.96 1477.08 204.96C1479.38 204.96 1481 204.683 1481.94 204.128C1482.92 203.573 1483.41 202.805 1483.41 201.824C1483.41 201.013 1483.03 200.416 1482.26 200.032C1481.53 199.605 1480.55 199.285 1479.32 199.072C1478.08 198.859 1476.71 198.645 1475.22 198.432C1473.77 198.219 1472.3 197.941 1470.8 197.6C1469.31 197.216 1467.95 196.661 1466.71 195.936C1465.47 195.211 1464.47 194.229 1463.7 192.992C1462.97 191.755 1462.61 190.155 1462.61 188.192C1462.61 186.016 1463.23 184.096 1464.47 182.432C1465.75 180.768 1467.58 179.467 1469.97 178.528C1472.36 177.547 1475.22 177.056 1478.55 177.056C1480.89 177.056 1483.28 177.312 1485.72 177.824C1488.15 178.336 1490.17 179.083 1491.8 180.064L1488.47 187.168C1486.8 186.187 1485.12 185.525 1483.41 185.184C1481.75 184.8 1480.13 184.608 1478.55 184.608C1476.33 184.608 1474.71 184.907 1473.68 185.504C1472.66 186.101 1472.15 186.869 1472.15 187.808C1472.15 188.661 1472.51 189.301 1473.24 189.728C1474 190.155 1475.01 190.496 1476.24 190.752C1477.48 191.008 1478.83 191.243 1480.28 191.456C1481.77 191.627 1483.26 191.904 1484.76 192.288C1486.25 192.672 1487.59 193.227 1488.79 193.952C1490.03 194.635 1491.03 195.595 1491.8 196.832C1492.56 198.027 1492.95 199.605 1492.95 201.568C1492.95 203.701 1492.31 205.6 1491.03 207.264C1489.75 208.885 1487.89 210.165 1485.46 211.104C1483.07 212.043 1480.15 212.512 1476.69 212.512Z" fill="#2F2E41"/>
<defs>
<clipPath id="clip0_269_9201">
<rect width="44" height="104" fill="white" transform="translate(1908 367)"/>
</clipPath>
<clipPath id="clip1_269_9201">
<rect width="223" height="130" fill="white" transform="translate(2030 382)"/>
</clipPath>
<clipPath id="clip2_269_9201">
<rect width="47" height="99" fill="white" transform="translate(1606 373)"/>
</clipPath>
</defs>
</svg>
