<svg width="240" height="126" viewBox="0 0 240 126" fill="none" xmlns="http://www.w3.org/2000/svg">
<path d="M120 125.503C53.7258 125.503 -6.10352e-05 122.366 -6.10352e-05 118.497C-6.10352e-05 114.627 53.7258 111.491 120 111.491C186.274 111.491 240 114.627 240 118.497C240 122.366 186.274 125.503 120 125.503Z" fill="#C0C0C0"/>
<path d="M188.835 43.1314C188.835 44.3692 176.154 46.4673 175.956 46.4673C175.758 46.4673 173.288 46.0402 173.288 46.0402L168.776 46.4673C168.639 46.3285 168.526 46.1674 168.442 45.9907C168.261 45.6142 168.154 45.2067 168.126 44.79C168.126 44.6662 168.126 44.5363 168.126 44.3939C168.138 43.4047 168.275 42.421 168.535 41.4665C169.461 41.5498 170.395 41.4459 171.281 41.161C172.167 40.876 172.986 40.4159 173.69 39.8078C174.346 38.1863 175.238 36.4224 176.215 35.6611C176.215 35.6611 185.128 36.2801 186.991 37.357C188.823 38.44 188.835 43.1314 188.835 43.1314Z" fill="#173E6D"/>
<g opacity="0.2">
<path d="M188.835 43.1314C188.835 44.3692 176.154 46.4673 175.956 46.4673C175.758 46.4673 173.288 46.0402 173.288 46.0402L168.776 46.4673C168.639 46.3285 168.526 46.1674 168.442 45.9907C168.261 45.6142 168.154 45.2067 168.126 44.79C168.126 44.6662 168.126 44.5363 168.126 44.3939C168.138 43.4047 168.275 42.421 168.535 41.4665C169.461 41.5498 170.395 41.4459 171.281 41.161C172.167 40.876 172.986 40.4159 173.69 39.8078C174.346 38.1863 175.238 36.4224 176.215 35.6611C176.215 35.6611 185.128 36.2801 186.991 37.357C188.823 38.44 188.835 43.1314 188.835 43.1314Z" fill="black"/>
</g>
<path d="M184.082 43.3493C184.082 43.3493 176.94 28.1489 149.089 5.67016C149.089 5.67016 89.2157 -2.49324 49.9769 5.76299C49.9769 5.76299 34.1886 27.4681 32.468 38.3299C30.7475 49.1918 184.082 43.3493 184.082 43.3493Z" fill="#263238"/>
<g opacity="0.7">
<path d="M71.9791 5.08838C71.5087 8.69661 70.5309 18.1907 70.308 36.4732C92.5021 38.726 109.534 41.4616 109.534 41.4616C104.373 21.737 90.4844 6.58613 90.4844 6.58613C84.3558 5.67894 78.1739 5.17859 71.9791 5.08838Z" fill="white"/>
<path d="M34.956 33.867C38.4529 34.0093 41.9621 34.1888 45.4403 34.4116L46.2573 34.4611L47.7922 34.5664L48.5225 34.6097C55.0396 35.0491 61.4515 35.5999 67.523 36.1941C67.7581 28.6063 68.3275 14.5323 69.5839 5.0754C63.2753 5.02781 56.9743 5.52269 50.7505 6.55459L50.5463 6.59172C50.5445 6.60403 50.5445 6.61655 50.5463 6.62886C50.373 6.83929 50.1997 7.0621 50.0264 7.24777L49.8284 7.50771C40.8357 19.0441 34.956 33.867 34.956 33.867Z" fill="white"/>
<path d="M180.461 38.8183C180.461 38.8183 157.939 34.486 114.789 38.8183C114.789 38.8183 106.093 19.2794 94.6187 6.5918C94.6187 6.5918 122.525 2.37085 149.256 6.5918C160.891 16.0675 171.365 26.8847 180.461 38.8183Z" fill="white"/>
</g>
<path opacity="0.2" d="M102.745 4.71571C102.745 4.71571 126.882 3.4222 140.201 4.62907C153.52 5.83594 155.835 11.3071 155.835 11.3071C152.282 9.89634 148.615 8.7927 144.874 8.00831C144.874 9.18423 144.824 10.9481 144.342 11.6351C143.976 12.1488 138.375 11.4556 137.23 10.8181C136.457 10.3849 135.473 8.24349 134.916 6.89427C123.095 5.96591 102.745 4.71571 102.745 4.71571ZM137.775 9.9393C138.227 10.125 142.417 10.9234 143.531 10.7315C143.853 10.6758 143.908 9.12853 143.896 7.82882C143.234 7.71123 142.565 7.60602 141.903 7.52556C140.665 7.38321 138.666 7.19754 136.153 6.9933C136.71 8.30538 137.379 9.77219 137.775 9.9393Z" fill="black"/>
<path opacity="0.2" d="M42.4881 28.365C43.2854 26.8575 44.6297 25.7125 46.2449 25.1652C46.2449 25.1652 45.1432 18.0849 46.2449 16.9895C47.3465 15.894 56.9396 16.1911 59.0934 16.9895C60.6469 17.5589 61.7733 21.3961 62.2808 23.4942H92.8796C92.6258 21.328 92.3412 17.7445 93.0962 16.9895C94.1979 15.8878 103.797 16.1911 105.951 16.9895C108.105 17.7879 109.442 24.8929 109.442 24.8929C111.172 25.2265 112.797 25.9739 114.176 27.0715C116.652 28.9282 118.824 47.1736 118.824 47.1736H43.1937C43.1937 47.1736 41.3184 30.7911 42.4881 28.365Z" fill="black"/>
<path d="M143.89 46.0404C143.89 46.0404 141.687 27.8136 139.248 25.9383C137.867 24.8378 136.241 24.0882 134.507 23.7535C134.507 23.7535 133.17 16.6794 131.017 15.881C128.863 15.0826 119.257 14.7856 118.168 15.881C117.079 16.9765 118.168 24.0568 118.168 24.0568C116.554 24.6032 115.211 25.7486 114.417 27.2565C113.242 29.6889 115.117 46.0404 115.117 46.0404H143.89Z" fill="#263238"/>
<path opacity="0.4" d="M143.89 46.0404C143.89 46.0404 141.687 27.8136 139.248 25.9383C137.867 24.8378 136.241 24.0882 134.507 23.7535C134.507 23.7535 133.17 16.6794 131.017 15.881C128.863 15.0826 119.257 14.7856 118.168 15.881C117.079 16.9765 118.168 24.0568 118.168 24.0568C116.554 24.6032 115.211 25.7486 114.417 27.2565C113.242 29.6889 115.117 46.0404 115.117 46.0404H143.89Z" fill="white"/>
<path opacity="0.2" d="M129.148 38.6753C128.3 41.151 126.14 43.0387 124.066 44.1403C123.571 42.1969 122.866 39.8079 121.894 36.9176C123.2 35.0981 125.019 33.8231 127.334 34.1573C127.334 34.1759 130.008 36.144 129.148 38.6753Z" fill="black"/>
<path opacity="0.2" d="M121.492 38.2905C122.445 42.3753 124.054 48.0135 124.37 49.6784C125.038 49.7093 125.7 49.7279 126.282 49.7341C126.746 48.1064 127.204 46.3611 127.582 44.7024C127.761 43.9287 127.922 43.1737 128.058 42.4619C127.241 42.1401 126.121 41.6883 125.688 41.4655C124.982 41.1127 125.224 34.4966 125.224 34.4966C123.683 35.4309 122.401 36.735 121.492 38.2905Z" fill="black"/>
<path d="M137.701 47.1727L136.754 47.6245C136.58 47.7098 136.387 47.7515 136.193 47.7461C135.999 47.7407 135.809 47.6884 135.64 47.5935L134.024 46.7023C133.707 46.5254 133.437 46.2753 133.235 45.9728C133.034 45.6704 132.908 45.3242 132.867 44.9632L132.818 44.5114C134.334 43.6511 136.605 43.843 136.605 43.843H137.261C137.396 43.8363 137.53 43.8562 137.656 43.9014C137.783 43.9467 137.899 44.0164 137.998 44.1067C138.098 44.1969 138.178 44.3059 138.236 44.4274C138.293 44.5489 138.326 44.6805 138.332 44.8146L138.382 46.1082C138.382 46.3322 138.318 46.5515 138.197 46.7403C138.077 46.929 137.904 47.0791 137.701 47.1727Z" fill="#E4897B"/>
<path d="M120.836 34.0215C120.398 35.8649 120.125 37.7434 120.019 39.635C119.953 40.6507 119.984 41.6703 120.112 42.68C120.188 43.3033 120.348 43.9134 120.588 44.4934C120.764 44.8957 121 45.2692 121.288 45.6013C121.468 45.8124 121.676 45.9978 121.906 46.1521C122.03 46.2347 122.161 46.3072 122.296 46.3687L122.519 46.4616C123.545 46.818 124.621 47.0102 125.707 47.031C126.66 47.0657 127.615 47.0409 128.566 46.9567C130.407 46.7979 132.232 46.4916 134.025 46.0407C134.275 45.979 134.494 45.8282 134.64 45.6167C134.787 45.4052 134.852 45.1474 134.822 44.8916C134.793 44.6358 134.671 44.3996 134.48 44.2272C134.288 44.0548 134.041 43.958 133.783 43.955H133.746C132.886 43.955 131.995 43.955 131.128 43.8993C130.262 43.8436 129.389 43.8436 128.535 43.7755C127.681 43.7074 126.845 43.627 126.059 43.5032C125.365 43.4103 124.686 43.2229 124.042 42.9462L123.961 42.9029L124.06 42.9524C124.114 42.981 124.164 43.0163 124.209 43.0576C124.264 43.1071 124.252 43.0885 124.209 43.0204C124.143 42.7631 124.104 42.4997 124.091 42.2344C124.062 41.4682 124.087 40.701 124.165 39.9383C124.24 39.1275 124.363 38.292 124.5 37.4626C124.636 36.6333 124.791 35.7668 124.939 34.987V34.9189C125.041 34.3723 124.926 33.8073 124.617 33.3448C124.308 32.8823 123.83 32.5591 123.286 32.4443C122.742 32.3295 122.174 32.4322 121.705 32.7304C121.235 33.0286 120.901 33.4987 120.774 34.0401L120.836 34.0215Z" fill="#E4897B"/>
<path d="M104.15 46.0404C104.15 46.0404 101.947 27.8136 99.5081 25.9383C98.1275 24.8378 96.5008 24.0882 94.7673 23.7535C94.7673 23.7535 93.4304 16.6794 91.2766 15.881C89.1228 15.0826 79.5174 14.7856 78.4281 15.881C77.3388 16.9765 78.4281 24.0568 78.4281 24.0568C76.8139 24.6032 75.4713 25.7486 74.6775 27.2565C73.5016 29.6889 75.3769 46.0404 75.3769 46.0404H104.15Z" fill="#263238"/>
<path opacity="0.4" d="M104.15 46.0404C104.15 46.0404 101.947 27.8136 99.5081 25.9383C98.1275 24.8378 96.5008 24.0882 94.7673 23.7535C94.7673 23.7535 93.4304 16.6794 91.2766 15.881C89.1228 15.0826 79.5174 14.7856 78.4281 15.881C77.3388 16.9765 78.4281 24.0568 78.4281 24.0568C76.8139 24.6032 75.4713 25.7486 74.6775 27.2565C73.5016 29.6889 75.3769 46.0404 75.3769 46.0404H104.15Z" fill="white"/>
<path d="M115.445 38.9226L118.638 37.3691L118.707 41.8624C118.707 41.8624 115.699 42.5742 115.154 41.0083L115.445 38.9226Z" fill="#FFB573"/>
<path d="M121.486 37.9757L121.368 41.6953L118.707 41.8624L118.639 37.3691L121.486 37.9757Z" fill="#FFB573"/>
<path d="M109.621 38.3281L111.372 38.6561L111.242 43.3165L109.578 43.7931L109.621 38.3281Z" fill="#263238"/>
<path d="M114.987 49.1781C116.066 49.1736 117.137 48.981 118.15 48.6088C120.535 47.7034 122.499 45.9428 123.657 43.6697C124.816 41.3965 125.088 38.7734 124.419 36.3111C124.1 35.1265 123.536 34.022 122.763 33.069C121.99 32.1161 121.026 31.3359 119.933 30.7789C118.84 30.2218 117.642 29.9003 116.417 29.8351C115.192 29.77 113.967 29.9626 112.821 30.4005C110.435 31.3058 108.472 33.0664 107.313 35.3396C106.154 37.6127 105.883 40.2358 106.551 42.6982C106.875 43.8811 107.441 44.9839 108.213 45.9364C108.986 46.889 109.948 47.6704 111.038 48.2312C112.261 48.8552 113.614 49.1797 114.987 49.1781ZM115.977 31.6135C117.072 31.6098 118.152 31.8665 119.128 32.3624C119.999 32.8138 120.768 33.4413 121.385 34.2051C122.002 34.969 122.453 35.8526 122.711 36.8C123.255 38.832 123.025 40.9935 122.067 42.8661C121.109 44.7387 119.491 46.1895 117.525 46.9377C116.609 47.2937 115.628 47.4524 114.646 47.4036C113.665 47.3548 112.705 47.0996 111.829 46.6545C110.953 46.2094 110.18 45.5846 109.562 44.8207C108.944 44.0569 108.494 43.1713 108.241 42.2216C107.693 40.1926 107.918 38.0325 108.871 36.1596C109.825 34.2868 111.44 32.8344 113.403 32.0839C114.226 31.7749 115.098 31.6156 115.977 31.6135Z" fill="#263238"/>
<path d="M104.948 46.9067C106.854 42.2091 113.427 35.8034 115.47 34.1015C117.512 32.3995 122.94 31.7558 132.397 32.0343C135.529 32.1732 138.588 33.0195 141.346 34.5099C148.637 34.5656 160.631 34.7204 165.533 35.1288C169.154 35.4445 178.66 36.4533 179.483 39.9316C180.306 43.4098 175.027 51.7279 174.532 51.7279H147.511C147.49 52.1718 147.402 52.6099 147.251 53.0276C146.861 53.3495 116.689 55.5961 116.689 55.5961C116.689 55.5961 103.042 51.6104 104.948 46.9067Z" fill="#263238"/>
<path opacity="0.3" d="M104.948 46.9067C106.854 42.2091 113.427 35.8034 115.47 34.1015C117.512 32.3995 122.94 31.7558 132.397 32.0343C135.529 32.1732 138.588 33.0195 141.346 34.5099C148.637 34.5656 160.631 34.7204 165.533 35.1288C169.154 35.4445 178.66 36.4533 179.483 39.9316C180.306 43.4098 175.027 51.7279 174.532 51.7279H147.511C147.49 52.1718 147.402 52.6099 147.251 53.0276C146.861 53.3495 116.689 55.5961 116.689 55.5961C116.689 55.5961 103.042 51.6104 104.948 46.9067Z" fill="white"/>
<g opacity="0.3">
<path d="M34.9558 33.8615C38.4526 34.0039 41.9618 34.1896 45.4401 34.4062L46.2571 34.4619L47.7919 34.5609L48.5223 34.6104C53.3497 34.9384 58.1153 35.3222 62.7571 35.743C58.1339 24.1199 54.9651 13.9203 54.7113 13.1219C57.4593 19.8185 63.7598 26.3975 63.7598 26.3975C60.5472 19.7697 57.8731 12.8942 55.7635 5.8374C53.065 6.14686 51.3259 6.4563 50.7627 6.55533L50.5585 6.59246C50.5567 6.60478 50.5567 6.61729 50.5585 6.6296C50.3852 6.84003 50.2119 7.04633 50.0386 7.24851L49.8405 7.50845C40.8354 19.0449 34.9558 33.8615 34.9558 33.8615Z" fill="white"/>
<path d="M152.307 23.7428C143.16 18.3954 134.507 13.9393 133.74 13.5308C143.506 19.0205 154.684 29.4553 162.21 37.1112C174.297 37.6248 180.48 38.8193 180.48 38.8193C171.38 26.8863 160.904 16.0693 149.268 6.59281C140.413 5.26969 131.466 4.64885 122.513 4.73609C138.19 11.5874 151.787 23.2971 152.307 23.7428Z" fill="white"/>
</g>
<path d="M95.4727 74.8193H103.723C112.895 74.8193 120.328 85.0932 120.328 97.7684C120.328 110.444 112.901 120.718 103.723 120.718H95.4727C86.3005 120.718 78.8674 110.444 78.8674 97.7684C78.8674 85.0932 86.3005 74.8193 95.4727 74.8193Z" fill="#263238"/>
<path opacity="0.1" d="M92.8734 119.091C85.2099 119.091 78.9974 109.545 78.9974 97.7691C78.9974 85.9937 85.2099 76.4478 92.8734 76.4478C100.537 76.4478 106.749 85.9937 106.749 97.7691C106.749 109.545 100.537 119.091 92.8734 119.091Z" fill="white"/>
<path opacity="0.6" d="M91.6726 86.2461C95.8131 86.2461 99.1676 91.4078 99.1676 97.7702C99.1676 104.133 95.8131 109.294 91.6726 109.294C87.5321 109.294 84.1715 104.133 84.1715 97.7702C84.1715 91.4078 87.5321 86.2461 91.6726 86.2461Z" fill="#263238"/>
<path d="M190.457 74.8193H198.707C207.885 74.8193 215.312 85.0932 215.312 97.7684C215.312 110.444 207.885 120.718 198.707 120.718H190.457C181.284 120.718 173.845 110.444 173.845 97.7684C173.845 85.0932 181.272 74.8193 190.457 74.8193Z" fill="#263238"/>
<path opacity="0.1" d="M187.857 119.091C180.194 119.091 173.981 109.545 173.981 97.7691C173.981 85.9937 180.194 76.4478 187.857 76.4478C195.521 76.4478 201.733 85.9937 201.733 97.7691C201.733 109.545 195.521 119.091 187.857 119.091Z" fill="white"/>
<path opacity="0.6" d="M186.65 109.294C182.511 109.294 179.155 104.135 179.155 97.7702C179.155 91.4056 182.511 86.2461 186.65 86.2461C190.79 86.2461 194.145 91.4056 194.145 97.7702C194.145 104.135 190.79 109.294 186.65 109.294Z" fill="#263238"/>
<path d="M20.4921 72.8889L20.3745 96.5065C20.368 97.4047 20.5392 98.2953 20.8784 99.127C21.2177 99.9587 21.7181 100.715 22.3509 101.352C22.9838 101.99 23.7365 102.496 24.5657 102.841C25.3949 103.186 26.2843 103.364 27.1825 103.364H87.3898C89.8947 105.91 92.8809 107.933 96.1747 109.314C99.4686 110.695 103.004 111.408 106.576 111.41H145.109L149.491 104.837H158.261L159.425 105.939C162.656 108.983 166.93 110.674 171.369 110.667C173.698 110.662 176.003 110.189 178.145 109.276C180.288 108.363 182.224 107.028 183.84 105.351L184.366 104.8H204.407C206.01 104.8 207.562 104.235 208.789 103.204C210.016 102.172 210.84 100.741 211.116 99.1616L216.469 68.4019L20.4921 72.8889Z" fill="#263238"/>
<path d="M15.6089 68.4202L18.821 66.056C21.7422 47.594 25.9261 39.443 25.9261 39.443L33.1797 33.2539C35.9709 23.1843 46.0777 6.28191 51.3879 4.33235H51.4189C52.2791 4.10955 71.6881 0 102.039 0C140.028 0 150.933 6.36857 150.933 6.36857C166.022 17.4718 183.29 38.9974 183.29 38.9974C192.323 42.3325 200.662 47.3097 207.885 53.6779C208.696 54.402 209.5 55.1632 210.286 55.9493C210.961 56.6177 211.629 57.3109 212.273 58.0288C212.768 58.5734 213.257 59.1304 213.734 59.6998C215.419 61.7467 216.872 63.9739 218.066 66.3407C218.857 67.8917 219.567 69.4824 220.195 71.1063C220.43 71.7252 220.634 72.2884 220.814 72.8393C220.932 73.1797 223.754 76.4475 223.754 76.4475C225.394 77.3387 223.221 90.5772 220.269 97.4161C220.07 97.8703 219.743 98.2564 219.327 98.5269C218.911 98.7974 218.426 98.9405 217.93 98.9386H139.062C138.926 82.8965 129.42 69.9551 117.704 69.9551C105.988 69.9551 96.4939 82.8965 96.3516 98.9386H60.1578C60.0217 82.8965 50.5152 69.9551 38.7993 69.9551C36.4663 69.9628 34.1628 70.4759 32.0471 71.4591C24.1003 75.0921 18.233 84.9637 17.5213 96.8343C17.5213 97.0262 17.5213 97.2304 17.4841 97.4223C17.275 97.2037 17.0903 96.9629 16.9333 96.7043C16.6613 96.568 16.4207 96.3766 16.2268 96.1422C16.0328 95.9077 15.8898 95.6355 15.8069 95.3427C12.7681 87.0989 15.6089 68.4202 15.6089 68.4202ZM180.467 38.8117C171.365 26.8832 160.889 16.0686 149.256 6.59136C122.525 2.36422 94.6186 6.59136 94.6186 6.59136C106.093 19.279 114.789 38.8117 114.789 38.8117C157.939 34.4608 180.467 38.8117 180.467 38.8117ZM109.534 41.4668C104.373 21.7422 90.4843 6.59136 90.4843 6.59136C84.3557 5.68417 78.1737 5.18382 71.979 5.09361C71.5086 8.70184 70.5307 18.1959 70.3079 36.4784C92.502 38.7313 109.534 41.4668 109.534 41.4668ZM45.4402 34.4113L46.2572 34.4608L47.7921 34.566L48.5224 34.6093C55.0395 35.0488 61.4514 35.5996 67.5228 36.1937C67.758 28.6059 68.3274 14.532 69.5838 5.07504C63.2752 5.02745 56.9742 5.52234 50.7504 6.55423L50.5462 6.59136C50.5444 6.60368 50.5444 6.61619 50.5462 6.62851C50.3729 6.83894 50.1996 7.06174 50.0263 7.24741L49.8283 7.50735C40.8603 19.0129 34.9745 33.8357 34.9745 33.8357C38.4527 34.009 41.9619 34.1761 45.4402 34.4113Z" fill="#173E6D"/>
<path d="M117.388 74.8193H125.645C134.817 74.8193 142.25 85.0932 142.25 97.7684C142.25 110.444 134.823 120.718 125.645 120.718H117.388C108.222 120.718 100.783 110.444 100.783 97.7684C100.783 85.0932 108.241 74.8193 117.388 74.8193Z" fill="#263238"/>
<path opacity="0.2" d="M114.789 119.091C107.125 119.091 100.913 109.545 100.913 97.7691C100.913 85.9937 107.125 76.4478 114.789 76.4478C122.452 76.4478 128.665 85.9937 128.665 97.7691C128.665 109.545 122.452 119.091 114.789 119.091Z" fill="white"/>
<path opacity="0.6" d="M113.588 86.2461C117.729 86.2461 121.089 91.4078 121.089 97.7702C121.089 104.133 117.729 109.294 113.588 109.294C109.448 109.294 106.093 104.133 106.093 97.7702C106.093 91.4078 109.448 86.2461 113.588 86.2461Z" fill="white"/>
<path d="M39.9445 74.8193H48.207C57.3792 74.8193 64.8123 85.0932 64.8123 97.7684C64.8123 110.444 57.3854 120.718 48.207 120.718H39.9569C30.7847 120.718 23.3516 110.444 23.3516 97.7684C23.3516 85.0932 30.7723 74.8193 39.9445 74.8193Z" fill="#263238"/>
<path opacity="0.2" d="M37.345 119.091C29.6815 119.091 23.4691 109.545 23.4691 97.7691C23.4691 85.9937 29.6815 76.4478 37.345 76.4478C45.0084 76.4478 51.2209 85.9937 51.2209 97.7691C51.2209 109.545 45.0084 119.091 37.345 119.091Z" fill="white"/>
<path opacity="0.6" d="M36.1443 109.294C32.0049 109.294 28.6493 104.135 28.6493 97.7702C28.6493 91.4056 32.0049 86.2461 36.1443 86.2461C40.2836 86.2461 43.6392 91.4056 43.6392 97.7702C43.6392 104.135 40.2836 109.294 36.1443 109.294Z" fill="white"/>
<path d="M208.82 99.8411L206.418 88.2366C206.306 87.672 206 87.1642 205.554 86.8004C205.108 86.4367 204.549 86.2399 203.973 86.2437H186.774C185.978 86.2426 185.198 86.4662 184.524 86.8889C183.849 87.3115 183.308 87.9159 182.962 88.6327L177.515 99.8411H208.82Z" fill="#263238"/>
<path opacity="0.7" d="M132.688 64.9047L144.342 72.2449L169.098 77.5737H210.07L220.882 72.8391C220.69 72.2883 220.486 71.7127 220.263 71.1062C219.636 69.4822 218.925 67.8916 218.134 66.3406C218.097 66.2663 218.06 66.192 218.017 66.1177C216.839 63.832 215.417 61.6802 213.777 59.6997C213.3 59.1303 212.812 58.5733 212.316 58.0286C207.322 59.2664 205.651 64.9047 205.651 64.9047L204.735 73.6684L204.469 76.2121H176.383L174.625 73.6808L168.51 64.9047C168.51 64.9047 160.081 60.4486 152.957 59.0498C147.282 57.9358 136.463 57.812 136.463 57.812C133.307 59.0436 132.688 64.9047 132.688 64.9047Z" fill="white"/>
<path d="M148.847 66.8987C149.126 69.1021 150.766 70.705 152.511 70.4884C154.257 70.2718 155.445 68.2975 155.16 66.0942C154.876 63.8909 153.242 62.2817 151.496 62.5045C149.751 62.7273 148.569 64.6954 148.847 66.8987Z" fill="white"/>
<path d="M158.287 71.3649C156.926 68.4619 157.684 65.2358 159.98 64.1591C162.277 63.0824 165.242 64.5629 166.603 67.4659C167.964 70.3688 167.206 73.595 164.909 74.6717C162.613 75.7484 159.648 74.2678 158.287 71.3649Z" fill="white"/>
<path d="M206.333 71.3624C204.972 68.4595 205.73 65.2333 208.027 64.1567C210.323 63.08 213.288 64.5605 214.649 67.4634C216.01 70.3664 215.252 73.5926 212.956 74.6692C210.659 75.7459 207.694 74.2654 206.333 71.3624Z" fill="white"/>
<path d="M212.217 63.4253C212.929 63.717 213.571 64.1539 214.104 64.708C214.637 65.2622 215.048 65.9214 215.312 66.6436C215.609 67.3833 215.76 68.1735 215.758 68.9707C215.843 68.9703 215.927 68.9535 216.005 68.9212C216.983 68.5251 217.113 66.5445 216.29 64.4712C215.467 62.3979 214.012 61.0548 213.034 61.4447C212.49 61.6675 212.217 62.4288 212.217 63.4253Z" fill="white"/>
<path d="M155.953 85.6381L154.486 85.9908C154.2 86.059 153.951 86.233 153.789 86.4778C153.627 86.7225 153.564 87.0197 153.613 87.3091L154.907 95.1197C154.952 95.3903 155.092 95.6358 155.302 95.8127C155.512 95.9895 155.777 96.0861 156.052 96.0852H167.656C167.964 96.0852 168.259 95.9635 168.477 95.7466C168.695 95.5298 168.818 95.2354 168.82 94.9279C168.82 94.6566 168.726 94.3936 168.553 94.1846C168.38 93.9755 168.139 93.8334 167.873 93.7829C166.016 93.4363 161.622 91.9942 157.178 86.0837C157.042 85.8955 156.852 85.7525 156.634 85.6731C156.415 85.5937 156.178 85.5815 155.953 85.6381Z" fill="#263238"/>
<path d="M155.953 85.6393L165.205 85.6084L155.953 87.9602V85.6393Z" fill="#263238"/>
<path d="M215.312 85.6084L222.219 86.2273L218.765 96.6868H213.356L214.538 94.0317C216.929 92.6425 218.791 90.498 219.83 87.9355L215.312 85.6084Z" fill="#263238"/>
<path opacity="0.7" d="M155.823 93.2134C155.823 94.5192 156.689 95.5776 157.76 95.5776C158.83 95.5776 159.691 94.5192 159.691 93.2134C159.691 91.9075 158.824 90.8491 157.76 90.8491C156.695 90.8491 155.823 91.9075 155.823 93.2134Z" fill="white"/>
<path opacity="0.7" d="M216.89 93.2688C216.537 94.5066 216.723 95.6763 217.305 95.8372C217.887 95.9982 218.642 95.1131 218.994 93.8505C219.347 92.588 219.162 91.443 218.58 91.2821C217.998 91.1212 217.237 92.0062 216.89 93.2688Z" fill="white"/>
<path opacity="0.7" d="M189.819 68.4209H194.56C194.652 68.4213 194.742 68.4433 194.823 68.4852C194.905 68.527 194.975 68.5875 195.029 68.6616C195.082 68.7358 195.118 68.8216 195.132 68.9121C195.146 69.0025 195.139 69.0951 195.111 69.1822L193.731 73.4836C193.698 73.5848 193.639 73.6753 193.559 73.7452C193.479 73.8152 193.382 73.8619 193.277 73.8804C193.173 73.8989 193.065 73.8884 192.966 73.8501C192.867 73.8118 192.78 73.7471 192.716 73.663L189.361 69.3617C189.294 69.2758 189.252 69.1727 189.24 69.0642C189.229 68.9557 189.248 68.8461 189.296 68.748C189.344 68.6499 189.418 68.5672 189.511 68.5094C189.603 68.4515 189.71 68.4209 189.819 68.4209ZM191.261 69.4545L192.938 71.6083C192.971 71.6503 193.015 71.6825 193.064 71.7014C193.114 71.7204 193.168 71.7253 193.22 71.7158C193.273 71.7062 193.321 71.6825 193.361 71.6471C193.401 71.6118 193.43 71.5663 193.446 71.5154L194.139 69.3678C194.152 69.3239 194.156 69.2774 194.148 69.2321C194.14 69.1868 194.122 69.1438 194.095 69.1066C194.068 69.0694 194.033 69.039 193.992 69.0178C193.952 68.9965 193.907 68.985 193.861 68.9841H191.49C191.436 68.9841 191.382 68.9994 191.336 69.0283C191.29 69.0573 191.252 69.0986 191.229 69.1477C191.205 69.1967 191.195 69.2515 191.201 69.3058C191.207 69.36 191.228 69.4115 191.261 69.4545Z" fill="white"/>
<path opacity="0.2" d="M132.688 64.9057L144.342 72.2459L169.098 77.5747H210.07L220.882 72.8401C220.69 72.2893 220.486 71.7137 220.263 71.1071C219.607 69.4049 218.859 67.7397 218.023 66.1187L218.864 71.3114C218.937 71.7542 218.86 72.2085 218.648 72.6035C218.435 72.9986 218.098 73.3124 217.689 73.4961L211.499 76.2626C211.006 76.4859 210.464 76.5825 209.924 76.5436C209.384 76.5047 208.861 76.3315 208.405 76.0398L204.691 73.6508L204.425 76.1946H176.339L174.582 73.6632L170.67 76.2874C170.345 76.507 169.979 76.659 169.594 76.7345C169.21 76.81 168.813 76.8074 168.43 76.7268L146.409 72.0602C145.741 71.9177 145.122 71.6019 144.615 71.1445C144.107 70.6871 143.729 70.1044 143.519 69.4547L142.237 65.3018C142.063 64.7328 142.066 64.124 142.246 63.5568C142.426 62.9895 142.775 62.4907 143.246 62.1268L146.415 59.6512C140.74 58.5371 136.444 57.7944 136.444 57.7944C133.307 59.0446 132.688 64.9057 132.688 64.9057Z" fill="black"/>
<path d="M204.71 73.668H203.54L203.311 75.5309H177.515L176.228 73.668L174.6 73.6803L176.358 76.2117H204.444L204.71 73.668Z" fill="#263238"/>
<path d="M205.768 77.5729L204.71 76.8179H176.228L175.578 77.5729H205.768Z" fill="#263238"/>
<path opacity="0.2" d="M15.6089 68.4217L18.8211 66.0575C19.6104 60.9219 20.6703 55.8315 21.9961 50.8076C23.8899 43.7458 25.5734 40.1376 25.8766 39.5125C25.8902 39.4801 25.9068 39.449 25.9261 39.4197L33.1797 33.2306C35.971 23.1548 46.0778 6.2586 51.388 4.30904H51.4189C79.9196 0.657486 91.6479 5.05791 91.6479 5.05791C106.57 23.2538 112.691 41.4497 112.691 41.4497C121.103 46.1147 129.045 51.5802 136.407 57.7703C135.788 63.4766 139.805 69.3872 139.805 69.3872L144.311 72.228L143.834 78.7946C146.65 87.7007 151.1 98.9153 151.1 98.9153H139.032C138.895 82.8794 129.389 69.938 117.673 69.938C105.957 69.938 96.463 82.8794 96.3207 98.9153H60.127C59.9908 82.8794 50.4844 69.938 38.7685 69.938C36.4359 69.9435 34.1323 70.4545 32.0162 71.4358C24.0694 75.0688 18.2021 84.9465 17.4904 96.811C17.4904 97.009 17.4904 97.2071 17.4533 97.4299C17.2441 97.2091 17.0594 96.9663 16.9025 96.7058C16.63 96.5717 16.3888 96.3817 16.1947 96.1482C16.0006 95.9146 15.858 95.6428 15.776 95.3504C12.7682 87.1003 15.6089 68.4217 15.6089 68.4217ZM109.534 41.4683C104.373 21.7437 90.4844 6.5928 90.4844 6.5928C84.3555 5.68686 78.1738 5.18447 71.9791 5.08886C71.5087 8.70328 70.5308 18.1973 70.308 36.4799C92.502 38.7327 109.534 41.4683 109.534 41.4683ZM45.4403 34.4065L46.2572 34.4622L47.7921 34.5612L48.5225 34.6108C55.0396 35.0502 61.4514 35.601 67.5229 36.1952C67.7581 28.6074 68.3275 14.4963 69.5839 5.07648C63.2752 5.02535 56.9739 5.52026 50.7505 6.55567L50.5463 6.5928C50.5445 6.60512 50.5445 6.61763 50.5463 6.62995C50.373 6.84037 50.1997 7.04668 50.0264 7.24885L49.8283 7.50879C40.8604 19.0143 34.9746 33.8309 34.9746 33.8309C38.4528 34.0042 41.962 34.1775 45.4403 34.4065Z" fill="black"/>
<path d="M45.4403 34.4103L46.2573 34.4598C48.1821 18.7024 49.7789 10.5576 50.7505 6.55322L50.5463 6.59036C50.5445 6.60267 50.5445 6.61518 50.5463 6.6275C50.373 6.83793 50.1997 7.06073 50.0264 7.24641C47.5879 17.9721 46.1706 28.3078 45.4403 34.4103Z" fill="#263238"/>
<path d="M146.044 98.9322H140.393C139.186 98.9356 138.013 98.5309 137.065 97.7838C136.116 97.0367 135.449 95.991 135.169 94.8165C133.703 88.6274 129.407 77.2705 117.388 74.8196C104.725 72.2387 100.542 87.3215 99.2481 94.8474C99.0538 95.9892 98.4621 97.0254 97.5775 97.7729C96.693 98.5205 95.5725 98.9311 94.4144 98.9322H93.059C93.059 98.9322 93.059 62.1815 119.548 65.0656C138.239 67.108 143.519 94.9526 143.519 94.9526L146.044 98.9322Z" fill="#173E6D"/>
<path opacity="0.2" d="M146.044 98.9322H140.393C139.186 98.9356 138.013 98.5309 137.065 97.7838C136.116 97.0367 135.449 95.991 135.169 94.8165C133.703 88.6274 129.407 77.2705 117.388 74.8196C104.725 72.2387 100.542 87.3215 99.2481 94.8474C99.0538 95.9892 98.4621 97.0254 97.5775 97.7729C96.693 98.5205 95.5725 98.9311 94.4144 98.9322H93.059C93.059 98.9322 93.059 62.1815 119.548 65.0656C138.239 67.108 143.519 94.9526 143.519 94.9526L146.044 98.9322Z" fill="black"/>
<path d="M68.5998 98.9322H62.943C61.7368 98.9342 60.5653 98.5289 59.6184 97.7819C58.6714 97.0348 58.0045 95.9899 57.7256 94.8165C56.2526 88.6274 51.9573 77.2705 39.9443 74.8196C27.2815 72.2387 23.0915 87.3215 21.798 94.8474C21.6061 95.9902 21.015 97.0279 20.1299 97.7759C19.2448 98.5238 18.1231 98.9336 16.9643 98.9322H15.6089C15.6089 98.9322 15.6089 62.1815 42.1044 65.0656C60.7892 67.108 66.0746 94.9526 66.0746 94.9526L68.5998 98.9322Z" fill="#173E6D"/>
<path opacity="0.2" d="M68.5998 98.9322H62.943C61.7368 98.9342 60.5653 98.5289 59.6184 97.7819C58.6714 97.0348 58.0045 95.9899 57.7256 94.8165C56.2526 88.6274 51.9573 77.2705 39.9443 74.8196C27.2815 72.2387 23.0915 87.3215 21.798 94.8474C21.6061 95.9902 21.015 97.0279 20.1299 97.7759C19.2448 98.5238 18.1231 98.9336 16.9643 98.9322H15.6089C15.6089 98.9322 15.6089 62.1815 42.1044 65.0656C60.7892 67.108 66.0746 94.9526 66.0746 94.9526L68.5998 98.9322Z" fill="black"/>
<path opacity="0.2" d="M115.538 64.9427C112.264 64.6766 108.965 65.7659 106.149 67.4803C103.341 69.2769 100.944 71.6477 99.1182 74.4368C97.2884 77.2048 95.8161 80.1931 94.7363 83.3305C93.6699 86.4526 92.8423 89.6513 92.2606 92.8988L93.0776 92.218L78.948 92.1561L64.8183 92.2056L65.6414 92.8617C64.7954 89.5708 63.6562 86.3623 62.2374 83.2748C60.8342 80.1824 59.0883 77.2573 57.0324 74.5544C54.9825 71.8379 52.4426 69.5289 49.5436 67.7464C48.081 66.8876 46.5232 66.2022 44.9018 65.704C43.2892 65.2465 41.6261 64.9908 39.9506 64.9427C41.6053 65.1355 43.2343 65.507 44.809 66.0506C46.3562 66.6311 47.8308 67.3892 49.2032 68.3096C51.8982 70.2071 54.2382 72.5639 56.1164 75.2723C58.0173 77.9685 59.6194 80.8635 60.8944 83.9061C62.2089 86.9233 63.2548 90.0506 64.0199 93.2516L64.1746 93.9076H64.8368L78.9665 93.9571L93.0962 93.8952H93.7584L93.8698 93.2145C94.393 90.0351 95.1438 86.8974 96.1165 83.8256C97.0773 80.7628 98.4031 77.8267 100.065 75.0805C101.723 72.3311 103.913 69.9407 106.508 68.0497C109.139 66.1335 112.285 65.0512 115.538 64.9427Z" fill="black"/>
<path d="M143.865 78.8118C143.865 78.8118 126.455 62.6335 109.534 66.3098C109.534 66.3098 117.364 62.2993 132.688 64.9049L146.044 73.6686L143.865 78.8118Z" fill="#173E6D"/>
<path d="M108.241 46.0404C108.241 46.0404 40.7119 38.0503 25.9262 39.4181L31.7563 34.4668C31.7563 34.4668 99.8857 39.3376 108.241 46.0404Z" fill="#173E6D"/>
<path opacity="0.7" d="M21.996 50.8062C25.2391 44.778 28.6431 43.076 28.6431 43.076L32.4803 37.543C30.1384 37.5691 27.8507 38.2509 25.8766 39.5111C25.5733 40.1362 23.8899 43.7444 21.996 50.8062Z" fill="white"/>
<path d="M89.2218 43.1314C89.2218 44.3692 101.897 46.4673 102.101 46.4673C102.305 46.4673 104.769 46.0402 104.769 46.0402L109.274 46.4673C109.412 46.3285 109.525 46.1674 109.609 45.9907C109.789 45.6142 109.896 45.2067 109.924 44.79C109.931 44.6581 109.931 44.5259 109.924 44.3939C109.91 43.405 109.772 42.4217 109.516 41.4665C108.588 41.5503 107.653 41.4467 106.766 41.1617C105.88 40.8768 105.059 40.4163 104.354 39.8078C103.698 38.1863 102.807 36.4224 101.829 35.6611C101.829 35.6611 92.9167 36.2801 91.0538 37.357C89.228 38.44 89.2218 43.1314 89.2218 43.1314Z" fill="#263238"/>
<path d="M89.2219 43.1314L89.7047 42.7167C89.7047 42.7167 103.593 45.5327 103.704 42.7167C103.816 39.9006 101.848 35.6611 101.848 35.6611C101.848 35.6611 92.8797 36.28 91.0539 37.3693C89.2281 38.4586 89.2219 43.1314 89.2219 43.1314Z" fill="#173E6D"/>
<path opacity="0.2" d="M89.2218 43.1323C89.2218 44.3701 101.897 46.4682 102.101 46.4682C102.306 46.4682 104.769 46.0412 104.769 46.0412L109.274 46.4682C109.412 46.3295 109.525 46.1683 109.609 45.9917C109.789 45.6152 109.896 45.2076 109.924 44.791L104.769 43.7884L103.661 42.4082C99.9352 42.3624 96.2154 42.0978 92.5206 41.616C92.2993 41.583 92.0975 41.4706 91.9529 41.2998C91.8082 41.129 91.7307 40.9114 91.7346 40.6876C91.7346 39.9387 91.7346 38.8309 91.7346 38.3234C91.6578 37.9349 91.4367 37.5899 91.1157 37.3579C89.228 38.441 89.2218 43.1323 89.2218 43.1323Z" fill="black"/>
</svg>
