<svg width="523" height="368" viewBox="0 0 523 368" fill="none" xmlns="http://www.w3.org/2000/svg">
<g clip-path="url(#clip0_834_2705)">
<path d="M463.627 68.8693C479.078 68.8693 491.603 56.3101 491.603 40.8175C491.603 25.3249 479.078 12.7656 463.627 12.7656C448.177 12.7656 435.652 25.3249 435.652 40.8175C435.652 56.3101 448.177 68.8693 463.627 68.8693Z" fill="#E6AD47"/>
<path d="M358.782 114.719L336.863 71.5645L358.848 109.33L359.048 93.8837L343.986 62.6883L359.104 89.7997L359.462 62.0206L343.087 37.0541L359.516 57.6521L360.713 6.94303L360.719 6.73242L360.719 6.94657L360.53 71.2872L378.608 45.2416L360.582 76.7429L361.296 107.799L361.37 106.978L382.216 79.5012L361.345 109.885L361.436 113.769L361.47 113.831L361.445 114.148L362.39 155.253C361.025 155.31 359.648 155.333 358.256 155.322L358.296 152.125L339.277 120.649L358.335 149.067L358.782 114.719Z" fill="#3F3D56"/>
<path d="M256.658 139.376L234.739 96.2218L256.725 133.988L256.925 118.541L241.862 87.3456L256.98 114.457L257.339 86.6778L240.964 61.7113L257.393 82.3093L258.589 31.6003L258.595 31.3896L258.596 31.6038L258.407 95.9445L276.485 69.8988L258.458 101.4L259.172 132.456L259.246 131.635L280.092 104.158L259.222 134.543L259.312 138.427L259.347 138.488L259.321 138.805L260.266 179.91C258.902 179.967 257.524 179.99 256.133 179.98L256.173 176.782L237.154 145.307L256.212 173.725L256.658 139.376Z" fill="#CBCBCB"/>
<path d="M446.671 107.987L424.752 64.8321L446.737 102.598L446.937 87.1513L431.875 55.9559L446.993 83.0673L447.351 55.2882L430.976 30.3217L447.405 50.9197L448.602 0.210604L448.608 0L448.608 0.214146L448.419 64.5548L466.497 38.5092L448.471 70.0105L449.185 101.067L449.259 100.246L470.105 72.7688L449.234 103.153L449.325 107.037L449.359 107.098L449.334 107.415L450.279 148.52C448.915 148.577 447.537 148.601 446.145 148.59L446.185 145.392L427.166 113.917L446.224 142.335L446.671 107.987Z" fill="#3F3D56"/>
<path d="M69.3458 256.28C82.1135 246.842 95.5028 238.281 109.422 230.655C148.352 209.115 196.227 190.696 250.654 176.428C254.394 175.444 258.166 174.483 261.968 173.543C270.044 171.539 278.254 169.631 286.597 167.818C288.659 167.372 290.725 166.929 292.797 166.486C304.409 164.038 316.252 161.778 328.327 159.706C328.57 159.662 328.812 159.623 329.06 159.584C331.895 159.093 334.742 158.617 337.602 158.159C394.752 148.847 456.685 143.724 521.391 143.647C521.925 143.642 522.465 143.642 523 143.642V368H0C0 327.323 25.2297 289.176 69.3458 256.28Z" fill="#F1F1F1"/>
<path d="M173.262 281.871C195.549 265.254 224.085 250.372 257.499 237.823C261.208 236.425 264.977 235.06 268.808 233.728C269.342 233.54 269.882 233.352 270.422 233.164C275.3 231.484 280.271 229.848 285.335 228.257C293.894 225.575 302.695 223.04 311.739 220.653C318.212 218.938 324.8 217.304 331.502 215.751C333.654 215.247 335.817 214.757 337.988 214.281C342.924 213.18 347.919 212.126 352.973 211.121C404.639 200.798 462.251 195.034 523 195.034V368H119.799C119.799 336.64 139.254 307.23 173.262 281.871Z" fill="#173E6D"/>
<path d="M162.692 359.026L163.69 359.501C167.076 352.47 171.211 345.828 176.023 339.69L175.153 339.01C170.293 345.213 166.115 351.924 162.692 359.026ZM191.08 321.658L191.835 322.465C197.242 317.423 202.928 312.689 208.864 308.285C209.195 308.037 209.531 307.788 209.867 307.539L209.211 306.65C208.875 306.898 208.539 307.147 208.203 307.401C202.235 311.83 196.518 316.59 191.08 321.658ZM228.792 293.602L229.359 294.547C235.785 290.657 242.68 286.833 249.844 283.18L249.343 282.191C242.156 285.86 235.24 289.701 228.792 293.602ZM270.604 272.172L271.04 273.184C278 270.15 285.313 267.188 292.764 264.386L292.379 263.353C284.905 266.16 277.581 269.127 270.604 272.172ZM314.55 255.589L314.886 256.639C316.837 256.003 318.793 255.379 320.772 254.754C326.161 253.069 331.727 251.411 337.321 249.841L337.024 248.775C331.419 250.35 325.842 252.008 320.441 253.704C318.464 254.325 316.5 254.953 314.55 255.589ZM366.646 241.188C364.336 241.718 362.011 242.271 359.74 242.823L359.999 243.895C362.27 243.348 364.59 242.796 366.899 242.26C369.087 241.751 371.264 241.254 373.375 240.795C376.521 240.093 379.718 239.403 382.87 238.751L382.65 237.668C379.486 238.325 376.29 239.01 373.138 239.712C371.027 240.176 368.839 240.674 366.646 241.188ZM405.708 233.258L405.901 234.346C413.49 233.015 421.282 231.766 429.053 230.638L428.893 229.544C421.111 230.677 413.313 231.926 405.708 233.258ZM452.177 226.499L452.304 227.599C459.987 226.704 467.834 225.897 475.632 225.195L475.533 224.095C467.73 224.797 459.871 225.604 452.177 226.499ZM498.95 222.311L499.016 223.416C506.753 222.924 514.634 222.526 522.438 222.233L522.399 221.128C514.579 221.426 506.693 221.824 498.95 222.311Z" fill="white"/>
<path d="M278.298 307.738C326.993 271.426 418.345 246.979 523 246.979V368H240.889C240.889 346.061 254.501 325.482 278.298 307.738Z" fill="#F1F1F1"/>
<path opacity="0.2" d="M69.3457 256.279L173.262 281.871L278.298 307.738L523 368H0C0 327.323 25.2297 289.176 69.3457 256.279Z" fill="black"/>
<path d="M132.512 233.112L128.981 233.111L127.301 219.454H132.513L132.512 233.112Z" fill="#FFB7B7"/>
<path d="M133.413 236.544L122.027 236.543V236.399C122.027 235.22 122.494 234.09 123.325 233.257C124.156 232.423 125.283 231.955 126.459 231.955L133.413 231.955L133.413 236.544Z" fill="#2F2E41"/>
<path d="M163.708 230.503L160.297 231.421L155.143 218.667L160.177 217.312L163.708 230.503Z" fill="#FFB7B7"/>
<path d="M165.465 233.584L154.468 236.543L154.431 236.404C154.126 235.266 154.285 234.053 154.872 233.032C155.459 232.011 156.427 231.266 157.562 230.96L164.279 229.152L165.465 233.584Z" fill="#2F2E41"/>
<path d="M117.808 169.774C115.767 172.405 122.181 194.332 122.473 194.624C122.764 194.916 122.181 196.671 122.181 196.671C122.18 196.987 122.282 197.295 122.473 197.548C122.764 197.84 122.473 198.132 122.473 198.717C122.473 199.302 122.473 199.302 123.056 200.471C123.405 201.301 123.507 202.216 123.348 203.102L127.138 225.322C126.858 225.443 126.622 225.649 126.465 225.911C126.308 226.173 126.238 226.479 126.263 226.783C126.263 227.953 132.094 228.538 134.135 228.245C136.176 227.953 132.678 201.933 132.678 201.933C132.678 201.933 132.678 195.209 133.261 194.624C133.844 194.039 133.261 194.039 133.261 192.87C133.261 191.7 132.386 189.946 132.678 189.069C132.969 188.192 133.261 175.621 133.261 175.621C133.261 175.621 139.967 188.192 139.967 189.946C139.967 191.701 142.008 194.624 142.008 194.624L155.42 222.059C155.42 222.059 154.545 223.813 155.42 225.275C156.294 226.737 160.085 225.567 163.875 224.105C167.665 222.644 162.417 220.305 162.417 220.305L154.253 196.963C154.272 196.079 154.37 195.198 154.545 194.332C154.836 192.87 153.67 193.455 152.795 192.87C151.921 192.285 152.212 192.285 152.795 191.116C153.379 189.946 151.921 187.315 151.921 187.315L148.13 165.681C148.13 165.681 119.849 167.143 117.808 169.774Z" fill="#2F2E41"/>
<path d="M127.202 117.074C131.389 117.074 134.783 113.67 134.783 109.472C134.783 105.274 131.389 101.871 127.202 101.871C123.015 101.871 119.621 105.274 119.621 109.472C119.621 113.67 123.015 117.074 127.202 117.074Z" fill="#FFB8B8"/>
<path d="M124.383 119.39C124.383 119.39 114.041 124.142 113.166 126.481C112.292 128.82 118.683 150.477 118.683 150.477C118.683 150.477 119.07 159.584 117.904 163.092C116.738 166.6 116.933 167.142 116.933 167.142V169.773C116.933 171.235 126.263 170.065 130.928 168.604C135.593 167.142 147.547 167.434 148.714 167.142C149.88 166.85 146.763 163.092 146.763 163.092C150.845 162.8 146.763 154.234 146.763 154.234C146.763 154.234 146.346 126.504 145.18 122.704C144.014 118.903 133.217 118.209 133.217 118.209L127.721 120.072L124.383 119.39Z" fill="#173E6D"/>
<path d="M136.385 107.472C136.776 105.57 136.405 103.59 135.353 101.96C134.729 101.003 133.912 100.187 132.955 99.5641C131.999 98.9411 130.924 98.5247 129.798 98.3414C127.57 98.0223 125.299 98.408 123.301 99.4449C122.091 100.04 120.782 100.838 119.515 100.402L119.887 101.072L118.945 101.083L119.289 101.866L118.39 101.995L119.085 102.414C118.155 104.074 117.529 105.888 117.234 107.77C117.057 108.514 117.115 109.295 117.401 110.004C117.741 110.671 118.62 111.061 119.182 110.601C119.535 110.312 119.655 109.806 119.902 109.409C120.15 109.013 120.718 108.737 121.013 109.093L121.774 107.569L122.383 108.066C123.849 106.772 125.54 105.762 127.373 105.085C127.596 104.969 127.842 104.905 128.093 104.898C128.344 104.891 128.593 104.942 128.822 105.046C129.501 105.482 129.403 106.599 129.874 107.285C130.639 108.401 132.524 107.938 133.248 109.084C133.461 109.54 133.605 110.025 133.676 110.523C133.805 111.01 134.117 111.522 134.586 111.553C135.573 110.532 135.95 109.116 136.385 107.472Z" fill="#2F2E41"/>
<path d="M154.683 167.835C154.295 167.572 153.97 167.227 153.731 166.825C153.491 166.423 153.342 165.972 153.294 165.506C153.246 165.04 153.301 164.568 153.455 164.126C153.609 163.683 153.857 163.279 154.183 162.943L149.086 152.758L154.95 153.454L158.892 163.02C159.419 163.606 159.713 164.366 159.718 165.155C159.723 165.945 159.439 166.709 158.92 167.302C158.401 167.896 157.683 168.278 156.902 168.376C156.121 168.474 155.332 168.282 154.683 167.835Z" fill="#FFB8B8"/>
<path d="M150.483 160.524L144.54 141.234L137.758 126.487C137.471 125.865 137.33 125.185 137.344 124.5C137.358 123.814 137.527 123.141 137.839 122.531C138.15 121.921 138.596 121.389 139.142 120.977C139.688 120.565 140.321 120.282 140.992 120.151C142.056 119.949 143.157 120.134 144.096 120.674C145.035 121.214 145.751 122.073 146.114 123.096L158.483 158.497C158.55 158.689 158.575 158.893 158.558 159.096C158.54 159.299 158.479 159.496 158.38 159.674C158.28 159.852 158.144 160.006 157.98 160.127C157.817 160.248 157.629 160.332 157.43 160.375L152.149 161.504C152.049 161.525 151.947 161.536 151.845 161.536C151.539 161.536 151.242 161.438 150.997 161.255C150.752 161.073 150.572 160.817 150.483 160.524Z" fill="#173E6D"/>
<path d="M113.763 174.496C114.084 174.155 114.326 173.747 114.472 173.302C114.619 172.857 114.666 172.385 114.611 171.919C114.556 171.454 114.4 171.006 114.154 170.607C113.908 170.209 113.577 169.869 113.186 169.613L115.945 158.558L110.373 160.52L108.607 170.717C108.221 171.405 108.1 172.211 108.266 172.982C108.433 173.754 108.876 174.437 109.511 174.903C110.147 175.369 110.931 175.584 111.714 175.509C112.498 175.434 113.227 175.074 113.763 174.496Z" fill="#FFB8B8"/>
<path d="M115.162 167.729C115.062 167.751 114.96 167.763 114.858 167.764L109.458 167.817C109.255 167.819 109.054 167.778 108.868 167.695C108.682 167.613 108.515 167.492 108.379 167.341C108.244 167.189 108.142 167.01 108.08 166.816C108.019 166.622 107.999 166.417 108.023 166.214L112.392 128.961C112.524 127.883 113.035 126.888 113.834 126.156C114.633 125.423 115.667 125.001 116.75 124.967C117.433 124.948 118.112 125.085 118.735 125.368C119.357 125.651 119.908 126.072 120.345 126.599C120.782 127.126 121.093 127.746 121.256 128.412C121.419 129.078 121.429 129.772 121.285 130.442L117.874 146.318L116.271 166.443C116.248 166.748 116.128 167.038 115.928 167.269C115.729 167.501 115.46 167.662 115.162 167.729Z" fill="#173E6D"/>
</g>
<defs>
<clipPath id="clip0_834_2705">
<rect width="523" height="368" fill="white"/>
</clipPath>
</defs>
</svg>
