<svg width="240" height="126" viewBox="0 0 240 126" fill="none" xmlns="http://www.w3.org/2000/svg">
<path d="M120 125.502C53.7259 125.502 3.05176e-05 122.365 3.05176e-05 118.496C3.05176e-05 114.626 53.7259 111.49 120 111.49C186.274 111.49 240 114.626 240 118.496C240 122.365 186.274 125.502 120 125.502Z" fill="#C0C0C0"/>
<path d="M188.835 43.1314C188.835 44.3692 176.153 46.4673 175.955 46.4673C175.757 46.4673 173.288 46.0402 173.288 46.0402L168.776 46.4673C168.638 46.3285 168.525 46.1674 168.442 45.9907C168.261 45.6142 168.154 45.2067 168.126 44.79C168.126 44.6662 168.126 44.5363 168.126 44.3939C168.138 43.4047 168.275 42.421 168.535 41.4665C169.461 41.5498 170.395 41.4459 171.281 41.161C172.167 40.876 172.986 40.4158 173.69 39.8078C174.346 38.1863 175.238 36.4224 176.215 35.6611C176.215 35.6611 185.128 36.2801 186.991 37.357C188.823 38.44 188.835 43.1314 188.835 43.1314Z" fill="#173E6D"/>
<g opacity="0.2">
<path d="M188.835 43.1314C188.835 44.3692 176.153 46.4673 175.955 46.4673C175.757 46.4673 173.288 46.0402 173.288 46.0402L168.776 46.4673C168.638 46.3285 168.525 46.1674 168.442 45.9907C168.261 45.6142 168.154 45.2067 168.126 44.79C168.126 44.6662 168.126 44.5363 168.126 44.3939C168.138 43.4047 168.275 42.421 168.535 41.4665C169.461 41.5498 170.395 41.4459 171.281 41.161C172.167 40.876 172.986 40.4158 173.69 39.8078C174.346 38.1863 175.238 36.4224 176.215 35.6611C176.215 35.6611 185.128 36.2801 186.991 37.357C188.823 38.44 188.835 43.1314 188.835 43.1314Z" fill="black"/>
</g>
<path d="M184.082 43.3492C184.082 43.3492 176.94 28.1489 149.089 5.67016C149.089 5.67016 89.2156 -2.49323 49.9769 5.76299C49.9769 5.76299 34.1885 27.4681 32.468 38.3299C30.7474 49.1917 184.082 43.3492 184.082 43.3492Z" fill="#263238"/>
<g opacity="0.7">
<path d="M71.9791 5.08789C71.5087 8.69612 70.5308 18.1902 70.308 36.4727C92.502 38.7255 109.534 41.4611 109.534 41.4611C104.373 21.7365 90.4844 6.58565 90.4844 6.58565C84.3558 5.67845 78.1738 5.1781 71.9791 5.08789Z" fill="white"/>
<path d="M34.956 33.867C38.4528 34.0093 41.962 34.1888 45.4403 34.4116L46.2572 34.4611L47.7921 34.5663L48.5224 34.6097C55.0395 35.0491 61.4514 35.5999 67.5229 36.1941C67.7581 28.6063 68.3275 14.5323 69.5839 5.0754C63.2753 5.02781 56.9743 5.52269 50.7505 6.55459L50.5463 6.59172C50.5445 6.60403 50.5445 6.61655 50.5463 6.62886C50.373 6.83929 50.1997 7.0621 50.0264 7.24777L49.8283 7.50771C40.8356 19.0441 34.956 33.867 34.956 33.867Z" fill="white"/>
<path d="M180.461 38.8183C180.461 38.8183 157.939 34.486 114.789 38.8183C114.789 38.8183 106.093 19.2794 94.6186 6.5918C94.6186 6.5918 122.525 2.37085 149.256 6.5918C160.89 16.0675 171.365 26.8847 180.461 38.8183Z" fill="white"/>
</g>
<path opacity="0.2" d="M102.745 4.71571C102.745 4.71571 126.882 3.4222 140.201 4.62907C153.52 5.83594 155.835 11.3071 155.835 11.3071C152.282 9.89633 148.615 8.7927 144.874 8.00831C144.874 9.18423 144.824 10.9481 144.342 11.6351C143.976 12.1488 138.375 11.4556 137.23 10.8181C136.457 10.3849 135.473 8.24349 134.916 6.89427C123.095 5.96591 102.745 4.71571 102.745 4.71571ZM137.775 9.93929C138.227 10.125 142.417 10.9234 143.531 10.7315C143.853 10.6758 143.908 9.12852 143.896 7.82882C143.234 7.71122 142.565 7.60602 141.903 7.52556C140.665 7.38321 138.666 7.19754 136.153 6.9933C136.71 8.30538 137.379 9.77219 137.775 9.93929Z" fill="black"/>
<path opacity="0.2" d="M42.4881 28.365C43.2854 26.8575 44.6297 25.7125 46.2449 25.1652C46.2449 25.1652 45.1432 18.0849 46.2449 16.9895C47.3465 15.894 56.9396 16.1911 59.0934 16.9895C60.6469 17.5589 61.7733 21.3961 62.2808 23.4942H92.8795C92.6258 21.328 92.3411 17.7445 93.0962 16.9895C94.1978 15.8878 103.797 16.1911 105.951 16.9895C108.105 17.7879 109.442 24.8929 109.442 24.8929C111.172 25.2265 112.797 25.9739 114.176 27.0715C116.652 28.9282 118.824 47.1736 118.824 47.1736H43.1937C43.1937 47.1736 41.3184 30.7911 42.4881 28.365Z" fill="black"/>
<path d="M143.89 46.0399C143.89 46.0399 141.687 27.8131 139.248 25.9378C137.867 24.8373 136.241 24.0877 134.507 23.753C134.507 23.753 133.17 16.6789 131.017 15.8805C128.863 15.0821 119.257 14.7851 118.168 15.8805C117.079 16.976 118.168 24.0563 118.168 24.0563C116.554 24.6027 115.211 25.7481 114.417 27.2561C113.242 29.6884 115.117 46.0399 115.117 46.0399H143.89Z" fill="#263238"/>
<path opacity="0.4" d="M143.89 46.0399C143.89 46.0399 141.687 27.8131 139.248 25.9378C137.867 24.8373 136.241 24.0877 134.507 23.753C134.507 23.753 133.17 16.6789 131.017 15.8805C128.863 15.0821 119.257 14.7851 118.168 15.8805C117.079 16.976 118.168 24.0563 118.168 24.0563C116.554 24.6027 115.211 25.7481 114.417 27.2561C113.242 29.6884 115.117 46.0399 115.117 46.0399H143.89Z" fill="white"/>
<path d="M136.568 34.1756C137.039 33.9445 137.498 33.6883 137.942 33.4081C138.369 33.1358 138.796 32.8635 139.18 32.554C140.023 31.9199 140.805 31.207 141.513 30.425C142.303 29.5462 142.911 28.5197 143.302 27.4047C143.398 27.0922 143.475 26.7739 143.531 26.4516L143.636 25.6099C143.667 25.0962 143.692 24.5825 143.686 24.0998C143.663 22.2185 143.533 20.3402 143.296 18.4739C143.085 16.6172 142.825 14.81 142.466 12.978C142.417 12.72 142.274 12.4894 142.065 12.331C141.856 12.1726 141.595 12.0977 141.333 12.1208C141.072 12.144 140.828 12.2635 140.65 12.4562C140.471 12.649 140.371 12.9011 140.368 13.1637L140.244 18.6162C140.183 20.4173 140.158 22.2368 140.003 23.9512C139.99 24.6668 139.86 25.3754 139.619 26.0493C139.321 26.6322 138.926 27.1597 138.45 27.609C137.902 28.1576 137.303 28.6529 136.661 29.0881C136.327 29.3171 135.999 29.5523 135.646 29.7628C135.293 29.9732 134.922 30.2022 134.643 30.3817L134.563 30.4312C134.07 30.6976 133.702 31.1476 133.538 31.6836C133.375 32.2197 133.429 32.7986 133.69 33.2947C133.951 33.7907 134.397 34.164 134.931 34.3336C135.465 34.5031 136.044 34.4553 136.543 34.2003L136.568 34.1756Z" fill="#E4897B"/>
<path d="M139.186 10.1744L138.852 11.1709C138.791 11.3556 138.774 11.5523 138.803 11.7448C138.832 11.9373 138.906 12.1202 139.019 12.2787L140.108 13.7517C140.321 14.0448 140.6 14.283 140.923 14.4466C141.246 14.6102 141.603 14.6945 141.965 14.6924H142.417C143.091 13.0771 142.627 10.8428 142.627 10.8428L142.565 10.193C142.556 10.0588 142.52 9.9277 142.46 9.80736C142.4 9.68703 142.316 9.57979 142.214 9.49179C142.113 9.40379 141.995 9.33679 141.867 9.29461C141.739 9.25244 141.604 9.23594 141.47 9.24605L140.176 9.35127C139.949 9.37731 139.734 9.46905 139.559 9.61525C139.383 9.76145 139.253 9.95577 139.186 10.1744Z" fill="#E4897B"/>
<path d="M133.783 29.5224C133.783 29.5224 138.697 26.7558 139.248 25.9389C139.799 25.1219 140.046 18.8276 140.046 18.8276L143.89 20.5606C143.89 20.5606 144.54 26.1307 143.89 28.3155C143.24 30.5002 138.32 35.6681 138.32 35.6681L133.783 29.5224Z" fill="white"/>
<path d="M133.108 14.867C136.054 17.2683 135.708 24.1506 132.397 28.7119C132.397 28.7119 125.335 29.3308 121.411 27.5484C117.487 25.7659 121.826 14.607 125.972 13.722C128.41 13.191 130.959 13.5999 133.108 14.867Z" fill="#263238"/>
<path d="M132.941 22.0459C134.018 20.1892 135.089 15.1698 130.602 13.6164C125.032 11.6854 122.494 15.2503 122.011 18.7904C121.529 22.3306 123.522 24.9795 127.223 24.7381C130.924 24.4968 132.193 23.3332 132.941 22.0459Z" fill="#263238"/>
<path d="M138.951 36.194C139.496 38.7811 138.536 44.8587 138.382 49.4758L125.193 50.9983C125.097 48.6752 124.719 46.3725 124.066 44.1408C123.571 42.1974 122.866 39.8084 121.894 36.9181C121.752 36.4849 121.609 36.0455 121.448 35.5875C121.276 35.1299 121.208 34.6396 121.249 34.1524C121.29 33.6651 121.439 33.1932 121.686 32.771C121.933 32.3488 122.271 31.987 122.675 31.7119C123.079 31.4368 123.54 31.2554 124.023 31.1809C124.574 31.0942 125.168 31.0199 125.768 30.9581C128.114 30.7229 129.42 30.2216 131.518 30.302C132.211 30.302 133.61 29.6831 134.309 29.7636C136.803 29.974 138.437 33.7679 138.951 36.194Z" fill="#407BFF"/>
<path d="M125.836 23.7539C126.499 25.7777 127.377 29.4974 126.121 30.9394C126.121 30.9394 128.046 30.5433 132.31 32.8766C133.412 31.1003 132.496 30.599 132.496 30.599C130.138 30.1782 129.977 28.4824 130.175 26.8856L125.836 23.7539Z" fill="#E4897B"/>
<path opacity="0.2" d="M127.606 25.0283L130.175 26.885C130.123 27.2622 130.104 27.6433 130.119 28.0238C129.228 27.9434 127.91 27.0521 127.699 26.1671C127.596 25.797 127.564 25.4104 127.606 25.0283Z" fill="black"/>
<path d="M124.951 19.0324C124.908 22.4116 124.815 23.8351 126.387 25.6857C128.745 28.4708 132.898 27.7899 133.95 24.4974C134.897 21.5328 134.811 16.5135 131.623 14.929C130.922 14.5768 130.142 14.4095 129.358 14.4432C128.574 14.4769 127.812 14.7103 127.144 15.1214C126.475 15.5325 125.923 16.1076 125.539 16.7921C125.156 17.4765 124.953 18.2477 124.951 19.0324Z" fill="#E4897B"/>
<path d="M127.817 15.8747C128.751 17.0506 126.616 20.7455 124.939 21.3706C121.677 20.2999 125.026 12.3779 127.817 15.8747Z" fill="#263238"/>
<path d="M131.809 14.3033C133.047 14.8541 134.216 17.1874 134.371 18.0539C132.514 18.1962 127.767 16.061 127.767 16.061C127.767 16.061 124.419 16.6799 126.22 15.1636C128.021 13.6472 131.809 14.3033 131.809 14.3033Z" fill="#263238"/>
<path d="M130.565 20.405C130.565 20.6773 130.676 20.9125 130.85 20.9249C131.023 20.9372 131.19 20.7268 131.215 20.4545C131.239 20.1822 131.103 19.947 130.924 19.9346C130.744 19.9222 130.583 20.1327 130.565 20.405Z" fill="#263238"/>
<path d="M133.659 20.6398C133.659 20.9122 133.765 21.1412 133.944 21.1597C134.123 21.1783 134.284 20.9617 134.303 20.6893C134.322 20.417 134.198 20.1818 134.018 20.1695C133.839 20.1571 133.678 20.3675 133.659 20.6398Z" fill="#263238"/>
<path d="M133.938 20.177L134.606 20.0347C134.606 20.0347 134.235 20.5236 133.938 20.177Z" fill="#263238"/>
<path d="M132.347 20.9814C132.544 21.6232 132.827 22.2353 133.189 22.801C133.042 22.8902 132.877 22.9463 132.706 22.9656C132.535 22.9848 132.362 22.9667 132.199 22.9124L132.347 20.9814Z" fill="#DE5753"/>
<path d="M130.627 23.8712C130.759 23.8997 130.894 23.9183 131.029 23.9269C131.04 23.9277 131.05 23.9265 131.06 23.9232C131.07 23.9199 131.08 23.9147 131.088 23.9078C131.096 23.9009 131.102 23.8925 131.107 23.883C131.112 23.8735 131.115 23.8632 131.116 23.8526C131.116 23.8421 131.115 23.8314 131.112 23.8213C131.109 23.8113 131.103 23.8019 131.096 23.7939C131.09 23.7858 131.081 23.7792 131.072 23.7744C131.062 23.7696 131.052 23.7668 131.041 23.766C130.7 23.7495 130.368 23.6522 130.072 23.4822C129.777 23.3122 129.525 23.0743 129.339 22.7881C129.329 22.7692 129.311 22.7554 129.29 22.7496C129.269 22.7438 129.247 22.7465 129.228 22.7572C129.209 22.7678 129.195 22.7856 129.189 22.8065C129.184 22.8273 129.186 22.8497 129.197 22.8686C129.358 23.1215 129.567 23.3403 129.812 23.5123C130.057 23.6844 130.334 23.8063 130.627 23.8712Z" fill="#263238"/>
<path d="M123.812 22.0452C123.996 22.6732 124.421 23.2027 124.995 23.5182C125.756 23.9267 126.325 23.2892 126.27 22.4723C126.214 21.6553 125.768 20.6156 124.933 20.5599C124.749 20.5482 124.565 20.5823 124.397 20.6593C124.229 20.7363 124.084 20.8536 123.973 21.0009C123.862 21.1481 123.789 21.3206 123.761 21.5029C123.733 21.6851 123.751 21.8715 123.812 22.0452Z" fill="#E4897B"/>
<path d="M129.048 19.6077C129.082 19.6146 129.118 19.6113 129.15 19.5981C129.182 19.5848 129.209 19.5623 129.228 19.5334C129.391 19.3269 129.595 19.1564 129.827 19.0328C130.059 18.9092 130.315 18.8352 130.577 18.8155C130.62 18.8155 130.661 18.7985 130.691 18.7684C130.721 18.7382 130.738 18.6972 130.738 18.6546C130.738 18.6119 130.721 18.571 130.691 18.5408C130.661 18.5106 130.62 18.4937 130.577 18.4937C130.263 18.5173 129.958 18.6074 129.682 18.7578C129.406 18.9082 129.164 19.1157 128.974 19.3663C128.963 19.3845 128.956 19.4048 128.952 19.426C128.949 19.4471 128.95 19.4687 128.955 19.4894C128.96 19.5101 128.97 19.5296 128.983 19.5468C128.995 19.5639 129.011 19.5783 129.03 19.5891L129.048 19.6077Z" fill="#263238"/>
<path d="M134.371 19.1982C134.398 19.2052 134.427 19.2048 134.454 19.1972C134.481 19.1896 134.506 19.175 134.526 19.1549C134.555 19.1239 134.571 19.0829 134.571 19.0404C134.571 18.9978 134.555 18.9569 134.526 18.9259C134.346 18.7443 134.125 18.6089 133.881 18.5313C133.638 18.4537 133.379 18.4362 133.127 18.4803C133.104 18.4823 133.082 18.4892 133.061 18.5006C133.041 18.5121 133.024 18.5277 133.01 18.5465C132.997 18.5653 132.987 18.5868 132.983 18.6095C132.979 18.6322 132.979 18.6556 132.984 18.6781C132.99 18.7007 133 18.7217 133.014 18.74C133.029 18.7582 133.047 18.7731 133.067 18.7837C133.088 18.7943 133.111 18.8003 133.134 18.8013C133.157 18.8024 133.18 18.7984 133.201 18.7897C133.401 18.7614 133.605 18.7802 133.796 18.8447C133.988 18.9091 134.161 19.0175 134.303 19.1611C134.323 19.1776 134.346 19.1901 134.371 19.1982Z" fill="#263238"/>
<path d="M130.843 19.9407L131.518 19.7983C131.518 19.7983 131.14 20.2935 130.843 19.9407Z" fill="#263238"/>
<path opacity="0.2" d="M129.147 38.6753C128.3 41.151 126.14 43.0386 124.066 44.1403C123.571 42.1969 122.866 39.8079 121.894 36.9176C123.2 35.0981 125.019 33.8231 127.334 34.1573C127.334 34.1759 130.008 36.144 129.147 38.6753Z" fill="black"/>
<path d="M124.419 49.9834C124.58 51.6174 122.389 56.7914 122.389 56.7914H124.134C124.134 56.7914 125.205 53.5731 126.282 49.7359C126.746 48.1082 127.204 46.3628 127.582 44.7042C127.761 43.9305 127.922 43.1755 128.058 42.4637C128.194 41.752 128.324 40.9226 128.399 40.2542C128.583 38.5918 128.437 36.9094 127.972 35.303C127.532 33.7269 126.783 32.2542 125.768 30.9706H126.115C122.816 30.9335 121.04 32.0784 120.811 34.1332C120.882 35.5507 121.111 36.956 121.492 38.3232C122.445 42.408 124.054 48.0463 124.37 49.7111C124.391 49.801 124.407 49.8919 124.419 49.9834Z" fill="white"/>
<path d="M133.189 29.7628C133.189 29.7628 137.144 36.2057 138.078 38.5451C139.013 40.8846 138.481 47.5812 138.481 47.5812C138.481 47.5812 140.263 39.5354 139.1 35.5311C137.936 31.5267 135.925 28.3146 133.189 29.7628Z" fill="white"/>
<path opacity="0.2" d="M121.492 38.2915C122.445 42.3763 124.054 48.0145 124.37 49.6794C125.038 49.7103 125.7 49.7289 126.282 49.7351C126.746 48.1074 127.204 46.362 127.582 44.7034C127.761 43.9297 127.922 43.1747 128.058 42.4629C127.241 42.1411 126.121 41.6893 125.688 41.4665C124.982 41.1137 125.224 34.4976 125.224 34.4976C123.683 35.4319 122.401 36.736 121.492 38.2915Z" fill="black"/>
<path d="M137.701 47.1732L136.754 47.625C136.58 47.7103 136.387 47.752 136.193 47.7466C135.999 47.7412 135.809 47.6888 135.64 47.594L134.024 46.7028C133.707 46.5259 133.437 46.2758 133.235 45.9733C133.034 45.6708 132.908 45.3247 132.867 44.9637L132.818 44.5119C134.334 43.6516 136.605 43.8434 136.605 43.8434H137.261C137.396 43.8368 137.53 43.8567 137.656 43.9019C137.783 43.9472 137.899 44.0169 137.998 44.1072C138.098 44.1974 138.178 44.3064 138.236 44.4279C138.293 44.5494 138.326 44.681 138.332 44.8151L138.382 46.1087C138.382 46.3327 138.318 46.552 138.197 46.7407C138.077 46.9295 137.904 47.0795 137.701 47.1732Z" fill="#E4897B"/>
<path d="M120.836 34.021C120.398 35.8645 120.125 37.7429 120.019 39.6345C119.952 40.6502 119.984 41.6698 120.111 42.6795C120.187 43.3028 120.348 43.9129 120.588 44.493C120.764 44.8952 121 45.2687 121.287 45.6008C121.467 45.812 121.676 45.9973 121.906 46.1516C122.03 46.2342 122.161 46.3067 122.296 46.3682L122.519 46.4611C123.545 46.8175 124.621 47.0097 125.706 47.0305C126.66 47.0652 127.615 47.0404 128.566 46.9562C130.407 46.7974 132.232 46.4911 134.025 46.0402C134.275 45.9785 134.493 45.8277 134.64 45.6162C134.787 45.4047 134.852 45.1469 134.822 44.8911C134.792 44.6353 134.671 44.3991 134.479 44.2267C134.288 44.0543 134.041 43.9575 133.783 43.9545H133.746C132.886 43.9545 131.995 43.9545 131.128 43.8988C130.262 43.8431 129.389 43.8431 128.535 43.775C127.681 43.7069 126.845 43.6265 126.059 43.5027C125.364 43.4098 124.686 43.2224 124.042 42.9457L123.961 42.9024L124.06 42.9519C124.114 42.9805 124.164 43.0159 124.209 43.0571C124.264 43.1066 124.252 43.088 124.209 43.02C124.143 42.7626 124.104 42.4992 124.091 42.2339C124.062 41.4677 124.087 40.7005 124.165 39.9378C124.24 39.127 124.363 38.2915 124.5 37.4622C124.636 36.6328 124.79 35.7663 124.939 34.9865V34.9185C125.041 34.3718 124.926 33.8068 124.617 33.3443C124.308 32.8818 123.83 32.5586 123.286 32.4438C122.742 32.329 122.174 32.4317 121.705 32.7299C121.235 33.0281 120.901 33.4982 120.774 34.0396L120.836 34.021Z" fill="#E4897B"/>
<path d="M123.379 31.9609C121.646 31.3853 120.285 33.3348 119.728 36.7574C119.171 40.1799 119.072 45.5087 120.966 46.499C122.859 47.4892 126.325 47.3159 126.325 47.3159L128.331 43.423C128.331 43.423 124.772 42.8041 124.444 42.309C124.116 41.8139 124.865 37.0792 125.143 35.6557C125.422 34.2322 125.261 32.586 123.379 31.9609Z" fill="white"/>
<path d="M104.15 46.0399C104.15 46.0399 101.946 27.8131 99.508 25.9378C98.1273 24.8373 96.5007 24.0877 94.7671 23.753C94.7671 23.753 93.4303 16.6789 91.2765 15.8805C89.1227 15.0821 79.5172 14.7851 78.428 15.8805C77.3387 16.976 78.428 24.0563 78.428 24.0563C76.8138 24.6027 75.4712 25.7481 74.6774 27.2561C73.5015 29.6884 75.3768 46.0399 75.3768 46.0399H104.15Z" fill="#263238"/>
<path opacity="0.4" d="M104.15 46.0399C104.15 46.0399 101.946 27.8131 99.508 25.9378C98.1273 24.8373 96.5007 24.0877 94.7671 23.753C94.7671 23.753 93.4303 16.6789 91.2765 15.8805C89.1227 15.0821 79.5172 14.7851 78.428 15.8805C77.3387 16.976 78.428 24.0563 78.428 24.0563C76.8138 24.6027 75.4712 25.7481 74.6774 27.2561C73.5015 29.6884 75.3768 46.0399 75.3768 46.0399H104.15Z" fill="white"/>
<path d="M95.8626 31.0806C96.6408 33.0907 97.6086 35.0222 98.7529 36.8488C100.102 38.9098 101.34 40.7108 103.661 42.1033C107.634 44.1272 113.13 42.5304 117.066 41.144L116.447 38.5879C113.631 38.7612 110.704 38.9717 107.962 38.5879C106.106 38.2909 105.796 37.8019 104.688 36.397C103.16 34.1013 101.857 31.664 100.795 29.1187L95.8441 31.0744L95.8626 31.0806Z" fill="#FFB573"/>
<path d="M98.2455 26.9102C99.7618 27.2567 101.309 29.2125 105.87 37.2397C105.87 37.2397 106.576 38.2052 109.621 38.5332L109.85 43.2926C109.85 43.2926 105.58 43.5588 104.521 42.977C103.463 42.3952 96.4816 33.2973 96.4816 33.2973L98.2455 26.9102Z" fill="#263238"/>
<path opacity="0.2" d="M109.621 38.5078L109.85 43.2611C109.85 43.2611 106.427 43.4777 104.948 43.1063C104.8 43.0743 104.656 43.0222 104.521 42.9516C103.902 42.6174 101.321 39.43 99.2481 36.7997C97.7441 34.8872 96.5125 33.2719 96.5125 33.2719L98.2455 26.8848C99.7556 27.2314 101.309 29.1871 105.87 37.2143C105.87 37.27 106.576 38.2046 109.621 38.5078Z" fill="white"/>
<path opacity="0.2" d="M104.948 43.1322C104.8 43.1002 104.656 43.0481 104.521 42.9775C103.902 42.6433 101.321 39.4559 99.2481 36.8256C99.5402 35.1792 99.9183 33.5492 100.381 31.9424C100.381 31.9424 104.527 38.379 104.948 43.1322Z" fill="black"/>
<path d="M115.445 38.9226L118.638 37.3691L118.707 41.8624C118.707 41.8624 115.699 42.5742 115.154 41.0083L115.445 38.9226Z" fill="#FFB573"/>
<path d="M121.486 37.9757L121.368 41.6953L118.707 41.8624L118.639 37.3691L121.486 37.9757Z" fill="#FFB573"/>
<path d="M109.621 38.3286L111.372 38.6566L111.242 43.317L109.578 43.7936L109.621 38.3286Z" fill="#263238"/>
<path d="M83.0574 54.6004L102.188 52.5704C102.418 52.5438 102.631 52.4354 102.788 52.265C102.944 52.0946 103.035 51.8735 103.042 51.642C103.438 32.8767 98.2454 26.9414 98.2454 26.9414C96.475 26.631 94.6829 26.4592 92.8857 26.4277C90.2756 26.497 87.6718 26.7181 85.0875 27.09C83.3176 27.3203 81.5675 27.6823 79.8515 28.173C78.9417 28.6744 78.4404 32.9077 80.7489 45.6634C81.3678 49.0055 81.6958 51.9143 81.8568 53.6163C81.8699 53.7602 81.9115 53.9 81.9792 54.0277C82.0469 54.1553 82.1393 54.2682 82.2511 54.3598C82.3628 54.4513 82.4916 54.5198 82.6301 54.5611C82.7685 54.6024 82.9138 54.6158 83.0574 54.6004Z" fill="#263238"/>
<path d="M96.2589 33.7488L99.9475 33.3589L100.696 37.7284L98.8521 39.2199L96.7602 38.4525L96.2589 33.7488Z" fill="#263238"/>
<path opacity="0.2" d="M103.042 51.6111C103.036 51.8422 102.946 52.0632 102.788 52.2329C102.631 52.4026 102.418 52.5093 102.188 52.5332L83.0574 54.6004C82.9138 54.6158 82.7685 54.6024 82.6301 54.5611C82.4916 54.5198 82.3628 54.4513 82.2511 54.3598C82.1393 54.2682 82.0469 54.1553 81.9792 54.0277C81.9115 53.9 81.8699 53.7602 81.8568 53.6163C81.6959 51.9143 81.3493 49.0055 80.7489 45.6634C80.4147 43.8314 80.1403 42.1686 79.9258 40.675C79.4852 37.9564 79.2082 35.2138 79.0964 32.4621C79.0346 29.6461 79.3873 28.433 79.8453 28.173C81.5635 27.683 83.3157 27.3209 85.0875 27.09C87.6721 26.7209 90.2758 26.4998 92.8857 26.4277C94.6828 26.4623 96.4745 26.634 98.2454 26.9414C98.2454 26.9414 103.438 32.8458 103.042 51.6111Z" fill="white"/>
<path d="M85.2361 26.8482L91.6417 28.3027L91.7098 26.5016C91.3532 26.1155 91.1116 25.6374 91.0121 25.1213C90.9125 24.6051 90.9592 24.0715 91.1466 23.5804L86.5172 19.248C86.8885 21.6927 86.7957 25.0596 85.2361 26.8482Z" fill="#FFB573"/>
<path d="M89.4694 29.4601L90.7382 29.8315L91.8646 30.3885C91.8646 30.3885 94.1359 38.3229 94.464 45.1927L95.7575 46.0406L96.9025 44.9018C96.9025 44.9018 94.0122 32.5237 93.189 30.1409L93.3685 29.522L93.8141 28.2409L92.7001 27.8076L91.0662 28.3461L89.9026 28.4699L89.4694 29.4601Z" fill="white"/>
<path opacity="0.2" d="M88.4048 21.0293L91.1404 23.5792C91.0041 24.0283 90.9048 24.4879 90.8433 24.9532C89.7788 24.7551 88.3677 23.5111 88.2872 22.3847C88.2426 21.9295 88.2825 21.47 88.4048 21.0293Z" fill="black"/>
<path d="M85.5022 25.6841C87.374 26.6598 89.3452 27.4317 91.3818 27.9865C91.5005 27.1021 91.405 26.2021 91.1033 25.3623L93.975 26.433C93.975 26.433 94.4268 28.5311 93.9193 29.6947L91.7593 28.4568L89.6984 30.524C89.6984 30.524 85.2608 29.3357 84.3572 27.1695L85.5022 25.6841Z" fill="#263238"/>
<path opacity="0.2" d="M100.016 33.7482L101.73 38.9408C91.0785 47.6055 81.9249 44.1768 79.9258 40.6428C79.4852 37.9242 79.2083 35.1817 79.0965 32.4299C81.2626 32.0957 83.2308 30.4556 84.0477 30.9383C85.4217 31.78 90.2368 34.1567 92.5267 34.4599C94.3773 34.7137 100.016 33.7482 100.016 33.7482Z" fill="black"/>
<path d="M95.6151 12.5631C96.1783 13.8628 96.234 16.6417 94.2659 15.9423C92.2978 15.243 94.6249 10.335 95.6151 12.5631Z" fill="#263238"/>
<path d="M86.1335 15.3791C86.282 18.8512 86.1954 20.8936 87.9221 22.6822C90.5092 25.3869 94.8291 23.8334 95.7203 20.3737C96.5187 17.2792 96.1412 12.1113 92.762 10.7064C92.0143 10.3944 91.1997 10.2771 90.3944 10.3655C89.589 10.454 88.8193 10.7452 88.1571 11.212C87.495 11.6788 86.962 12.3059 86.6081 13.0347C86.2542 13.7634 86.0909 14.5701 86.1335 15.3791Z" fill="#FFB573"/>
<path d="M83.664 12.1046L87.3774 11.0215L87.9963 13.1567L87.7488 13.0886C87.7488 13.0886 88.2748 16.2884 86.74 17.8047C83.8558 16.536 82.4076 13.6766 83.664 12.1046Z" fill="#263238"/>
<path d="M84.7223 18.2456C84.8456 18.6588 85.0496 19.0433 85.3227 19.3769C85.5957 19.7105 85.9323 19.9865 86.3129 20.189C87.3403 20.7213 88.1015 19.8548 88.0211 18.7593C87.953 17.7753 87.3341 16.2837 86.2015 16.2342C85.9546 16.2222 85.7085 16.2714 85.4852 16.3776C85.2619 16.4839 85.0684 16.6437 84.922 16.8429C84.7755 17.042 84.6806 17.2744 84.6458 17.5191C84.6109 17.7639 84.6372 18.0135 84.7223 18.2456Z" fill="#FFB573"/>
<path d="M91.388 16.3947C91.388 16.6732 91.5241 16.9022 91.7098 16.9084C91.8955 16.9146 92.0502 16.6794 92.0564 16.3947C92.0626 16.11 91.914 15.8872 91.7284 15.881C91.5427 15.8748 91.3942 16.11 91.388 16.3947Z" fill="#263238"/>
<path d="M94.5816 16.4186C94.5816 16.6971 94.7239 16.9323 94.9096 16.9323C95.0952 16.9323 95.25 16.7033 95.2562 16.4248C95.2624 16.1463 95.1138 15.9111 94.9281 15.9111C94.7425 15.9111 94.5877 16.1339 94.5816 16.4186Z" fill="#263238"/>
<path d="M93.5666 16.5488C93.9002 17.3863 94.348 18.1735 94.8972 18.8883C94.7004 19.0178 94.4784 19.1041 94.2459 19.1414C94.0133 19.1788 93.7754 19.1663 93.548 19.1049L93.5666 16.5488Z" fill="#ED893E"/>
<path d="M92.0131 20.1756C92.1346 20.1851 92.2567 20.1851 92.3782 20.1756C92.3893 20.1765 92.4005 20.175 92.4109 20.1714C92.4214 20.1677 92.431 20.1619 92.4392 20.1543C92.4473 20.1468 92.4538 20.1376 92.4582 20.1275C92.4627 20.1173 92.4649 20.1063 92.4649 20.0952C92.4649 20.0738 92.4564 20.0534 92.4413 20.0383C92.4262 20.0232 92.4058 20.0147 92.3844 20.0147C92.0333 20.0195 91.686 19.9413 91.3709 19.7865C91.0558 19.6316 90.7817 19.4044 90.571 19.1235C90.5561 19.1091 90.5361 19.1011 90.5153 19.1011C90.4946 19.1011 90.4746 19.1091 90.4596 19.1235C90.4517 19.1304 90.4454 19.139 90.4411 19.1486C90.4367 19.1582 90.4345 19.1686 90.4345 19.1792C90.4345 19.1897 90.4367 19.2001 90.4411 19.2097C90.4454 19.2193 90.4517 19.2279 90.4596 19.2349C90.6405 19.4896 90.8716 19.7045 91.1388 19.8663C91.406 20.0281 91.7036 20.1334 92.0131 20.1756Z" fill="#263238"/>
<path d="M90.4163 15.3555C90.4461 15.3595 90.4765 15.3559 90.5046 15.3451C90.5328 15.3343 90.5577 15.3166 90.5772 15.2936C90.7005 15.1248 90.8614 14.9871 91.0473 14.8915C91.2332 14.7958 91.4389 14.7449 91.6479 14.7428C91.6872 14.7398 91.7243 14.7231 91.7524 14.6954C91.7806 14.6678 91.7981 14.6311 91.8018 14.5918C91.8055 14.5525 91.7952 14.5132 91.7727 14.4808C91.7502 14.4484 91.7169 14.425 91.6788 14.4148C91.4137 14.4106 91.1513 14.4696 90.9135 14.5869C90.6756 14.7042 90.4691 14.8765 90.311 15.0894C90.2977 15.1063 90.2879 15.1257 90.2823 15.1465C90.2766 15.1673 90.2752 15.1891 90.278 15.2104C90.2809 15.2318 90.2881 15.2523 90.2991 15.2709C90.31 15.2894 90.3246 15.3056 90.342 15.3184L90.4163 15.3555Z" fill="#263238"/>
<path d="M95.9803 15.3305C96.0127 15.3395 96.0469 15.3395 96.0793 15.3305C96.1185 15.3106 96.1486 15.2764 96.1636 15.235C96.1785 15.1937 96.1772 15.1481 96.1598 15.1077C96.0539 14.8668 95.8909 14.6552 95.685 14.4913C95.479 14.3274 95.2363 14.2161 94.9777 14.167C94.9375 14.1674 94.8987 14.1823 94.8686 14.209C94.8385 14.2357 94.819 14.2723 94.8137 14.3122C94.8085 14.3521 94.8178 14.3925 94.8399 14.4261C94.8621 14.4597 94.8956 14.4842 94.9344 14.495C95.139 14.5309 95.3313 14.6178 95.4935 14.7476C95.6558 14.8774 95.7827 15.0459 95.8627 15.2377C95.8729 15.2619 95.889 15.2831 95.9095 15.2993C95.9301 15.3155 95.9545 15.3263 95.9803 15.3305Z" fill="#263238"/>
<path d="M86.7895 14.1786C86.8721 14.2213 86.9594 14.2545 87.0494 14.2777C87.2985 14.3577 87.5639 14.3729 87.8205 14.322C88.0771 14.2711 88.3166 14.1558 88.5163 13.9868C89.3394 13.2998 88.9866 10.5766 91.9697 11.2821C92.2452 11.1418 92.5553 11.084 92.8627 11.1159C93.1702 11.1477 93.4619 11.2678 93.7027 11.4616C94.5877 12.13 94.8601 15.305 96.2155 14.5252C97.5709 13.7454 97.2057 13.3617 97.2057 13.3617C97.2057 13.3617 96.8591 13.7206 96.5868 13.5721C96.7576 13.3388 96.8522 13.0584 96.8577 12.7693C96.8632 12.4802 96.7794 12.1965 96.6178 11.9567C96.6178 11.9567 96.364 12.4581 96.1041 12.4333C96.0485 11.1386 95.597 9.89215 94.8105 8.86221C93.4551 6.95598 88.3925 8.68272 88.3925 8.68272C88.3925 8.68272 87.4703 7.75436 85.2979 9.07882C83.1256 10.4033 82.7604 13.4854 83.4412 14.649" fill="#263238"/>
<path d="M114.987 49.1772C116.066 49.1726 117.136 48.98 118.15 48.6078C120.535 47.7025 122.498 45.9418 123.657 43.6687C124.816 41.3955 125.088 38.7725 124.419 36.3101C124.1 35.1255 123.536 34.021 122.763 33.0681C121.99 32.1151 121.026 31.3349 119.933 30.7779C118.84 30.2208 117.642 29.8993 116.417 29.8342C115.192 29.769 113.967 29.9616 112.821 30.3995C110.435 31.3048 108.472 33.0654 107.313 35.3386C106.154 37.6118 105.883 40.2348 106.551 42.6972C106.875 43.8802 107.441 44.9829 108.213 45.9355C108.986 46.888 109.948 47.6695 111.038 48.2302C112.261 48.8542 113.614 49.1787 114.987 49.1772ZM115.977 31.6126C117.072 31.6088 118.152 31.8655 119.127 32.3615C119.999 32.8128 120.768 33.4403 121.385 34.2041C122.002 34.968 122.453 35.8516 122.711 36.799C123.254 38.831 123.025 40.9925 122.067 42.8651C121.109 44.7378 119.49 46.1885 117.524 46.9367C116.609 47.2927 115.628 47.4515 114.646 47.4027C113.665 47.3539 112.705 47.0986 111.829 46.6535C110.953 46.2085 110.18 45.5836 109.562 44.8198C108.944 44.0559 108.494 43.1703 108.241 42.2206C107.693 40.1917 107.918 38.0315 108.871 36.1587C109.825 34.2858 111.439 32.8335 113.403 32.0829C114.226 31.7739 115.098 31.6146 115.977 31.6126Z" fill="#263238"/>
<path d="M80.7861 36.7389C83.4378 38.4353 86.2794 39.8146 89.2527 40.8484C91.2023 41.5354 93.158 41.0155 94.99 40.5328C99.3771 39.1374 103.585 37.2326 107.529 34.8574L106.403 32.4808C104.335 33.1987 102.225 33.9043 100.145 34.5541C97.2861 35.3835 94.0926 36.5161 91.2703 36.4542C90.8742 36.3923 91.2085 36.4542 90.5339 36.1447L89.1413 35.402C87.2846 34.3809 85.3969 33.2668 83.5711 32.2271L80.7861 36.7389Z" fill="#FFB573"/>
<path d="M106.316 32.431L109.794 31.7007L108.755 36.0764C108.755 36.0764 105.66 36.0268 105.518 34.3805L106.316 32.431Z" fill="#FFB573"/>
<path d="M112.4 32.9929L111.379 36.5702L108.755 36.0812L109.794 31.7056L112.4 32.9929Z" fill="#FFB573"/>
<path d="M79.8453 28.1416C75.7791 30.8957 78.3662 35.3457 79.8453 37.5366C81.3245 39.7275 90.8619 42.5745 92.502 42.4012C94.1421 42.2279 101.73 38.6197 101.73 38.6197L99.8175 34.1017C99.8175 34.1017 94.5939 35.5809 92.8857 35.7789C91.1775 35.977 79.8453 28.1416 79.8453 28.1416Z" fill="#263238"/>
<path opacity="0.2" d="M79.8453 28.1416C75.7791 30.8957 78.3662 35.3457 79.8453 37.5366C81.3245 39.7275 90.8619 42.5745 92.502 42.4012C94.1421 42.2279 101.73 38.6197 101.73 38.6197L99.8175 34.1017C99.8175 34.1017 94.5939 35.5809 92.8857 35.7789C91.1775 35.977 79.8453 28.1416 79.8453 28.1416Z" fill="white"/>
<path d="M99.4833 33.8666L101.278 39.4306L102.745 38.4837L101.161 33.5015L99.4833 33.8666Z" fill="#263238"/>
<path d="M104.948 46.9057C106.854 42.2082 113.427 35.8025 115.47 34.1005C117.512 32.3985 122.94 31.7548 132.397 32.0333C135.529 32.1722 138.588 33.0186 141.346 34.509C148.637 34.5647 160.631 34.7194 165.533 35.1279C169.154 35.4435 178.66 36.4523 179.483 39.9306C180.306 43.4088 175.027 51.7269 174.532 51.7269H147.511C147.49 52.1708 147.402 52.6089 147.251 53.0267C146.861 53.3485 116.689 55.5951 116.689 55.5951C116.689 55.5951 103.042 51.6094 104.948 46.9057Z" fill="#263238"/>
<path opacity="0.3" d="M104.948 46.9057C106.854 42.2082 113.427 35.8025 115.47 34.1005C117.512 32.3985 122.94 31.7548 132.397 32.0333C135.529 32.1722 138.588 33.0186 141.346 34.509C148.637 34.5647 160.631 34.7194 165.533 35.1279C169.154 35.4435 178.66 36.4523 179.483 39.9306C180.306 43.4088 175.027 51.7269 174.532 51.7269H147.511C147.49 52.1708 147.402 52.6089 147.251 53.0267C146.861 53.3485 116.689 55.5951 116.689 55.5951C116.689 55.5951 103.042 51.6094 104.948 46.9057Z" fill="white"/>
<g opacity="0.3">
<path d="M34.9559 33.8601C38.4528 34.0024 41.962 34.1881 45.4402 34.4047L46.2572 34.4604L47.7921 34.5594L48.5224 34.609C53.3499 34.937 58.1155 35.3207 62.7573 35.7415C58.134 24.1185 54.9652 13.9189 54.7115 13.1205C57.4594 19.8171 63.7599 26.396 63.7599 26.396C60.5473 19.7683 57.8732 12.8927 55.7636 5.83594C53.0652 6.14539 51.326 6.45484 50.7628 6.55386L50.5586 6.591C50.5568 6.60331 50.5568 6.61582 50.5586 6.62814C50.3853 6.83857 50.212 7.04487 50.0387 7.24705L49.8407 7.50699C40.8356 19.0434 34.9559 33.8601 34.9559 33.8601Z" fill="white"/>
<path d="M152.307 23.7408C143.16 18.3934 134.507 13.9373 133.74 13.5288C143.506 19.0185 154.684 29.4533 162.21 37.1092C174.297 37.6229 180.48 38.8174 180.48 38.8174C171.38 26.8843 160.904 16.0673 149.268 6.59086C140.413 5.26773 131.466 4.64689 122.513 4.73414C138.19 11.5854 151.787 23.2952 152.307 23.7408Z" fill="white"/>
</g>
<path d="M95.4727 74.8193H103.723C112.895 74.8193 120.328 85.0932 120.328 97.7684C120.328 110.444 112.901 120.718 103.723 120.718H95.4727C86.3005 120.718 78.8675 110.444 78.8675 97.7684C78.8675 85.0932 86.3005 74.8193 95.4727 74.8193Z" fill="#263238"/>
<path opacity="0.1" d="M92.8733 119.09C85.2099 119.09 78.9974 109.545 78.9974 97.7691C78.9974 85.9937 85.2099 76.4478 92.8733 76.4478C100.537 76.4478 106.749 85.9937 106.749 97.7691C106.749 109.545 100.537 119.09 92.8733 119.09Z" fill="white"/>
<path opacity="0.6" d="M91.6726 86.2456C95.8131 86.2456 99.1676 91.4073 99.1676 97.7697C99.1676 104.132 95.8131 109.294 91.6726 109.294C87.5322 109.294 84.1715 104.132 84.1715 97.7697C84.1715 91.4073 87.5322 86.2456 91.6726 86.2456Z" fill="#263238"/>
<path d="M190.456 74.8193H198.706C207.885 74.8193 215.312 85.0932 215.312 97.7684C215.312 110.444 207.885 120.718 198.706 120.718H190.456C181.284 120.718 173.845 110.444 173.845 97.7684C173.845 85.0932 181.272 74.8193 190.456 74.8193Z" fill="#263238"/>
<path opacity="0.1" d="M187.857 119.09C180.194 119.09 173.981 109.545 173.981 97.7691C173.981 85.9937 180.194 76.4478 187.857 76.4478C195.52 76.4478 201.733 85.9937 201.733 97.7691C201.733 109.545 195.52 119.09 187.857 119.09Z" fill="white"/>
<path opacity="0.6" d="M186.65 109.294C182.511 109.294 179.155 104.134 179.155 97.7697C179.155 91.4051 182.511 86.2456 186.65 86.2456C190.79 86.2456 194.145 91.4051 194.145 97.7697C194.145 104.134 190.79 109.294 186.65 109.294Z" fill="#263238"/>
<path d="M20.4921 72.8884L20.3745 96.506C20.3679 97.4042 20.5392 98.2948 20.8784 99.1265C21.2176 99.9582 21.7181 100.715 22.3509 101.352C22.9837 101.989 23.7364 102.495 24.5656 102.841C25.3949 103.186 26.2842 103.363 27.1824 103.363H87.3898C89.8946 105.91 92.8808 107.932 96.1747 109.314C99.4685 110.695 103.004 111.407 106.576 111.409H145.109L149.491 104.836H158.261L159.424 105.938C162.656 108.982 166.93 110.674 171.369 110.667C173.698 110.662 176.003 110.189 178.145 109.276C180.287 108.362 182.224 107.027 183.84 105.35L184.366 104.799H204.407C206.01 104.8 207.562 104.235 208.789 103.203C210.016 102.172 210.84 100.74 211.116 99.1611L216.469 68.4014L20.4921 72.8884Z" fill="#263238"/>
<path d="M15.6089 68.4202L18.821 66.056C21.7423 47.594 25.9261 39.443 25.9261 39.443L33.1797 33.2539C35.9709 23.1843 46.0777 6.28191 51.388 4.33235H51.4189C52.2792 4.10955 71.6881 0 102.039 0C140.028 0 150.933 6.36856 150.933 6.36856C166.022 17.4718 183.29 38.9974 183.29 38.9974C192.323 42.3325 200.662 47.3097 207.885 53.6779C208.696 54.402 209.5 55.1632 210.286 55.9492C210.961 56.6177 211.629 57.3108 212.273 58.0288C212.768 58.5734 213.257 59.1304 213.734 59.6998C215.418 61.7467 216.871 63.9739 218.066 66.3407C218.857 67.8917 219.567 69.4823 220.195 71.1063C220.43 71.7252 220.634 72.2884 220.814 72.8392C220.931 73.1796 223.754 76.4474 223.754 76.4474C225.394 77.3387 223.221 90.5771 220.269 97.416C220.07 97.8702 219.743 98.2564 219.327 98.5269C218.911 98.7974 218.426 98.9405 217.93 98.9386H139.062C138.926 82.8965 129.42 69.9551 117.704 69.9551C105.988 69.9551 96.4939 82.8965 96.3516 98.9386H60.1579C60.0217 82.8965 50.5153 69.9551 38.7993 69.9551C36.4664 69.9628 34.1628 70.4758 32.0471 71.4591C24.1003 75.092 18.2331 84.9636 17.5213 96.8343C17.5213 97.0261 17.5213 97.2304 17.4842 97.4222C17.2751 97.2036 17.0904 96.9629 16.9334 96.7043C16.6614 96.568 16.4207 96.3765 16.2268 96.1421C16.0329 95.9077 15.8899 95.6354 15.8069 95.3427C12.7681 87.0988 15.6089 68.4202 15.6089 68.4202ZM180.467 38.8117C171.365 26.8832 160.889 16.0686 149.256 6.59136C122.525 2.36422 94.6186 6.59136 94.6186 6.59136C106.093 19.279 114.789 38.8117 114.789 38.8117C157.939 34.4608 180.467 38.8117 180.467 38.8117ZM109.534 41.4668C104.373 21.7422 90.4843 6.59136 90.4843 6.59136C84.3557 5.68417 78.1738 5.18382 71.979 5.09361C71.5086 8.70184 70.5307 18.1959 70.308 36.4784C92.502 38.7312 109.534 41.4668 109.534 41.4668ZM45.4402 34.4113L46.2572 34.4608L47.7921 34.566L48.5224 34.6093C55.0395 35.0487 61.4514 35.5996 67.5229 36.1937C67.758 28.6059 68.3275 14.5319 69.5838 5.07504C63.2753 5.02745 56.9742 5.52233 50.7505 6.55423L50.5462 6.59136C50.5444 6.60368 50.5444 6.61619 50.5462 6.6285C50.3729 6.83893 50.1996 7.06174 50.0264 7.24741L49.8283 7.50735C40.8603 19.0128 34.9745 33.8357 34.9745 33.8357C38.4528 34.009 41.962 34.1761 45.4402 34.4113Z" fill="#173E6D"/>
<path d="M117.388 74.8193H125.645C134.817 74.8193 142.25 85.0932 142.25 97.7684C142.25 110.444 134.823 120.718 125.645 120.718H117.388C108.222 120.718 100.783 110.444 100.783 97.7684C100.783 85.0932 108.241 74.8193 117.388 74.8193Z" fill="#263238"/>
<path opacity="0.2" d="M114.789 119.09C107.125 119.09 100.913 109.545 100.913 97.7691C100.913 85.9937 107.125 76.4478 114.789 76.4478C122.452 76.4478 128.665 85.9937 128.665 97.7691C128.665 109.545 122.452 119.09 114.789 119.09Z" fill="white"/>
<path opacity="0.6" d="M113.588 86.2456C117.729 86.2456 121.089 91.4073 121.089 97.7697C121.089 104.132 117.729 109.294 113.588 109.294C109.448 109.294 106.093 104.132 106.093 97.7697C106.093 91.4073 109.448 86.2456 113.588 86.2456Z" fill="white"/>
<path d="M39.9444 74.8193H48.2069C57.3791 74.8193 64.8121 85.0932 64.8121 97.7684C64.8121 110.444 57.3853 120.718 48.2069 120.718H39.9568C30.7846 120.718 23.3515 110.444 23.3515 97.7684C23.3515 85.0932 30.7722 74.8193 39.9444 74.8193Z" fill="#263238"/>
<path opacity="0.2" d="M37.345 119.09C29.6815 119.09 23.4691 109.545 23.4691 97.7691C23.4691 85.9937 29.6815 76.4478 37.345 76.4478C45.0084 76.4478 51.2209 85.9937 51.2209 97.7691C51.2209 109.545 45.0084 119.09 37.345 119.09Z" fill="white"/>
<path opacity="0.6" d="M36.1443 109.294C32.005 109.294 28.6493 104.134 28.6493 97.7697C28.6493 91.4051 32.005 86.2456 36.1443 86.2456C40.2837 86.2456 43.6393 91.4051 43.6393 97.7697C43.6393 104.134 40.2837 109.294 36.1443 109.294Z" fill="white"/>
<path d="M208.819 99.8416L206.418 88.2371C206.306 87.6725 206 87.1646 205.554 86.8009C205.108 86.4372 204.549 86.2403 203.973 86.2442H186.774C185.978 86.2431 185.198 86.4667 184.523 86.8893C183.849 87.312 183.308 87.9164 182.961 88.6332L177.515 99.8416H208.819Z" fill="#263238"/>
<path opacity="0.7" d="M132.688 64.9042L144.342 72.2445L169.098 77.5732H210.07L220.882 72.8386C220.69 72.2878 220.486 71.7122 220.263 71.1057C219.636 69.4817 218.925 67.8911 218.134 66.3401C218.097 66.2658 218.06 66.1915 218.016 66.1173C216.838 63.8315 215.417 61.6797 213.777 59.6992C213.3 59.1298 212.811 58.5728 212.316 58.0281C207.322 59.266 205.651 64.9042 205.651 64.9042L204.735 73.6679L204.469 76.2117H176.383L174.625 73.6803L168.51 64.9042C168.51 64.9042 160.081 60.4481 152.957 59.0493C147.282 57.9353 136.463 57.8115 136.463 57.8115C133.307 59.0431 132.688 64.9042 132.688 64.9042Z" fill="white"/>
<path d="M148.847 66.8987C149.126 69.1021 150.766 70.705 152.511 70.4884C154.257 70.2718 155.445 68.2975 155.16 66.0942C154.875 63.8909 153.242 62.2817 151.496 62.5045C149.751 62.7273 148.569 64.6954 148.847 66.8987Z" fill="white"/>
<path d="M158.287 71.3644C156.926 68.4614 157.684 65.2353 159.98 64.1586C162.277 63.0819 165.242 64.5624 166.603 67.4654C167.964 70.3684 167.206 73.5945 164.909 74.6712C162.613 75.7479 159.648 74.2674 158.287 71.3644Z" fill="white"/>
<path d="M206.333 71.3629C204.972 68.46 205.73 65.2338 208.027 64.1571C210.323 63.0805 213.288 64.561 214.649 67.4639C216.01 70.3669 215.252 73.593 212.955 74.6697C210.659 75.7464 207.694 74.2659 206.333 71.3629Z" fill="white"/>
<path d="M212.217 63.4253C212.929 63.717 213.571 64.1539 214.104 64.708C214.637 65.2622 215.048 65.9214 215.312 66.6436C215.609 67.3833 215.76 68.1735 215.757 68.9707C215.842 68.9703 215.926 68.9535 216.005 68.9212C216.983 68.5251 217.113 66.5445 216.29 64.4712C215.467 62.3979 214.012 61.0548 213.034 61.4447C212.49 61.6675 212.217 62.4288 212.217 63.4253Z" fill="white"/>
<path d="M155.952 85.6381L154.486 85.9908C154.2 86.059 153.951 86.233 153.789 86.4778C153.627 86.7225 153.564 87.0197 153.613 87.3091L154.906 95.1197C154.952 95.3902 155.092 95.6358 155.302 95.8127C155.511 95.9895 155.777 96.0861 156.051 96.0852H167.656C167.963 96.0852 168.259 95.9635 168.477 95.7466C168.695 95.5298 168.818 95.2354 168.82 94.9279C168.82 94.6566 168.726 94.3936 168.553 94.1846C168.38 93.9755 168.139 93.8334 167.873 93.7829C166.016 93.4363 161.622 91.9942 157.178 86.0837C157.041 85.8955 156.852 85.7525 156.633 85.6731C156.415 85.5937 156.178 85.5815 155.952 85.6381Z" fill="#263238"/>
<path d="M155.952 85.6388L165.205 85.6079L155.952 87.9598V85.6388Z" fill="#263238"/>
<path d="M215.312 85.6079L222.219 86.2268L218.765 96.6864H213.356L214.538 94.0312C216.929 92.642 218.791 90.4975 219.83 87.935L215.312 85.6079Z" fill="#263238"/>
<path opacity="0.7" d="M155.822 93.2134C155.822 94.5192 156.689 95.5776 157.76 95.5776C158.83 95.5776 159.691 94.5192 159.691 93.2134C159.691 91.9075 158.824 90.8491 157.76 90.8491C156.695 90.8491 155.822 91.9075 155.822 93.2134Z" fill="white"/>
<path opacity="0.7" d="M216.89 93.2688C216.537 94.5066 216.723 95.6763 217.305 95.8372C217.886 95.9982 218.642 95.1131 218.994 93.8505C219.347 92.588 219.161 91.443 218.58 91.2821C217.998 91.1212 217.237 92.0062 216.89 93.2688Z" fill="white"/>
<path opacity="0.7" d="M189.819 68.4204H194.56C194.651 68.4208 194.742 68.4428 194.823 68.4847C194.904 68.5265 194.975 68.587 195.029 68.6612C195.082 68.7353 195.118 68.8211 195.132 68.9116C195.146 69.002 195.139 69.0946 195.111 69.1817L193.73 73.4831C193.698 73.5843 193.639 73.6748 193.559 73.7447C193.479 73.8147 193.382 73.8614 193.277 73.8799C193.173 73.8984 193.065 73.8879 192.966 73.8496C192.867 73.8113 192.78 73.7466 192.715 73.6626L189.361 69.3612C189.294 69.2753 189.252 69.1722 189.24 69.0637C189.229 68.9552 189.248 68.8457 189.296 68.7475C189.344 68.6494 189.418 68.5667 189.51 68.5089C189.603 68.451 189.71 68.4204 189.819 68.4204ZM191.261 69.454L192.938 71.6078C192.971 71.6498 193.015 71.682 193.064 71.7009C193.114 71.7199 193.168 71.7249 193.22 71.7153C193.273 71.7057 193.321 71.682 193.361 71.6467C193.401 71.6113 193.43 71.5658 193.446 71.5149L194.139 69.3673C194.152 69.3234 194.155 69.2769 194.148 69.2316C194.14 69.1863 194.122 69.1433 194.095 69.1061C194.068 69.069 194.033 69.0385 193.992 69.0173C193.952 68.996 193.906 68.9845 193.86 68.9836H191.49C191.435 68.9836 191.382 68.9989 191.336 69.0279C191.289 69.0568 191.252 69.0981 191.228 69.1472C191.205 69.1962 191.195 69.251 191.201 69.3053C191.206 69.3595 191.227 69.4111 191.261 69.454Z" fill="white"/>
<path opacity="0.2" d="M132.688 64.9052L144.342 72.2454L169.098 77.5742H210.07L220.882 72.8396C220.69 72.2888 220.486 71.7132 220.263 71.1067C219.607 69.4044 218.859 67.7392 218.023 66.1182L218.864 71.3109C218.936 71.7537 218.86 72.208 218.648 72.603C218.435 72.9981 218.098 73.3119 217.688 73.4956L211.499 76.2621C211.006 76.4854 210.464 76.582 209.924 76.5431C209.383 76.5042 208.861 76.331 208.405 76.0393L204.691 73.6504L204.425 76.1941H176.339L174.582 73.6627L170.67 76.2869C170.345 76.5065 169.979 76.6585 169.594 76.734C169.21 76.8095 168.813 76.8069 168.43 76.7263L146.409 72.0598C145.741 71.9172 145.122 71.6014 144.615 71.144C144.107 70.6867 143.729 70.1039 143.519 69.4542L142.237 65.3013C142.063 64.7323 142.066 64.1235 142.246 63.5563C142.426 62.989 142.775 62.4902 143.246 62.1263L146.415 59.6507C140.74 58.5366 136.444 57.7939 136.444 57.7939C133.307 59.0441 132.688 64.9052 132.688 64.9052Z" fill="black"/>
<path d="M204.71 73.668H203.54L203.311 75.5309H177.515L176.228 73.668L174.6 73.6803L176.358 76.2117H204.444L204.71 73.668Z" fill="#263238"/>
<path d="M205.768 77.5729L204.71 76.8179H176.228L175.578 77.5729H205.768Z" fill="#263238"/>
<path opacity="0.2" d="M15.6089 68.4207L18.8211 66.0565C19.6104 60.9209 20.6703 55.8305 21.9961 50.8066C23.8899 43.7448 25.5734 40.1366 25.8766 39.5115C25.8902 39.4791 25.9068 39.448 25.9261 39.4187L33.1797 33.2296C35.971 23.1538 46.0778 6.25762 51.388 4.30806H51.4189C79.9196 0.656511 91.6479 5.05694 91.6479 5.05694C106.57 23.2528 112.691 41.4487 112.691 41.4487C121.103 46.1137 129.045 51.5792 136.407 57.7693C135.788 63.4756 139.805 69.3862 139.805 69.3862L144.311 72.227L143.834 78.7936C146.65 87.6996 151.1 98.9143 151.1 98.9143H139.031C138.895 82.8784 129.389 69.937 117.673 69.937C105.957 69.937 96.463 82.8784 96.3207 98.9143H60.127C59.9908 82.8784 50.4844 69.937 38.7685 69.937C36.4359 69.9425 34.1323 70.4535 32.0162 71.4348C24.0694 75.0678 18.2022 84.9455 17.4904 96.81C17.4904 97.008 17.4904 97.2061 17.4533 97.4289C17.2441 97.2081 17.0594 96.9653 16.9025 96.7048C16.63 96.5707 16.3888 96.3807 16.1947 96.1472C16.0006 95.9136 15.858 95.6418 15.776 95.3493C12.7682 87.0993 15.6089 68.4207 15.6089 68.4207ZM109.534 41.4673C104.373 21.7427 90.4844 6.59183 90.4844 6.59183C84.3555 5.68588 78.1738 5.18349 71.979 5.08788C71.5087 8.7023 70.5308 18.1963 70.308 36.4789C92.502 38.7317 109.534 41.4673 109.534 41.4673ZM45.4403 34.4055L46.2572 34.4612L47.7921 34.5603L48.5224 34.6098C55.0395 35.0492 61.4514 35.6 67.5229 36.1942C67.7581 28.6064 68.3275 14.4953 69.5839 5.0755C63.2752 5.02438 56.9739 5.51928 50.7505 6.55469L50.5463 6.59183C50.5445 6.60414 50.5445 6.61665 50.5463 6.62897C50.373 6.8394 50.1997 7.0457 50.0264 7.24788L49.8283 7.50782C40.8604 19.0133 34.9745 33.8299 34.9745 33.8299C38.4528 34.0032 41.962 34.1765 45.4403 34.4055Z" fill="black"/>
<path d="M45.4403 34.4112L46.2572 34.4607C48.182 18.7034 49.7788 10.5585 50.7505 6.5542L50.5463 6.59133C50.5445 6.60365 50.5445 6.61616 50.5463 6.62847C50.373 6.8389 50.1997 7.06171 50.0264 7.24738C47.5879 17.973 46.1706 28.3088 45.4403 34.4112Z" fill="#263238"/>
<path d="M146.044 98.9327H140.393C139.186 98.9361 138.013 98.5314 137.065 97.7843C136.116 97.0371 135.449 95.9915 135.169 94.817C133.703 88.6279 129.407 77.2709 117.388 74.8201C104.725 72.2392 100.542 87.322 99.2481 94.8479C99.0539 95.9896 98.4621 97.0259 97.5776 97.7734C96.693 98.5209 95.5726 98.9316 94.4144 98.9327H93.059C93.059 98.9327 93.059 62.182 119.548 65.0661C138.239 67.1085 143.519 94.9531 143.519 94.9531L146.044 98.9327Z" fill="#173E6D"/>
<path opacity="0.2" d="M146.044 98.9327H140.393C139.186 98.9361 138.013 98.5314 137.065 97.7843C136.116 97.0371 135.449 95.9915 135.169 94.817C133.703 88.6279 129.407 77.2709 117.388 74.8201C104.725 72.2392 100.542 87.322 99.2481 94.8479C99.0539 95.9896 98.4621 97.0259 97.5776 97.7734C96.693 98.5209 95.5726 98.9316 94.4144 98.9327H93.059C93.059 98.9327 93.059 62.182 119.548 65.0661C138.239 67.1085 143.519 94.9531 143.519 94.9531L146.044 98.9327Z" fill="black"/>
<path d="M68.5999 98.9327H62.943C61.7369 98.9347 60.5654 98.5293 59.6184 97.7823C58.6715 97.0353 58.0045 95.9904 57.7256 94.817C56.2526 88.6279 51.9574 77.2709 39.9444 74.8201C27.2816 72.2392 23.0916 87.322 21.798 94.8479C21.6061 95.9907 21.0151 97.0284 20.13 97.7763C19.2449 98.5243 18.1232 98.934 16.9644 98.9327H15.609C15.609 98.9327 15.609 62.182 42.1044 65.0661C60.7892 67.1085 66.0747 94.9531 66.0747 94.9531L68.5999 98.9327Z" fill="#173E6D"/>
<path opacity="0.2" d="M68.5999 98.9327H62.943C61.7369 98.9347 60.5654 98.5293 59.6184 97.7823C58.6715 97.0353 58.0045 95.9904 57.7256 94.817C56.2526 88.6279 51.9574 77.2709 39.9444 74.8201C27.2816 72.2392 23.0916 87.322 21.798 94.8479C21.6061 95.9907 21.0151 97.0284 20.13 97.7763C19.2449 98.5243 18.1232 98.934 16.9644 98.9327H15.609C15.609 98.9327 15.609 62.182 42.1044 65.0661C60.7892 67.1085 66.0747 94.9531 66.0747 94.9531L68.5999 98.9327Z" fill="black"/>
<path opacity="0.2" d="M115.538 64.9432C112.264 64.6771 108.965 65.7664 106.149 67.4808C103.341 69.2774 100.944 71.6482 99.1181 74.4373C97.2884 77.2052 95.816 80.1935 94.7362 83.331C93.6698 86.4531 92.8422 89.6517 92.2606 92.8993L93.0776 92.2185L78.9479 92.1566L64.8182 92.2061L65.6414 92.8622C64.7954 89.5713 63.6562 86.3628 62.2374 83.2753C60.8342 80.1829 59.0882 77.2577 57.0324 74.5549C54.9825 71.8384 52.4425 69.5294 49.5436 67.7469C48.0809 66.8881 46.5232 66.2026 44.9018 65.7045C43.2892 65.247 41.6261 64.9913 39.9505 64.9432C41.6053 65.136 43.2342 65.5074 44.809 66.0511C46.3561 66.6316 47.8307 67.3897 49.2032 68.3101C51.8981 70.2076 54.2382 72.5644 56.1164 75.2728C58.0173 77.969 59.6194 80.864 60.8944 83.9066C62.2089 86.9238 63.2547 90.0511 64.0198 93.2521L64.1746 93.9081H64.8368L78.9665 93.9576L93.0961 93.8957H93.7584L93.8698 93.2149C94.3929 90.0356 95.1437 86.8979 96.1164 83.8261C97.0773 80.7633 98.403 77.8272 100.065 75.0809C101.723 72.3316 103.913 69.9412 106.508 68.0502C109.139 66.134 112.285 65.0517 115.538 64.9432Z" fill="black"/>
<path d="M143.865 78.8122C143.865 78.8122 126.455 62.634 109.534 66.3103C109.534 66.3103 117.364 62.2998 132.688 64.9054L146.044 73.6691L143.865 78.8122Z" fill="#173E6D"/>
<path d="M108.241 46.0409C108.241 46.0409 40.7118 38.0508 25.9261 39.4185L31.7562 34.4673C31.7562 34.4673 99.8855 39.3381 108.241 46.0409Z" fill="#173E6D"/>
<path opacity="0.7" d="M21.9961 50.8066C25.2391 44.7785 28.6431 43.0765 28.6431 43.0765L32.4803 37.5435C30.1384 37.5696 27.8507 38.2514 25.8766 39.5116C25.5733 40.1367 23.8899 43.7449 21.9961 50.8066Z" fill="white"/>
<path d="M89.2218 43.1314C89.2218 44.3692 101.897 46.4673 102.101 46.4673C102.305 46.4673 104.769 46.0402 104.769 46.0402L109.274 46.4673C109.412 46.3285 109.525 46.1674 109.609 45.9907C109.789 45.6142 109.896 45.2067 109.924 44.79C109.931 44.6581 109.931 44.5259 109.924 44.3939C109.91 43.405 109.772 42.4217 109.516 41.4665C108.588 41.5503 107.653 41.4467 106.766 41.1617C105.88 40.8768 105.059 40.4163 104.354 39.8078C103.698 38.1863 102.807 36.4224 101.829 35.6611C101.829 35.6611 92.9167 36.2801 91.0538 37.357C89.228 38.44 89.2218 43.1314 89.2218 43.1314Z" fill="#263238"/>
<path d="M89.2218 43.1314L89.7045 42.7167C89.7045 42.7167 103.593 45.5327 103.704 42.7167C103.816 39.9006 101.848 35.6611 101.848 35.6611C101.848 35.6611 92.8796 36.28 91.0538 37.3693C89.228 38.4586 89.2218 43.1314 89.2218 43.1314Z" fill="#173E6D"/>
<path opacity="0.2" d="M89.2217 43.1323C89.2217 44.3701 101.897 46.4682 102.101 46.4682C102.305 46.4682 104.769 46.0412 104.769 46.0412L109.274 46.4682C109.412 46.3295 109.525 46.1683 109.609 45.9917C109.789 45.6152 109.896 45.2076 109.924 44.791L104.769 43.7883L103.661 42.4082C99.9351 42.3624 96.2153 42.0978 92.5205 41.616C92.2992 41.583 92.0974 41.4706 91.9527 41.2998C91.8081 41.129 91.7305 40.9114 91.7345 40.6876C91.7345 39.9387 91.7345 38.8309 91.7345 38.3234C91.6577 37.9349 91.4366 37.5899 91.1156 37.3579C89.2279 38.441 89.2217 43.1323 89.2217 43.1323Z" fill="black"/>
</svg>
