<svg width="891" height="914" viewBox="0 0 891 914" fill="none" xmlns="http://www.w3.org/2000/svg">
<g clip-path="url(#clip0_213_2364)">
<path fill-rule="evenodd" clip-rule="evenodd" d="M503.663 2.61616C620.892 21.9254 660.312 159.594 727.472 254.685C776.052 323.474 815.885 390.259 834.864 471.561C862.039 587.974 931.897 719.519 858.328 815.246C782.593 913.789 627.505 928.905 503.663 902.513C397.213 879.831 358.383 761.441 276.852 691.347C184.561 612.002 22.3022 589.552 2.39397 471.561C-18.0775 350.233 96.9134 251.246 188.188 165.857C277.346 82.4481 381.487 -17.5078 503.663 2.61616Z" fill="#C2CEE7"/>
<mask id="mask0_213_2364" style="mask-type:luminance" maskUnits="userSpaceOnUse" x="53" y="23" width="624" height="394">
<path d="M676.635 23.3237H53.2266V416.183H676.635V23.3237Z" fill="white"/>
</mask>
<g mask="url(#mask0_213_2364)">
<path d="M548.191 174.967C569.069 174.967 585.994 158.057 585.994 137.198C585.994 116.338 569.069 99.4285 548.191 99.4285C527.312 99.4285 510.387 116.338 510.387 137.198C510.387 158.057 527.312 174.967 548.191 174.967Z" fill="#E6AD47"/>
<path d="M413.199 149.012C416.13 130.947 403.866 113.926 385.809 110.994C367.75 108.063 350.736 120.331 347.806 138.396C344.875 156.461 357.138 173.483 375.196 176.414C393.255 179.346 410.269 167.078 413.199 149.012Z" fill="#EFF1F5"/>
<path d="M396.225 165.428C398.578 150.923 388.731 137.255 374.231 134.902C359.732 132.547 346.07 142.398 343.717 156.904C341.364 171.409 351.211 185.076 365.711 187.43C380.21 189.784 393.871 179.933 396.225 165.428Z" fill="#EFF1F5"/>
<path d="M365.191 151.43C367.544 136.924 357.697 123.257 343.198 120.903C328.698 118.55 315.036 128.4 312.683 142.905C310.33 157.411 320.177 171.078 334.677 173.432C349.176 175.785 362.838 165.935 365.191 151.43Z" fill="#EFF1F5"/>
<path d="M437.44 161.207C439.878 146.178 429.676 132.017 414.652 129.578C399.629 127.139 385.473 137.346 383.036 152.375C380.598 167.404 390.8 181.565 405.823 184.004C420.846 186.443 435.002 176.237 437.44 161.207Z" fill="#EFF1F5"/>
<path d="M609.046 279.394C437.775 215.249 228.884 277.785 108.279 405.706C107.593 406.423 106.907 407.151 106.244 407.88H104.404C105.036 407.151 105.689 406.423 106.331 405.706C229.439 268.054 435.555 213.194 609.046 279.394Z" fill="#3F3D56"/>
<path d="M655.85 300.67C640.711 292.604 625.08 285.498 609.047 279.394C625.122 285.397 640.76 292.506 655.85 300.67Z" fill="#3F3D56"/>
<path d="M564.769 396.151C566.613 402.958 572.927 407.175 572.927 407.175C572.927 407.175 576.252 400.353 574.408 393.545C572.565 386.737 566.251 382.521 566.251 382.521C566.251 382.521 562.926 389.342 564.769 396.151Z" fill="#3F3D56"/>
<path d="M567.478 394.687C572.536 399.607 573.154 407.169 573.154 407.169C573.154 407.169 565.571 406.755 560.512 401.836C555.454 396.916 554.837 389.354 554.837 389.354C554.837 389.354 562.42 389.768 567.478 394.687Z" fill="#173E6D"/>
<path d="M345.504 344.976L341.002 337.479L383.022 301.495C414.087 286.556 451.533 290.867 491.073 301.495V311.99L452.055 353.972L407.033 362.968L345.504 344.976Z" fill="#3F3D56"/>
<path d="M509.673 322.612C517.135 314.32 518.172 306.434 509.673 299.154H495.526V306.551L491.074 301.495L455.056 337.48L449.053 343.477L441.549 373.465L455.056 406.449H524.089V338.979L509.673 322.612Z" fill="#CCCCCC"/>
<path d="M341.002 337.479H455.056V406.449H341.002C327.204 391.534 334.372 364.349 341.002 337.479Z" fill="#F2F2F2"/>
<path d="M439.299 359.219H415.287V380.211H439.299V359.219Z" fill="#3F3D56"/>
<path d="M405.532 358.47H384.522V406.449H405.532V358.47Z" fill="#CCCCCC"/>
<path d="M360.511 365.967V358.471H351.507V365.967H359.76H360.511Z" fill="#3F3D56"/>
<path d="M359.76 371.964H351.507V379.461H360.511V371.964H359.76Z" fill="#3F3D56"/>
<path d="M375.518 358.47H366.514V365.967H375.518V358.47Z" fill="#3F3D56"/>
<path d="M375.518 371.964H366.514V379.461H375.518V371.964Z" fill="#3F3D56"/>
<path d="M487.321 366.717V359.22H478.317V366.717H486.57H487.321Z" fill="#3F3D56"/>
<path d="M486.57 372.714H478.317V380.211H487.321V372.714H486.57Z" fill="#3F3D56"/>
<path d="M502.329 359.219H493.324V366.717H502.329V359.219Z" fill="#3F3D56"/>
<path d="M502.329 372.714H493.324V380.211H502.329V372.714Z" fill="#3F3D56"/>
<path d="M142.422 219.032L134.919 213.034L176.939 175.55H283.489V208.536L214.457 255.016L142.422 219.032Z" fill="#3F3D56"/>
<path d="M302.915 196.576V176.299H288.769V181.265L283.488 175.55L248.972 213.034L235.466 222.03L214.524 374.895L246.106 406.449H319.506C330.752 349.927 339.67 291.863 319.506 214.533L302.915 196.576Z" fill="#CCCCCC"/>
<path d="M134.918 213.034H248.973V406.449H134.918C122.437 331.309 116.342 261.627 134.918 213.034Z" fill="#F2F2F2"/>
<path d="M200.199 359.219H179.189V406.449H200.199V359.219Z" fill="#CCCCCC"/>
<path d="M156.679 372.714V365.218H147.675V372.714H155.929H156.679Z" fill="#3F3D56"/>
<path d="M155.929 378.712H147.675V386.209H156.679V378.712H155.929Z" fill="#3F3D56"/>
<path d="M171.686 365.217H162.682V372.714H171.686V365.217Z" fill="#3F3D56"/>
<path d="M217.458 378.712H209.203V386.209H218.207V378.712H217.458Z" fill="#3F3D56"/>
<path d="M233.215 365.217H224.21V372.714H233.215V365.217Z" fill="#3F3D56"/>
<path d="M233.215 378.712H224.21V386.208H233.215V378.712Z" fill="#3F3D56"/>
<path d="M281.237 222.78V215.283H272.233V222.78H280.488H281.237Z" fill="#3F3D56"/>
<path d="M280.488 228.778H272.233V236.274H281.237V228.778H280.488Z" fill="#3F3D56"/>
<path d="M296.244 215.283H287.24V222.78H296.244V215.283Z" fill="#3F3D56"/>
<path d="M296.244 228.777H287.24V236.274H296.244V228.777Z" fill="#3F3D56"/>
<path d="M281.237 264.762V257.265H272.233V264.762H280.488H281.237Z" fill="#3F3D56"/>
<path d="M280.488 270.759H272.233V278.255H281.237V270.759H280.488Z" fill="#3F3D56"/>
<path d="M296.244 257.265H287.24V264.761H296.244V257.265Z" fill="#3F3D56"/>
<path d="M296.244 270.759H287.24V278.255H296.244V270.759Z" fill="#3F3D56"/>
<path d="M281.237 306.744V299.246H272.233V306.744H280.488H281.237Z" fill="#3F3D56"/>
<path d="M280.488 312.74H272.233V320.237H281.237V312.74H280.488Z" fill="#3F3D56"/>
<path d="M296.244 299.246H287.24V306.743H296.244V299.246Z" fill="#3F3D56"/>
<path d="M296.244 312.74H287.24V320.237H296.244V312.74Z" fill="#3F3D56"/>
<path d="M281.237 348.725V341.228H272.233V348.725H280.488H281.237Z" fill="#3F3D56"/>
<path d="M280.488 354.722H272.233V362.218H281.237V354.722H280.488Z" fill="#3F3D56"/>
<path d="M296.244 341.228H287.24V348.725H296.244V341.228Z" fill="#3F3D56"/>
<path d="M296.244 354.722H287.24V362.219H296.244V354.722Z" fill="#3F3D56"/>
<path d="M147.674 222.78H234.716V240.772C206.816 233.079 177.722 233.631 147.674 240.772V222.78Z" fill="#3F3D56"/>
<path d="M147.674 258.764C174.841 266.761 203.854 266.761 234.716 258.764V276.756H147.674V258.764Z" fill="#3F3D56"/>
<path d="M147.674 294.748H234.716V312.74C205.052 303.277 176.007 302.831 147.674 312.74V294.748Z" fill="#3F3D56"/>
<path d="M147.674 330.732C176.061 341.663 205.101 341.208 234.716 330.732V348.725H147.674V330.732Z" fill="#3F3D56"/>
<path d="M615.478 299.474H676.635V328.916L671.172 330.624L652.999 336.29L624.488 329.692L596.01 323.098L580.971 319.617L573.463 316.842C579.709 308.279 591.07 301.545 615.478 299.474Z" fill="#3F3D56"/>
<path d="M676.635 316.842V406.451H573.463C573.43 406.395 573.408 406.345 573.375 406.29V406.285C573.351 406.222 573.322 406.161 573.288 406.103C571.678 402.864 570.234 399.634 568.957 396.412C558.13 369.147 559.305 342.601 573.463 316.842H676.635Z" fill="#F2F2F2"/>
<path d="M638.744 359.219H617.734V406.449H638.744V359.219Z" fill="#CCCCCC"/>
<path d="M595.224 372.714V365.218H586.219V372.714H594.473H595.224Z" fill="#3F3D56"/>
<path d="M594.473 378.712H586.219V386.209H595.224V378.712H594.473Z" fill="#3F3D56"/>
<path d="M610.23 365.217H601.226V372.714H610.23V365.217Z" fill="#3F3D56"/>
<path d="M610.23 378.712H601.226V386.208H610.23V378.712Z" fill="#3F3D56"/>
<path d="M656.752 372.714V365.218H647.748V372.714H656.003H656.752Z" fill="#3F3D56"/>
<path d="M656.003 378.712H647.748V386.209H656.752V378.712H656.003Z" fill="#3F3D56"/>
<path d="M671.759 365.217H662.755V372.714H671.759V365.217Z" fill="#3F3D56"/>
<path d="M671.759 378.712H662.755V386.208H671.759V378.712Z" fill="#3F3D56"/>
<path d="M596.013 264.684H608.947C621.704 264.684 633.939 269.747 642.959 278.759C651.979 287.771 657.047 299.995 657.047 312.74H596.013V264.684Z" fill="#3F3D56"/>
<path d="M204.26 134.219H217.195C229.951 134.219 242.186 139.282 251.206 148.294C260.227 157.306 265.295 169.53 265.295 182.275H204.26V134.219Z" fill="#3F3D56"/>
<path d="M411.019 254.899H423.953C436.71 254.899 448.944 259.962 457.965 268.974C466.985 277.987 472.054 290.21 472.054 302.955H411.019V254.899Z" fill="#3F3D56"/>
<path d="M657.047 330.732H596.013V348.725H657.047V330.732Z" fill="#3F3D56"/>
<path d="M676.635 405.706H56.3606V407.88H676.635V405.706Z" fill="#3F3D56"/>
<path d="M113.568 319.811H111.392V405.701H113.568V319.811Z" fill="#3F3D56"/>
<path d="M133.654 330.757C133.793 360.79 112.643 385.235 112.643 385.235C112.643 385.235 85.5585 360.466 91.1306 330.953C96.7347 301.271 114.2 276.6 112.141 276.474C112.141 276.474 133.516 300.724 133.654 330.757Z" fill="#173E6D"/>
<path d="M331.208 319.811H329.032V405.701H331.208V319.811Z" fill="#3F3D56"/>
<path d="M351.294 330.757C353.256 360.727 330.283 385.235 330.283 385.235C330.283 385.235 308.909 360.986 308.771 330.953C308.632 300.919 329.781 276.474 329.781 276.474C327.719 284.707 349.707 306.508 351.294 330.757Z" fill="#173E6D"/>
<path d="M189.81 180.196L284.346 175.575L324.003 208.647L316.992 214.971L254.193 213.559L189.81 180.196Z" fill="#3F3D56"/>
<path d="M396.568 305.225L491.104 300.604L530.762 333.676L523.75 340L460.951 338.588L396.568 305.225Z" fill="#3F3D56"/>
</g>
<mask id="mask1_213_2364" style="mask-type:luminance" maskUnits="userSpaceOnUse" x="296" y="389" width="568" height="400">
<path d="M863.293 389.215H296.028V788.635H863.293V389.215Z" fill="white"/>
</mask>
<g mask="url(#mask1_213_2364)">
<path d="M643.713 452.77C643.713 452.77 652.243 477.002 646.994 480.731C641.744 484.459 664.709 514.903 664.709 514.903L692.268 507.447L677.176 481.973C677.176 481.973 675.207 456.499 675.207 452.77C675.207 449.042 643.713 452.77 643.713 452.77Z" fill="#FFB6B6"/>
<path opacity="0.1" d="M643.713 452.114C643.713 452.114 652.243 476.346 646.994 480.074C641.744 483.802 664.709 514.247 664.709 514.247L692.268 506.79L677.176 481.316C677.176 481.316 675.207 455.842 675.207 452.114C675.207 448.386 643.713 452.114 643.713 452.114Z" fill="#FFB6B6"/>
<path d="M654.344 489.394C654.344 489.394 660.569 508.033 670.528 504.306L680.488 500.578L697.918 619.872C697.918 619.872 684.223 639.756 664.303 627.329C644.383 614.901 654.344 489.394 654.344 489.394Z" fill="#173E6D"/>
<path d="M661.191 470.132C673.567 470.132 683.601 460.118 683.601 447.764C683.601 435.411 673.567 425.397 661.191 425.397C648.814 425.397 638.781 435.411 638.781 447.764C638.781 460.118 648.814 470.132 661.191 470.132Z" fill="#FFB6B6"/>
<path d="M671.772 485.666L677.375 473.86C677.375 473.86 710.368 489.394 715.348 494.364C720.328 499.335 720.328 506.79 720.328 506.79L711.613 537.857C711.613 537.857 714.104 606.203 714.104 608.688C714.104 611.174 722.818 624.842 716.592 619.872C710.368 614.901 709.123 609.931 704.143 617.387C699.162 624.842 687.958 633.542 687.958 633.542L671.772 485.666Z" fill="#3F3D56"/>
<path d="M660.569 481.937C660.569 481.937 650.433 472.025 646.786 472.632C643.138 473.239 638.159 481.937 638.159 481.937C638.159 481.937 608.279 491.879 609.523 501.82C610.769 511.761 624.464 560.225 624.464 560.225C624.464 560.225 635.669 618.631 625.708 624.844C615.749 631.056 673.018 647.211 674.264 639.756C675.508 632.299 677.998 557.74 674.264 546.556C670.528 535.372 660.569 481.937 660.569 481.937Z" fill="#3F3D56"/>
<path d="M661.668 416.153C656.7 415.975 651.384 415.888 647.196 418.56C645.268 419.901 643.578 421.552 642.193 423.447C638.113 428.595 634.588 435.071 636.104 441.458L637.864 440.773C637.864 442.478 637.484 444.161 636.751 445.702C636.999 444.982 637.83 446.145 637.608 446.873L635.669 453.222C638.856 452.055 642.821 454.416 643.306 457.77C643.527 450.396 644.294 441.94 650.286 437.622C653.309 435.445 657.134 434.781 660.814 434.19C664.21 433.646 667.769 433.126 671.021 434.242C674.272 435.358 677.042 438.677 676.303 442.029C677.803 441.514 679.48 442.557 680.222 443.956C680.962 445.356 681.001 447.007 681.024 448.589C682.622 449.716 684.44 447.478 685.092 445.636C686.62 441.312 687.98 436.709 687.156 432.198C686.333 427.687 682.65 423.376 678.055 423.361C678.614 422.749 678.911 421.945 678.886 421.119L675.099 420.799C676.06 420.664 676.944 420.199 677.6 419.484C676.079 421.154 664.127 416.24 661.668 416.153Z" fill="#2F2E41"/>
<path opacity="0.3" d="M742.986 491.374H391.381C385.274 491.374 379.64 488.171 376.307 482.808C372.976 477.443 372.461 470.745 374.931 464.891L393.464 420.966C396.284 414.281 402.611 409.875 409.581 409.741L709.314 410.124C715.021 410.085 720.47 412.777 723.932 417.517L757.27 461.059C761.462 466.799 762.169 474.389 759.114 480.87C756.059 487.349 749.884 491.374 742.986 491.374Z" fill="#C0C0C0"/>
<path d="M361.069 625.794H330.596C318.777 625.794 309.197 635.838 309.197 648.227V766.2C309.197 778.591 318.777 788.635 330.596 788.635H361.069C372.887 788.635 382.468 778.591 382.468 766.2V648.227C382.468 635.838 372.887 625.794 361.069 625.794Z" fill="#7C7C7C"/>
<path d="M841.725 625.794H811.255C799.436 625.794 789.855 635.838 789.855 648.227V766.2C789.855 778.591 799.436 788.635 811.255 788.635H841.725C853.544 788.635 863.125 778.591 863.125 766.2V648.227C863.125 635.838 853.544 625.794 841.725 625.794Z" fill="#7C7C7C"/>
<path fill-rule="evenodd" clip-rule="evenodd" d="M357.024 748.693H822.41C839.873 748.693 854.529 734.392 855.783 716.136L861.66 630.49C865.743 571.001 838.976 513.363 791.801 480.034L727.316 406.174C717.906 395.396 704.516 389.215 690.579 389.215H428.425C409.125 389.215 391.398 401.07 383.263 419.418L348.169 498.571C314.605 527.182 298.568 572.649 306.308 617.277L324.105 719.892C327 736.579 340.845 748.693 357.024 748.693ZM391.381 491.374H742.986C749.884 491.374 756.059 487.349 759.114 480.87C762.169 474.389 761.462 466.8 757.27 461.059L723.932 417.517C720.47 412.777 715.022 410.085 709.314 410.124L409.581 409.741C402.611 409.875 396.284 414.281 393.464 420.966L374.931 464.891C372.461 470.745 372.976 477.443 376.307 482.809C379.64 488.172 385.274 491.374 391.381 491.374Z" fill="#173E6D"/>
<path d="M795.717 607.36C812.713 607.36 826.494 592.916 826.494 575.099C826.494 557.282 812.713 542.837 795.717 542.837C778.721 542.837 764.94 557.282 764.94 575.099C764.94 592.916 778.721 607.36 795.717 607.36Z" fill="white"/>
<path d="M391.26 607.36C408.256 607.36 422.033 592.916 422.033 575.099C422.033 557.282 408.256 542.837 391.26 542.837C374.264 542.837 360.486 557.282 360.486 575.099C360.486 592.916 374.264 607.36 391.26 607.36Z" fill="white"/>
<path d="M765.677 695.693H430.094V694.924C430.094 676.712 444.228 661.896 461.6 661.896H734.171C751.539 661.896 765.677 676.712 765.677 694.924V695.693Z" fill="#C0C0C0"/>
<path d="M353.102 505.337C351.286 505.337 349.466 504.731 347.938 503.507L335.652 493.659C334.432 492.681 332.914 492.142 331.377 492.142H304.545C301.474 492.142 298.723 490.481 297.186 487.695C295.647 484.91 295.641 481.581 297.17 478.791L303.72 466.828C305.029 464.438 307.365 462.794 309.972 462.429L343.542 457.737C347.726 457.155 351.622 459.805 352.819 464.042L361.257 493.894C362.186 497.18 361.211 500.781 358.774 503.069C357.168 504.575 355.138 505.337 353.102 505.337Z" fill="#173E6D"/>
<path d="M788.447 499.192C786.413 499.192 784.379 498.43 782.775 496.924C780.339 494.636 779.362 491.035 780.288 487.748L788.732 457.897C789.928 453.657 793.828 450.998 798.006 451.593L831.576 456.284C834.179 456.649 836.519 458.293 837.824 460.683L844.379 472.646C845.903 475.436 845.903 478.765 844.365 481.55C842.826 484.336 840.07 485.998 837 485.998H810.168C808.637 485.998 807.113 486.536 805.896 487.515L793.61 497.362C792.079 498.586 790.263 499.192 788.447 499.192Z" fill="#173E6D"/>
</g>
</g>
<defs>
<clipPath id="clip0_213_2364">
<rect width="891" height="914" fill="white"/>
</clipPath>
</defs>
</svg>
