<svg width="568" height="478" viewBox="0 0 568 478" fill="none" xmlns="http://www.w3.org/2000/svg">
<path fill-rule="evenodd" clip-rule="evenodd" d="M420.947 3.23987C358.892 -16.2607 299.704 57.6831 238.639 95.1149C189.496 125.238 139.729 148.433 104.366 197.296C55.9624 264.177 -22.5213 345.482 6.25216 416.211C35.4953 488.094 139.569 450.959 212.098 462.11C258.081 469.18 302.016 489.699 347.337 468.652C392.599 447.634 419.872 399.401 446.647 353.191C478.623 298.009 518.194 242.841 513.693 181.549C508.278 107.819 484.14 23.0979 420.947 3.23987Z" fill="#C2CEE7"/>
<path d="M9.71814 323.972C12.517 295.395 29.4335 266.87 56.3498 256.893C46.4037 286.49 47.2443 318.652 58.7231 347.687C63.1905 358.87 69.3233 370.842 65.6945 382.324C63.4368 389.469 57.6032 395.041 51.013 398.604C44.4223 402.165 37.052 403.972 29.7737 405.746L28.3641 406.974C16.0604 381.032 6.91925 352.546 9.71814 323.972Z" fill="#728673"/>
<path d="M56.6331 257.425C41.4357 275.366 31.8705 298.28 30.1982 321.773C29.8366 326.852 29.9117 332.035 31.149 336.999C32.3922 341.829 34.9057 346.237 38.4283 349.768C41.6469 353.124 45.3277 356.185 47.6742 360.267C50.1477 364.568 50.3676 369.523 48.8729 374.2C47.0441 379.922 43.269 384.645 39.4166 389.136C35.1394 394.123 30.6177 399.234 28.914 405.741C28.7075 406.53 27.4965 406.163 27.7027 405.375C30.667 394.055 41.4052 387.389 46.3419 377.132C48.6454 372.347 49.521 366.838 47.1162 361.911C45.0132 357.604 41.2203 354.444 37.9321 351.074C34.4795 347.535 31.8011 343.622 30.3495 338.855C28.8646 333.978 28.5866 328.787 28.8169 323.721C29.4245 312.237 31.8334 300.92 35.9553 290.187C40.5917 277.908 47.2938 266.515 55.7715 256.497C56.2965 255.878 57.1545 256.809 56.6331 257.425Z" fill="white"/>
<path d="M30.3395 314.108C26.4066 313.261 22.903 311.043 20.454 307.85C18.0051 304.658 16.7705 300.699 16.9707 296.68C16.9803 296.515 17.0531 296.362 17.1739 296.252C17.2946 296.14 17.4537 296.08 17.6178 296.084C17.7818 296.088 17.9379 296.155 18.0532 296.271C18.1685 296.389 18.2339 296.546 18.2358 296.709C18.0426 300.451 19.193 304.14 21.4793 307.108C23.7659 310.076 27.0378 312.129 30.7047 312.897C31.5014 313.063 31.1315 314.274 30.3395 314.108Z" fill="white"/>
<path d="M36.5726 348.28C43.5213 343.88 48.5567 337.023 50.6748 329.075C50.8841 328.287 52.0951 328.653 51.8861 329.44C49.6665 337.707 44.4118 344.832 37.171 349.396C36.4805 349.829 35.886 348.712 36.5726 348.28Z" fill="white"/>
<path d="M41.7968 279.076C43.2502 279.721 44.8409 279.995 46.4263 279.873C48.0117 279.75 49.5418 279.236 50.8795 278.376C51.5641 277.933 52.158 279.052 51.4777 279.492C49.9954 280.436 48.3048 281 46.5534 281.139C44.8023 281.278 43.0436 280.985 41.4314 280.287C41.274 280.235 41.1427 280.124 41.0641 279.977C40.9854 279.831 40.9656 279.66 41.0085 279.5C41.0577 279.34 41.168 279.204 41.3156 279.125C41.4633 279.046 41.6362 279.028 41.7968 279.076Z" fill="white"/>
<path d="M140.457 305.608C140.037 305.897 139.617 306.187 139.198 306.486C133.576 310.396 128.282 314.759 123.367 319.528C122.981 319.89 122.595 320.263 122.22 320.637C110.501 332.251 101.039 345.941 94.316 361.012C91.6463 367.011 89.4366 373.205 87.7063 379.54C85.3173 388.287 83.4228 397.964 78.4309 405.199C77.9185 405.959 77.3595 406.688 76.7572 407.38L29.9728 408.599C29.865 408.548 29.7571 408.508 29.649 408.458L27.7832 408.592C27.8496 408.259 27.9256 407.915 27.992 407.582C28.0298 407.389 28.0779 407.195 28.1156 407.003C28.144 406.874 28.1731 406.744 28.1914 406.626C28.2008 406.583 28.2105 406.541 28.2202 406.508C28.2384 406.39 28.268 406.282 28.2866 406.175C28.7064 404.252 29.1403 402.328 29.5887 400.405C29.5884 400.393 29.5884 400.393 29.5985 400.382C33.0515 385.73 37.7577 371.236 44.5136 357.92C44.717 357.519 44.9195 357.108 45.1443 356.707C48.2228 350.721 51.7853 344.996 55.7962 339.59C58.0019 336.638 60.3557 333.798 62.8484 331.084C69.3029 324.081 76.8183 318.139 85.119 313.472C101.668 304.174 121.006 300.272 139.08 305.217C139.542 305.344 139.994 305.471 140.457 305.608Z" fill="#728673"/>
<path d="M140.367 306.206C117.433 311.379 96.0032 323.915 80.5279 341.664C77.1823 345.502 74.1222 349.685 72.122 354.394C70.2074 359 69.5606 364.033 70.2488 368.973C70.7981 373.592 71.8945 378.252 71.3116 382.924C70.6974 387.848 67.8903 391.937 63.882 394.771C58.9777 398.239 53.1202 399.737 47.3412 401.003C40.9246 402.407 34.2378 403.765 28.9606 407.936C28.3212 408.44 27.5749 407.419 28.2134 406.914C37.3946 399.659 49.9813 400.804 60.0962 395.587C64.8159 393.155 68.831 389.283 69.8757 383.902C70.7892 379.196 69.6627 374.389 69.0661 369.717C68.4399 364.812 68.6561 360.076 70.3668 355.395C72.1165 350.607 75.0195 346.294 78.2525 342.388C85.6496 333.585 94.3845 326 104.137 319.911C115.229 312.9 127.439 307.839 140.237 304.947C141.029 304.767 141.154 306.028 140.367 306.206Z" fill="white"/>
<path d="M85.254 335.63C82.6237 332.584 81.1612 328.705 81.1276 324.679C81.0938 320.656 82.4912 316.752 85.0701 313.663C85.5941 313.041 86.5868 313.825 86.0621 314.449C83.6554 317.321 82.354 320.958 82.393 324.705C82.4319 328.452 83.8087 332.062 86.2748 334.883C86.81 335.495 85.7861 336.239 85.254 335.63Z" fill="white"/>
<path d="M69.6622 366.668C77.8584 367.339 86.0067 364.897 92.4821 359.826C93.1233 359.323 93.8698 360.344 93.2294 360.847C86.481 366.111 77.9964 368.636 69.4686 367.918C68.656 367.85 68.8538 366.599 69.6622 366.668Z" fill="white"/>
<path d="M115.488 314.559C116.26 315.949 117.366 317.126 118.705 317.982C120.044 318.839 121.575 319.352 123.161 319.47C123.974 319.529 123.775 320.779 122.967 320.721C121.216 320.582 119.526 320.014 118.044 319.07C116.562 318.126 115.334 316.835 114.467 315.305C114.373 315.168 114.335 315.002 114.361 314.837C114.386 314.672 114.473 314.525 114.604 314.421C114.74 314.323 114.909 314.282 115.074 314.308C115.24 314.334 115.388 314.424 115.488 314.559Z" fill="white"/>
<path d="M389.596 67.9094C388.898 65.8463 380.138 58.8333 385.506 57.6547L389.908 63.5255L410.146 43.283L412.181 45.3188L389.596 67.9094Z" fill="#173E6D"/>
<path d="M389.596 136.742C388.898 134.679 380.138 127.666 385.506 126.488L389.908 132.358L410.146 112.116L412.181 114.152L389.596 136.742Z" fill="#173E6D"/>
<path d="M389.596 206.558C388.898 204.496 380.138 197.483 385.506 196.303L389.908 202.174L410.146 181.933L412.181 183.968L389.596 206.558Z" fill="#173E6D"/>
<path d="M370.961 150.114C374.41 150.114 377.205 147.317 377.205 143.867C377.205 140.418 374.41 137.621 370.961 137.621C367.511 137.621 364.716 140.418 364.716 143.867C364.716 147.317 367.511 150.114 370.961 150.114Z" fill="#3F3D56"/>
<path d="M370.961 82.027C374.41 82.027 377.205 79.2303 377.205 75.7805C377.205 72.3306 374.41 69.5339 370.961 69.5339C367.511 69.5339 364.716 72.3306 364.716 75.7805C364.716 79.2303 367.511 82.027 370.961 82.027Z" fill="#3F3D56"/>
<path d="M531.144 61.4134H430.599V62.6626H531.144V61.4134Z" fill="#173E6D"/>
<path d="M374.083 222.694C377.532 222.694 380.327 219.898 380.327 216.448C380.327 212.999 377.532 210.202 374.083 210.202C370.633 210.202 367.838 212.999 367.838 216.448C367.838 219.898 370.633 222.694 374.083 222.694Z" fill="#3F3D56"/>
<path d="M531.144 130.246H430.599V131.496H531.144V130.246Z" fill="#173E6D"/>
<path d="M531.144 200.062H430.599V201.311H531.144V200.062Z" fill="#173E6D"/>
<path d="M405.369 215.866H374.145V184.008H395.378V185.258H375.394V214.617H404.12V200.249H405.369V215.866Z" fill="#173E6D"/>
<path d="M405.369 145.905H374.145V114.048H395.378V115.297H375.394V144.656H404.12V130.289H405.369V145.905Z" fill="#173E6D"/>
<path d="M405.369 74.6946H374.145V42.8373H395.378V44.0866H375.394V73.4453H404.12V59.0784H405.369V74.6946Z" fill="#173E6D"/>
<path d="M238.356 156.381C238.356 156.381 230.012 191.625 240.211 191.625C250.411 191.625 274.519 151.744 274.519 151.744L266.173 141.542L251.195 162.342L250.411 151.744L238.356 156.381Z" fill="#A0616A"/>
<path d="M272.296 153.276C276.778 153.276 280.413 149.641 280.413 145.156C280.413 140.671 276.778 137.035 272.296 137.035C267.811 137.035 264.177 140.671 264.177 145.156C264.177 149.641 267.811 153.276 272.296 153.276Z" fill="#A0616A"/>
<path d="M231.282 396.42H242.088L247.228 354.727H231.279L231.282 396.42Z" fill="#A0616A"/>
<path d="M230.9 407.697L264.132 407.695V407.275C264.13 403.843 262.768 400.553 260.343 398.127C257.917 395.701 254.627 394.338 251.196 394.338L245.125 389.731L233.801 394.338H230.9V407.697Z" fill="#2F2E41"/>
<path d="M115.04 382.935L124.709 387.76L147.923 352.752L133.652 345.629L115.04 382.935Z" fill="#A0616A"/>
<path d="M109.665 392.854L139.399 407.697L139.587 407.32C141.118 404.25 141.368 400.697 140.281 397.443C139.194 394.189 136.859 391.499 133.79 389.967H133.789L130.414 383.134L118.224 382.196L115.628 380.901L109.665 392.854Z" fill="#2F2E41"/>
<path d="M359.099 407.737H3.23193V409.137H359.099V407.737Z" fill="#173E6D"/>
<path d="M161.415 220.318C161.415 220.318 157.096 272.258 156.169 283.388C155.533 290.364 153.974 297.225 151.533 303.791C151.533 303.791 149.679 307.501 149.679 311.211L128.661 349.417C128.661 349.417 122.239 354.139 123.166 357.849C124.093 361.558 119.294 363.784 119.294 363.784L141.427 368.05C141.427 368.05 140.5 365.268 143.281 364.34C146.063 363.414 148.277 355.369 148.277 355.369L179.351 304.719L201.604 258.346C201.604 258.346 214.584 300.081 217.365 304.719C217.365 304.719 227.565 356.657 229.42 361.293C231.275 365.931 232.201 365.931 231.275 367.787C230.348 369.641 230.348 371.497 231.275 372.423C232.201 373.351 249.82 372.423 249.82 372.423L245.184 306.573L236.837 227.739L194.185 214.754L161.415 220.318Z" fill="#2F2E41"/>
<path d="M203.174 96.3274C213.928 96.3274 222.646 87.6074 222.646 76.8507C222.646 66.094 213.928 57.3739 203.174 57.3739C192.42 57.3739 183.702 66.094 183.702 76.8507C183.702 87.6074 192.42 96.3274 203.174 96.3274Z" fill="#A0616A"/>
<path d="M238.692 124.791L215.512 110.743C215.512 110.743 214.87 102.02 208.266 101.61C204.95 101.403 199.973 101.088 192.506 100.607C190.929 100.505 189.864 109.141 188.056 109.024L163.587 115.516L167.296 178.583C167.296 178.583 161.732 203.624 163.587 208.262C165.441 212.9 158.951 214.754 160.805 215.682C162.66 216.61 160.805 223.102 160.805 223.102C160.805 223.102 196.968 241.651 236.837 227.739L233.129 215.682C233.635 214.106 233.728 212.428 233.404 210.805C233.079 209.182 232.347 207.667 231.275 206.408C231.275 206.408 234.984 200.842 230.348 196.205C230.348 196.205 232.201 187.859 227.565 184.149L226.638 171.163L229.42 164.672L238.692 124.791Z" fill="#E6AD47"/>
<path d="M186.278 87.9772L185.734 86.7126C185.663 86.5492 178.777 70.2662 184.881 60.2223C187.707 55.5725 192.844 52.9473 200.151 52.4203C211.584 51.5935 219.408 54.3061 223.414 60.4773C224.086 61.5231 224.463 62.7308 224.506 63.9731C224.55 65.2154 224.259 66.4465 223.661 67.537C223.065 68.6275 222.186 69.5371 221.116 70.1701C220.046 70.8032 218.826 71.1363 217.584 71.1346H217.43L215.33 68.4062L215.208 68.6716C214.447 70.3174 212.7 71.2184 210.655 71.0211C210.307 70.996 209.999 71.2965 209.751 71.9394C209.667 72.2207 209.511 72.4743 209.296 72.6736C209.081 72.8731 208.816 73.0108 208.528 73.0726C207.017 73.3668 204.862 71.4624 203.898 70.5132C203.861 70.7317 203.777 70.9396 203.653 71.1229C203.528 71.3062 203.365 71.4608 203.176 71.5759C202.16 72.1625 200.578 71.3963 200.124 71.1522C196.507 71.9208 194.166 71.7152 193.164 70.5419C192.483 75.3539 191.024 84.0155 189.274 84.4956C189.092 84.5376 188.899 84.5198 188.728 84.4447C188.555 84.3695 188.413 84.241 188.319 84.0781C187.897 83.5309 187.521 83.2582 187.287 83.3348C186.716 83.5158 186.38 85.3911 186.332 86.6014L186.278 87.9772Z" fill="#2F2E41"/>
<path d="M228.493 125.718L237.742 124.215C244.405 130.618 248.944 138.912 250.747 147.977C253.528 162.816 254.456 165.599 254.456 165.599L232.201 171.163L220.148 147.977L228.493 125.718Z" fill="#E6AD47"/>
<path d="M187.45 145.02L181.734 217.501L327.606 229.01L333.322 156.529L187.45 145.02Z" fill="white"/>
<path d="M203.034 150.635C199.464 148.085 194.931 147.901 193.201 147.937C193.729 149.587 195.371 153.816 198.94 156.367C202.518 158.924 207.044 159.103 208.773 159.067C208.247 157.418 206.605 153.187 203.034 150.635Z" fill="#173E6D"/>
<path d="M217.117 196.756L193.694 194.908C193.002 194.853 192.305 194.936 191.646 195.151C190.985 195.364 190.373 195.707 189.846 196.158C189.318 196.609 188.883 197.16 188.568 197.778C188.253 198.397 188.062 199.071 188.009 199.764C187.954 200.456 188.036 201.153 188.249 201.812C188.464 202.473 188.807 203.085 189.258 203.613C189.709 204.142 190.258 204.575 190.877 204.89C191.496 205.205 192.17 205.396 192.863 205.451L216.286 207.299C217.684 207.41 219.067 206.959 220.133 206.049C221.2 205.139 221.861 203.841 221.971 202.443C222.082 201.046 221.631 199.661 220.722 198.594C219.812 197.527 218.514 196.866 217.117 196.756Z" fill="#173E6D"/>
<path d="M327.572 149.484L196.247 139.121C194.718 139.001 193.183 139.183 191.726 139.656C190.268 140.13 188.919 140.886 187.754 141.881C186.589 142.876 185.63 144.091 184.936 145.457C184.239 146.822 183.819 148.312 183.699 149.84L178.65 213.836C178.406 216.922 179.399 219.979 181.408 222.334C183.418 224.687 186.28 226.147 189.366 226.393L320.692 236.755C322.219 236.876 323.755 236.693 325.211 236.22C326.669 235.746 328.018 234.991 329.183 233.995C330.348 233 331.307 231.786 332.003 230.42C332.698 229.054 333.118 227.565 333.238 226.037L338.037 165.211L338.134 163.968L338.287 162.035C338.407 160.507 338.226 158.97 337.753 157.512C337.279 156.055 336.523 154.705 335.527 153.539C334.534 152.374 333.318 151.416 331.953 150.72C330.588 150.024 329.099 149.604 327.572 149.484ZM323.694 205.165L322.862 215.708C322.71 217.57 321.826 219.296 320.406 220.509C318.985 221.721 317.141 222.322 315.28 222.179L297.71 220.795C295.848 220.643 294.122 219.759 292.91 218.338C291.697 216.917 291.097 215.074 291.24 213.21L292.072 202.667C292.224 200.805 293.108 199.079 294.528 197.866C295.948 196.654 297.792 196.053 299.654 196.195L317.217 197.582C319.079 197.734 320.805 198.616 322.018 200.037C323.23 201.458 323.833 203.301 323.694 205.165ZM186.846 199.667C186.983 197.96 187.789 196.378 189.09 195.267C190.393 194.155 192.081 193.605 193.786 193.738L217.209 195.587C218.054 195.653 218.88 195.885 219.636 196.269C220.392 196.652 221.066 197.183 221.619 197.828C222.17 198.473 222.59 199.219 222.852 200.026C223.115 200.834 223.217 201.685 223.151 202.532C223.084 203.377 222.853 204.202 222.467 204.958C222.083 205.715 221.553 206.389 220.908 206.94C220.263 207.491 219.515 207.91 218.709 208.173C217.901 208.435 217.051 208.535 216.204 208.469L216.193 208.472L192.77 206.623C191.924 206.555 191.1 206.322 190.344 205.938C189.588 205.551 188.916 205.019 188.366 204.373C187.815 203.728 187.398 202.979 187.136 202.171C186.876 201.365 186.778 200.513 186.846 199.667ZM191.86 147.519L191.7 146.864L192.374 146.802C192.637 146.774 198.868 146.215 203.718 149.68C208.567 153.145 210.055 159.225 210.12 159.479L210.273 160.136L209.601 160.204C208.648 160.275 207.689 160.269 206.736 160.185C203.703 160.008 200.775 159.018 198.256 157.321C193.406 153.855 191.918 147.775 191.86 147.519Z" fill="#173E6D"/>
<path d="M303.991 212.156L296.378 211.557C295.835 211.515 295.297 211.689 294.883 212.043C294.47 212.397 294.213 212.902 294.171 213.445C294.127 213.988 294.302 214.526 294.655 214.94C295.008 215.355 295.512 215.612 296.055 215.656L303.667 216.257C304.21 216.298 304.747 216.123 305.161 215.769C305.574 215.415 305.831 214.911 305.875 214.368C305.917 213.825 305.742 213.288 305.39 212.872C305.036 212.459 304.534 212.2 303.991 212.156Z" fill="#173E6D"/>
<path d="M318.044 213.265L310.432 212.666C309.889 212.624 309.35 212.8 308.938 213.154C308.525 213.508 308.268 214.01 308.226 214.554C308.182 215.097 308.357 215.633 308.709 216.049C309.063 216.463 309.565 216.721 310.108 216.765L317.721 217.366C318.262 217.407 318.8 217.232 319.214 216.878C319.628 216.524 319.883 216.02 319.927 215.477C319.969 214.933 319.794 214.397 319.442 213.981C319.09 213.568 318.586 213.309 318.044 213.265Z" fill="#173E6D"/>
<path d="M304.406 206.885L296.793 206.285C296.25 206.243 295.714 206.418 295.3 206.772C294.887 207.127 294.63 207.63 294.588 208.173C294.544 208.716 294.719 209.253 295.072 209.669C295.425 210.082 295.927 210.341 296.47 210.385L304.083 210.984C304.626 211.026 305.162 210.852 305.578 210.498C305.991 210.144 306.247 209.639 306.29 209.096C306.332 208.553 306.159 208.015 305.805 207.601C305.452 207.186 304.949 206.929 304.406 206.885Z" fill="#173E6D"/>
<path d="M318.46 207.994L310.847 207.394C310.304 207.352 309.766 207.527 309.353 207.881C308.939 208.235 308.682 208.739 308.64 209.282C308.596 209.825 308.771 210.364 309.125 210.777C309.479 211.191 309.981 211.45 310.524 211.494L318.137 212.093C318.68 212.135 319.216 211.961 319.631 211.607C320.045 211.253 320.302 210.748 320.344 210.205C320.388 209.662 320.213 209.124 319.859 208.71C319.505 208.294 319.003 208.037 318.46 207.994Z" fill="#173E6D"/>
<path d="M304.821 201.614L297.209 201.012C296.666 200.972 296.129 201.146 295.716 201.5C295.3 201.854 295.045 202.359 295.001 202.902C294.959 203.445 295.134 203.982 295.486 204.397C295.84 204.811 296.342 205.07 296.885 205.113L304.498 205.713C305.041 205.755 305.578 205.579 305.991 205.225C306.405 204.871 306.662 204.368 306.704 203.825C306.747 203.282 306.573 202.745 306.221 202.33C305.867 201.916 305.364 201.657 304.821 201.614Z" fill="#173E6D"/>
<path d="M318.875 202.722L311.262 202.121C310.719 202.081 310.183 202.255 309.769 202.609C309.355 202.963 309.1 203.468 309.056 204.011C309.014 204.554 309.187 205.091 309.541 205.506C309.894 205.92 310.396 206.177 310.939 206.222L318.552 206.822C319.095 206.864 319.631 206.688 320.045 206.334C320.458 205.98 320.715 205.477 320.757 204.934C320.801 204.391 320.627 203.854 320.274 203.439C319.92 203.025 319.418 202.766 318.875 202.722Z" fill="#173E6D"/>
<path d="M181.747 170.032L181.65 171.278L335.807 183.391L335.905 182.144L181.747 170.032Z" fill="white"/>
<path d="M338.134 163.968L338.037 165.211L332.672 164.79L275.51 160.299L275.613 159.054L332.769 163.546L338.134 163.968Z" fill="#3F3D56"/>
<path d="M149.679 150.76C149.679 150.76 141.334 186.003 151.533 186.003C161.732 186.003 185.84 146.122 185.84 146.122L177.496 135.92L162.518 156.721L161.732 146.122L149.679 150.76Z" fill="#A0616A"/>
<path d="M183.616 147.654C188.101 147.654 191.735 144.019 191.735 139.534C191.735 135.049 188.101 131.413 183.616 131.413C179.132 131.413 175.498 135.049 175.498 139.534C175.498 144.019 179.132 147.654 183.616 147.654Z" fill="#A0616A"/>
<path d="M170.342 121.081L164.778 115.516C164.778 115.516 153.652 122.008 152.724 128.5C151.797 134.993 147.161 155.397 147.161 155.397L164.315 156.788L169.878 148.441L170.342 121.081Z" fill="#E6AD47"/>
</svg>
