<svg width="511" height="450" viewBox="0 0 511 450" fill="none" xmlns="http://www.w3.org/2000/svg">
<path fill-rule="evenodd" clip-rule="evenodd" d="M415.669 18.401C476.358 61.5576 466.929 144.92 479.174 213.517C491.655 283.444 529.31 364.724 486.312 414.163C443.505 463.384 357.342 452.967 286.173 435.429C231.585 421.979 200.342 367.564 154.253 332.34C103.505 293.558 26.6931 279.622 6.7386 221.873C-14.3041 160.976 17.1919 99.2333 60.102 59.8687C99.2297 23.9739 161.997 34.4642 218.168 27.9132C285.546 20.0555 355.672 -24.2637 415.669 18.401Z" fill="#C2CEE7"/>
<path d="M457.834 63.5542H63.2149C63.0494 63.5505 62.8917 63.4822 62.7759 63.3639C62.6601 63.2456 62.5952 63.0865 62.5952 62.921C62.5952 62.7555 62.6601 62.5966 62.7759 62.4781C62.8917 62.3598 63.0494 62.2915 63.2149 62.2878H457.834C457.999 62.2915 458.156 62.3598 458.273 62.4781C458.389 62.5966 458.453 62.7555 458.453 62.921C458.453 63.0865 458.389 63.2456 458.273 63.3639C458.156 63.4822 457.999 63.5505 457.834 63.5542Z" fill="#173E6D"/>
<path d="M77.1661 54.6894C80.9317 54.6894 83.9843 51.5709 83.9843 47.7242C83.9843 43.8775 80.9317 40.759 77.1661 40.759C73.4003 40.759 70.3477 43.8775 70.3477 47.7242C70.3477 51.5709 73.4003 54.6894 77.1661 54.6894Z" fill="#3F3D56"/>
<path d="M100.72 54.6894C104.486 54.6894 107.538 51.5709 107.538 47.7242C107.538 43.8775 104.486 40.759 100.72 40.759C96.9545 40.759 93.9019 43.8775 93.9019 47.7242C93.9019 51.5709 96.9545 54.6894 100.72 54.6894Z" fill="#3F3D56"/>
<path d="M124.274 54.6894C128.04 54.6894 131.093 51.5709 131.093 47.7242C131.093 43.8775 128.04 40.759 124.274 40.759C120.509 40.759 117.456 43.8775 117.456 47.7242C117.456 51.5709 120.509 54.6894 124.274 54.6894Z" fill="#3F3D56"/>
<path d="M443.718 42.4855H426.987C426.655 42.4921 426.34 42.6284 426.107 42.865C425.876 43.1016 425.745 43.42 425.745 43.7515C425.745 44.0828 425.876 44.4012 426.107 44.6378C426.34 44.8746 426.655 45.0107 426.987 45.0173H443.718C444.05 45.0107 444.367 44.8746 444.598 44.6378C444.831 44.4012 444.96 44.0828 444.96 43.7515C444.96 43.42 444.831 43.1016 444.598 42.865C444.367 42.6284 444.05 42.4921 443.718 42.4855Z" fill="#3F3D56"/>
<path d="M443.718 47.2374H426.987C426.655 47.244 426.34 47.3802 426.107 47.617C425.876 47.8536 425.745 48.1719 425.745 48.5034C425.745 48.8348 425.876 49.1531 426.107 49.3897C426.34 49.6265 426.655 49.7627 426.987 49.7693H443.718C444.05 49.7627 444.367 49.6265 444.598 49.3897C444.831 49.1531 444.96 48.8348 444.96 48.5034C444.96 48.1719 444.831 47.8536 444.598 47.617C444.367 47.3802 444.05 47.244 443.718 47.2374Z" fill="#3F3D56"/>
<path d="M443.718 51.9833H426.987C426.655 51.9897 426.34 52.126 426.107 52.3628C425.876 52.5994 425.745 52.9178 425.745 53.2491C425.745 53.5806 425.876 53.899 426.107 54.1356C426.34 54.3722 426.655 54.5085 426.987 54.5151H443.718C444.05 54.5085 444.367 54.3722 444.598 54.1356C444.831 53.899 444.96 53.5806 444.96 53.2491C444.96 52.9178 444.831 52.5994 444.598 52.3628C444.367 52.126 444.05 51.9897 443.718 51.9833Z" fill="#3F3D56"/>
<path d="M437.47 84.9343H78.0398C76.0495 84.9373 74.1418 85.7287 72.7344 87.135C71.3271 88.5413 70.5352 90.4479 70.5322 92.4366V93.6464C70.5352 95.6351 71.3271 97.5417 72.7344 98.948C74.1418 100.354 76.0495 101.146 78.0398 101.149H437.47C439.46 101.146 441.369 100.354 442.777 98.948C444.184 97.5417 444.975 95.6351 444.978 93.6464V92.4366C444.975 90.4479 444.184 88.5413 442.777 87.135C441.369 85.7287 439.46 84.9373 437.47 84.9343Z" fill="#173E6D"/>
<path d="M121.417 96.0349H87.2029C86.4373 96.0338 85.7036 95.7292 85.1627 95.1877C84.6218 94.6465 84.3179 93.9128 84.3179 93.1478C84.3179 92.383 84.6218 91.6491 85.1627 91.1079C85.7036 90.5666 86.4373 90.2618 87.2029 90.2608H121.417C125.142 90.2089 125.18 96.0874 121.417 96.0349Z" fill="white"/>
<path d="M223.765 96.0349H189.551C188.786 96.0338 188.053 95.7292 187.511 95.1877C186.971 94.6465 186.667 93.9128 186.667 93.1478C186.667 92.383 186.971 91.6491 187.511 91.1079C188.053 90.5666 188.786 90.2618 189.551 90.2608H223.765C227.491 90.2089 227.529 96.0874 223.765 96.0349Z" fill="white"/>
<path d="M326.113 96.0349H291.899C291.135 96.0338 290.401 95.7292 289.86 95.1877C289.32 94.6465 289.016 93.9128 289.016 93.1478C289.016 92.383 289.32 91.6491 289.86 91.1079C290.401 90.5666 291.135 90.2618 291.899 90.2608H326.113C329.839 90.2089 329.877 96.0874 326.113 96.0349Z" fill="white"/>
<path d="M423.157 96.3467H388.944C388.178 96.3467 387.443 96.0426 386.901 95.5012C386.36 94.9597 386.054 94.2254 386.054 93.4597C386.054 92.6941 386.36 91.9597 386.901 91.4183C387.443 90.8769 388.178 90.5726 388.944 90.5726H423.157C426.883 90.5206 426.921 96.3992 423.157 96.3467Z" fill="#E6AD47"/>
<path d="M369.776 84.9342H368.529V101.149H369.776V84.9342Z" fill="white"/>
<path d="M240.621 324.914H93.93C92.6229 324.913 91.3699 324.393 90.4456 323.469C89.5214 322.545 89.0015 321.294 89 319.987V298.518C89.0015 297.213 89.5214 295.96 90.4456 295.036C91.3699 294.114 92.6229 293.594 93.93 293.592H240.621C241.929 293.594 243.181 294.114 244.106 295.036C245.031 295.96 245.549 297.213 245.551 298.518V319.987C245.549 321.294 245.031 322.545 244.106 323.469C243.181 324.393 241.929 324.913 240.621 324.914Z" fill="#173E6D"/>
<path d="M226.368 321.591H97.2562C95.9491 321.589 94.696 321.069 93.7718 320.145C92.8476 319.223 92.3277 317.97 92.3262 316.663V301.845C92.3277 300.538 92.8476 299.285 93.7718 298.363C94.696 297.439 95.9491 296.919 97.2562 296.917H237.296C238.603 296.919 239.856 297.439 240.779 298.363C241.704 299.285 242.225 300.538 242.226 301.845V305.744C242.221 309.946 240.548 313.974 237.575 316.944C234.603 319.914 230.573 321.586 226.368 321.591Z" fill="white"/>
<path d="M181.833 307.726H122.873C122.536 307.726 122.213 307.592 121.974 307.353C121.736 307.116 121.602 306.792 121.602 306.455C121.602 306.119 121.736 305.795 121.974 305.556C122.213 305.318 122.536 305.185 122.873 305.185H181.833C182.17 305.185 182.493 305.318 182.731 305.556C182.969 305.795 183.103 306.119 183.103 306.455C183.103 306.792 182.969 307.116 182.731 307.353C182.493 307.592 182.17 307.726 181.833 307.726Z" fill="#173E6D"/>
<path d="M211.678 312.922H122.873C122.706 312.922 122.541 312.889 122.386 312.827C122.231 312.762 122.091 312.668 121.973 312.551C121.854 312.432 121.76 312.292 121.696 312.139C121.632 311.984 121.599 311.819 121.599 311.652C121.599 311.485 121.632 311.319 121.696 311.165C121.76 311.01 121.854 310.87 121.973 310.753C122.091 310.634 122.231 310.541 122.386 310.477C122.541 310.413 122.706 310.381 122.873 310.381H211.678C212.015 310.381 212.337 310.517 212.575 310.754C212.813 310.992 212.947 311.315 212.947 311.652C212.947 311.988 212.813 312.31 212.575 312.55C212.337 312.787 212.015 312.921 211.678 312.922Z" fill="#173E6D"/>
<path d="M249.992 269.03H82.7328C81.3981 269.028 80.1186 268.497 79.1749 267.554C78.2312 266.611 77.7002 265.332 77.6987 263.998V136.238C77.7002 134.904 78.2312 133.625 79.1749 132.682C80.1186 131.739 81.3981 131.209 82.7328 131.207H249.992C251.327 131.209 252.607 131.739 253.55 132.682C254.493 133.625 255.024 134.904 255.026 136.238V263.998C255.024 265.332 254.493 266.611 253.55 267.554C252.607 268.497 251.327 269.028 249.992 269.03Z" fill="white"/>
<path d="M249.992 269.652H82.7329C81.2327 269.65 79.7945 269.054 78.7339 267.995C77.6731 266.934 77.0764 265.497 77.0747 263.998V136.238C77.0764 134.739 77.6731 133.302 78.7339 132.242C79.7945 131.182 81.2327 130.586 82.7329 130.584H249.992C251.492 130.586 252.93 131.182 253.991 132.242C255.051 133.302 255.649 134.739 255.65 136.238V263.998C255.649 265.497 255.051 266.934 253.991 267.995C252.93 269.054 251.492 269.65 249.992 269.652ZM82.7329 131.831C81.5637 131.832 80.4428 132.297 79.616 133.123C78.7892 133.949 78.3243 135.069 78.3228 136.238V263.998C78.3241 265.167 78.7892 266.287 79.616 267.114C80.4426 267.939 81.5637 268.404 82.7329 268.406H249.992C251.161 268.404 252.281 267.939 253.109 267.114C253.936 266.287 254.4 265.167 254.402 263.998V136.238C254.4 135.069 253.934 133.949 253.109 133.123C252.281 132.297 251.161 131.832 249.992 131.831H82.7329Z" fill="#173E6D"/>
<path d="M78.085 244.708V263.998C78.0868 265.229 78.5771 266.411 79.4482 267.28C80.3194 268.152 81.5006 268.642 82.7325 268.644H249.992C251.224 268.642 252.405 268.152 253.277 267.28C254.147 266.411 254.638 265.229 254.639 263.998V244.708H78.085Z" fill="#173E6D"/>
<path d="M79.6611 132.021L78.9883 133.072L254.303 245.233L254.976 244.182L79.6611 132.021Z" fill="#173E6D"/>
<path d="M254.798 132.021L79.4834 244.183L80.1563 245.233L255.47 133.072L254.798 132.021Z" fill="#173E6D"/>
<path d="M402.944 407.32L395.212 407.318L391.533 377.516H402.945L402.944 407.32Z" fill="#A0616A"/>
<path d="M402.739 404.794L394.487 401.446L394.245 401.345L389.688 404.794C387.189 404.794 384.784 405.759 382.979 407.487C381.174 409.215 380.105 411.571 379.996 414.068C379.985 414.205 379.985 414.348 379.985 414.492V414.81H404.916V404.794H402.739Z" fill="#2F2E41"/>
<path d="M384.835 400.129L377.542 402.693L364.172 375.799L374.937 372.015L384.835 400.129Z" fill="#A0616A"/>
<path d="M383.803 397.815L374.908 397.393L374.645 397.38L371.494 402.144C369.136 402.972 367.188 404.68 366.059 406.908C364.929 409.137 364.704 411.715 365.431 414.106C365.464 414.239 365.512 414.375 365.56 414.51L365.666 414.81L389.184 406.541L385.858 397.092L383.803 397.815Z" fill="#2F2E41"/>
<path d="M405.677 278.815C412.75 278.541 403.987 334.873 403.987 334.873C403.987 334.873 406.55 384.33 406.007 386.926C405.464 389.521 405.939 396.521 405.939 396.521C404.554 394 390.254 395.903 390.254 395.903L388.309 345.779L378.378 305.617L364.61 332.538L377.806 373.86C377.806 373.86 383.151 378.802 382.583 380.754C382.014 382.706 368.016 387.111 365.442 387.211C362.871 387.31 364.032 384.048 363.908 380.835C363.783 377.62 351.678 347.842 347.42 337.71C343.163 327.576 346.472 313.289 348.646 302.908C350.819 292.526 362.253 273.043 362.253 273.043C376.445 257.048 398.603 279.091 405.677 278.815Z" fill="#2F2E41"/>
<path d="M319.467 233.292C319.855 234.031 320.401 234.678 321.064 235.185C321.728 235.691 322.496 236.046 323.312 236.224C324.13 236.403 324.975 236.399 325.79 236.214C326.606 236.031 327.37 235.672 328.031 235.16L345.042 246.251L344.989 235.703L328.843 226.789C327.91 225.736 326.624 225.063 325.228 224.894C323.831 224.728 322.42 225.078 321.266 225.88C320.11 226.681 319.289 227.878 318.957 229.244C318.625 230.611 318.807 232.051 319.467 233.292Z" fill="#A0616A"/>
<path d="M402.002 287.847C384.461 287.847 374.792 284.338 369.659 281.205C363.382 277.373 362.308 273.333 362.265 273.163L362.252 273.114L362.863 265.431L363.131 264.832C364.363 262.078 364.525 258.965 363.588 256.097L363.57 256.038L363.575 255.977L367.676 202.817L382.192 198.064L386.415 193.825L405.216 193.553L407.837 198.86L422.659 204.436L415.377 247.751L411.887 253.762L413.291 260.314L413.281 260.371L408.701 287.687L408.45 287.698C406.191 287.799 404.042 287.848 402.002 287.847Z" fill="#3F3D56"/>
<path d="M356.618 254.682L349.736 250.604L349.305 249.982C348.428 248.721 347.268 247.685 345.919 246.954C344.57 246.223 343.067 245.819 341.532 245.772L341.452 245.771L331.973 240.201L335.902 228.7L350.762 233.088L361.122 207.365C361.69 205.952 362.64 204.726 363.865 203.82C365.091 202.914 366.542 202.366 368.062 202.238C369.58 202.107 371.104 202.401 372.465 203.086C373.828 203.771 374.972 204.819 375.771 206.114C376.592 207.469 377.017 209.025 377 210.607V227.437L376.938 227.522L356.618 254.682Z" fill="#3F3D56"/>
<path d="M402.63 277.954C402.777 277.132 403.102 276.353 403.584 275.67C404.065 274.987 404.691 274.419 405.416 274.003C406.141 273.589 406.949 273.338 407.781 273.267C408.614 273.198 409.451 273.312 410.235 273.602L423.126 257.916L426.247 267.992L413.527 281.342C412.954 282.625 411.93 283.655 410.648 284.234C409.367 284.813 407.917 284.903 406.572 284.485C405.229 284.068 404.087 283.172 403.36 281.969C402.633 280.764 402.374 279.337 402.63 277.954Z" fill="#A0616A"/>
<path d="M421.904 275.972L413.343 267.417L418.792 254.15L426.69 243.375C418.275 239.28 411.958 229.582 407.381 221.554L407.33 221.465L408.47 212.544C408.736 210.459 409.573 208.485 410.888 206.843C412.03 205.414 413.499 204.28 415.17 203.535C416.842 202.789 418.668 202.455 420.495 202.559C422.321 202.663 424.099 203.203 425.674 204.134C427.25 205.064 428.579 206.36 429.552 207.909L444.899 242.002L444.727 242.259L432.381 263.287L429.014 265.47L421.904 275.972Z" fill="#3F3D56"/>
<path d="M409.315 175.67C408.75 179.781 406.577 183.5 403.27 186.01C399.964 188.518 395.795 189.614 391.681 189.054C387.567 188.495 383.843 186.327 381.328 183.025C378.812 179.723 377.712 175.559 378.267 171.447L378.297 171.224C378.946 167.168 381.166 163.529 384.475 161.092C387.787 158.655 391.922 157.616 395.992 158.2C400.061 158.783 403.74 160.941 406.232 164.209C408.722 167.477 409.829 171.594 409.31 175.67H409.315Z" fill="#A0616A"/>
<path d="M405.328 183.734C406.133 182.101 406.959 180.348 406.732 178.541C406.508 176.734 404.734 175.008 402.993 175.545C401.953 175.866 401.166 176.893 400.078 176.946C398.58 177.018 397.723 175.305 397.257 173.883L395.36 168.084C393.536 169.505 391.422 170.503 389.169 171.013C386.915 171.521 384.578 171.528 382.322 171.03C380.56 170.627 378.779 169.842 377.745 168.36C376.711 166.878 376.718 164.579 378.135 163.459C378.83 162.91 379.755 162.701 380.421 162.115C380.832 161.751 381.116 161.264 381.23 160.727C381.344 160.189 381.281 159.63 381.052 159.13C380.822 158.631 380.439 158.218 379.957 157.954C379.475 157.69 378.921 157.588 378.376 157.663L383.154 157.066L381.731 154.493C382.272 154.861 382.883 155.112 383.528 155.23C384.172 155.348 384.834 155.33 385.47 155.178C386.756 154.947 387.967 154.418 389.224 154.065C392.273 153.287 395.492 153.525 398.393 154.742C401.294 155.96 403.718 158.09 405.297 160.81C406.473 160.417 407.74 160.391 408.931 160.735C410.123 161.078 411.18 161.776 411.966 162.734C413.246 164.356 413.593 166.521 413.643 168.586C413.737 172.658 412.848 176.691 411.053 180.348C410.538 181.51 409.799 182.558 408.878 183.432C408.414 183.866 407.86 184.193 407.256 184.391C406.651 184.587 406.012 184.65 405.381 184.574" fill="#2F2E41"/>
<path d="M151.447 167.625C151.703 171.272 152.778 174.814 154.592 177.988C158.416 184.698 164.974 189.558 172.036 192.446C180.86 196.053 190.695 196.165 200.06 195.36C208.759 194.612 217.367 192.881 226.097 192.523C232.847 192.307 239.605 192.469 246.339 193.007C259.401 193.932 272.411 195.652 285.334 197.736C288.836 198.294 292.329 198.893 295.814 199.533C296.144 199.561 296.469 199.622 296.788 199.713C296.851 199.739 296.953 199.72 297.011 199.756C297.115 199.822 296.585 199.588 296.907 199.853C297.355 200.323 297.754 200.838 298.099 201.388L302.874 207.526C304.242 209.287 305.513 211.426 307.282 212.814C308.529 213.776 310.034 214.348 311.606 214.459C313.18 214.568 314.749 214.21 316.118 213.429C317.548 212.525 318.69 211.231 319.405 209.698C320.502 207.687 321.813 205.797 323.313 204.063C328.991 197.442 336.884 193.37 343.485 187.8C346.682 185.213 349.413 182.096 351.553 178.584C353.38 175.408 354.516 171.881 354.887 168.234C355.677 160.832 353.404 153.282 349.581 146.984C345.421 140.218 339.447 134.753 332.335 131.21C324.345 127.143 315.504 125.161 306.643 124.174C297.234 123.126 287.716 123.129 278.261 123.235C267.649 123.353 257.058 123.819 246.486 124.634C235.899 125.453 225.354 126.617 214.85 128.126C204.772 129.574 194.57 131.083 184.705 133.645C175.99 135.908 167.299 139.446 160.791 145.856C155.005 151.556 150.98 159.355 151.447 167.625Z" fill="#173E6D"/>
<path d="M200.162 169.98C199.731 169.96 199.31 169.853 198.923 169.662C198.535 169.472 198.192 169.203 197.914 168.875C197.637 168.545 197.43 168.162 197.306 167.747C197.184 167.335 197.15 166.901 197.202 166.474L197.427 164.711C197.47 164.373 197.429 164.03 197.31 163.711C197.191 163.392 196.996 163.107 196.742 162.88L195.417 161.697C194.984 161.31 194.667 160.81 194.504 160.252C194.34 159.695 194.335 159.102 194.49 158.543C194.646 157.983 194.956 157.478 195.384 157.084C195.812 156.691 196.34 156.425 196.912 156.316L198.657 155.985C198.993 155.922 199.306 155.778 199.574 155.566C199.84 155.354 200.051 155.081 200.188 154.77L200.905 153.144C201.14 152.612 201.518 152.157 201.999 151.829C202.479 151.501 203.041 151.314 203.622 151.289C204.202 151.264 204.778 151.402 205.285 151.687C205.792 151.972 206.208 152.392 206.489 152.902L207.343 154.458C207.507 154.757 207.741 155.012 208.025 155.2C208.309 155.388 208.635 155.504 208.975 155.539L210.742 155.717C211.32 155.776 211.87 155.995 212.331 156.35C212.792 156.704 213.143 157.181 213.347 157.725C213.55 158.27 213.598 158.86 213.482 159.43C213.368 159.999 213.096 160.525 212.698 160.948L211.48 162.242C211.247 162.489 211.077 162.79 210.986 163.118C210.894 163.446 210.884 163.792 210.957 164.124L211.333 165.861C211.456 166.429 211.418 167.02 211.221 167.566C211.026 168.114 210.681 168.594 210.227 168.955C209.771 169.318 209.224 169.545 208.646 169.612C208.07 169.678 207.485 169.582 206.958 169.335L205.351 168.579C205.044 168.432 204.704 168.365 204.364 168.38C204.023 168.393 203.691 168.49 203.397 168.662L201.861 169.556C201.348 169.856 200.758 170.003 200.162 169.98Z" fill="#E6AD47"/>
<path d="M225.185 169.254C224.392 169.218 223.642 168.883 223.086 168.318C222.751 167.962 222.5 167.535 222.353 167.068C222.206 166.601 222.168 166.106 222.242 165.622L222.447 164.006C222.49 163.662 222.45 163.312 222.328 162.987C222.207 162.662 222.007 162.371 221.75 162.14L220.521 161.043C220.158 160.734 219.87 160.348 219.675 159.914C219.48 159.479 219.386 159.007 219.398 158.531C219.424 157.826 219.69 157.151 220.151 156.617C220.612 156.083 221.241 155.721 221.935 155.59L223.661 155.263C224.001 155.198 224.321 155.051 224.594 154.835C224.865 154.619 225.081 154.341 225.22 154.023L225.864 152.564C226.093 152.01 226.472 151.53 226.957 151.178C227.441 150.825 228.014 150.613 228.614 150.564C229.198 150.531 229.783 150.665 230.295 150.95C230.809 151.235 231.23 151.66 231.511 152.176L232.355 153.714C232.523 154.018 232.761 154.278 233.052 154.47C233.341 154.661 233.673 154.78 234.019 154.815L235.656 154.98C236.132 155.017 236.593 155.16 237.005 155.398C237.418 155.635 237.773 155.962 238.044 156.354C238.436 156.94 238.617 157.642 238.56 158.345C238.5 159.047 238.204 159.709 237.721 160.222L236.517 161.5C236.279 161.753 236.107 162.059 236.015 162.393C235.92 162.728 235.91 163.079 235.983 163.418L236.33 165.021C236.442 165.483 236.449 165.965 236.351 166.431C236.254 166.898 236.052 167.335 235.765 167.714C235.331 168.272 234.718 168.663 234.031 168.827C233.342 168.988 232.62 168.913 231.981 168.609L230.391 167.86C230.077 167.713 229.732 167.644 229.385 167.658C229.038 167.673 228.701 167.772 228.401 167.947L226.883 168.83C226.369 169.13 225.78 169.277 225.185 169.254Z" fill="#E6AD47"/>
<path d="M250.273 169.149C249.842 169.129 249.419 169.021 249.032 168.83C248.646 168.64 248.302 168.371 248.025 168.041C247.746 167.713 247.539 167.328 247.417 166.916C247.295 166.503 247.259 166.069 247.313 165.64L247.536 163.879C247.579 163.541 247.539 163.198 247.42 162.879C247.301 162.56 247.105 162.275 246.852 162.048L245.528 160.865C245.093 160.478 244.778 159.978 244.613 159.42C244.449 158.863 244.446 158.27 244.601 157.711C244.756 157.151 245.065 156.645 245.493 156.252C245.921 155.859 246.451 155.593 247.022 155.484L248.768 155.153C249.102 155.09 249.417 154.946 249.683 154.734C249.951 154.522 250.162 154.249 250.299 153.937L251.016 152.311C251.25 151.78 251.629 151.325 252.109 150.997C252.588 150.669 253.151 150.482 253.731 150.457C254.312 150.432 254.889 150.569 255.396 150.854C255.901 151.139 256.319 151.56 256.598 152.069L257.452 153.626C257.617 153.925 257.85 154.18 258.134 154.368C258.42 154.556 258.745 154.672 259.084 154.707L260.851 154.885C261.431 154.944 261.981 155.163 262.442 155.517C262.902 155.872 263.254 156.349 263.457 156.893C263.66 157.437 263.707 158.028 263.593 158.597C263.477 159.167 263.206 159.693 262.808 160.116L261.591 161.409C261.356 161.657 261.186 161.958 261.095 162.286C261.005 162.614 260.995 162.959 261.067 163.292L261.442 165.028C261.566 165.596 261.527 166.186 261.332 166.734C261.135 167.281 260.792 167.762 260.336 168.124C259.882 168.485 259.333 168.713 258.757 168.779C258.179 168.847 257.594 168.751 257.069 168.503L255.462 167.746C255.153 167.601 254.815 167.531 254.474 167.546C254.132 167.561 253.8 167.658 253.506 167.83L251.97 168.724C251.457 169.025 250.867 169.172 250.273 169.149Z" fill="#E6AD47"/>
<path opacity="0.2" d="M274.675 168.487C274.244 168.467 273.821 168.36 273.435 168.168C273.048 167.979 272.705 167.71 272.427 167.381C272.148 167.051 271.942 166.668 271.819 166.254C271.697 165.842 271.661 165.408 271.715 164.979L271.938 163.218C271.981 162.88 271.942 162.537 271.823 162.218C271.702 161.899 271.507 161.613 271.255 161.386L269.93 160.204C269.496 159.817 269.179 159.316 269.015 158.759C268.852 158.201 268.848 157.609 269.003 157.049C269.159 156.489 269.468 155.984 269.895 155.59C270.323 155.197 270.853 154.931 271.425 154.823L273.17 154.491C273.504 154.428 273.819 154.284 274.085 154.072C274.353 153.861 274.563 153.587 274.701 153.276L275.417 151.65C275.653 151.118 276.031 150.663 276.512 150.335C276.991 150.008 277.554 149.821 278.133 149.795C278.715 149.77 279.291 149.908 279.798 150.193C280.304 150.478 280.721 150.899 281.001 151.408L281.854 152.965C282.018 153.264 282.252 153.518 282.537 153.706C282.821 153.895 283.148 154.011 283.486 154.045L285.253 154.224C285.833 154.282 286.383 154.501 286.844 154.856C287.303 155.211 287.655 155.687 287.86 156.232C288.063 156.776 288.109 157.366 287.995 157.936C287.879 158.505 287.609 159.032 287.209 159.455L285.993 160.748C285.759 160.996 285.589 161.297 285.498 161.625C285.407 161.953 285.397 162.298 285.47 162.631L285.845 164.367C285.967 164.935 285.929 165.525 285.734 166.073C285.537 166.619 285.194 167.101 284.738 167.462C284.284 167.823 283.736 168.051 283.159 168.119C282.581 168.185 281.996 168.089 281.471 167.842L279.864 167.084C279.555 166.939 279.217 166.871 278.877 166.885C278.535 166.899 278.203 166.997 277.909 167.168L276.373 168.063C275.859 168.363 275.27 168.51 274.675 168.487Z" fill="#EFF1F5"/>
<path opacity="0.2" d="M299.077 167.825C298.646 167.805 298.223 167.698 297.837 167.507C297.45 167.317 297.107 167.048 296.828 166.719C296.55 166.389 296.344 166.007 296.221 165.592C296.099 165.18 296.063 164.745 296.117 164.318L296.34 162.556C296.383 162.218 296.344 161.875 296.225 161.556C296.104 161.237 295.909 160.952 295.655 160.725L294.332 159.542C293.898 159.155 293.581 158.655 293.417 158.097C293.254 157.539 293.249 156.947 293.405 156.387C293.561 155.828 293.87 155.322 294.297 154.929C294.725 154.536 295.255 154.27 295.827 154.161L297.572 153.83C297.906 153.766 298.22 153.623 298.487 153.411C298.753 153.199 298.965 152.926 299.102 152.614L299.819 150.988C300.053 150.457 300.433 150.001 300.912 149.674C301.393 149.346 301.954 149.159 302.535 149.134C303.117 149.109 303.693 149.246 304.199 149.531C304.706 149.816 305.123 150.237 305.403 150.746L306.256 152.303C306.42 152.602 306.654 152.856 306.939 153.045C307.223 153.233 307.55 153.349 307.888 153.384L309.655 153.562C310.233 153.62 310.785 153.84 311.246 154.194C311.705 154.549 312.057 155.026 312.262 155.57C312.465 156.114 312.511 156.705 312.397 157.274C312.281 157.844 312.011 158.37 311.611 158.793L310.394 160.086C310.161 160.334 309.991 160.635 309.9 160.963C309.809 161.291 309.799 161.636 309.872 161.969L310.247 163.705C310.369 164.273 310.331 164.864 310.136 165.411C309.939 165.959 309.594 166.439 309.14 166.8C308.684 167.162 308.138 167.389 307.561 167.457C306.983 167.523 306.398 167.427 305.873 167.18L304.265 166.424C303.957 166.277 303.619 166.21 303.277 166.223C302.937 166.238 302.605 166.335 302.311 166.507L300.775 167.401C300.261 167.701 299.672 167.848 299.077 167.825Z" fill="#EFF1F5"/>
<path d="M454.541 375.876L455.256 359.838C462.696 355.863 470.997 353.762 479.435 353.721C467.823 363.21 469.273 381.498 461.4 394.257C458.914 398.218 455.568 401.568 451.609 404.061C447.65 406.553 443.183 408.124 438.533 408.655L428.815 414.602C427.483 407.173 427.777 399.543 429.678 392.239C431.579 384.936 435.042 378.13 439.828 372.292C442.547 369.043 445.663 366.15 449.105 363.68C451.432 369.812 454.541 375.876 454.541 375.876Z" fill="#728673"/>
<path d="M484.681 416.007H224.203C224.006 416.007 223.816 415.929 223.677 415.789C223.537 415.65 223.459 415.46 223.459 415.264C223.459 415.068 223.537 414.878 223.677 414.739C223.816 414.599 224.006 414.521 224.203 414.521H484.681C484.879 414.521 485.067 414.599 485.206 414.739C485.346 414.878 485.424 415.068 485.424 415.264C485.424 415.46 485.346 415.65 485.206 415.789C485.067 415.929 484.879 416.007 484.681 416.007Z" fill="#173E6D"/>
</svg>
