<svg width="1006" height="517" viewBox="0 0 1006 517" fill="none" xmlns="http://www.w3.org/2000/svg">
<g clip-path="url(#clip0_243_677)">
<path fill-rule="evenodd" clip-rule="evenodd" d="M120.656 127.82C212.065 69.3912 323.294 3.43208 482.981 0.126322C641.702 -3.15948 762.59 58.272 863.275 112.447C946.614 157.289 973.367 213.215 986.752 271.186C1001.06 333.168 1038.8 404.929 941.243 450.127C844.732 494.84 681.83 468.08 543.892 476.361C385.144 485.89 212.186 544.286 85.1296 501.521C-42.2574 458.644 9.17841 369.788 15.9403 298.66C21.7587 237.457 41.6827 178.301 120.656 127.82Z" fill="#C2CEE7"/>
<path d="M889.82 159.057L889.674 159.137C888.112 159.992 886.361 160.443 884.58 160.45C882.798 160.456 881.044 160.017 879.476 159.172C879.386 159.124 879.296 159.076 879.206 159.028C877.638 158.191 875.886 157.755 874.109 157.761C872.33 157.766 870.582 158.214 869.019 159.063L868.884 159.137C867.322 159.992 865.57 160.443 863.788 160.45C862.008 160.456 860.254 160.017 858.686 159.172C858.591 159.121 858.498 159.072 858.405 159.023C856.856 158.188 855.124 157.75 853.364 157.748C851.604 157.745 849.871 158.176 848.317 159.005C843.574 161.562 837.161 165.934 837.189 170.872C837.191 171.067 837.201 171.261 837.222 171.456C837.773 176.583 854.483 177.89 863.662 175.473C870.503 177.036 877.61 177.036 884.452 175.473C893.591 177.929 910.641 176.521 911.139 171.335C911.158 171.141 911.167 170.946 911.165 170.751C911.138 165.811 904.667 161.484 899.893 158.963C898.336 158.149 896.602 157.73 894.844 157.746C893.087 157.763 891.36 158.214 889.82 159.057Z" fill="#EFF1F5"/>
<path d="M646.702 156.465C665.137 156.465 680.082 141.515 680.082 123.074C680.082 104.633 665.137 89.6831 646.702 89.6831C628.267 89.6831 613.322 104.633 613.322 123.074C613.322 141.515 628.267 156.465 646.702 156.465Z" fill="#E6AD47"/>
<path d="M841.62 132.809H801.58V96.3984L841.62 132.809Z" fill="#3F3D56"/>
<path d="M846.299 131.617H644.875V409.987H846.299V131.617Z" fill="#C0C0C0"/>
<path d="M688.667 151.135H664.97V201.085H688.667V151.135Z" fill="white"/>
<path d="M725.321 151.135H701.624V201.085H725.321V151.135Z" fill="white"/>
<path d="M685.544 221.931H661.847V271.88H685.544V221.931Z" fill="white"/>
<path d="M725.321 221.931H701.624V271.88H725.321V221.931Z" fill="white"/>
<path d="M685.544 287.437H661.847V337.386H685.544V287.437Z" fill="white"/>
<path d="M724.429 286.544H700.731V336.493H724.429V286.544Z" fill="white"/>
<path d="M758.87 360.15H735.173V410.099H758.87V360.15Z" fill="#CCCCCC"/>
<path d="M794.673 286.544H770.976V336.493H794.673V286.544Z" fill="white"/>
<path d="M834.45 286.544H810.752V336.493H834.45V286.544Z" fill="white"/>
<path d="M795.565 221.403H771.868V271.351H795.565V221.403Z" fill="white"/>
<path d="M835.342 221.403H811.645V271.351H835.342V221.403Z" fill="white"/>
<path d="M795.565 151.135H771.868V201.085H795.565V151.135Z" fill="white"/>
<path d="M835.342 151.135H811.645V201.085H835.342V151.135Z" fill="white"/>
<path d="M846.299 195.958H644.875V203.578H846.299V195.958Z" fill="#3F3D56"/>
<path d="M846.299 255.22H644.875V259.454H846.299V255.22Z" fill="#3F3D56"/>
<path d="M846.299 241.674H644.875V245.908H846.299V241.674Z" fill="#3F3D56"/>
<path d="M664.763 340.726V306.862H660.531V340.726H664.763Z" fill="#3F3D56"/>
<path d="M688.459 340.726V306.862H684.229V340.726H688.459Z" fill="#3F3D56"/>
<path d="M712.157 340.726V306.862H707.926V340.726H712.157Z" fill="#3F3D56"/>
<path d="M735.853 340.726V306.862H731.623V340.726H735.853Z" fill="#3F3D56"/>
<path d="M759.551 340.726V306.862H755.318V340.726H759.551Z" fill="#3F3D56"/>
<path d="M783.247 340.726V306.862H779.015V340.726H783.247Z" fill="#3F3D56"/>
<path d="M806.945 340.726V306.862H802.712V340.726H806.945Z" fill="#3F3D56"/>
<path d="M830.642 340.726V306.862H826.41V340.726H830.642Z" fill="#3F3D56"/>
<path d="M665.186 276.386V242.522H660.955V276.386H665.186Z" fill="#3F3D56"/>
<path d="M688.884 276.386V242.522H684.651V276.386H688.884Z" fill="#3F3D56"/>
<path d="M712.581 276.386V242.522H708.349V276.386H712.581Z" fill="#3F3D56"/>
<path d="M736.276 276.386V242.522H732.045V276.386H736.276Z" fill="#3F3D56"/>
<path d="M759.973 276.386V242.522H755.743V276.386H759.973Z" fill="#3F3D56"/>
<path d="M783.671 276.386V242.522H779.44V276.386H783.671Z" fill="#3F3D56"/>
<path d="M807.367 276.386V242.522H803.135V276.386H807.367Z" fill="#3F3D56"/>
<path d="M831.065 276.386V242.522H826.833V276.386H831.065Z" fill="#3F3D56"/>
<path d="M665.186 201.038V167.174H660.955V201.038H665.186Z" fill="#3F3D56"/>
<path d="M688.884 201.038V167.174H684.651V201.038H688.884Z" fill="#3F3D56"/>
<path d="M712.579 201.038V167.174H708.349V201.038H712.579Z" fill="#3F3D56"/>
<path d="M736.276 201.038V167.174H732.045V201.038H736.276Z" fill="#3F3D56"/>
<path d="M759.973 201.038V167.174H755.743V201.038H759.973Z" fill="#3F3D56"/>
<path d="M783.671 201.038V167.174H779.44V201.038H783.671Z" fill="#3F3D56"/>
<path d="M807.367 201.038V167.174H803.135V201.038H807.367Z" fill="#3F3D56"/>
<path d="M831.065 201.038V167.174H826.833V201.038H831.065Z" fill="#3F3D56"/>
<path d="M846.299 179.027H644.875V183.26H846.299V179.027Z" fill="#3F3D56"/>
<path d="M846.299 165.481H644.875V169.714H846.299V165.481Z" fill="#3F3D56"/>
<path d="M846.299 269.612H644.875V277.232H846.299V269.612Z" fill="#3F3D56"/>
<path d="M855.567 128.485H635.605V139.839H855.567V128.485Z" fill="#3F3D56"/>
<path d="M688.712 370.95V360.15H675.755V370.95H687.632H688.712Z" fill="white"/>
<path d="M687.632 379.591H675.755V390.392H688.712V379.591H687.632Z" fill="white"/>
<path d="M710.306 360.15H697.35V370.95H710.306V360.15Z" fill="white"/>
<path d="M710.306 379.591H697.35V390.392H710.306V379.591Z" fill="white"/>
<path d="M794.387 370.95V360.15H781.431V370.95H793.308H794.387Z" fill="white"/>
<path d="M793.308 379.591H781.431V390.392H794.387V379.591H793.308Z" fill="white"/>
<path d="M815.982 360.15H803.025V370.95H815.982V360.15Z" fill="white"/>
<path d="M815.982 379.591H803.025V390.392H815.982V379.591Z" fill="white"/>
<path d="M846.299 333.953H644.875V341.573H846.299V333.953Z" fill="#3F3D56"/>
<path d="M846.299 320.408H644.875V324.641H846.299V320.408Z" fill="#3F3D56"/>
<path d="M846.299 306.862H644.875V311.096H846.299V306.862Z" fill="#3F3D56"/>
<path d="M705.855 406.358C705.855 406.123 705.852 405.889 705.845 405.655C705.664 399.415 699.474 397.722 696.156 400.676C695.11 399.766 693.77 399.266 692.384 399.266C690.997 399.266 689.657 399.766 688.609 400.676C685.278 397.769 679.212 399.34 679.013 405.511C679.004 405.743 679.001 405.977 679 406.214C679.01 407.511 679.09 408.807 679.238 410.096H705.619C705.763 408.856 705.842 407.607 705.855 406.358Z" fill="#4F7962"/>
<path d="M810.703 406.358C810.704 406.123 810.701 405.889 810.694 405.655C810.513 399.415 804.324 397.722 801.006 400.676C799.96 399.766 798.62 399.266 797.233 399.266C795.847 399.266 794.507 399.766 793.459 400.676C790.128 397.769 784.061 399.34 783.862 405.511C783.853 405.743 783.851 405.977 783.849 406.214C783.859 407.511 783.939 408.807 784.087 410.096H810.469C810.613 408.856 810.69 407.607 810.703 406.358Z" fill="#4F7962"/>
<path d="M955.39 410.518H951.309L952.669 330.794H954.029L955.39 410.518Z" fill="#704C4C"/>
<path d="M958.789 280.602L965.374 270.419C963.421 265.022 961.165 259.74 958.618 254.598L954.359 258.038L957.731 252.825C954.518 246.497 951.989 242.51 951.989 242.51C951.989 242.51 938.781 263.331 934.368 285.376L942.82 298.441L933.463 290.882C933.13 293.45 932.958 296.036 932.95 298.626C932.95 324.734 941.474 345.9 951.989 345.9C962.504 345.9 971.028 324.734 971.028 298.626C971.028 290.532 969.198 282.064 966.672 274.231L958.789 280.602Z" fill="#728673"/>
<path d="M941.023 299.008H853.981V363.118H854.034V375.882L866.794 363.118H941.023V299.008Z" fill="#173E6D"/>
<path d="M830.95 435.929H753.726V438.982H830.95V435.929Z" fill="#E6AD47"/>
<path d="M971.77 435.929H894.129V438.982H971.77V435.929Z" fill="#E6AD47"/>
<path d="M690.647 435.929H613.322V438.982H690.647V435.929Z" fill="#E6AD47"/>
<path d="M971.48 409.994H546.371V410.867H971.48V409.994Z" fill="#3F3D56"/>
<path d="M874.036 424.732L883.13 424.737V423.293L874.036 423.289V424.732Z" fill="#3F3D56"/>
<path d="M808.289 423.614L810.165 424.049L881.47 424.087L882.111 422.592C883.229 420.029 883.612 417.204 883.22 414.436C882.912 412.371 882.143 410.322 880.395 409.43L877.231 388.348L837.782 388.278L822.519 400.592C822.519 400.592 815.319 400.463 811.408 405.333C809.997 407.145 809.164 409.339 809.017 411.63L808.863 414.164L808.289 423.614Z" fill="#173E6D"/>
<path d="M823.95 432.069C828.813 432.069 832.755 428.126 832.755 423.261C832.755 418.398 828.813 414.453 823.95 414.453C819.087 414.453 815.145 418.398 815.145 423.261C815.145 428.126 819.087 432.069 823.95 432.069Z" fill="#3F3D56"/>
<path d="M823.95 427.897C826.51 427.897 828.584 425.821 828.584 423.261C828.584 420.701 826.51 418.626 823.95 418.626C821.391 418.626 819.315 420.701 819.315 423.261C819.315 425.821 821.391 427.897 823.95 427.897Z" fill="#CCCCCC"/>
<path d="M867.397 432.092C872.26 432.092 876.202 428.149 876.202 423.284C876.202 418.421 872.26 414.477 867.397 414.477C862.534 414.477 858.593 418.421 858.593 423.284C858.593 428.149 862.534 432.092 867.397 432.092Z" fill="#3F3D56"/>
<path d="M867.397 427.921C869.956 427.921 872.03 425.845 872.03 423.284C872.03 420.724 869.956 418.649 867.397 418.649C864.838 418.649 862.762 420.724 862.762 423.284C862.762 425.845 864.838 427.921 867.397 427.921Z" fill="#CCCCCC"/>
<path d="M828.582 399.153L849.883 399.162H852.483L856.872 399.164V398.845L856.875 394.983L856.878 390.648H853.958L851.358 390.645L846.752 390.64H844.152L838.836 390.637L828.582 399.153Z" fill="white"/>
<path d="M860.338 399.167L871.595 399.173L871.598 396.965V393.103L871.6 390.656H869.952L867.352 390.653L860.341 390.651L860.338 399.167Z" fill="white"/>
<path d="M855.423 408.264H856.866L856.867 405.521H855.424L855.423 408.264Z" fill="#3F3D56"/>
<path d="M834.355 403.055L834.357 401.61L831.614 401.608L831.613 403.054L834.355 403.055Z" fill="#3F3D56"/>
<path d="M833.344 402.244H833.185C832.384 402.242 831.617 401.925 831.052 401.358C830.486 400.793 830.169 400.025 830.169 399.224C830.169 398.424 830.488 397.657 831.055 397.091C831.62 396.526 832.387 396.207 833.188 396.209H833.346L833.344 402.244Z" fill="#3F3D56"/>
<path d="M808.863 414.164C809.954 414.283 811.052 414.013 811.964 413.401C812.876 412.789 813.543 411.874 813.846 410.819C814.152 409.763 814.073 408.635 813.627 407.632C813.181 406.627 812.394 405.814 811.408 405.333C809.996 407.145 809.164 409.339 809.017 411.63L808.863 414.164Z" fill="#CCCCCC"/>
<path d="M851.358 390.645L856.872 398.845L856.875 394.983L853.958 390.648L851.358 390.645Z" fill="#F2F2F2"/>
<path d="M867.352 390.653L871.597 396.965V393.103L869.952 390.656L867.352 390.653Z" fill="#F2F2F2"/>
<path d="M844.152 390.64L849.883 399.162H852.483L846.752 390.64H844.152Z" fill="#F2F2F2"/>
<path d="M745.447 105.852L745.367 105.897C744.492 106.377 743.511 106.63 742.514 106.634C741.517 106.637 740.535 106.391 739.655 105.917C739.606 105.889 739.555 105.862 739.506 105.836C738.626 105.365 737.645 105.121 736.65 105.124C735.654 105.127 734.676 105.379 733.801 105.855L733.726 105.897C732.851 106.377 731.87 106.63 730.873 106.634C729.876 106.637 728.893 106.391 728.015 105.917C727.962 105.888 727.911 105.86 727.858 105.832C726.991 105.364 726.02 105.118 725.034 105.116C724.049 105.115 723.08 105.357 722.209 105.822C719.554 107.258 715.963 109.713 715.979 112.486C715.979 112.595 715.986 112.705 715.997 112.814C716.306 115.693 725.661 116.427 730.801 115.07C734.632 115.948 738.61 115.948 742.443 115.07C747.56 116.449 757.106 115.659 757.385 112.747C757.395 112.637 757.399 112.528 757.399 112.418C757.383 109.644 753.762 107.215 751.089 105.799C750.217 105.341 749.245 105.107 748.261 105.116C747.277 105.125 746.31 105.378 745.447 105.852Z" fill="#EFF1F5"/>
<path d="M610.926 137.317L610.758 137.408C608.941 138.402 606.904 138.926 604.832 138.933C602.761 138.94 600.72 138.43 598.896 137.45C598.791 137.393 598.686 137.337 598.583 137.282C596.758 136.308 594.721 135.803 592.653 135.81C590.585 135.817 588.552 136.337 586.734 137.323L586.577 137.408C584.76 138.402 582.723 138.926 580.652 138.933C578.58 138.94 576.54 138.43 574.715 137.45C574.606 137.391 574.498 137.333 574.39 137.275C572.587 136.307 570.573 135.798 568.526 135.794C566.479 135.79 564.463 136.292 562.657 137.255C557.14 140.225 549.681 145.303 549.714 151.038C549.715 151.265 549.728 151.491 549.752 151.717C550.394 157.672 569.827 159.19 580.503 156.384C588.461 158.198 596.726 158.198 604.684 156.384C615.314 159.235 635.142 157.601 635.722 151.577C635.744 151.352 635.754 151.125 635.753 150.898C635.72 145.16 628.195 140.135 622.643 137.207C620.832 136.259 618.815 135.774 616.771 135.793C614.727 135.812 612.719 136.335 610.926 137.317Z" fill="#EFF1F5"/>
<path d="M575.811 460.593H566.718V462.036H575.811V460.593Z" fill="#3F3D56"/>
<path d="M641.558 460.916L639.682 461.35L568.377 461.388L567.736 459.893C566.618 457.33 566.234 454.507 566.628 451.737C566.935 449.674 567.704 447.623 569.452 446.733L572.616 425.65L612.066 425.579L627.329 437.893C627.329 437.893 634.528 437.764 638.44 442.636C639.851 444.446 640.684 446.641 640.83 448.933L640.985 451.467L641.558 460.916Z" fill="#173E6D"/>
<path d="M625.897 469.371C630.76 469.371 634.702 465.428 634.702 460.564C634.702 455.699 630.76 451.756 625.897 451.756C621.034 451.756 617.092 455.699 617.092 460.564C617.092 465.428 621.034 469.371 625.897 469.371Z" fill="#3F3D56"/>
<path d="M625.897 465.199C628.457 465.199 630.531 463.124 630.531 460.564C630.531 458.003 628.457 455.929 625.897 455.929C623.338 455.929 621.263 458.003 621.263 460.564C621.263 463.124 623.338 465.199 625.897 465.199Z" fill="#CCCCCC"/>
<path d="M582.45 469.395C587.313 469.395 591.255 465.452 591.255 460.587C591.255 455.722 587.313 451.779 582.45 451.779C577.588 451.779 573.646 455.722 573.646 460.587C573.646 465.452 577.588 469.395 582.45 469.395Z" fill="#3F3D56"/>
<path d="M582.451 465.222C585.01 465.222 587.085 463.147 587.085 460.587C587.085 458.027 585.01 455.951 582.451 455.951C579.891 455.951 577.816 458.027 577.816 460.587C577.816 463.147 579.891 465.222 582.451 465.222Z" fill="#CCCCCC"/>
<path d="M621.265 436.454L599.965 436.464H597.365L592.975 436.467V436.146L592.972 432.284L592.969 427.949H595.89L598.49 427.946L603.095 427.943H605.695L611.012 427.94L621.265 436.454Z" fill="white"/>
<path d="M589.509 436.47L578.253 436.476L578.25 434.266V430.406L578.247 427.959H579.895L582.495 427.956L589.506 427.953L589.509 436.47Z" fill="white"/>
<path d="M594.422 442.821H592.979V445.564H594.422V442.821Z" fill="#3F3D56"/>
<path d="M618.236 440.353L618.236 438.91L615.493 438.911L615.494 440.355L618.236 440.353Z" fill="#3F3D56"/>
<path d="M616.502 433.51H616.661C617.057 433.51 617.45 433.587 617.816 433.74C618.182 433.891 618.514 434.113 618.794 434.394C619.074 434.673 619.297 435.006 619.448 435.372C619.6 435.739 619.678 436.131 619.678 436.527C619.678 437.328 619.36 438.095 618.794 438.661C618.229 439.227 617.461 439.545 616.661 439.545H616.502V433.51Z" fill="#3F3D56"/>
<path d="M640.985 451.467C639.893 451.584 638.795 451.314 637.883 450.702C636.971 450.091 636.305 449.177 636 448.121C635.696 447.066 635.774 445.938 636.22 444.933C636.667 443.93 637.453 443.116 638.44 442.636C639.851 444.446 640.684 446.641 640.831 448.933L640.985 451.467Z" fill="#CCCCCC"/>
<path d="M598.49 427.946L592.975 436.146L592.972 432.284L595.89 427.949L598.49 427.946Z" fill="#F2F2F2"/>
<path d="M582.495 427.956L578.25 434.266V430.406L579.895 427.959L582.495 427.956Z" fill="#F2F2F2"/>
<path d="M605.695 427.943L599.965 436.464H597.365L603.095 427.943H605.695Z" fill="#F2F2F2"/>
<path d="M894.453 344.727L883.338 330.431L889.801 325.402L895.064 332.171L912.843 313.397L918.788 319.032L894.453 344.727Z" fill="white"/>
<path d="M467.82 159.057L467.674 159.137C466.112 159.992 464.361 160.443 462.58 160.45C460.798 160.456 459.044 160.017 457.476 159.172C457.386 159.124 457.296 159.076 457.206 159.028C455.638 158.191 453.886 157.755 452.109 157.761C450.33 157.766 448.582 158.214 447.019 159.063L446.884 159.137C445.322 159.992 443.57 160.443 441.788 160.45C440.008 160.456 438.254 160.017 436.686 159.172C436.591 159.121 436.498 159.072 436.405 159.023C434.856 158.188 433.124 157.75 431.364 157.748C429.604 157.745 427.871 158.176 426.317 159.005C421.574 161.562 415.161 165.934 415.189 170.872C415.191 171.067 415.201 171.261 415.222 171.456C415.773 176.583 432.483 177.89 441.662 175.473C448.503 177.036 455.61 177.036 462.452 175.473C471.591 177.929 488.641 176.521 489.139 171.335C489.158 171.141 489.167 170.946 489.165 170.751C489.138 165.811 482.667 161.484 477.893 158.963C476.336 158.149 474.602 157.73 472.844 157.746C471.087 157.763 469.36 158.214 467.82 159.057Z" fill="#EFF1F5"/>
<path d="M459.62 203.411H419.58V167L459.62 203.411Z" fill="#3F3D56"/>
<path d="M464 209H263V410H464V209Z" fill="#C0C0C0"/>
<path d="M303.544 221.931H279.847V271.88H303.544V221.931Z" fill="white"/>
<path d="M343.321 221.931H319.624V271.88H343.321V221.931Z" fill="white"/>
<path d="M303.544 287.437H279.847V337.386H303.544V287.437Z" fill="white"/>
<path d="M342.429 286.544H318.731V336.493H342.429V286.544Z" fill="white"/>
<path d="M376.87 360.15H353.173V410.099H376.87V360.15Z" fill="#CCCCCC"/>
<path d="M412.673 286.544H388.976V336.493H412.673V286.544Z" fill="white"/>
<path d="M452.45 286.544H428.752V336.493H452.45V286.544Z" fill="white"/>
<path d="M413.565 221.403H389.868V271.351H413.565V221.403Z" fill="white"/>
<path d="M453.342 221.403H429.645V271.351H453.342V221.403Z" fill="white"/>
<path d="M464.299 255.22H262.875V259.454H464.299V255.22Z" fill="#3F3D56"/>
<path d="M464.299 241.674H262.875V245.908H464.299V241.674Z" fill="#3F3D56"/>
<path d="M282.763 340.726V306.862H278.531V340.726H282.763Z" fill="#3F3D56"/>
<path d="M306.459 340.726V306.862H302.229V340.726H306.459Z" fill="#3F3D56"/>
<path d="M330.157 340.726V306.862H325.926V340.726H330.157Z" fill="#3F3D56"/>
<path d="M353.853 340.726V306.862H349.623V340.726H353.853Z" fill="#3F3D56"/>
<path d="M377.551 340.726V306.862H373.318V340.726H377.551Z" fill="#3F3D56"/>
<path d="M401.247 340.726V306.862H397.015V340.726H401.247Z" fill="#3F3D56"/>
<path d="M424.945 340.726V306.862H420.712V340.726H424.945Z" fill="#3F3D56"/>
<path d="M448.642 340.726V306.862H444.41V340.726H448.642Z" fill="#3F3D56"/>
<path d="M283.186 276.386V242.522H278.955V276.386H283.186Z" fill="#3F3D56"/>
<path d="M306.884 276.386V242.522H302.651V276.386H306.884Z" fill="#3F3D56"/>
<path d="M330.581 276.386V242.522H326.349V276.386H330.581Z" fill="#3F3D56"/>
<path d="M354.276 276.386V242.522H350.045V276.386H354.276Z" fill="#3F3D56"/>
<path d="M377.973 276.386V242.522H373.743V276.386H377.973Z" fill="#3F3D56"/>
<path d="M401.671 276.386V242.522H397.44V276.386H401.671Z" fill="#3F3D56"/>
<path d="M425.367 276.386V242.522H421.135V276.386H425.367Z" fill="#3F3D56"/>
<path d="M449.065 276.386V242.522H444.833V276.386H449.065Z" fill="#3F3D56"/>
<path d="M464.299 269.612H262.875V277.232H464.299V269.612Z" fill="#3F3D56"/>
<path d="M473.567 199.087H253.605V210.441H473.567V199.087Z" fill="#3F3D56"/>
<path d="M306.712 370.95V360.15H293.755V370.95H305.632H306.712Z" fill="white"/>
<path d="M305.632 379.591H293.755V390.392H306.712V379.591H305.632Z" fill="white"/>
<path d="M328.306 360.15H315.35V370.95H328.306V360.15Z" fill="white"/>
<path d="M328.306 379.591H315.35V390.392H328.306V379.591Z" fill="white"/>
<path d="M412.387 370.95V360.15H399.431V370.95H411.308H412.387Z" fill="white"/>
<path d="M411.308 379.591H399.431V390.392H412.387V379.591H411.308Z" fill="white"/>
<path d="M433.982 360.15H421.025V370.95H433.982V360.15Z" fill="white"/>
<path d="M433.982 379.591H421.025V390.392H433.982V379.591Z" fill="white"/>
<path d="M464.299 333.953H262.875V341.573H464.299V333.953Z" fill="#3F3D56"/>
<path d="M464.299 320.408H262.875V324.641H464.299V320.408Z" fill="#3F3D56"/>
<path d="M464.299 306.862H262.875V311.096H464.299V306.862Z" fill="#3F3D56"/>
<path d="M283.855 406.358C283.855 406.123 283.852 405.889 283.845 405.655C283.664 399.415 277.474 397.722 274.156 400.676C273.11 399.766 271.77 399.266 270.384 399.266C268.997 399.266 267.657 399.766 266.609 400.676C263.278 397.769 257.212 399.34 257.013 405.511C257.004 405.743 257.001 405.977 257 406.214C257.01 407.511 257.09 408.807 257.238 410.096H283.619C283.763 408.856 283.842 407.607 283.855 406.358Z" fill="#4F7962"/>
<path d="M388.703 406.358C388.704 406.123 388.701 405.889 388.694 405.655C388.513 399.415 382.324 397.722 379.006 400.676C377.96 399.766 376.62 399.266 375.233 399.266C373.847 399.266 372.507 399.766 371.459 400.676C368.128 397.769 362.061 399.34 361.862 405.511C361.853 405.743 361.851 405.977 361.849 406.214C361.859 407.511 361.939 408.807 362.087 410.096H388.469C388.613 408.856 388.69 407.607 388.703 406.358Z" fill="#4F7962"/>
<path d="M510 411H505L506.667 314H508.333L510 411Z" fill="#704C4C"/>
<path d="M514.215 253.053L522.17 240.742C519.811 234.217 517.086 227.831 514.008 221.614L508.864 225.773L512.937 219.471C509.055 211.82 506 207 506 207C506 207 490.044 232.173 484.714 258.826L494.923 274.621L483.62 265.483C483.218 268.587 483.011 271.714 483 274.844C483 306.41 493.297 332 506 332C518.703 332 529 306.41 529 274.844C529 265.059 526.79 254.822 523.738 245.351L514.215 253.053Z" fill="#728673"/>
<path d="M200 411H195L196.667 314H198.333L200 411Z" fill="#704C4C"/>
<path d="M204.215 253.053L212.17 240.742C209.811 234.217 207.086 227.831 204.008 221.614L198.864 225.773L202.937 219.471C199.055 211.82 196 207 196 207C196 207 180.044 232.173 174.714 258.826L184.923 274.621L173.62 265.483C173.218 268.587 173.011 271.714 173 274.844C173 306.41 183.297 332 196 332C208.703 332 219 306.41 219 274.844C219 265.059 216.79 254.822 213.738 245.351L204.215 253.053Z" fill="#728673"/>
<path d="M232 411H235L234 363H233L232 411Z" fill="#704C4C"/>
<path d="M230.392 332.843L226.415 326.736C227.595 323.5 228.957 320.332 230.496 317.249L233.068 319.311L231.032 316.186C232.973 312.391 234.5 310 234.5 310C234.5 310 242.478 322.486 245.143 335.706L240.038 343.54L245.69 339.007C245.891 340.547 245.995 342.098 246 343.651C246 359.308 240.851 372 234.5 372C228.149 372 223 359.308 223 343.651C223 338.797 224.105 333.72 225.631 329.022L230.392 332.843Z" fill="#728673"/>
<path d="M408.95 435.929H331.726V438.982H408.95V435.929Z" fill="#E6AD47"/>
<path d="M549.77 435.929H472.129V438.982H549.77V435.929Z" fill="#E6AD47"/>
<path d="M268.647 435.929H191.322V438.982H268.647V435.929Z" fill="#E6AD47"/>
<path d="M549.48 409.994H124.371V410.867H549.48V409.994Z" fill="#3F3D56"/>
<path d="M402.036 424.732L411.13 424.737V423.293L402.036 423.289V424.732Z" fill="#3F3D56"/>
<path d="M336.289 423.614L338.165 424.049L409.47 424.087L410.111 422.592C411.229 420.029 411.612 417.204 411.22 414.436C410.912 412.371 410.143 410.322 408.395 409.43L405.231 388.348L365.782 388.278L350.519 400.592C350.519 400.592 343.319 400.463 339.408 405.333C337.997 407.145 337.164 409.339 337.017 411.63L336.863 414.164L336.289 423.614Z" fill="#173E6D"/>
<path d="M351.95 432.069C356.813 432.069 360.755 428.126 360.755 423.261C360.755 418.398 356.813 414.453 351.95 414.453C347.087 414.453 343.145 418.398 343.145 423.261C343.145 428.126 347.087 432.069 351.95 432.069Z" fill="#3F3D56"/>
<path d="M351.95 427.897C354.51 427.897 356.584 425.821 356.584 423.261C356.584 420.701 354.51 418.626 351.95 418.626C349.391 418.626 347.315 420.701 347.315 423.261C347.315 425.821 349.391 427.897 351.95 427.897Z" fill="#CCCCCC"/>
<path d="M395.397 432.092C400.26 432.092 404.202 428.149 404.202 423.284C404.202 418.421 400.26 414.477 395.397 414.477C390.534 414.477 386.593 418.421 386.593 423.284C386.593 428.149 390.534 432.092 395.397 432.092Z" fill="#3F3D56"/>
<path d="M395.397 427.921C397.956 427.921 400.03 425.845 400.03 423.284C400.03 420.724 397.956 418.649 395.397 418.649C392.838 418.649 390.762 420.724 390.762 423.284C390.762 425.845 392.838 427.921 395.397 427.921Z" fill="#CCCCCC"/>
<path d="M356.582 399.153L377.883 399.162H380.483L384.872 399.164V398.845L384.875 394.983L384.878 390.648H381.958L379.358 390.645L374.752 390.64H372.152L366.836 390.637L356.582 399.153Z" fill="white"/>
<path d="M388.338 399.167L399.595 399.173L399.598 396.965V393.103L399.6 390.656H397.952L395.352 390.653L388.341 390.651L388.338 399.167Z" fill="white"/>
<path d="M383.423 408.264H384.866L384.867 405.521H383.424L383.423 408.264Z" fill="#3F3D56"/>
<path d="M362.355 403.055L362.357 401.61L359.614 401.608L359.613 403.054L362.355 403.055Z" fill="#3F3D56"/>
<path d="M361.344 402.244H361.185C360.384 402.242 359.617 401.925 359.052 401.358C358.486 400.793 358.169 400.025 358.169 399.224C358.169 398.424 358.488 397.657 359.055 397.091C359.62 396.526 360.387 396.207 361.188 396.209H361.346L361.344 402.244Z" fill="#3F3D56"/>
<path d="M336.863 414.164C337.954 414.283 339.052 414.013 339.964 413.401C340.876 412.789 341.543 411.874 341.846 410.819C342.152 409.763 342.073 408.635 341.627 407.632C341.181 406.627 340.394 405.814 339.408 405.333C337.996 407.145 337.164 409.339 337.017 411.63L336.863 414.164Z" fill="#CCCCCC"/>
<path d="M379.358 390.645L384.872 398.845L384.875 394.983L381.958 390.648L379.358 390.645Z" fill="#F2F2F2"/>
<path d="M395.352 390.653L399.597 396.965V393.103L397.952 390.656L395.352 390.653Z" fill="#F2F2F2"/>
<path d="M372.152 390.64L377.883 399.162H380.483L374.752 390.64H372.152Z" fill="#F2F2F2"/>
<path d="M367.756 75.4298L367.493 75.5755C364.621 77.1597 361.399 77.9953 358.126 78.0068C354.852 78.0183 351.627 77.2057 348.74 75.6417C348.577 75.5516 348.41 75.4624 348.248 75.3742C345.361 73.8227 342.14 73.0162 338.871 73.0277C335.602 73.0387 332.391 73.8677 329.518 75.4394L329.27 75.5755C326.397 77.1597 323.176 77.9953 319.903 78.0068C316.629 78.0183 313.403 77.2057 310.521 75.6417C310.345 75.5482 310.178 75.4557 310.006 75.3641C307.157 73.8193 303.969 73.0081 300.734 73.0023C297.499 72.9966 294.316 73.7968 291.457 75.331C282.739 80.0661 270.948 88.1621 271 97.3053C271 97.6668 271.024 98.0279 271.062 98.3874C272.074 107.883 302.791 110.302 319.669 105.827C332.248 108.721 345.309 108.721 357.892 105.827C374.694 110.374 406.036 107.769 406.952 98.165C406.986 97.8049 407 97.4439 407 97.0824C406.948 87.9339 395.056 79.9232 386.28 75.2543C383.417 73.7445 380.225 72.9702 376.994 73.0009C373.764 73.0316 370.59 73.8658 367.756 75.4298Z" fill="#EFF1F5"/>
<path d="M188.926 137.317L188.758 137.408C186.941 138.402 184.904 138.926 182.832 138.933C180.761 138.94 178.72 138.43 176.896 137.45C176.791 137.393 176.686 137.337 176.583 137.282C174.758 136.308 172.721 135.803 170.653 135.81C168.585 135.817 166.552 136.337 164.734 137.323L164.577 137.408C162.76 138.402 160.723 138.926 158.652 138.933C156.58 138.94 154.54 138.43 152.715 137.45C152.606 137.391 152.498 137.333 152.39 137.275C150.587 136.307 148.573 135.798 146.526 135.794C144.479 135.79 142.463 136.292 140.657 137.255C135.14 140.225 127.681 145.303 127.714 151.038C127.715 151.265 127.728 151.491 127.752 151.717C128.394 157.672 147.827 159.19 158.503 156.384C166.461 158.198 174.726 158.198 182.684 156.384C193.314 159.235 213.142 157.601 213.722 151.577C213.744 151.352 213.754 151.125 213.753 150.898C213.72 145.16 206.195 140.135 200.643 137.207C198.832 136.259 196.815 135.774 194.771 135.793C192.727 135.812 190.719 136.335 188.926 137.317Z" fill="#EFF1F5"/>
<path d="M153.811 460.593H144.718V462.036H153.811V460.593Z" fill="#3F3D56"/>
<path d="M219.558 460.916L217.682 461.35L146.377 461.388L145.736 459.893C144.618 457.33 144.234 454.507 144.628 451.737C144.935 449.674 145.704 447.623 147.452 446.733L150.616 425.65L190.066 425.579L205.329 437.893C205.329 437.893 212.528 437.764 216.44 442.636C217.851 444.446 218.684 446.641 218.83 448.933L218.985 451.467L219.558 460.916Z" fill="#173E6D"/>
<path d="M203.897 469.371C208.76 469.371 212.702 465.428 212.702 460.564C212.702 455.699 208.76 451.756 203.897 451.756C199.034 451.756 195.092 455.699 195.092 460.564C195.092 465.428 199.034 469.371 203.897 469.371Z" fill="#3F3D56"/>
<path d="M203.897 465.199C206.457 465.199 208.531 463.124 208.531 460.564C208.531 458.003 206.457 455.929 203.897 455.929C201.338 455.929 199.263 458.003 199.263 460.564C199.263 463.124 201.338 465.199 203.897 465.199Z" fill="#CCCCCC"/>
<path d="M160.45 469.395C165.313 469.395 169.255 465.452 169.255 460.587C169.255 455.722 165.313 451.779 160.45 451.779C155.588 451.779 151.646 455.722 151.646 460.587C151.646 465.452 155.588 469.395 160.45 469.395Z" fill="#3F3D56"/>
<path d="M160.451 465.222C163.01 465.222 165.085 463.147 165.085 460.587C165.085 458.027 163.01 455.951 160.451 455.951C157.891 455.951 155.816 458.027 155.816 460.587C155.816 463.147 157.891 465.222 160.451 465.222Z" fill="#CCCCCC"/>
<path d="M199.265 436.454L177.965 436.464H175.365L170.975 436.467V436.146L170.972 432.284L170.969 427.949H173.89L176.49 427.946L181.095 427.943H183.695L189.012 427.94L199.265 436.454Z" fill="white"/>
<path d="M167.509 436.47L156.253 436.476L156.25 434.266V430.406L156.247 427.959H157.895L160.495 427.956L167.506 427.953L167.509 436.47Z" fill="white"/>
<path d="M172.422 442.821H170.979V445.564H172.422V442.821Z" fill="#3F3D56"/>
<path d="M196.236 440.353L196.236 438.91L193.493 438.911L193.494 440.355L196.236 440.353Z" fill="#3F3D56"/>
<path d="M194.502 433.51H194.661C195.057 433.51 195.45 433.587 195.816 433.74C196.182 433.891 196.514 434.113 196.794 434.394C197.074 434.673 197.297 435.006 197.448 435.372C197.6 435.739 197.678 436.131 197.678 436.527C197.678 437.328 197.36 438.095 196.794 438.661C196.229 439.227 195.461 439.545 194.661 439.545H194.502V433.51Z" fill="#3F3D56"/>
<path d="M218.985 451.467C217.893 451.584 216.795 451.314 215.883 450.702C214.971 450.091 214.305 449.177 214 448.121C213.696 447.066 213.774 445.938 214.22 444.933C214.667 443.93 215.453 443.116 216.44 442.636C217.851 444.446 218.684 446.641 218.831 448.933L218.985 451.467Z" fill="#CCCCCC"/>
<path d="M176.49 427.946L170.975 436.146L170.972 432.284L173.89 427.949L176.49 427.946Z" fill="#F2F2F2"/>
<path d="M160.495 427.956L156.25 434.266V430.406L157.895 427.959L160.495 427.956Z" fill="#F2F2F2"/>
<path d="M183.695 427.943L177.965 436.464H175.365L181.095 427.943H183.695Z" fill="#F2F2F2"/>
<path d="M101 315.229H188.042V379.341H187.989V392.104L175.229 379.341H101V315.229Z" fill="#173E6D"/>
<path d="M142.054 362.476L130.938 348.18L137.403 343.151L142.665 349.92L160.444 331.146L166.389 336.78L142.054 362.476Z" fill="white"/>
<path d="M523 335.229H610.042V399.341H609.989V412.104L597.229 399.341H523V335.229Z" fill="#173E6D"/>
<path d="M564.054 382.476L552.938 368.18L559.403 363.151L564.665 369.92L582.444 351.146L588.389 356.78L564.054 382.476Z" fill="white"/>
</g>
<defs>
<clipPath id="clip0_243_677">
<rect width="1006" height="517" fill="white"/>
</clipPath>
</defs>
</svg>
