<svg width="655" height="488" viewBox="0 0 655 488" fill="none" xmlns="http://www.w3.org/2000/svg">
<path fill-rule="evenodd" clip-rule="evenodd" d="M654.665 237.601C660.81 316.466 560.167 367.953 481.732 415.603C410.74 458.732 332.278 495.695 244.818 486.586C149.846 476.694 55.6737 437.548 16.0516 367.1C-22.1905 299.105 14.588 221.975 58.7092 155.684C98.4334 95.9995 158.726 44.298 240.349 30.0964C318.47 16.5042 388.56 52.7213 456.092 86.5437C537.379 127.255 648.617 160.005 654.665 237.601Z" fill="#C2CEE7"/>
<path d="M606.317 349.313C603.979 349.565 601.429 349.943 598.718 350.495C587.221 352.839 586.98 360.658 587.082 362.449L587.003 362.399C585.847 364.257 585.124 366.135 584.685 367.909L584.158 343.951C584.501 343.241 584.808 342.436 585.068 341.61C585.928 344.263 587.34 346.769 588.556 346.605C590.135 346.39 590.828 341.731 590.531 338.419C592.543 341.011 595.927 343.786 597.202 342.931C598.224 342.247 597.618 339.433 596.506 336.876C598.826 338.276 601.396 339.197 602.192 338.307C603.281 337.094 600.675 332.957 598.268 330.646C601.488 330.946 605.584 330.432 605.851 328.965C606.072 327.755 603.635 326.232 601.029 325.25C603.647 324.557 606.097 323.353 606.015 322.161C605.918 320.745 602.281 319.796 599.143 319.652C601.511 317.799 603.687 315.234 603.02 314.076C602.408 313.009 599.565 313.424 596.939 314.361C598.493 312.139 599.586 309.634 598.755 308.777C597.718 307.708 594.042 309.553 591.532 311.588C592.022 308.414 591.776 304.409 590.354 304.047C589.162 303.744 587.476 306.073 586.32 308.613C585.811 305.948 584.776 303.419 583.581 303.419C581.883 303.419 580.503 308.551 580.503 311.896C580.503 312.083 580.511 312.262 580.519 312.432C580.347 312.233 580.151 312.027 579.928 311.81C577.533 309.479 572.895 306.895 571.71 308.116C570.879 308.973 571.972 311.477 573.522 313.701C570.899 312.763 568.055 312.349 567.442 313.416C566.622 314.847 570.135 318.421 572.988 320.154C572.816 320.133 572.636 320.116 572.445 320.102C569.113 319.877 563.904 320.901 563.789 322.602C563.706 323.794 566.157 324.998 568.779 325.691C566.168 326.671 563.731 328.196 563.952 329.406C564.22 330.871 568.317 331.387 571.535 331.087C569.131 333.394 566.522 337.535 567.611 338.748C568.407 339.638 570.979 338.717 573.301 337.317C572.185 339.875 571.58 342.688 572.601 343.37C573.949 344.273 577.649 341.13 579.597 338.426C579.399 341.735 580.19 346.28 581.758 346.459C582.413 346.532 583.108 345.833 583.737 344.756L581.96 370.504C581.546 373.505 584.201 375.462 584.437 376.694L584.822 394.132C584.389 392.892 583.806 391.621 583.019 390.36L582.942 390.408C583.042 388.615 582.804 380.8 571.306 378.456C568.594 377.902 566.045 377.524 563.708 377.274C560.951 376.977 559.874 380.756 562.367 381.978C565.976 383.746 569.371 385.973 571.141 388.611C575.665 395.359 581.913 391.457 582.802 390.853C583.797 392.509 584.447 394.175 584.858 395.76L585.062 405.021C585.012 405.24 584.978 405.362 584.976 405.371L585.07 405.398L585.561 427.811L590.131 427.774L588.498 404.865C588.771 403.63 589.618 399.421 588.498 395.049L586.861 377.048C586.857 377.037 586.955 377.522 586.861 377.048L584.73 369.977C585.041 367.789 585.761 365.328 587.223 362.894C588.111 363.5 594.361 367.398 598.884 360.654C600.653 358.016 604.049 355.786 607.657 354.018C610.149 352.799 609.073 349.016 606.317 349.313ZM585.441 402.338L585.357 398.419C585.528 399.9 585.52 401.238 585.441 402.338Z" fill="#728673"/>
<path d="M140.552 349.642C138.216 349.896 135.666 350.274 132.954 350.825C121.456 353.17 121.218 360.987 121.318 362.778L121.24 362.73C120.084 364.587 119.36 366.466 118.923 368.238L118.396 344.283C118.736 343.572 119.046 342.767 119.304 341.941C120.165 344.593 121.576 347.102 122.792 346.935C124.374 346.719 125.063 342.06 124.768 338.75C126.779 341.344 130.164 344.115 131.44 343.26C132.461 342.576 131.856 339.763 130.742 337.207C133.063 338.605 135.633 339.526 136.431 338.636C137.519 337.423 134.911 333.286 132.506 330.975C135.725 331.276 139.82 330.764 140.089 329.294C140.31 328.087 137.873 326.561 135.264 325.579C137.884 324.888 140.335 323.682 140.253 322.49C140.157 321.075 136.519 320.125 133.381 319.981C135.748 318.128 137.923 315.563 137.258 314.406C136.646 313.339 133.802 313.753 131.178 314.691C132.731 312.468 133.823 309.963 132.991 309.108C131.955 308.039 128.279 309.882 125.77 311.918C126.259 308.744 126.012 304.738 124.59 304.376C123.4 304.074 121.714 306.402 120.559 308.942C120.048 306.277 119.014 303.748 117.82 303.748C116.12 303.748 114.741 308.881 114.741 312.226C114.741 312.414 114.747 312.592 114.755 312.763C114.584 312.563 114.389 312.357 114.166 312.141C111.77 309.811 107.132 307.224 105.948 308.445C105.116 309.302 106.208 311.808 107.761 314.032C105.137 313.092 102.292 312.68 101.681 313.745C100.859 315.176 104.371 318.752 107.226 320.484C107.054 320.464 106.874 320.447 106.682 320.432C103.35 320.206 98.1415 321.233 98.0257 322.931C97.9445 324.123 100.395 325.329 103.015 326.02C100.406 327.002 97.9689 328.526 98.1901 329.735C98.4587 331.203 102.554 331.717 105.773 331.416C103.368 333.727 100.76 337.864 101.848 339.077C102.646 339.967 105.216 339.046 107.537 337.646C106.423 340.204 105.818 343.017 106.839 343.701C108.187 344.602 111.885 341.461 113.834 338.756C113.635 342.064 114.426 346.609 115.995 346.788C116.651 346.865 117.346 346.164 117.974 345.086L116.197 370.836C115.781 373.834 118.438 375.791 118.676 377.027L119.059 394.464C118.627 393.221 118.044 391.95 117.259 390.689L117.18 390.737C117.281 388.946 117.042 381.129 105.545 378.786C102.833 378.233 100.283 377.855 97.9464 377.603C95.1881 377.306 94.112 381.087 96.6039 382.308C100.213 384.076 103.608 386.306 105.377 388.944C109.901 395.688 116.151 391.791 117.04 391.184C118.033 392.838 118.684 394.504 119.095 396.091L119.298 405.35C119.248 405.57 119.214 405.691 119.211 405.703L119.307 405.73L119.799 428.14L124.369 428.104L122.734 405.198C123.009 403.962 123.854 399.752 122.734 395.38L121.1 377.382C121.096 377.366 121.193 377.853 121.1 377.382L118.968 370.308C119.278 368.118 119.997 365.657 121.459 363.223C122.347 363.83 128.598 367.728 133.122 360.983C134.891 358.345 138.286 356.117 141.895 354.349C144.387 353.128 143.311 349.346 140.552 349.642ZM119.679 402.667L119.593 398.748C119.767 400.229 119.758 401.568 119.679 402.667Z" fill="#728673"/>
<path d="M72.9062 427.583C72.9062 428.073 73.2981 428.464 73.7861 428.464H612.953C613.444 428.464 613.834 428.073 613.834 427.583C613.834 427.094 613.444 426.703 612.953 426.703H73.7861C73.2981 426.703 72.9062 427.094 72.9062 427.583Z" fill="#3F3D56"/>
<path d="M231.401 269.804C234.575 267.119 233.732 260.893 229.515 255.896C227.671 253.71 225.485 252.121 223.344 251.253L220.884 248.41L189.112 208.554C189.112 208.554 171.517 168.905 166.322 164.622C161.129 160.338 155.018 162.568 155.018 162.568L150.25 168.474L179.961 223.833L210.369 254.469L214.475 258.756C214.973 261.013 216.171 263.437 218.018 265.621C222.233 270.619 228.225 272.49 231.401 269.804Z" fill="#A0616A"/>
<path d="M171.424 171.994L179.386 183.684L190.817 200.621L170.278 207.733L152.144 176.582L171.424 171.994Z" fill="#E6E6E6"/>
<path d="M179.508 132.206L173.741 154.217L151.756 149.887C151.756 149.887 160.406 134.01 158.243 126.794L179.508 132.206Z" fill="#A0616A"/>
<path d="M156.3 418.717L169.54 418.715L175.838 367.589L156.297 367.593L156.3 418.717Z" fill="#A0616A"/>
<path d="M201.659 418.417C202.073 419.112 202.29 421.356 202.29 422.164C202.29 424.647 200.278 426.661 197.796 426.661H156.795C155.102 426.661 153.729 425.288 153.729 423.593V421.883C153.729 421.883 151.701 416.749 155.877 410.419C155.877 410.419 161.067 415.376 168.822 407.611L171.109 403.463L187.664 415.584L196.84 416.714C198.847 416.961 200.628 416.676 201.659 418.417Z" fill="#2F2E41"/>
<path d="M193.06 270.759L174.818 395.045H151.929L154.972 324.1L156.574 286.795L151.929 269.039C151.929 269.039 149.811 265.093 148.026 260.308C146.015 254.908 144.427 248.435 146.785 245.365C147.653 244.235 149.909 243.397 152.974 242.773C154.848 242.39 157.028 242.092 159.382 241.86C172.918 240.52 192.171 241.358 192.171 241.358L192.66 257.527L192.932 266.557L193.06 270.759Z" fill="#2F2E41"/>
<path d="M132.978 412.639L146.077 414.565L159.736 364.9L140.403 362.058L132.978 412.639Z" fill="#A0616A"/>
<path d="M177.9 418.946C178.206 419.693 178.096 421.945 177.978 422.746C177.617 425.203 175.334 426.906 172.879 426.542L132.314 420.572C130.639 420.325 129.48 418.765 129.727 417.09L129.975 415.399C129.975 415.399 128.714 410.02 133.766 404.366C133.766 404.366 138.181 410.026 146.981 403.472L149.846 399.702L164.464 414.107L173.378 416.562C175.328 417.098 177.131 417.074 177.9 418.946Z" fill="#2F2E41"/>
<path d="M193.349 250.032L190.846 271.605L177.2 317.067L154.736 391.916L132.093 388.584L152.415 282.162L150.403 263.915C150.403 263.915 149.747 262.101 148.996 259.443C147.505 254.191 145.635 245.633 147.693 241.269C147.97 240.676 148.319 240.162 148.751 239.746C149.56 238.96 151.204 238.483 153.408 238.23C162.618 237.188 181.585 240.168 190.025 241.631L193.349 250.032Z" fill="#2F2E41"/>
<path d="M175.904 147.722L200.773 179.114L196.31 211.843L192.484 245.146L147.431 238.29C147.431 238.29 157.162 214.836 158.244 213.753C159.325 212.671 162.041 215.344 160.142 211.843C158.244 208.342 156.081 208.342 157.883 206.537C159.685 204.733 143.827 181.279 143.827 168.65C143.827 156.021 151.396 145.917 151.396 145.917L175.904 147.722Z" fill="#E6AD47"/>
<path d="M170.102 136.363C179.354 136.363 186.855 128.854 186.855 119.591C186.855 110.327 179.354 102.818 170.102 102.818C160.85 102.818 153.349 110.327 153.349 119.591C153.349 128.854 160.85 136.363 170.102 136.363Z" fill="#A0616A"/>
<path d="M169.319 151.658C169.319 151.658 171.826 131.8 172.269 126.025C172.713 120.25 180.855 111.234 180.855 111.234L186.624 115.898C186.624 115.898 191.504 115.898 188.177 108.79C184.849 101.683 178.637 100.572 178.637 100.572C178.637 100.572 177.971 91.2431 166.435 92.354C154.898 93.4644 149.795 102.793 149.795 102.793C149.795 102.793 149.13 91.0213 141.808 99.6836C134.487 108.346 130.272 111.9 138.037 114.787C145.802 117.675 151.57 115.454 151.57 115.454C151.57 115.454 144.027 117.009 145.358 122.339C146.689 127.67 127.831 151.88 136.484 154.546C145.136 157.211 164.438 163.652 166.656 159.432C168.875 155.212 169.319 151.658 169.319 151.658Z" fill="#2F2E41"/>
<path d="M155.239 299.201C159.395 299.242 162.817 293.975 162.882 287.435C162.91 284.573 162.29 281.942 161.236 279.884L161.226 276.121L163.15 225.164C163.15 225.164 175.677 183.632 174.536 176.992C173.395 170.353 167.312 168.048 167.312 168.048L159.849 169.405L146.254 230.758L149.309 273.838L149.624 279.768C148.529 281.806 147.857 284.423 147.829 287.286C147.765 293.825 151.082 299.159 155.239 299.201Z" fill="#A0616A"/>
<path d="M164.236 161.396C164.236 161.396 144.288 196.881 147.163 207.046L169.274 207.949C169.274 207.949 170.482 208.885 170.389 204.594C170.296 200.301 175.309 195.508 175.309 195.508C175.309 195.508 175.214 197.6 174.576 194.043C173.938 190.487 186.128 180.098 186.128 180.098L164.236 161.396Z" fill="#E6AD47"/>
<path d="M215.698 261.132L218.014 205.865C218.014 205.865 220.615 173.053 222.696 161.595C224.778 150.137 238.822 153.262 238.822 153.262L237.262 186.074L230.529 219.65L225.287 265.375C225.557 266.7 225.711 268.136 225.711 269.646C225.711 276.051 223.039 281.243 219.742 281.243C216.446 281.243 213.774 276.051 213.774 269.646C213.774 266.276 214.519 263.25 215.698 261.132Z" fill="#FFB6B6"/>
<path d="M328.416 246.812C325.953 243.875 323.004 241.882 320.356 241.113L289.212 205.865C289.212 205.865 286.611 173.053 284.528 161.596C282.448 150.138 268.402 153.263 268.402 153.263L269.964 186.074L278.807 221.489L315.252 252.466C315.887 253.627 316.668 254.786 317.601 255.901C322.035 261.188 328.052 263.439 331.038 260.93C334.023 258.42 332.85 252.098 328.416 246.812Z" fill="#FFB6B6"/>
<path d="M259.892 148.835L256.279 134.93L242.204 134.253L237.993 153.42L259.892 148.835Z" fill="#FFB6B6"/>
<path opacity="0.1" d="M259.892 148.835L256.279 134.93L242.204 134.253L237.993 153.42L259.892 148.835Z" fill="black"/>
<path d="M295.831 376.638L309.014 375.883L307.284 416.387L298.351 416.897L295.831 376.638Z" fill="#FFB6B6"/>
<path d="M308.427 403.58L303.849 405.672L303.855 408.449C303.855 408.449 302.752 405.235 296.824 404.532L296.116 407.226C296.116 407.226 293.817 409.866 294.212 414.646L295.72 427.443L300.19 427.339L300.913 418.434C300.913 418.434 302.143 416.414 307.816 426.016C307.816 426.016 314.065 427.593 323.741 424.344C325.071 423.898 325.994 422.654 325.979 421.25C325.967 420.475 325.665 419.759 324.694 419.503C322.226 418.848 319.811 419.678 318.217 417.702C316.62 415.73 308.427 403.58 308.427 403.58Z" fill="#2F2E41"/>
<path d="M225.082 376.638L238.264 375.883L236.535 416.387L227.603 416.897L225.082 376.638Z" fill="#FFB6B6"/>
<path d="M237.677 403.58L233.099 405.672L233.107 408.449C233.107 408.449 232.002 405.235 226.074 404.532L225.366 407.226C225.366 407.226 223.067 409.866 223.462 414.646L224.97 427.443L229.44 427.339L230.163 418.434C230.163 418.434 231.395 416.414 237.067 426.016C237.067 426.016 243.315 427.593 252.991 424.344C254.321 423.898 255.246 422.654 255.229 421.25C255.219 420.475 254.915 419.759 253.945 419.503C251.474 418.848 249.061 419.678 247.467 417.702C245.87 415.73 237.677 403.58 237.677 403.58Z" fill="#2F2E41"/>
<path d="M249.071 143.119C257.689 143.119 264.676 136.124 264.676 127.495C264.676 118.866 257.689 111.87 249.071 111.87C240.452 111.87 233.465 118.866 233.465 127.495C233.465 136.124 240.452 143.119 249.071 143.119Z" fill="#FFB6B6"/>
<path d="M240.221 130.092C240.221 130.092 247.082 118.852 253.95 120.093C260.819 121.333 264.399 122.453 264.399 122.453C264.399 122.453 267.196 113.492 257.807 109.192C257.807 109.192 271.095 98.0526 256.931 90.9036C242.768 83.755 233.955 90.6833 233.955 90.6833C233.955 90.6833 222.233 100.636 235.229 109.848C235.229 109.848 223.979 122.676 235.342 134.931C235.342 134.931 233.336 125.6 236.066 127.512C238.793 129.425 240.221 130.092 240.221 130.092Z" fill="#2F2E41"/>
<path d="M238.562 149.877L259.892 147.273L276.279 160.554C276.279 160.554 284.428 183.288 278.359 197.01C278.214 197.34 278.099 220.185 278.099 220.185H232.784C232.784 220.185 232.826 204.636 231.095 199.003C230.849 198.198 230.564 197.598 230.239 197.27C227.638 194.667 221.396 178.001 224.516 170.71C227.638 163.418 238.562 149.877 238.562 149.877Z" fill="#173E6D"/>
<path d="M278.359 219.146L306.971 310.286L313.213 382.161H295.785L280.961 315.496L260.542 276.906L240.384 387.367H222.792L223.216 237.893L232.82 219.146H278.359Z" fill="#2F2E41"/>
<path d="M408.304 166.936L405.602 150.04L423.83 142.606L426.529 168.288L408.304 166.936Z" fill="#A0616A"/>
<path opacity="0.1" d="M408.304 166.936L405.602 150.04L423.83 142.606L426.529 168.288L408.304 166.936Z" fill="black"/>
<path d="M328.379 244.189C325.33 247.844 324.743 252.383 327.069 254.324C329.391 256.266 333.746 254.875 336.797 251.218C338.032 249.774 338.907 248.054 339.346 246.203L352.065 230.548L345.871 225.526L332.853 240.778C331.111 241.541 329.575 242.71 328.379 244.189Z" fill="#A0616A"/>
<path d="M383.968 166.814L388.395 184.371L366.727 219.095L344.609 241.352L337.438 235.397L359.746 207.608L376.657 171.803L383.968 166.814Z" fill="#E6AD47"/>
<path d="M400.202 390.645L396.153 407.542L408.305 410.921L411.003 392.67L400.202 390.645Z" fill="#A0616A"/>
<path d="M380.625 335.9L393.45 346.715L401.552 359.556L390.076 366.988L370.499 344.685L380.625 335.9Z" fill="#A0616A"/>
<path d="M384.674 224.384L373.875 260.88C373.875 260.88 325.946 302.783 330.668 311.571C335.395 320.356 367.125 344.685 367.125 344.685C367.125 344.685 364.769 352.467 371.684 349.251C378.6 346.039 386.025 337.253 386.025 337.253C386.025 337.253 386.025 330.494 382.651 331.844C379.275 333.198 363.747 314.949 363.747 314.949L399.992 284.35L397.501 387.817C397.501 387.817 389.401 394.908 397.501 395.478C405.602 396.05 410.328 397.404 410.328 397.404C410.328 397.404 419.779 394.024 416.405 390.645L429.232 335.224L441.651 277.157C443.101 270.378 442.599 263.322 440.206 256.814L431.255 232.493L384.674 224.384Z" fill="#2F2E41"/>
<path d="M406.277 405.512C406.277 405.512 405.602 402.81 402.903 402.81H394.656C394.656 402.81 392.101 414.297 392.775 414.297C393.45 414.297 381.975 429.168 394.127 429.844C406.277 430.518 409.653 429.168 409.653 429.168L411.003 423.834C411.003 423.834 413.029 420.383 412.354 417.677C411.678 414.975 406.277 405.512 406.277 405.512Z" fill="#2F2E41"/>
<path d="M389.401 361.582C389.401 361.582 381.647 361.461 383.499 363.548C385.35 365.638 388.726 369.018 388.726 369.018C388.726 369.018 396.755 385.239 400.504 382.196C404.254 379.153 410.328 345.361 408.305 341.307C406.277 337.253 403.578 337.253 403.578 337.253L391.125 344.751C391.125 344.751 398.852 363.61 389.401 361.582Z" fill="#2F2E41"/>
<path d="M427.543 164.571L405.94 159.164L382.987 166.598C382.987 166.598 372.861 194.984 376.237 205.122C379.611 215.259 382.439 230.955 382.439 230.955C382.439 230.955 379.952 226.412 399.527 232.493C419.104 238.577 433.281 237.901 433.281 237.901L433.956 213.57L442.436 191.959C446.062 182.721 442.155 172.233 433.373 167.628L427.543 164.571Z" fill="#E6AD47"/>
<path d="M415.33 156.715C425.402 156.715 433.566 148.54 433.566 138.457C433.566 128.373 425.402 120.199 415.33 120.199C405.26 120.199 397.092 128.373 397.092 138.457C397.092 148.54 405.26 156.715 415.33 156.715Z" fill="#A0616A"/>
<path d="M430.061 150.395C430.061 150.395 427.254 153.203 424.448 154.608C423.644 155.011 423.705 154.429 424.203 153.395C426.733 148.144 425.76 141.877 421.643 137.754L422.345 133.541L398.496 131.434C398.496 131.434 395.689 120.199 410.419 118.092C412.923 117.734 401.302 117.39 404.107 111.772C406.914 106.154 409.018 107.559 410.419 103.346C411.823 99.1324 411.823 95.6212 416.732 96.3234C421.643 97.0255 421.643 99.8345 426.552 97.0255C431.461 94.2167 443.388 97.0255 441.282 101.239C439.177 105.452 435.672 108.963 438.477 111.772C441.282 114.581 447.595 119.497 442.686 123.008C437.775 126.519 436.372 128.626 437.075 130.03C437.775 131.434 432.866 128.626 432.866 128.626C432.866 128.626 437.775 138.457 435.672 141.968C433.566 145.479 430.061 150.395 430.061 150.395Z" fill="#2F2E41"/>
<path d="M533.043 209.253H495.576V257.134H533.043V209.253Z" fill="#FFB6B6"/>
<path d="M497.969 123.066C496.071 119.497 495.184 117.942 495.578 115.883C496.273 112.267 500.308 110.301 501.955 109.499C507.243 106.924 514.099 107.078 519.491 110.297C522.732 112.232 524.46 114.686 525.868 116.681C527.13 118.47 531.048 124.032 530.652 131.046C530.352 136.311 527.945 136.638 528.259 139.824C529.048 147.822 544.398 147.707 548.186 156.583C551.604 164.586 544.756 177.882 534.638 182.918C519.227 190.583 502.549 175.96 499.564 173.341C492.368 167.032 487.609 158.349 489.201 156.583C490.134 155.549 492.589 157.614 496.375 156.583C500.691 155.407 502.984 151.231 503.55 150.199C506.818 144.239 504.9 137.718 504.346 135.834C503.833 134.084 501.876 130.411 497.969 123.066Z" fill="#2F2E41"/>
<path d="M477.906 419.99H466.981L461.786 377.805H477.91L477.906 419.99Z" fill="#FFB6B6"/>
<path d="M440.477 419.744C440.139 420.316 439.96 422.168 439.96 422.835C439.96 424.884 441.618 426.546 443.667 426.546H477.498C478.894 426.546 480.026 425.413 480.026 424.015V422.603C480.026 422.603 481.701 418.367 478.254 413.142C478.254 413.142 473.972 417.232 467.574 410.825L465.687 407.403L452.027 417.404L444.455 418.34C442.799 418.544 441.33 418.307 440.477 419.744Z" fill="#2F2E41"/>
<path d="M540.878 419.99H529.954L524.756 377.805H540.88L540.878 419.99Z" fill="#FFB6B6"/>
<path d="M503.45 419.744C503.109 420.316 502.93 422.168 502.93 422.835C502.93 424.884 504.59 426.546 506.639 426.546H540.468C541.865 426.546 543 425.413 543 424.015V422.603C543 422.603 544.671 418.367 541.226 413.142C541.226 413.142 536.944 417.232 530.544 410.825L528.657 407.403L514.997 417.404L507.426 418.34C505.769 418.544 504.3 418.307 503.45 419.744Z" fill="#2F2E41"/>
<path d="M505.941 140.622L506.737 165.361L535.434 169.351L520.688 135.765L505.941 140.622Z" fill="#FFB6B6"/>
<path d="M513.912 148.602C523.155 148.602 530.652 141.099 530.652 131.844C530.652 122.588 523.155 115.085 513.912 115.085C504.667 115.085 497.171 122.588 497.171 131.844C497.171 141.099 504.667 148.602 513.912 148.602Z" fill="#FFB6B6"/>
<path d="M533.043 237.98C533.043 237.98 550.975 257.535 539.818 275.09L541.411 331.75C541.411 331.75 548.053 372.794 540.349 399.754L527.064 398.783L517.498 328.557L507.932 282.272L485.613 327.757C485.613 327.757 487.208 360.479 479.239 395.592H461.701L463.293 314.192L492.389 229.202L533.043 237.98Z" fill="#2F2E41"/>
<path d="M506.737 155.785L507.938 155.348L524.273 149.4C524.273 149.4 544.998 165.361 544.998 174.139C544.998 182.917 533.839 214.839 533.839 214.839C533.839 214.839 548.984 230.799 535.434 231.598C521.882 232.395 514.763 219.461 492.444 229.038L490.794 208.455C490.794 208.455 481.23 187.706 486.014 182.917L506.737 155.785Z" fill="#173E6D"/>
<path d="M529.408 279.441C529.509 285.958 532.953 291.188 537.094 291.123C541.238 291.057 544.512 285.721 544.408 279.2C544.402 276.594 543.775 274.029 542.575 271.718L541.794 244.11L530.889 244.447L531.004 271.901C529.879 274.251 529.331 276.835 529.408 279.441Z" fill="#FFB6B6"/>
<path d="M535.117 157.526C541.317 156.513 546.94 161.316 546.918 167.604L543.641 266.505L530.667 266.201L526.589 167.669C526.541 162.644 530.162 158.336 535.117 157.526Z" fill="#173E6D"/>
<path d="M425.178 230.76C420.079 234.814 418.034 240.732 420.612 243.981C423.188 247.228 429.411 246.575 434.51 242.519C436.57 240.928 438.219 238.864 439.319 236.505L460.706 219.057L453.793 210.606L432.121 227.432C429.574 227.97 427.194 229.11 425.178 230.76Z" fill="#FFB6B6"/>
<path d="M525.204 160.991C529.785 165.294 529.409 172.685 524.416 176.5L444.096 234.173L436.432 223.689L511.975 160.404C515.925 157.303 521.544 157.552 525.204 160.991Z" fill="#173E6D"/>
<path d="M505.941 122.267C504.042 118.699 503.155 117.144 503.55 115.085C504.242 111.469 508.28 109.503 509.927 108.701C515.215 106.126 522.071 106.28 527.463 109.499C530.704 111.433 532.431 113.888 533.839 115.883C535.099 117.672 539.02 123.234 538.624 130.248C538.322 135.513 535.917 135.84 536.231 139.026C537.017 147.024 552.37 146.909 556.159 155.785C559.574 163.788 552.728 177.084 542.607 182.12C527.199 189.785 510.521 175.162 507.536 172.543C500.337 166.234 495.578 157.551 497.171 155.785C498.106 154.75 500.56 156.816 504.346 155.785C508.663 154.609 510.956 150.432 511.521 149.4C514.788 143.441 512.87 136.92 512.318 135.036C511.802 133.286 509.848 129.613 505.941 122.267Z" fill="#2F2E41"/>
<path d="M417.777 230.645C413.221 232.02 410.24 235.488 411.117 238.39C411.992 241.292 416.392 242.529 420.949 241.15C422.774 240.626 424.45 239.669 425.833 238.361L445.054 232.285L442.634 224.682L423.388 230.259C421.514 229.936 419.591 230.071 417.777 230.645Z" fill="#A0616A"/>
<path d="M451.171 180.792L430.919 165.923L431.594 194.308L450.496 218.639L430.244 226.751L430.919 238.33C430.919 238.33 456.573 232.156 460.622 231.48C464.673 230.804 468.047 221.343 468.047 221.343L451.171 180.792Z" fill="#E6AD47"/>
</svg>
