<svg width="1026" height="445" viewBox="0 0 1026 445" fill="none" xmlns="http://www.w3.org/2000/svg">
<g clip-path="url(#clip0_243_1362)">
<path fill-rule="evenodd" clip-rule="evenodd" d="M1025.68 228.442C1022.93 304.564 987.74 391.15 857.232 431.193C735.575 468.517 586.599 419.664 445.173 406.547C343.433 397.11 236.636 399.488 157.571 366.295C71.6466 330.22 21.5773 278.595 8.96311 223.406C-5.44901 160.35 -13.967 85.1 84.0249 44.5128C180.06 4.73614 321.542 46.2507 446.978 41.9851C595.011 36.9509 747.428 -22.494 872.207 17.7095C1003.94 60.1527 1028.49 151.047 1025.68 228.442Z" fill="#C2CEE7"/>
<path d="M726.387 170.513V96.6852C726.387 89.324 732.374 83.3357 739.731 83.3357H788.006C795.363 83.3357 801.347 89.324 801.347 96.6852V170.513C801.347 177.874 795.363 183.862 788.006 183.862H739.731C732.374 183.862 726.387 177.874 726.387 170.513Z" fill="#173E6D"/>
<path d="M751.109 115.249H776.628V108.866H751.109V115.249Z" fill="#C0C0C0"/>
<path d="M757.489 104.079H770.248V83.3357H757.489V104.079Z" fill="#C0C0C0"/>
<path d="M757.489 183.862H770.248V163.119H757.489V183.862Z" fill="#3F3D56"/>
<path d="M692.097 173.496H618.303C610.946 173.496 604.962 167.508 604.962 160.147V111.85C604.962 104.489 610.946 98.5002 618.303 98.5002H692.097C699.454 98.5002 705.44 104.489 705.44 111.85V160.147C705.44 167.508 699.454 173.496 692.097 173.496Z" fill="#173E6D"/>
<path d="M669.555 108.872H644.037V115.255H669.555V108.872Z" fill="#C0C0C0"/>
<path d="M625.694 142.381V129.616H604.962V142.381H625.694Z" fill="#C0C0C0"/>
<path d="M705.441 142.381V129.616H684.707V142.381H705.441Z" fill="#C0C0C0"/>
<path d="M93.5082 311.551L81.1893 239.657C75.7154 207.71 99.3489 178.148 131.703 176.471L307.32 167.371L349.233 98.2592C354.791 89.0971 364.724 83.502 375.436 83.502H501.622C511.54 83.502 519.921 90.8608 521.207 100.701L524.414 156.001L839.01 156.943L878.584 287.429L841.851 285.635L843.732 325.215L795.698 327.101L779.683 281.799C776.668 273.269 763.455 263.651 749.72 255.604C718.933 237.564 679.378 243.354 656.078 270.39C650.582 276.766 646.74 283.41 645.665 289.641L638.4 331.811L286.126 326.158L239.959 261.544C226.318 246.693 161.928 241.238 156.129 261.544L121.294 312.964L93.5082 311.551Z" fill="#173E6D"/>
<path opacity="0.75" d="M476.389 125.555L486.751 174.439L354.885 177.266L382.737 117.44C385.264 112.013 390.809 108.644 396.788 108.904L459.977 111.653C467.978 112.001 474.727 117.719 476.389 125.555Z" fill="#C2CEE7"/>
<path opacity="0.75" d="M336.99 173.496L363.363 105.647L356.458 98.739L313.442 164.073L322.183 177.266L336.99 173.496Z" fill="#C2CEE7"/>
<path d="M714.692 394.006C749.026 394.006 776.86 366.162 776.86 331.811C776.86 297.463 749.026 269.616 714.692 269.616C680.359 269.616 652.527 297.463 652.527 331.811C652.527 366.162 680.359 394.006 714.692 394.006Z" fill="#3F3D56"/>
<path d="M671.837 331.811C671.837 308.169 691.063 288.933 714.693 288.933C738.324 288.933 757.55 308.169 757.55 331.811C757.55 355.453 738.324 374.689 714.693 374.689C691.063 374.689 671.837 355.453 671.837 331.811ZM672.779 331.811C672.779 354.935 691.581 373.746 714.693 373.746C737.806 373.746 756.608 354.935 756.608 331.811C756.608 308.69 737.806 289.876 714.693 289.876C691.581 289.876 672.779 308.69 672.779 331.811Z" fill="white"/>
<path d="M677.959 331.811C677.959 352.11 694.405 368.563 714.692 368.563C734.98 368.563 751.428 352.11 751.428 331.811C751.428 311.515 734.98 295.059 714.692 295.059C694.405 295.059 677.959 311.515 677.959 331.811ZM738.572 323.011L732.062 327.254L729.563 323.417L738.572 323.011ZM728.662 344.594L730.395 340.354L735.853 347.537L728.662 344.594ZM711.996 359.14L716.576 351.366V359.14H711.996ZM711.996 314.141L716.576 306.368V314.141H711.996ZM691.648 347.537L697.106 340.354L698.839 344.594L691.648 347.537ZM688.931 323.011L697.94 323.417L695.439 327.254L688.931 323.011Z" fill="#E6E6E6"/>
<path d="M192.879 394.006C227.212 394.006 255.045 366.162 255.045 331.811C255.045 297.463 227.212 269.616 192.879 269.616C158.546 269.616 130.713 297.463 130.713 331.811C130.713 366.162 158.546 394.006 192.879 394.006Z" fill="#3F3D56"/>
<path d="M150.022 331.811C150.022 308.169 169.247 288.933 192.879 288.933C216.51 288.933 235.735 308.169 235.735 331.811C235.735 355.453 216.51 374.689 192.879 374.689C169.247 374.689 150.022 355.453 150.022 331.811ZM150.964 331.811C150.964 354.935 169.767 373.746 192.879 373.746C215.991 373.746 234.793 354.935 234.793 331.811C234.793 308.69 215.991 289.876 192.879 289.876C169.767 289.876 150.964 308.69 150.964 331.811Z" fill="white"/>
<path d="M156.145 331.811C156.145 352.11 172.591 368.563 192.879 368.563C213.166 368.563 229.613 352.11 229.613 331.811C229.613 311.515 213.166 295.059 192.879 295.059C172.591 295.059 156.145 311.515 156.145 331.811ZM216.757 323.011L210.249 327.254L207.748 323.417L216.757 323.011ZM206.848 344.594L208.582 340.354L214.039 347.537L206.848 344.594ZM190.183 359.14L194.762 351.366V359.14H190.183ZM190.183 314.141L194.762 306.368V314.141H190.183ZM169.834 347.537L175.292 340.354L177.025 344.594L169.834 347.537ZM167.116 323.011L176.125 323.417L173.625 327.254L167.116 323.011Z" fill="#E6E6E6"/>
<path d="M956.2 335.648C955.786 334.384 952.651 334.94 952.352 333.809C952.051 332.68 955.058 331.735 957.366 328.554C957.782 327.979 960.402 324.367 959.398 322.847C957.491 319.966 944.234 327.141 941.051 323.116C940.351 322.232 940.065 320.714 937.985 317.892C937.158 316.768 936.627 316.226 935.991 316.241C935.09 316.264 934.768 317.391 933.354 319.432C931.232 322.495 930.467 322.109 929.068 324.618C928.029 326.48 927.906 327.67 927.158 327.739C926.099 327.839 925.662 325.522 924.368 325.43C923.048 325.338 921.726 327.629 921.072 329.42C919.842 332.777 920.602 335.344 920.771 337.904C920.955 340.683 920.523 344.752 917.506 349.976L889.028 395.371C895.142 386.115 912.505 360.882 919.499 351.624C921.519 348.952 923.689 346.27 927.028 345.767C930.242 345.279 934.156 346.87 939.616 346.778C940.254 346.768 942.029 346.714 942.46 345.774C942.817 344.995 941.932 344.318 942.253 343.588C942.687 342.607 944.632 343.028 947.282 342.377C949.154 341.917 950.422 341.158 951.515 340.504C951.844 340.308 956.751 337.334 956.2 335.648Z" fill="#728673"/>
<path d="M881.609 346.247C880.869 346.086 880.238 347.785 879.598 347.606C878.957 347.427 879.36 345.68 878.467 343.628C878.306 343.258 877.287 340.928 876.253 340.984C874.29 341.089 873.984 349.67 871.092 350.071C870.456 350.158 869.629 349.861 867.643 350.068C866.854 350.15 866.435 350.255 866.259 350.572C866.011 351.021 866.471 351.504 867.063 352.786C867.951 354.712 867.543 354.978 868.37 356.388C868.985 357.436 869.532 357.839 869.35 358.225C869.095 358.774 867.832 358.322 867.413 358.93C866.987 359.553 867.729 360.861 868.419 361.699C869.71 363.273 871.191 363.641 872.493 364.295C873.91 365.007 875.784 366.392 877.474 369.383L891.527 396.464C888.752 390.79 881.382 374.985 878.857 368.88C878.13 367.117 877.441 365.278 878.155 363.492C878.845 361.773 880.754 360.309 882.286 357.602C882.465 357.285 882.95 356.398 882.613 355.916C882.334 355.515 881.747 355.755 881.482 355.387C881.124 354.891 881.893 354.056 882.337 352.567C882.651 351.517 882.646 350.674 882.641 349.948C882.638 349.731 882.595 346.464 881.609 346.247Z" fill="#728673"/>
<path d="M895.63 352.855L896.072 348.776L896.342 348.52C897.596 347.335 898.379 346.078 898.673 344.785C898.721 344.581 898.757 344.372 898.793 344.162C898.941 343.322 899.122 342.28 899.929 341.196C900.381 340.594 901.573 339.229 902.803 339.705C903.138 339.83 903.36 340.044 903.516 340.274C903.557 340.233 903.595 340.195 903.638 340.152C904.169 339.636 904.542 339.447 904.899 339.263C905.175 339.122 905.461 338.979 905.941 338.593C906.153 338.425 906.321 338.271 906.464 338.146C906.896 337.758 907.447 337.308 908.205 337.487C909.007 337.707 909.283 338.471 909.464 338.979C909.791 339.881 909.89 340.504 909.957 340.915C909.982 341.066 910.008 341.237 910.031 341.291C910.204 341.733 912.41 341.848 913.24 341.896C915.103 341.999 916.717 342.085 917.105 343.363C917.383 344.275 916.801 345.271 915.33 346.403C914.871 346.755 914.411 346.998 914.013 347.179C914.258 347.412 914.455 347.726 914.468 348.158C914.493 349.177 913.449 349.958 911.363 350.485C910.842 350.618 910.146 350.791 909.234 350.748C908.803 350.727 908.427 350.661 908.106 350.6C908.057 350.781 907.97 350.973 907.812 351.154C907.348 351.685 906.597 351.821 905.578 351.519C904.455 351.208 903.567 350.781 902.783 350.405C902.099 350.081 901.509 349.8 901.014 349.726C900.092 349.596 899.235 350.165 898.206 350.921L895.63 352.855Z" fill="#728673"/>
<path d="M902.98 329.617L898.923 330.225L898.606 330.026C897.144 329.114 895.732 328.674 894.407 328.718C894.195 328.723 893.986 328.741 893.771 328.759C892.924 328.83 891.869 328.919 890.618 328.414C889.919 328.13 888.298 327.32 888.446 326.01C888.484 325.655 888.635 325.384 888.816 325.175C888.768 325.146 888.719 325.118 888.668 325.088C888.032 324.704 887.754 324.393 887.489 324.091C887.282 323.861 887.07 323.624 886.577 323.256C886.36 323.093 886.169 322.967 886.011 322.863C885.528 322.543 884.951 322.122 884.931 321.345C884.941 320.512 885.61 320.053 886.054 319.749C886.845 319.205 887.422 318.949 887.803 318.781C887.943 318.719 888.099 318.648 888.147 318.614C888.53 318.331 888.084 316.17 887.918 315.355C887.545 313.526 887.218 311.942 888.357 311.242C889.168 310.741 890.279 311.05 891.744 312.19C892.201 312.542 892.551 312.926 892.829 313.265C892.99 312.969 893.248 312.701 893.659 312.578C894.639 312.295 895.658 313.107 896.697 314.992C896.957 315.462 897.304 316.091 897.493 316.987C897.58 317.409 897.613 317.789 897.634 318.114C897.825 318.114 898.029 318.152 898.244 318.259C898.877 318.574 899.199 319.266 899.165 320.326C899.148 321.493 898.961 322.462 898.798 323.315C898.657 324.061 898.537 324.702 898.589 325.2C898.698 326.125 899.467 326.812 900.457 327.614L902.98 329.617Z" fill="#728673"/>
<path d="M903.528 317.429L903.97 313.347L904.241 313.091C905.494 311.906 906.278 310.652 906.571 309.359C906.617 309.152 906.656 308.945 906.691 308.733C906.839 307.895 907.021 306.853 907.827 305.77C908.277 305.165 909.471 303.801 910.702 304.278C911.034 304.403 911.258 304.618 911.414 304.845C911.452 304.807 911.493 304.766 911.537 304.725C912.068 304.207 912.44 304.018 912.798 303.836C913.074 303.696 913.357 303.55 913.839 303.167C914.051 302.998 914.22 302.845 914.36 302.717C914.794 302.332 915.346 301.88 916.101 302.058C916.905 302.278 917.179 303.044 917.362 303.55C917.689 304.455 917.789 305.075 917.855 305.489C917.878 305.64 917.906 305.808 917.927 305.865C918.103 306.307 920.306 306.421 921.135 306.47C922.999 306.57 924.613 306.659 925.001 307.934C925.279 308.848 924.699 309.845 923.226 310.976C922.769 311.326 922.31 311.569 921.912 311.75C922.157 311.983 922.353 312.299 922.363 312.729C922.392 313.748 921.347 314.53 919.259 315.058C918.741 315.189 918.044 315.365 917.13 315.321C916.701 315.299 916.323 315.235 916.004 315.171C915.956 315.355 915.869 315.546 915.711 315.725C915.246 316.259 914.495 316.392 913.477 316.093C912.354 315.779 911.465 315.355 910.681 314.979C909.997 314.652 909.408 314.374 908.912 314.297C907.991 314.169 907.13 314.737 906.104 315.495L903.528 317.429Z" fill="#728673"/>
<path d="M890.373 395.603L889.656 394.893L888.658 394.788C888.663 394.693 888.658 394.476 888.65 394.131C888.612 392.256 888.492 386.545 889.288 377.767C889.842 371.639 890.769 365.421 892.046 359.277C893.322 353.126 894.647 348.551 895.711 344.872C896.513 342.096 897.325 339.464 898.116 336.902C900.227 330.054 902.221 323.583 903.457 316.203C903.733 314.555 904.307 311.127 903.13 307.081C902.448 304.733 901.282 302.523 899.661 300.515L901.231 299.246C903.02 301.466 904.31 303.913 905.068 306.519C906.37 311.007 905.744 314.744 905.443 316.537C904.187 324.048 902.173 330.58 900.041 337.495C899.255 340.049 898.446 342.67 897.647 345.432C896.592 349.077 895.28 353.614 894.019 359.686C892.758 365.756 891.844 371.899 891.295 377.949C890.509 386.613 890.626 392.241 890.667 394.091C890.685 395.077 890.69 395.284 890.373 395.603Z" fill="#728673"/>
<path d="M895.357 302.837C895.275 302.82 895.193 302.799 895.112 302.774C893.457 302.311 892.13 300.96 891.165 298.766C890.713 297.731 890.608 296.645 890.394 294.476C890.361 294.142 890.215 292.451 890.396 290.21C890.514 288.744 890.669 288.157 891.07 287.694C891.512 287.181 892.107 286.884 892.737 286.736C892.755 286.542 892.819 286.353 892.944 286.174C893.462 285.428 894.33 285.735 894.8 285.893C895.037 285.98 895.334 286.087 895.665 286.144C896.186 286.233 896.5 286.141 896.973 286.006C897.424 285.873 897.986 285.712 898.762 285.725C900.294 285.745 901.427 286.435 901.803 286.662C903.771 287.845 904.45 289.735 905.239 291.922C905.394 292.359 905.913 293.945 906.035 295.986C906.122 297.458 905.928 298.06 905.708 298.49C905.257 299.376 904.565 299.787 902.849 300.651C901.055 301.558 900.156 302.01 899.418 302.242C897.703 302.781 896.623 303.121 895.357 302.837Z" fill="#728673"/>
<path d="M-1.78711 394.357C-1.78711 394.977 -0.915584 395.478 0.169694 395.478H934.321C935.406 395.478 936.279 394.977 936.279 394.357C936.279 393.733 935.406 393.235 934.321 393.235H0.169694C-0.915584 393.235 -1.78711 393.733 -1.78711 394.357Z" fill="#173E6D"/>
<path d="M84.5445 291.7C98.5899 291.7 109.976 281.786 109.976 269.554C109.976 257.323 98.5899 247.409 84.5445 247.409C70.4991 247.409 59.1133 257.323 59.1133 269.554C59.1133 281.786 70.4991 291.7 84.5445 291.7Z" fill="#173E6D"/>
<path d="M369.567 203.913C369.794 204.147 370.003 204.399 370.192 204.665L399.522 203.95L402.943 197.721L413.055 201.637L408.074 213.251C407.671 214.19 406.974 214.972 406.086 215.482C405.2 215.993 404.171 216.202 403.155 216.08L370.016 212.091C369.235 213.077 368.17 213.803 366.966 214.171C365.761 214.54 364.471 214.534 363.269 214.154C362.067 213.775 361.007 213.039 360.236 212.047C359.463 211.053 359.013 209.85 358.944 208.595C358.875 207.341 359.189 206.095 359.848 205.024C360.509 203.952 361.479 203.106 362.633 202.598C363.785 202.09 365.066 201.944 366.304 202.178C367.545 202.413 368.681 203.019 369.567 203.913Z" fill="#FFB7B7"/>
<path d="M465.386 382.669H455.701L451.093 345.373H465.389L465.386 382.669Z" fill="#FFB7B7"/>
<path d="M467.942 391.866H436.542V391.47C436.542 388.256 437.831 385.173 440.121 382.899C442.413 380.626 445.523 379.348 448.762 379.348H448.765H467.942V391.866Z" fill="#2F2E41"/>
<path d="M377.503 382.414L368.635 378.62L379.03 342.563L392.121 348.163L377.503 382.414Z" fill="#FFB7B7"/>
<path d="M376.207 391.866L347.446 379.65L347.602 379.287C348.871 376.337 351.265 374.007 354.262 372.811C357.257 371.616 360.609 371.652 363.578 372.914L381.144 380.375L376.207 391.866Z" fill="#2F2E41"/>
<path d="M418.35 212.14L417.65 223.412L438.109 225.588L459.518 227.864L453.217 210.749L418.35 212.14Z" fill="#FFB7B7"/>
<path d="M417.157 223.41L409.226 168.161L422.975 163.659L427.014 158.126L446.663 159.288L449.548 165.744L460.028 170.691L458.417 200.57L459.591 225.565L417.157 223.41Z" fill="#E6AD47"/>
<path d="M411.985 208.705L397.993 203.11L398.052 202.861C398.113 202.611 404.069 177.738 404.86 173.74C405.682 169.576 408.692 168.425 408.82 168.378L408.914 168.344L414.452 170.028L416.884 189.126L411.985 208.705Z" fill="#E6AD47"/>
<path d="M384.726 375.772L366.082 371.95L395.882 289.784L406.08 261.758C406.08 261.758 412.549 239.287 415.472 230.591L417.237 218.924L458.986 223.541C458.986 223.541 470.648 240.654 467.104 268.545L468.708 373.384L450.064 374.339L434.445 268.607L407.038 326.567C407.038 326.567 398.396 351.302 392.216 356.664L384.726 375.772Z" fill="#2F2E41"/>
<path d="M442.318 227.421C442.648 227.413 442.975 227.431 443.301 227.475L462.757 205.422L460.495 198.644L470.272 193.889L475.445 205.499C475.863 206.437 475.965 207.485 475.736 208.486C475.508 209.487 474.962 210.387 474.178 211.051L448.657 232.686C448.854 233.935 448.662 235.214 448.113 236.352C447.565 237.491 446.681 238.435 445.581 239.059C444.483 239.683 443.22 239.958 441.961 239.847C440.702 239.735 439.508 239.243 438.535 238.435C437.562 237.628 436.858 236.543 436.518 235.326C436.176 234.108 436.214 232.815 436.623 231.62C437.034 230.424 437.8 229.382 438.818 228.632C439.834 227.882 441.057 227.46 442.318 227.421Z" fill="#FFB7B7"/>
<path d="M461.228 207.684L453.135 188.497L456.291 175.133L459.694 170.802C459.941 170.695 460.209 170.64 460.482 170.643C460.753 170.645 461.019 170.705 461.266 170.817C462.522 171.325 463.589 172.885 464.442 175.452L472.027 197.226L461.228 207.684Z" fill="#E6AD47"/>
<path d="M418.927 150.937V136.542C418.927 131.426 420.972 126.52 424.609 122.903C428.247 119.285 433.182 117.253 438.329 117.253C443.475 117.253 448.41 119.285 452.048 122.903C455.686 126.52 457.73 131.426 457.73 136.542V150.937C457.73 151.623 457.455 152.282 456.967 152.768C456.477 153.253 455.816 153.527 455.124 153.528H421.533C420.841 153.527 420.18 153.253 419.69 152.768C419.202 152.282 418.927 151.623 418.927 150.937Z" fill="#2F2E41"/>
<path d="M434.372 153.272C442.196 153.272 448.54 146.925 448.54 139.094C448.54 131.264 442.196 124.917 434.372 124.917C426.547 124.917 420.203 131.264 420.203 139.094C420.203 146.925 426.547 153.272 434.372 153.272Z" fill="#FFB7B7"/>
<path d="M414.587 137.656C414.592 133.601 416.19 129.714 419.034 126.847C421.875 123.98 425.73 122.367 429.751 122.362H432.61C436.631 122.367 440.486 123.98 443.327 126.847C446.171 129.714 447.769 133.601 447.774 137.656V137.945H441.729L439.666 132.121L439.253 137.945H436.128L435.089 135.006L434.88 137.945H414.587V137.656Z" fill="#2F2E41"/>
<path d="M432.96 155.271C432.671 154.885 432.5 154.427 432.465 153.948C432.429 153.47 432.528 152.991 432.756 152.567C435.827 146.776 440.128 136.077 434.42 129.478L434.009 129.004H450.582V153.664L435.526 156.297C435.375 156.324 435.219 156.337 435.066 156.337C434.655 156.337 434.249 156.241 433.884 156.055C433.516 155.87 433.2 155.601 432.96 155.271Z" fill="#2F2E41"/>
<path d="M240.991 374.441L249.666 377.56L265.754 345.378L252.95 340.775L240.991 374.441Z" fill="#9F616A"/>
<path d="M235.63 382.141L239.695 370.918L256.978 377.014C259.895 378.048 262.28 380.181 263.607 382.948C264.935 385.712 265.096 388.885 264.054 391.769L263.926 392.121L235.63 382.141Z" fill="#2F2E41"/>
<path d="M297.668 383.18H307.006L311.451 347.417H297.665L297.668 383.18Z" fill="#9F616A"/>
<path d="M295.368 380.115H313.611C315.137 380.115 316.648 380.416 318.06 380.999C319.469 381.584 320.751 382.439 321.831 383.52C322.911 384.6 323.766 385.883 324.35 387.293C324.935 388.703 325.236 390.215 325.236 391.743V392.121H295.368V380.115Z" fill="#2F2E41"/>
<path d="M276.476 154.373L280.561 146.375C280.561 146.375 295.771 150.153 297.154 158.892L276.476 154.373Z" fill="#F1F1F1"/>
<path d="M259.908 245.473L270.875 306.751L241.757 358.317L259.153 365.132L288.649 315.148L292.429 301.517L294.699 372.707L310.386 372.229L317.578 305.755L306.041 243.958L259.908 245.473Z" fill="#CCCCCC"/>
<path d="M280.775 260.052C264.616 260.052 254.358 256.968 254.128 256.92L253.756 256.841L262.173 217.928L262.55 182.034C262.55 166.823 272.588 155.609 273.982 154.574C274.217 153.651 274.651 152.79 275.254 152.051C275.856 151.312 276.614 150.714 277.472 150.297C280.821 148.782 284.914 150.6 285.085 150.678L297.367 155.27L297.425 155.44C297.571 155.875 313.748 208.835 313.748 208.835C313.748 208.835 312.768 255.108 312.429 256.624C312.429 256.624 289.751 260.052 280.775 260.052Z" fill="#3F3D56"/>
<path d="M293.197 143.82C302.291 143.82 309.664 136.386 309.664 127.216C309.664 118.045 302.291 110.611 293.197 110.611C284.104 110.611 276.731 118.045 276.731 127.216C276.731 136.386 284.104 143.82 293.197 143.82Z" fill="#9F616A"/>
<path opacity="0.2" d="M274.689 184.948L303.606 225.31L307.877 206.462L274.689 184.948Z" fill="black"/>
<path d="M365.617 212.29C364.798 212.935 363.848 213.393 362.832 213.633C361.816 213.872 360.759 213.887 359.735 213.676C358.714 213.465 357.749 213.033 356.914 212.411C356.077 211.79 355.388 210.993 354.893 210.078L329.831 214.07L335.261 202.107L358.227 200.15C359.827 199.426 361.64 199.311 363.32 199.828C364.999 200.345 366.429 201.457 367.34 202.953C368.252 204.45 368.579 206.227 368.262 207.948C367.943 209.669 367.003 211.214 365.617 212.29Z" fill="#9F616A"/>
<path d="M336.724 201.653L345.519 200.786L347.957 213.107L336.89 213.304L336.724 201.653Z" fill="#F1F1F1"/>
<path d="M343.872 217.646L299.999 213.722L277.845 178.332L277.776 178.019C277.148 175.128 277.589 172.106 279.016 169.517C280.444 166.928 282.759 164.949 285.531 163.95C288.304 162.951 291.344 163 294.084 164.088C296.825 165.175 299.077 167.227 300.42 169.861L313.424 195.342L339.67 199.327L343.872 217.646Z" fill="#3F3D56"/>
<path d="M279.085 141.792L292.807 142.287C293.642 142.318 295.911 133.243 296.21 131.36C296.445 130.135 297.114 129.037 298.097 128.272C299.077 127.507 300.302 127.127 301.54 127.204C302.567 127.301 305.158 125.372 307.831 123.088C312.903 118.751 312.64 110.605 307.067 106.941C306.914 106.841 306.764 106.749 306.618 106.666C303.103 104.688 298.988 104.023 294.959 103.973C291.306 103.927 287.551 104.389 284.332 106.127C278.562 109.243 275.494 116.053 275.223 122.631C274.955 129.21 277.051 135.642 279.433 141.776" fill="#2F2E41"/>
</g>
<defs>
<clipPath id="clip0_243_1362">
<rect width="1026" height="445" fill="white"/>
</clipPath>
</defs>
</svg>
