<svg width="469" height="517" viewBox="0 0 469 517" fill="none" xmlns="http://www.w3.org/2000/svg">
<g clip-path="url(#clip0_679_1433)">
<path fill-rule="evenodd" clip-rule="evenodd" d="M76.8412 127.875C117.328 69.4564 166.593 3.50945 237.321 0.204302C307.621 -3.08089 361.165 58.3392 405.76 112.504C442.672 157.338 454.521 213.254 460.45 271.214C466.788 333.184 483.504 404.932 440.293 450.122C397.547 494.827 325.395 468.071 264.3 476.351C193.987 485.878 117.381 544.263 61.1058 501.506C4.68386 458.637 27.4657 369.798 30.4606 298.682C33.0377 237.491 41.8624 178.346 76.8412 127.875Z" fill="#C2CEE7"/>
<path d="M366.847 159.057L366.702 159.137C365.14 159.992 363.389 160.443 361.608 160.45C359.826 160.456 358.072 160.017 356.504 159.172C356.414 159.124 356.324 159.076 356.234 159.028C354.665 158.191 352.914 157.755 351.137 157.761C349.358 157.766 347.609 158.214 346.047 159.063L345.912 159.137C344.349 159.992 342.598 160.443 340.816 160.45C339.036 160.456 337.282 160.017 335.714 159.172C335.619 159.121 335.526 159.072 335.433 159.023C333.884 158.188 332.151 157.75 330.391 157.748C328.631 157.745 326.899 158.176 325.345 159.005C320.602 161.562 314.189 165.934 314.217 170.872C314.218 171.067 314.229 171.261 314.25 171.456C314.801 176.583 331.51 177.89 340.69 175.473C347.531 177.036 354.638 177.036 361.48 175.473C370.619 177.929 387.668 176.521 388.167 171.335C388.186 171.141 388.194 170.946 388.193 170.751C388.165 165.811 381.695 161.484 376.921 158.963C375.364 158.149 373.63 157.73 371.872 157.746C370.115 157.763 368.388 158.214 366.847 159.057Z" fill="#EFF1F5"/>
<path d="M123.73 156.465C142.165 156.465 157.11 141.515 157.11 123.074C157.11 104.633 142.165 89.6831 123.73 89.6831C105.295 89.6831 90.3501 104.633 90.3501 123.074C90.3501 141.515 105.295 156.465 123.73 156.465Z" fill="#E6AD47"/>
<path d="M318.648 132.809H278.608V96.3984L318.648 132.809Z" fill="#3F3D56"/>
<path d="M323.327 131.617H121.902V409.987H323.327V131.617Z" fill="#C0C0C0"/>
<path d="M165.695 151.135H141.998V201.085H165.695V151.135Z" fill="white"/>
<path d="M202.349 151.135H178.652V201.085H202.349V151.135Z" fill="white"/>
<path d="M162.572 221.931H138.875V271.88H162.572V221.931Z" fill="white"/>
<path d="M202.349 221.931H178.652V271.88H202.349V221.931Z" fill="white"/>
<path d="M162.572 287.437H138.875V337.386H162.572V287.437Z" fill="white"/>
<path d="M201.456 286.544H177.759V336.493H201.456V286.544Z" fill="white"/>
<path d="M235.898 360.15H212.201V410.099H235.898V360.15Z" fill="#CCCCCC"/>
<path d="M271.7 286.544H248.003V336.493H271.7V286.544Z" fill="white"/>
<path d="M311.477 286.544H287.78V336.493H311.477V286.544Z" fill="white"/>
<path d="M272.593 221.403H248.896V271.351H272.593V221.403Z" fill="white"/>
<path d="M312.37 221.403H288.673V271.351H312.37V221.403Z" fill="white"/>
<path d="M272.593 151.135H248.896V201.085H272.593V151.135Z" fill="white"/>
<path d="M312.37 151.135H288.673V201.085H312.37V151.135Z" fill="white"/>
<path d="M323.327 195.958H121.902V203.578H323.327V195.958Z" fill="#3F3D56"/>
<path d="M323.327 255.22H121.902V259.454H323.327V255.22Z" fill="#3F3D56"/>
<path d="M323.327 241.674H121.902V245.908H323.327V241.674Z" fill="#3F3D56"/>
<path d="M141.791 340.726V306.862H137.559V340.726H141.791Z" fill="#3F3D56"/>
<path d="M165.487 340.726V306.862H161.256V340.726H165.487Z" fill="#3F3D56"/>
<path d="M189.184 340.726V306.862H184.953V340.726H189.184Z" fill="#3F3D56"/>
<path d="M212.881 340.726V306.862H208.65V340.726H212.881Z" fill="#3F3D56"/>
<path d="M236.578 340.726V306.862H232.346V340.726H236.578Z" fill="#3F3D56"/>
<path d="M260.275 340.726V306.862H256.043V340.726H260.275Z" fill="#3F3D56"/>
<path d="M283.972 340.726V306.862H279.74V340.726H283.972Z" fill="#3F3D56"/>
<path d="M307.669 340.726V306.862H303.437V340.726H307.669Z" fill="#3F3D56"/>
<path d="M142.214 276.386V242.522H137.982V276.386H142.214Z" fill="#3F3D56"/>
<path d="M165.911 276.386V242.522H161.679V276.386H165.911Z" fill="#3F3D56"/>
<path d="M189.609 276.386V242.522H185.376V276.386H189.609Z" fill="#3F3D56"/>
<path d="M213.304 276.386V242.522H209.073V276.386H213.304Z" fill="#3F3D56"/>
<path d="M237.001 276.386V242.522H232.771V276.386H237.001Z" fill="#3F3D56"/>
<path d="M260.698 276.386V242.522H256.468V276.386H260.698Z" fill="#3F3D56"/>
<path d="M284.395 276.386V242.522H280.163V276.386H284.395Z" fill="#3F3D56"/>
<path d="M308.093 276.386V242.522H303.86V276.386H308.093Z" fill="#3F3D56"/>
<path d="M142.214 201.038V167.174H137.982V201.038H142.214Z" fill="#3F3D56"/>
<path d="M165.911 201.038V167.174H161.679V201.038H165.911Z" fill="#3F3D56"/>
<path d="M189.607 201.038V167.174H185.376V201.038H189.607Z" fill="#3F3D56"/>
<path d="M213.304 201.038V167.174H209.073V201.038H213.304Z" fill="#3F3D56"/>
<path d="M237.001 201.038V167.174H232.771V201.038H237.001Z" fill="#3F3D56"/>
<path d="M260.698 201.038V167.174H256.468V201.038H260.698Z" fill="#3F3D56"/>
<path d="M284.395 201.038V167.174H280.163V201.038H284.395Z" fill="#3F3D56"/>
<path d="M308.093 201.038V167.174H303.86V201.038H308.093Z" fill="#3F3D56"/>
<path d="M323.327 179.026H121.902V183.26H323.327V179.026Z" fill="#3F3D56"/>
<path d="M323.327 165.481H121.902V169.714H323.327V165.481Z" fill="#3F3D56"/>
<path d="M323.327 269.612H121.902V277.232H323.327V269.612Z" fill="#3F3D56"/>
<path d="M332.595 128.485H112.633V139.839H332.595V128.485Z" fill="#3F3D56"/>
<path d="M165.74 370.95V360.15H152.783V370.95H164.66H165.74Z" fill="white"/>
<path d="M164.66 379.591H152.783V390.392H165.74V379.591H164.66Z" fill="white"/>
<path d="M187.334 360.15H174.377V370.95H187.334V360.15Z" fill="white"/>
<path d="M187.334 379.591H174.377V390.392H187.334V379.591Z" fill="white"/>
<path d="M271.415 370.95V360.15H258.459V370.95H270.336H271.415Z" fill="white"/>
<path d="M270.336 379.591H258.459V390.392H271.415V379.591H270.336Z" fill="white"/>
<path d="M293.009 360.15H280.053V370.95H293.009V360.15Z" fill="white"/>
<path d="M293.009 379.591H280.053V390.392H293.009V379.591Z" fill="white"/>
<path d="M323.327 333.953H121.902V341.573H323.327V333.953Z" fill="#3F3D56"/>
<path d="M323.327 320.408H121.902V324.641H323.327V320.408Z" fill="#3F3D56"/>
<path d="M323.327 306.862H121.902V311.096H323.327V306.862Z" fill="#3F3D56"/>
<path d="M182.882 406.358C182.882 406.123 182.879 405.889 182.872 405.655C182.692 399.414 176.502 397.722 173.184 400.676C172.138 399.766 170.798 399.266 169.411 399.266C168.025 399.266 166.685 399.766 165.637 400.676C162.306 397.769 156.239 399.34 156.04 405.511C156.031 405.743 156.029 405.977 156.027 406.214C156.037 407.511 156.117 408.807 156.265 410.096H182.647C182.791 408.856 182.869 407.607 182.882 406.358Z" fill="#173E6D"/>
<path d="M287.731 406.358C287.732 406.123 287.729 405.889 287.722 405.655C287.54 399.414 281.352 397.722 278.034 400.676C276.987 399.766 275.647 399.266 274.261 399.266C272.874 399.266 271.534 399.766 270.487 400.676C267.155 397.769 261.089 399.34 260.89 405.511C260.881 405.743 260.878 405.977 260.877 406.214C260.887 407.511 260.967 408.807 261.115 410.096H287.497C287.641 408.856 287.718 407.607 287.731 406.358Z" fill="#173E6D"/>
<path d="M432.417 410.518H428.336L429.697 330.794H431.057L432.417 410.518Z" fill="#704C4C"/>
<path d="M435.817 280.602L442.402 270.419C440.449 265.022 438.193 259.74 435.645 254.598L431.387 258.038L434.759 252.826C431.545 246.497 429.017 242.51 429.017 242.51C429.017 242.51 415.808 263.331 411.396 285.376L419.847 298.441L410.491 290.882C410.158 293.45 409.986 296.036 409.978 298.626C409.978 324.734 418.502 345.9 429.017 345.9C439.532 345.9 448.056 324.734 448.056 298.626C448.056 290.532 446.226 282.065 443.7 274.231L435.817 280.602Z" fill="#728673"/>
<path d="M418.051 299.008H331.009V363.118H331.061V375.882L343.822 363.118H418.051V299.008Z" fill="#173E6D"/>
<path d="M307.978 435.929H230.753V438.982H307.978V435.929Z" fill="#3F3D56"/>
<path d="M448.798 435.929H371.157V438.982H448.798V435.929Z" fill="#3F3D56"/>
<path d="M167.674 435.929H90.3501V438.982H167.674V435.929Z" fill="#3F3D56"/>
<path d="M448.508 409.994H23.3992V410.867H448.508V409.994Z" fill="#3F3D56"/>
<path d="M351.064 424.732L360.158 424.737V423.293L351.064 423.289V424.732Z" fill="#3F3D56"/>
<path d="M285.317 423.614L287.193 424.049L358.498 424.087L359.139 422.592C360.257 420.029 360.64 417.204 360.248 414.436C359.94 412.371 359.171 410.321 357.423 409.43L354.259 388.348L314.81 388.278L299.547 400.592C299.547 400.592 292.347 400.463 288.436 405.333C287.025 407.145 286.192 409.339 286.045 411.63L285.891 414.164L285.317 423.614Z" fill="#173E6D"/>
<path d="M300.978 432.069C305.841 432.069 309.783 428.126 309.783 423.261C309.783 418.398 305.841 414.453 300.978 414.453C296.115 414.453 292.172 418.398 292.172 423.261C292.172 428.126 296.115 432.069 300.978 432.069Z" fill="#3F3D56"/>
<path d="M300.978 427.897C303.538 427.897 305.612 425.821 305.612 423.261C305.612 420.701 303.538 418.626 300.978 418.626C298.419 418.626 296.344 420.701 296.344 423.261C296.344 425.821 298.419 427.897 300.978 427.897Z" fill="#CCCCCC"/>
<path d="M344.425 432.092C349.288 432.092 353.23 428.149 353.23 423.284C353.23 418.421 349.288 414.477 344.425 414.477C339.562 414.477 335.621 418.421 335.621 423.284C335.621 428.149 339.562 432.092 344.425 432.092Z" fill="#3F3D56"/>
<path d="M344.425 427.921C346.984 427.921 349.058 425.845 349.058 423.284C349.058 420.724 346.984 418.649 344.425 418.649C341.866 418.649 339.79 420.724 339.79 423.284C339.79 425.845 341.866 427.921 344.425 427.921Z" fill="#CCCCCC"/>
<path d="M305.61 399.153L326.911 399.162H329.511L333.9 399.164V398.845L333.903 394.983L333.906 390.648H330.986L328.386 390.645L323.78 390.64H321.18L315.864 390.637L305.61 399.153Z" fill="white"/>
<path d="M337.366 399.167L348.622 399.173L348.625 396.965V393.103L348.628 390.656H346.98L344.38 390.653L337.369 390.651L337.366 399.167Z" fill="white"/>
<path d="M332.451 408.264H333.894L333.895 405.521H332.452L332.451 408.264Z" fill="#3F3D56"/>
<path d="M311.383 403.055L311.384 401.61L308.642 401.608L308.64 403.054L311.383 403.055Z" fill="#3F3D56"/>
<path d="M310.371 402.244H310.213C309.412 402.242 308.645 401.925 308.079 401.358C307.514 400.793 307.197 400.025 307.197 399.224C307.197 398.424 307.516 397.657 308.082 397.091C308.648 396.526 309.415 396.207 310.216 396.209H310.374L310.371 402.244Z" fill="#3F3D56"/>
<path d="M285.891 414.164C286.982 414.283 288.08 414.013 288.992 413.401C289.904 412.789 290.571 411.874 290.874 410.819C291.18 409.763 291.101 408.635 290.655 407.632C290.209 406.627 289.423 405.814 288.436 405.333C287.024 407.145 286.192 409.339 286.045 411.63L285.891 414.164Z" fill="#3F3D56"/>
<path d="M328.386 390.645L333.9 398.845L333.903 394.983L330.986 390.648L328.386 390.645Z" fill="#F2F2F2"/>
<path d="M344.38 390.653L348.625 396.965V393.103L346.98 390.656L344.38 390.653Z" fill="#F2F2F2"/>
<path d="M321.18 390.64L326.911 399.162H329.511L323.78 390.64H321.18Z" fill="#F2F2F2"/>
<path d="M222.475 105.852L222.395 105.897C221.52 106.377 220.539 106.63 219.542 106.634C218.545 106.637 217.562 106.391 216.683 105.917C216.634 105.889 216.583 105.862 216.533 105.836C215.654 105.365 214.673 105.121 213.678 105.124C212.682 105.127 211.704 105.379 210.829 105.855L210.753 105.897C209.878 106.377 208.897 106.63 207.9 106.634C206.903 106.637 205.921 106.391 205.043 105.917C204.989 105.888 204.939 105.86 204.886 105.832C204.019 105.364 203.048 105.118 202.062 105.116C201.077 105.115 200.108 105.357 199.237 105.822C196.582 107.258 192.99 109.713 193.006 112.486C193.006 112.595 193.014 112.705 193.025 112.814C193.333 115.693 202.689 116.427 207.829 115.07C211.66 115.948 215.638 115.948 219.471 115.07C224.588 116.449 234.134 115.659 234.413 112.747C234.423 112.637 234.427 112.528 234.427 112.418C234.411 109.644 230.789 107.215 228.117 105.799C227.245 105.341 226.272 105.107 225.288 105.116C224.305 105.125 223.338 105.378 222.475 105.852Z" fill="#EFF1F5"/>
<path d="M87.9542 137.317L87.786 137.408C85.9686 138.402 83.9319 138.926 81.8604 138.933C79.789 138.94 77.7485 138.43 75.9243 137.45C75.819 137.393 75.7145 137.337 75.6106 137.282C73.7864 136.308 71.749 135.803 69.6812 135.81C67.6134 135.817 65.5797 136.337 63.7622 137.323L63.6053 137.408C61.7878 138.402 59.7511 138.926 57.6796 138.933C55.6082 138.94 53.5678 138.43 51.7435 137.45C51.6342 137.391 51.5258 137.333 51.418 137.275C49.6152 136.307 47.601 135.798 45.5542 135.794C43.5075 135.79 41.4914 136.292 39.6853 137.255C34.1679 140.225 26.7092 145.303 26.7421 151.038C26.7434 151.265 26.7561 151.491 26.7806 151.717C27.4221 157.672 46.8554 159.19 57.5311 156.384C65.489 158.198 73.7538 158.198 81.7118 156.384C92.3419 159.235 112.17 157.601 112.75 151.577C112.772 151.352 112.782 151.125 112.781 150.898C112.748 145.16 105.223 140.135 99.6715 137.207C97.8602 136.259 95.843 135.774 93.799 135.793C91.755 135.812 89.7473 136.335 87.9542 137.317Z" fill="#EFF1F5"/>
<path d="M52.8389 440.593H43.7454V442.036H52.8389V440.593Z" fill="#3F3D56"/>
<path d="M118.586 440.916L116.71 441.35L45.4055 441.388L44.7642 439.893C43.646 437.33 43.2622 434.507 43.6558 431.737C43.9629 429.674 44.7324 427.623 46.4802 426.733L49.6445 405.65L89.0938 405.579L104.357 417.893C104.357 417.893 111.556 417.764 115.468 422.636C116.879 424.446 117.712 426.641 117.858 428.933L118.013 431.467L118.586 440.916Z" fill="#173E6D"/>
<path d="M102.925 449.371C107.788 449.371 111.73 445.428 111.73 440.564C111.73 435.699 107.788 431.756 102.925 431.756C98.0625 431.756 94.1204 435.699 94.1204 440.564C94.1204 445.428 98.0625 449.371 102.925 449.371Z" fill="#3F3D56"/>
<path d="M102.925 445.199C105.484 445.199 107.559 443.124 107.559 440.564C107.559 438.003 105.484 435.929 102.925 435.929C100.366 435.929 98.291 438.003 98.291 440.564C98.291 443.124 100.366 445.199 102.925 445.199Z" fill="#CCCCCC"/>
<path d="M59.4785 449.395C64.3413 449.395 68.2832 445.452 68.2832 440.587C68.2832 435.722 64.3413 431.779 59.4785 431.779C54.6157 431.779 50.6736 435.722 50.6736 440.587C50.6736 445.452 54.6157 449.395 59.4785 449.395Z" fill="#3F3D56"/>
<path d="M59.4782 445.222C62.0376 445.222 64.1124 443.147 64.1124 440.587C64.1124 438.027 62.0376 435.951 59.4782 435.951C56.9188 435.951 54.844 438.027 54.844 440.587C54.844 443.147 56.9188 445.222 59.4782 445.222Z" fill="#CCCCCC"/>
<path d="M98.2924 416.454L76.9928 416.464H74.3928L70.0032 416.467V416.146L70.0001 412.284L69.9971 407.949H72.9176L75.5175 407.946L80.1229 407.943H82.723L88.04 407.94L98.2924 416.454Z" fill="white"/>
<path d="M66.5375 416.47L55.2808 416.476L55.2777 414.266V410.406L55.2747 407.959H56.9229L59.523 407.956L66.5344 407.953L66.5375 416.47Z" fill="white"/>
<path d="M71.4499 422.821H70.0066V425.564H71.4499V422.821Z" fill="#3F3D56"/>
<path d="M95.2642 420.353L95.2635 418.91L92.521 418.911L92.5217 420.355L95.2642 420.353Z" fill="#3F3D56"/>
<path d="M93.53 413.51H93.6889C94.0849 413.51 94.4772 413.587 94.8433 413.74C95.2092 413.891 95.5418 414.113 95.822 414.394C96.102 414.673 96.3243 415.006 96.4758 415.372C96.6276 415.739 96.7055 416.131 96.7055 416.527C96.7055 417.328 96.3878 418.095 95.822 418.661C95.2562 419.227 94.489 419.545 93.6887 419.545H93.53V413.51Z" fill="#3F3D56"/>
<path d="M118.013 431.467C116.921 431.584 115.823 431.314 114.911 430.702C113.999 430.091 113.332 429.177 113.028 428.121C112.724 427.066 112.802 425.938 113.248 424.933C113.694 423.93 114.48 423.116 115.468 422.636C116.879 424.446 117.712 426.641 117.858 428.933L118.013 431.467Z" fill="#3F3D56"/>
<path d="M75.5176 407.946L70.0033 416.146L70.0002 412.284L72.9176 407.949L75.5176 407.946Z" fill="#F2F2F2"/>
<path d="M59.5227 407.956L55.2776 414.266V410.406L56.9226 407.959L59.5227 407.956Z" fill="#F2F2F2"/>
<path d="M82.7229 407.943L76.9929 416.464H74.3928L80.123 407.943H82.7229Z" fill="#F2F2F2"/>
<path d="M371.481 344.727L360.365 330.431L366.829 325.402L372.091 332.171L389.87 313.397L395.816 319.032L371.481 344.727Z" fill="white"/>
<path d="M0.027832 315.229H87.0699V379.341H87.017V392.104L74.2571 379.341H0.027832V315.229Z" fill="#173E6D"/>
<path d="M41.0817 362.476L29.9666 348.18L36.4307 343.151L41.6933 349.92L59.4721 331.146L65.4174 336.78L41.0817 362.476Z" fill="white"/>
</g>
<defs>
<clipPath id="clip0_679_1433">
<rect width="469" height="517" fill="white"/>
</clipPath>
</defs>
</svg>
