<svg width="899" height="628" viewBox="0 0 899 628" fill="none" xmlns="http://www.w3.org/2000/svg">
<g clip-path="url(#clip0_217_2964)">
<path d="M705.002 137.183C540.741 34.8873 312.214 30.7074 145.492 130.378C57.3589 183.067 -10.9673 263.676 1.46436 386.414C5.85771 429.828 18.0863 465.443 35.9268 494.599C108.187 612.796 404.976 608.244 421.459 608.226C432.138 608.215 442.816 608.412 453.495 608.806C490.899 610.192 528.106 613.99 564.76 620.172C617.021 628.968 683.553 633.393 742.992 616.721C753.095 613.903 762.909 610.459 772.345 606.411C805.011 592.384 841.58 578.983 862.959 545.716C879.025 520.749 890.729 489.443 896.367 450.451C916.864 308.447 814.419 205.322 705.002 137.183Z" fill="#C2CEE7"/>
<path d="M389.052 378.656C537.611 378.656 658.045 367.366 658.045 353.438C658.045 339.511 537.611 328.22 389.052 328.22C240.492 328.22 120.061 339.511 120.061 353.438C120.061 367.366 240.492 378.656 389.052 378.656Z" fill="#3F3D56"/>
<path opacity="0.1" d="M375.912 365.275C514.083 365.275 626.092 359.976 626.092 353.438C626.092 346.901 514.083 341.601 375.912 341.601C237.74 341.601 125.73 346.901 125.73 353.438C125.73 359.976 237.74 365.275 375.912 365.275Z" fill="black"/>
<path d="M514.316 15.7056V43.9971H477.436V352.538H554.403V55.7413V43.9971V15.7056H514.316Z" fill="#575A89"/>
<path d="M311.208 205.741V157.165H264.172V205.741H246.534V353.071H328.311V205.741H311.208Z" fill="#575A89"/>
<path d="M319.226 284.744H255.621V353.605H319.226V284.744Z" fill="#3F3D56"/>
<path opacity="0.1" d="M265.776 284.744H255.621V353.605H265.776V284.744Z" fill="black"/>
<path d="M450.177 0.224854V16.7729H356.105V0.224854H328.312V353.605H477.436V0.224854H450.177Z" fill="#6D84D8"/>
<path opacity="0.1" d="M471.021 0.225342H450.176V16.7733H471.021V0.225342Z" fill="black"/>
<path opacity="0.1" d="M349.157 0.225342H328.312V353.605H349.157V0.225342Z" fill="black"/>
<path d="M221.948 101.114V87.7693H208.051V101.114H182.929V353.605H246.534V101.114H221.948Z" fill="#C0C0C0"/>
<path opacity="0.1" d="M215.533 87.7693H208.05V101.114H215.533V87.7693Z" fill="black"/>
<path opacity="0.1" d="M190.412 101.114H182.929V353.604H190.412V101.114Z" fill="black"/>
<path opacity="0.1" d="M471.021 136.346H450.176V353.605H471.021V136.346Z" fill="black"/>
<path opacity="0.1" d="M246.534 101.114H227.293V147.556H246.534V101.114Z" fill="black"/>
<path d="M381.226 45.0649H351.295V57.8763H381.226V45.0649Z" fill="#E6AD47"/>
<path d="M444.831 176.915H414.899V189.726H444.831V176.915Z" fill="#E6AD47"/>
<path d="M229.965 158.766H200.033V171.577H229.965V158.766Z" fill="#E6AD47"/>
<path d="M302.656 292.217H272.724V305.029H302.656V292.217Z" fill="#E6AD47"/>
<path opacity="0.1" d="M313.346 216.95H262.034V238.303H313.346V216.95Z" fill="black"/>
<path opacity="0.1" d="M537.833 68.5522H486.522V89.9042H537.833V68.5522Z" fill="black"/>
<path opacity="0.1" d="M537.833 113.926H486.522V135.278H537.833V113.926Z" fill="black"/>
<path opacity="0.1" d="M537.833 159.299H486.522V180.652H537.833V159.299Z" fill="black"/>
<path opacity="0.1" d="M537.833 204.673H486.522V226.025H537.833V204.673Z" fill="black"/>
<path opacity="0.1" d="M537.833 250.047H486.522V271.399H537.833V250.047Z" fill="black"/>
<path opacity="0.1" d="M537.833 295.42H486.522V316.773H537.833V295.42Z" fill="black"/>
<path d="M572.041 165.171V106.986H534.626V165.171H521.263V353.605H584.872V165.171H572.041Z" fill="#C0C0C0"/>
<path opacity="0.1" d="M546.385 106.986H534.626V165.171H546.385V106.986Z" fill="black"/>
<path opacity="0.1" d="M533.024 165.171H521.265V353.605H533.024V165.171Z" fill="black"/>
<path opacity="0.1" d="M584.872 259.655H553.334V278.338H584.872V259.655Z" fill="black"/>
<path d="M584.333 231.897H554.403V244.708H584.333V231.897Z" fill="#E6AD47"/>
<path d="M646.12 287.797C646.12 316.459 629.109 326.467 608.13 326.467C587.152 326.467 570.14 316.459 570.14 287.797C570.14 259.134 608.13 222.67 608.13 222.67C608.13 222.67 646.12 259.134 646.12 287.797Z" fill="#506D5A"/>
<path d="M606.895 322.046L607.283 298.067L623.5 268.401L607.341 294.305L607.521 283.523L618.698 262.06L607.568 280.67L607.881 261.278L619.846 244.191L607.927 258.229L608.124 222.67L606.889 269.743L606.993 267.801L594.825 249.177L606.796 271.529L605.659 293.187L605.63 292.612L591.6 273.012L605.584 294.643L605.445 297.351L605.416 297.391L605.433 297.614L602.556 352.561H606.396L606.86 324.18L620.809 302.603L606.895 322.046Z" fill="#3F3D56"/>
<path d="M214.6 299.133C214.6 322.832 200.448 331.106 182.99 331.106C165.532 331.106 151.38 322.832 151.38 299.133C151.38 275.434 182.99 245.285 182.99 245.285C182.99 245.285 214.6 275.434 214.6 299.133Z" fill="#506D5A"/>
<path d="M181.872 327.803L182.191 307.892L195.46 283.258L182.241 304.768L182.384 295.815L191.529 277.993L182.422 293.446L182.68 277.344L192.472 263.155L182.721 274.812L182.881 245.285L181.869 284.373L181.952 282.76L171.996 267.296L181.793 285.855L180.865 303.839L180.837 303.362L169.36 287.088L180.803 305.048L180.687 307.297L180.666 307.331L180.675 307.515L178.322 353.141H181.466L181.844 329.575L193.259 311.659L181.872 327.803Z" fill="#3F3D56"/>
<mask id="mask0_217_2964" style="mask-type:luminance" maskUnits="userSpaceOnUse" x="153" y="183" width="726" height="370">
<path d="M878.7 183.239H153.7V552.617H878.7V183.239Z" fill="white"/>
</mask>
<g mask="url(#mask0_217_2964)">
<path d="M299.233 445.193C297.097 445.196 295.049 446.117 293.538 447.753C292.027 449.389 291.178 451.608 291.175 453.922V474.343C291.178 476.657 292.027 478.876 293.538 480.512C295.049 482.149 297.097 483.069 299.233 483.072H309.454C311.59 483.069 313.639 482.149 315.149 480.512C316.66 478.876 317.51 476.657 317.512 474.343V453.922C317.51 451.608 316.66 449.389 315.149 447.753C313.639 446.117 311.59 445.196 309.454 445.193H299.233Z" fill="#7B7B7C"/>
<path d="M488.167 483.751H477.946C475.644 483.748 473.436 482.756 471.807 480.992C470.179 479.228 469.264 476.837 469.261 474.343V453.922C469.264 451.427 470.179 449.036 471.807 447.273C473.436 445.509 475.644 444.517 477.946 444.514H488.167C490.47 444.517 492.677 445.509 494.305 447.273C495.934 449.036 496.85 451.427 496.852 453.922V474.343C496.85 476.837 495.934 479.228 494.305 480.992C492.677 482.756 490.47 483.748 488.167 483.751Z" fill="#7B7B7C"/>
<path d="M481.385 467.4H305.387C297.378 467.4 290.861 462.286 290.861 455.999V419.339L299.597 409.373H488.875L495.911 419.36V455.999C495.911 462.286 489.395 467.4 481.385 467.4Z" fill="#173E6D"/>
<path d="M488.053 427.713H300.601L298.696 396.073L299.908 392.835L306.954 374.052H480.431L489.958 395.381L488.053 427.713Z" fill="#173E6D"/>
<path d="M489.641 395.449L488.242 419.223H447V401.562L488.467 392.827L489.641 395.449Z" fill="white"/>
<path d="M341.027 401.562V419.222H300.405L299.013 396.128L300.198 392.963L341.027 401.562Z" fill="white"/>
<path fill-rule="evenodd" clip-rule="evenodd" d="M307.998 379.487H479.385L463.445 312.801C462.758 309.925 461.202 307.38 459.025 305.573C456.849 303.766 454.176 302.799 451.433 302.828L337.929 304C335.305 304.016 332.755 304.948 330.656 306.656C328.559 308.364 327.023 310.757 326.277 313.483L307.998 379.487ZM321.164 371.382L466.192 373.245C466.378 373.248 466.561 373.203 466.727 373.113C466.894 373.023 467.038 372.892 467.148 372.73C467.259 372.568 467.332 372.38 467.362 372.182C467.392 371.983 467.378 371.78 467.322 371.588L452.846 322.738C452.77 322.481 452.621 322.258 452.42 322.1C452.22 321.941 451.978 321.856 451.73 321.856H335.081C334.832 321.856 334.591 321.941 334.39 322.1C334.19 322.259 334.041 322.482 333.965 322.738L320.062 369.726C320.006 369.915 319.991 370.116 320.02 370.312C320.049 370.508 320.12 370.694 320.227 370.855C320.334 371.016 320.474 371.148 320.637 371.24C320.8 371.331 320.98 371.38 321.164 371.382Z" fill="#173E6D"/>
<path d="M413.237 310.883H374.147C373.817 310.883 373.518 310.531 373.367 309.965C373.216 309.386 373.238 308.77 373.429 308.205L376.653 299.375C376.817 298.924 377.085 298.656 377.37 298.656H410.014C410.299 298.656 410.566 298.924 410.731 299.375L413.954 308.205C414.146 308.77 414.168 309.386 414.017 309.965C413.866 310.531 413.566 310.883 413.237 310.883Z" fill="#E6AD47"/>
<path d="M308.106 378.128H282.396V372.007C282.398 370.028 283.125 368.131 284.417 366.732C285.708 365.332 287.46 364.545 289.287 364.543H308.106V378.128Z" fill="#173E6D"/>
<path d="M505.004 378.128H479.294V364.543H498.113C499.94 364.545 501.691 365.332 502.984 366.732C504.275 368.131 505.002 370.028 505.004 372.007V378.128Z" fill="#173E6D"/>
<path d="M279.388 473.549L153.701 522.458L154.234 524.066L279.922 475.158L279.388 473.549Z" fill="#3F3D56"/>
<path d="M507.219 473.552L506.686 475.161L632.38 524.058L632.908 522.448L507.219 473.552Z" fill="#3F3D56"/>
<path d="M400.684 509.014H393.161V498.489H400.684V509.014ZM400.684 487.962H393.161V477.437H400.684V487.962Z" fill="#2F2E41"/>
<path d="M400.684 552.617H393.161V542.091H400.684V552.617ZM400.684 531.565H393.161V521.039H400.684V531.565Z" fill="#2F2E41"/>
<path d="M397.136 280.324C415.984 280.324 431.263 265.043 431.263 246.193C431.263 227.342 415.984 212.061 397.136 212.061C378.289 212.061 363.01 227.342 363.01 246.193C363.01 265.043 378.289 280.324 397.136 280.324Z" fill="#E6AD47"/>
<path d="M390.9 263.532L379.729 247.973L386.225 242.5L391.515 249.866L409.384 229.433L415.359 235.566L390.9 263.532Z" fill="white"/>
<path opacity="0.3" d="M466.192 373.245L321.164 371.383C320.98 371.38 320.8 371.331 320.638 371.239C320.475 371.148 320.334 371.016 320.227 370.855C320.12 370.694 320.049 370.508 320.02 370.312C319.991 370.116 320.006 369.915 320.062 369.725L333.965 322.738C334.041 322.482 334.19 322.258 334.391 322.1C334.591 321.941 334.832 321.856 335.081 321.856H451.73C451.979 321.856 452.22 321.941 452.421 322.1C452.621 322.258 452.77 322.481 452.846 322.737L467.322 371.588C467.379 371.779 467.393 371.983 467.362 372.182C467.332 372.38 467.259 372.568 467.148 372.73C467.038 372.892 466.894 373.023 466.728 373.112C466.562 373.202 466.378 373.248 466.192 373.245Z" fill="#C0C0C0"/>
</g>
<path d="M756.761 553.07H747.8L743.537 515.649H756.761V553.07Z" fill="#FFB8B8"/>
<path d="M759.046 562.475H730.162V562.079C730.162 558.85 731.351 555.756 733.456 553.473C735.568 551.19 738.421 549.906 741.403 549.902H759.046V562.475Z" fill="#2F2E41"/>
<path d="M872.268 534.686L864.589 539.683L843.146 509.984L854.473 502.609L872.268 534.686Z" fill="#FFB8B8"/>
<path d="M853.94 557.584L853.754 557.245C852.223 554.476 851.765 551.161 852.49 548.029C853.209 544.897 855.048 542.202 857.6 540.536L872.72 530.697L878.7 541.473L853.94 557.584Z" fill="#2F2E41"/>
<path d="M759.087 545.348L758.936 545.347C754.574 545.332 750.224 545.061 745.892 544.534C744.245 544.357 742.452 544.166 740.295 543.974L740.219 543.959C738.746 543.485 738.706 528.535 739.332 477.36C739.651 451.149 740.011 421.441 739.581 402.521L739.576 402.335L739.709 402.213C755.688 387.16 776.208 381.517 797.489 386.325L797.645 386.36L797.726 386.511C806.531 402.644 819.824 425.883 832.677 448.358C862.188 499.949 870.627 515.122 869.704 516.267L869.588 516.36C867.576 517.451 866.062 518.291 864.774 519.006C860.471 521.397 858.684 522.388 849.109 526.66L848.871 526.765L848.697 526.56C818.757 491.025 793.84 451.33 778.43 414.635C776.632 427.162 774.445 443.521 772.131 460.805C765.49 510.507 761.001 543.236 759.197 545.228L759.087 545.348Z" fill="#2F2E41"/>
<path d="M805.591 243.835C808.607 230.35 811.165 215.14 805.475 202.721C801.531 194.103 786.933 191.201 778.563 194.305C770.2 197.41 764.15 205.833 761.488 215.017C758.826 224.2 759.133 234.096 760.293 243.643C775.686 243.323 791.074 243.003 805.591 243.835Z" fill="#2F2E41"/>
<path d="M779.624 243.832C789.531 243.832 797.57 235.13 797.57 224.395C797.57 213.66 789.531 204.958 779.624 204.958C769.712 204.958 761.679 213.66 761.679 224.395C761.679 235.13 769.712 243.832 779.624 243.832Z" fill="#FFB8B8"/>
<path d="M801.56 220.391C801.618 217.12 801.067 213.87 799.942 210.834C798.817 207.797 797.14 205.037 795.006 202.717C792.877 200.397 790.337 198.564 787.541 197.328C784.746 196.092 781.747 195.476 778.725 195.519C775.709 195.563 772.728 196.263 769.962 197.579C767.195 198.895 764.701 200.799 762.63 203.179C760.554 205.56 758.947 208.367 757.892 211.434C756.842 214.501 756.372 217.766 756.506 221.035C771.87 221.07 787.228 221.105 801.56 220.391Z" fill="#2F2E41"/>
<path d="M767.154 406.344C785.007 406.258 802.743 409.474 819.598 415.854C820.184 385.216 810.445 354.521 792.837 331.558L792.703 331.387L792.773 331.176C797.477 316.457 802.337 301.243 806.681 286.103L806.617 285.85C803.567 274.119 797.03 262.264 786.625 249.609C785.494 248.342 783.963 247.588 782.344 247.499C780.72 247.41 779.126 247.993 777.884 249.129C759.388 267.493 749.331 295.007 751.639 320.936L751.645 321.012L751.628 321.085C743.479 350.982 740.521 366.338 737.911 379.886C736.008 389.769 734.361 398.326 731.049 410.554C742.91 407.759 755.015 406.347 767.154 406.344Z" fill="#3F3D56"/>
<path opacity="0.1" d="M793.44 311.836L766.934 374.335L751.796 357.734L793.44 311.836Z" fill="black"/>
<path d="M733.949 346.551L735.794 350.44C735.811 350.476 735.817 350.518 735.805 350.556C735.794 350.595 735.771 350.627 735.736 350.646L735.649 350.695L745.271 370.955C745.538 371.516 745.59 372.168 745.41 372.768C745.236 373.369 744.842 373.868 744.326 374.157L732.639 380.672C732.383 380.815 732.099 380.901 731.815 380.928C731.525 380.953 731.241 380.917 730.962 380.822C730.69 380.727 730.435 380.574 730.214 380.372C729.994 380.17 729.814 379.924 729.681 379.646L720.395 360.096L720.331 360.132C720.302 360.146 720.279 360.148 720.25 360.139C720.227 360.131 720.209 360.112 720.192 360.086L719.142 357.873C719.136 357.86 719.13 357.847 719.13 357.832C719.13 357.819 719.13 357.804 719.136 357.791C719.142 357.777 719.148 357.765 719.154 357.754C719.165 357.743 719.171 357.734 719.188 357.728L719.252 357.692L718.852 356.858L718.788 356.894C718.765 356.908 718.736 356.91 718.707 356.901C718.684 356.892 718.661 356.872 718.649 356.845L717.611 354.662C717.599 354.636 717.599 354.605 717.605 354.576C717.611 354.548 717.634 354.524 717.657 354.51L717.721 354.474L717.182 353.336L717.112 353.373C717.095 353.385 717.066 353.387 717.042 353.38C717.019 353.372 717.002 353.354 716.99 353.33L716.422 352.139C716.41 352.115 716.41 352.088 716.416 352.062C716.428 352.037 716.439 352.016 716.462 352.004L716.532 351.966L715.384 349.554C715.117 348.993 715.065 348.342 715.244 347.741C715.424 347.141 715.813 346.642 716.329 346.353L728.016 339.838C728.538 339.549 729.135 339.495 729.692 339.688C730.249 339.88 730.707 340.303 730.974 340.863L733.671 346.535L733.758 346.485C733.793 346.466 733.828 346.464 733.868 346.476C733.903 346.488 733.932 346.515 733.949 346.551Z" fill="#3F3D56"/>
<path d="M730.237 341.802L744.424 371.651C744.592 372.007 744.621 372.42 744.511 372.801C744.395 373.182 744.146 373.499 743.821 373.682L732.633 379.919C732.302 380.102 731.925 380.137 731.571 380.015C731.218 379.894 730.928 379.627 730.76 379.272V379.268L716.573 349.419C716.491 349.243 716.439 349.051 716.422 348.854C716.41 348.656 716.428 348.458 716.486 348.269C716.544 348.08 716.631 347.905 716.747 347.754C716.868 347.603 717.013 347.478 717.176 347.388L718.846 346.454L718.962 346.687C719.026 346.832 719.125 346.961 719.241 347.067C719.351 347.172 719.484 347.252 719.629 347.301C719.774 347.351 719.925 347.37 720.076 347.356C720.227 347.343 720.372 347.298 720.505 347.223L726.195 344.051C726.462 343.9 726.67 343.639 726.763 343.326C726.856 343.012 726.827 342.672 726.688 342.379L726.578 342.146L728.364 341.151C728.689 340.968 729.072 340.934 729.425 341.056C729.773 341.177 730.069 341.446 730.237 341.801V341.802Z" fill="white"/>
<path d="M734.35 378.269C735.423 378.188 736.461 377.854 737.4 377.289C738.34 376.725 739.158 375.945 739.784 375.003C740.416 374.061 740.851 372.981 741.054 371.839C741.257 370.697 741.228 369.52 740.967 368.392L762.804 352.894L750.352 347.066L731.519 362.677C729.797 363.278 728.341 364.543 727.424 366.231C726.508 367.918 726.189 369.912 726.543 371.834C726.891 373.756 727.877 375.472 729.315 376.658C730.754 377.844 732.546 378.417 734.35 378.269Z" fill="#FFB8B8"/>
<path d="M755.363 367.104L755.09 366.893C749.888 362.749 744.123 358.464 738.537 354.321L738.207 354.072L738.468 353.737C750.381 338.645 762.3 322.88 773.836 307.629C773.824 307.605 773.819 307.587 773.813 307.574L773.923 307.514L773.969 307.453L773.993 307.475L774.062 307.437L773.749 307.464L770.194 277.272C766.98 272.528 766.366 263.109 770.576 256.534C774.932 249.724 784.154 247.444 790.308 251.654C791.92 252.827 793.266 254.377 794.252 256.189C795.238 258.002 795.83 260.031 795.992 262.127C796.224 263.994 796.062 265.893 795.528 267.685C794.989 269.476 794.095 271.116 792.895 272.484C794.409 288.462 794.467 302.744 794.525 316.558V316.696L794.443 316.81C782.147 333.728 768.645 350.555 755.583 366.829L755.363 367.104Z" fill="#3F3D56"/>
<path fill-rule="evenodd" clip-rule="evenodd" d="M723.249 318.447C728.747 308.518 738.34 290.318 738.34 284.146C738.34 275.494 729.901 268.48 719.49 268.48C709.079 268.48 700.64 275.494 700.64 284.146C700.64 290.318 710.233 308.518 715.732 318.447C716.103 319.12 716.648 319.681 717.309 320.072C717.971 320.463 718.725 320.669 719.49 320.669C720.256 320.669 721.01 320.463 721.671 320.072C722.332 319.681 722.877 319.12 723.249 318.447ZM729.64 287.036C729.64 292.801 725.093 297.474 719.49 297.474C713.887 297.474 709.34 292.801 709.34 287.036C709.34 281.272 713.887 276.598 719.49 276.598C725.093 276.598 729.64 281.272 729.64 287.036Z" fill="#173E6D"/>
</g>
<defs>
<clipPath id="clip0_217_2964">
<rect width="899" height="628" fill="white"/>
</clipPath>
</defs>
</svg>
