<svg width="47" height="64" viewBox="0 0 47 64" fill="none" xmlns="http://www.w3.org/2000/svg">
<path fill-rule="evenodd" clip-rule="evenodd" d="M27.888 61.274C34.671 49.1 46.501 26.78 46.501 19.211C46.501 8.601 36.092 0 23.251 0C10.41 0 0 8.601 0 19.211C0 26.78 11.83 49.1 18.614 61.274C19.074 62.101 19.746 62.79 20.561 63.268C21.377 63.747 22.305 64 23.251 64C24.196 64 25.125 63.747 25.94 63.268C26.755 62.79 27.427 62.101 27.888 61.274ZM36.022 21.592C36.022 28.585 30.353 34.254 23.359 34.254C16.366 34.254 10.697 28.585 10.697 21.592C10.697 14.599 16.366 8.92999 23.359 8.92999C30.353 8.92999 36.022 14.599 36.022 21.592Z" fill="#173E6D"/>
</svg>
