<svg width="1026" height="563" viewBox="0 0 1026 563" fill="none" xmlns="http://www.w3.org/2000/svg">
<path fill-rule="evenodd" clip-rule="evenodd" d="M259.249 308.895C258.219 232.745 203.671 142.319 282.952 89.7477C362.036 37.3065 489.288 89.7323 598.294 84.0728C725.72 77.457 869.5 -4.98352 964.559 54.3594C1058.99 113.31 967.7 220.916 958.427 308.895C950.343 385.581 993.262 474.639 914.562 528.685C835.999 582.637 708.738 557.046 598.294 556.212C489.864 555.394 363.623 578.521 288.826 523.96C214.518 469.757 260.262 383.756 259.249 308.895Z" fill="#C2CEE7"/>
<g clip-path="url(#clip0_396_2367)">
<mask id="mask0_396_2367" style="mask-type:luminance" maskUnits="userSpaceOnUse" x="264" y="0" width="762" height="530">
<path d="M1026 0H264V530H1026V0Z" fill="white"/>
</mask>
<g mask="url(#mask0_396_2367)">
<path d="M424.526 530C501.412 530 563.738 524.932 563.738 518.682C563.738 512.43 501.412 507.362 424.526 507.362C347.642 507.362 285.315 512.43 285.315 518.682C285.315 524.932 347.642 530 424.526 530Z" fill="#929292"/>
<path d="M380.051 117.598C406.473 106.363 439.381 113.481 471.521 118.421C471.82 112.439 475.444 105.158 471.648 100.984C467.034 95.9128 467.459 90.5847 470.236 85.226C477.333 71.5228 467.164 56.942 456.894 44.8182C454.579 42.0916 451.653 39.9493 448.355 38.5654C445.056 37.1814 441.478 36.5948 437.911 36.853L418.887 38.2114C414.258 38.5419 409.84 40.2779 406.225 43.187C402.609 46.0962 399.969 50.0397 398.657 54.49C394.114 60.666 391.683 66.8249 393.214 72.9516C386.41 77.5999 385.267 83.2107 388.324 89.536C390.917 93.5186 390.889 97.3954 388.206 101.165C384.683 105.971 381.984 111.329 380.221 117.021L380.051 117.598Z" fill="#2F2E41"/>
<path d="M1007.94 458.177H469.434C464.645 458.177 460.053 456.274 456.666 452.889C453.28 449.504 451.377 444.912 451.377 440.125C646.587 417.446 838.128 417.446 1026 440.125C1026 444.912 1024.1 449.504 1020.71 452.889C1017.32 456.274 1012.73 458.177 1007.94 458.177Z" fill="#2F2E41"/>
<path d="M1026 441.188L451.377 440.125L517.974 328.103L518.292 327.572V80.688C518.292 77.6912 518.882 74.7239 520.029 71.9554C521.176 69.1867 522.858 66.6712 524.977 64.5521C527.097 62.4332 529.613 60.7524 532.383 59.6058C535.152 58.4591 538.12 57.8691 541.118 57.8693H933.072C936.071 57.8691 939.039 58.4591 941.808 59.6058C944.578 60.7524 947.093 62.4332 949.214 64.5521C951.333 66.6712 953.014 69.1867 954.161 71.9554C955.308 74.7239 955.899 77.6912 955.899 80.688V329.271L1026 441.188Z" fill="#3F3D56"/>
<path d="M540.598 73.7966C538.626 73.7989 536.736 74.5827 535.343 75.9762C533.949 77.3696 533.165 79.2588 533.163 81.2294V306.336C533.165 308.307 533.949 310.195 535.343 311.589C536.736 312.982 538.626 313.767 540.598 313.768H936.779C938.751 313.767 940.64 312.982 942.035 311.589C943.428 310.195 944.212 308.307 944.214 306.336V81.2294C944.213 79.2588 943.428 77.3696 942.035 75.9762C940.64 74.5828 938.751 73.799 936.779 73.7966H540.598Z" fill="white"/>
<path d="M542.258 343.5C541.649 343.501 541.052 343.676 540.539 344.005C540.026 344.332 539.619 344.801 539.363 345.354L518.842 389.951C518.619 390.436 518.521 390.97 518.559 391.502C518.595 392.035 518.765 392.55 519.054 393C519.342 393.45 519.739 393.821 520.208 394.076C520.677 394.333 521.202 394.466 521.737 394.466H953.273C953.816 394.466 954.351 394.328 954.825 394.064C955.299 393.799 955.697 393.418 955.983 392.956C956.269 392.494 956.431 391.967 956.455 391.425C956.479 390.882 956.365 390.342 956.122 389.856L933.817 345.26C933.554 344.73 933.148 344.284 932.644 343.973C932.141 343.662 931.56 343.497 930.967 343.5H542.258Z" fill="#2F2E41"/>
<path d="M737.095 70.0802C739.734 70.0802 741.875 67.9411 741.875 65.3021C741.875 62.6632 739.734 60.5239 737.095 60.5239C734.455 60.5239 732.316 62.6632 732.316 65.3021C732.316 67.9411 734.455 70.0802 737.095 70.0802Z" fill="#D2D2D2"/>
<path d="M694.679 402.961C693.978 402.962 693.298 403.194 692.742 403.62C692.185 404.045 691.786 404.643 691.602 405.318L686.454 424.431C686.328 424.904 686.311 425.398 686.405 425.879C686.501 426.358 686.705 426.81 687.002 427.197C687.3 427.586 687.683 427.9 688.121 428.116C688.559 428.333 689.043 428.445 689.532 428.445H787.423C787.931 428.445 788.432 428.324 788.883 428.091C789.335 427.859 789.724 427.521 790.018 427.108C790.313 426.694 790.505 426.216 790.577 425.713C790.649 425.21 790.599 424.698 790.433 424.218L783.816 405.105C783.599 404.479 783.192 403.937 782.653 403.552C782.112 403.169 781.467 402.962 780.804 402.961H694.679Z" fill="#2F2E41"/>
<path d="M955.897 323.857V328.103H517.974L518.303 327.572V323.857H955.897Z" fill="#2F2E41"/>
<path d="M943.684 148.656C984.747 148.656 1018.03 115.378 1018.03 74.3276C1018.03 33.2776 984.747 0 943.684 0C902.621 0 869.333 33.2776 869.333 74.3276C869.333 115.378 902.621 148.656 943.684 148.656Z" fill="#173E6D"/>
<path d="M974.486 106.713H912.882C911.755 106.712 910.674 106.264 909.878 105.468C909.081 104.672 908.633 103.592 908.632 102.466V65.3021C908.633 64.1761 909.082 63.0964 909.878 62.3002C910.674 61.5038 911.755 61.056 912.882 61.0548H974.486C975.612 61.056 976.693 61.5038 977.489 62.3002C978.286 63.0964 978.733 64.1761 978.735 65.3021V102.466C978.733 103.592 978.286 104.672 977.489 105.468C976.693 106.264 975.612 106.712 974.486 106.713ZM912.882 65.3021V102.466H974.489L974.486 65.3021H912.882Z" fill="#E6AD47"/>
<path d="M962.802 65.3021H924.565V48.313C924.565 36.0076 932.606 27.0765 943.683 27.0765C954.761 27.0765 962.802 36.0076 962.802 48.313V65.3021ZM928.813 61.0548H958.554V48.313C958.554 38.3101 952.439 31.3238 943.684 31.3238C934.928 31.3238 928.813 38.3101 928.813 48.313V61.0548Z" fill="#E6AD47"/>
<path d="M943.684 87.0694C946.03 87.0694 947.932 85.1679 947.932 82.8222C947.932 80.4765 946.03 78.5749 943.684 78.5749C941.337 78.5749 939.434 80.4765 939.434 82.8222C939.434 85.1679 941.337 87.0694 943.684 87.0694Z" fill="#E6AD47"/>
<path d="M891.78 237.415H585.597C584.093 237.413 582.652 236.815 581.589 235.753C580.527 234.69 579.929 233.249 579.926 231.746V155.819C579.929 154.317 580.527 152.876 581.589 151.813C582.652 150.75 584.093 150.152 585.597 150.15H891.78C893.284 150.152 894.724 150.75 895.787 151.813C896.85 152.876 897.448 154.317 897.45 155.819V231.746C897.448 233.249 896.85 234.69 895.787 235.753C894.724 236.815 893.284 237.413 891.78 237.415ZM585.597 152.418C584.695 152.419 583.83 152.777 583.193 153.415C582.555 154.053 582.196 154.917 582.195 155.819V231.746C582.196 232.649 582.555 233.513 583.193 234.151C583.83 234.787 584.695 235.147 585.597 235.147H891.78C892.682 235.147 893.547 234.787 894.185 234.151C894.823 233.513 895.181 232.649 895.182 231.746V155.819C895.181 154.917 894.823 154.053 894.185 153.415C893.547 152.777 892.682 152.419 891.78 152.418H585.597Z" fill="#173E6D"/>
<path d="M633.172 213.959C645.927 213.959 656.268 203.621 656.268 190.869C656.268 178.117 645.927 167.78 633.172 167.78C620.415 167.78 610.075 178.117 610.075 190.869C610.075 203.621 620.415 213.959 633.172 213.959Z" fill="#173E6D"/>
<path d="M686.514 175.477C686.008 175.475 685.507 175.574 685.04 175.767C684.572 175.96 684.146 176.244 683.789 176.601C683.43 176.959 683.147 177.384 682.952 177.851C682.759 178.317 682.659 178.819 682.659 179.325C682.659 179.83 682.759 180.332 682.952 180.798C683.147 181.265 683.43 181.69 683.789 182.048C684.146 182.405 684.572 182.689 685.04 182.882C685.507 183.075 686.008 183.174 686.514 183.172H867.989C869.009 183.172 869.988 182.767 870.711 182.046C871.433 181.324 871.839 180.345 871.839 179.325C871.839 178.304 871.433 177.325 870.711 176.603C869.988 175.881 869.009 175.477 867.989 175.477H686.514Z" fill="#173E6D"/>
<path d="M686.514 198.566C685.493 198.566 684.513 198.971 683.793 199.693C683.071 200.415 682.664 201.393 682.664 202.415C682.664 203.435 683.071 204.414 683.793 205.135C684.513 205.857 685.493 206.262 686.514 206.262H764.603C765.624 206.262 766.603 205.857 767.325 205.135C768.047 204.414 768.453 203.435 768.453 202.415C768.453 201.393 768.047 200.415 767.325 199.693C766.603 198.971 765.624 198.566 764.603 198.566H686.514Z" fill="#173E6D"/>
<path d="M517.22 200.123L460.62 230.205L459.903 205.137C478.378 202.054 495.953 196.686 512.206 187.946L518.124 173.326C518.77 171.733 519.819 170.335 521.167 169.268C522.515 168.203 524.119 167.507 525.818 167.247C527.518 166.987 529.256 167.174 530.861 167.789C532.466 168.404 533.884 169.426 534.976 170.753C536.572 172.696 537.37 175.174 537.209 177.683C537.046 180.192 535.935 182.546 534.102 184.268L517.22 200.123Z" fill="#FFB8B8"/>
<path d="M378.923 373.806C378.51 372.292 378.422 370.707 378.666 369.157C378.909 367.607 379.478 366.126 380.335 364.812L392.768 345.736C395.709 341.224 400.221 337.966 405.43 336.591C410.638 335.217 416.172 335.827 420.956 338.301C415.731 347.193 416.46 354.993 422.761 361.773C412.979 366.547 403.938 372.709 395.917 380.067C394.453 381.065 392.771 381.699 391.013 381.916C389.254 382.133 387.469 381.926 385.806 381.312C384.144 380.7 382.652 379.7 381.454 378.393C380.257 377.088 379.389 375.514 378.923 373.806Z" fill="#2F2E41"/>
<path d="M519.798 348.864C517.917 351.999 515.262 354.598 512.086 356.41C508.91 358.224 505.322 359.191 501.665 359.219L419.066 359.845L415.484 339.073L452.022 328.33L421.215 304.694L454.888 265.301L516.05 322.288C519.624 325.618 521.948 330.075 522.63 334.913C523.312 339.75 522.313 344.674 519.798 348.864Z" fill="#2F2E41"/>
<path d="M406.169 490.916H386.824C369.456 371.899 351.777 252.548 404.02 208.001L465.636 218.028L457.755 270.315L423.365 309.708L406.169 490.916Z" fill="#2F2E41"/>
<path d="M423.174 517.877C421.659 518.291 420.074 518.377 418.524 518.135C416.973 517.891 415.492 517.323 414.177 516.466L393.172 513.645C388.659 510.704 385.399 506.194 384.024 500.987C382.65 495.78 383.259 490.249 385.734 485.465C394.629 490.688 402.432 489.96 409.213 483.66C414.003 493.33 421.898 492.74 429.437 500.887C430.434 502.352 431.069 504.033 431.286 505.79C431.502 507.548 431.295 509.333 430.682 510.996C430.069 512.658 429.069 514.149 427.762 515.346C426.457 516.544 424.883 517.41 423.174 517.877Z" fill="#2F2E41"/>
<path d="M452.022 128.499L416.199 119.904C422.15 107.729 422.639 94.1821 419.781 79.7942L444.141 79.0779C444.904 96.9698 447.214 113.685 452.022 128.499Z" fill="#FFB8B8"/>
<path d="M461.868 239.595C435.79 257.359 417.364 240.202 403.303 213.731C405.256 197.533 402.094 178.149 396.234 157.088C393.628 147.798 394.601 137.868 398.961 129.261C403.319 120.653 410.749 113.992 419.781 110.592L450.59 123.485C476.749 144.802 481.897 167.891 472.083 192.244L461.868 239.595Z" fill="#173E6D"/>
<path d="M386.825 146.405L358.166 161.445L409.034 191.527L416.112 208.981C416.585 210.146 416.816 211.395 416.789 212.653C416.764 213.91 416.481 215.147 415.96 216.292C415.439 217.436 414.692 218.463 413.762 219.308C412.831 220.154 411.739 220.801 410.55 221.211C409.198 221.677 407.758 221.824 406.341 221.64C404.923 221.456 403.567 220.946 402.379 220.151C401.192 219.356 400.203 218.297 399.495 217.058C398.785 215.818 398.372 214.429 398.288 213.003L397.571 200.839L332.918 179.51C330.739 178.791 328.753 177.586 327.11 175.987C325.466 174.387 324.208 172.435 323.431 170.276C322.299 167.131 322.241 163.701 323.267 160.519C324.294 157.338 326.346 154.586 329.103 152.695L381.093 117.039L386.825 146.405Z" fill="#FFB8B8"/>
<path d="M415.484 149.27C403.53 144.034 392.662 149.721 378.944 154.283L376.794 116.322C390.416 109.064 403.403 107.108 415.484 112.741V149.27Z" fill="#173E6D"/>
<path d="M429.78 97.8813C442.412 97.8813 452.652 87.6444 452.652 75.0166C452.652 62.3889 442.412 52.152 429.78 52.152C417.149 52.152 406.91 62.3889 406.91 75.0166C406.91 87.6444 417.149 97.8813 429.78 97.8813Z" fill="#FFB8B8"/>
<path d="M457.143 72.1317C434.497 74.3489 417.242 70.6465 406.214 60.1048V51.6152H455.221L457.143 72.1317Z" fill="#2F2E41"/>
</g>
</g>
<defs>
<clipPath id="clip0_396_2367">
<rect width="762" height="530" fill="white" transform="translate(264)"/>
</clipPath>
</defs>
</svg>
