<svg width="1868" height="263" viewBox="0 0 1868 263" fill="none" xmlns="http://www.w3.org/2000/svg">
<rect width="1868" height="214" fill="#C2CEE7"/>
<g clip-path="url(#clip0_834_2478)">
<path d="M407 81C415.836 81 423 73.8363 423 65C423 56.1637 415.836 49 407 49C398.164 49 391 56.1637 391 65C391 73.8363 398.164 81 407 81Z" fill="#4F7962"/>
<path d="M409 113H405L406.825 62L409 113Z" fill="#6D494F"/>
<path d="M407.441 71.8103L411 67L407.391 73L407 72.3335L407.441 71.8103Z" fill="#6D494F"/>
<path d="M406.559 76.809L403 72L406.609 78L407 77.3335L406.559 76.809Z" fill="#6D494F"/>
<path d="M364.5 66C377.477 66 388 55.2556 388 41.9993C388 28.7444 377.477 18 364.5 18C351.52 18 341 28.7444 341 41.9993C341 55.2556 351.52 66 364.5 66Z" fill="#4F7962"/>
<path d="M366 113H362L363.823 38L366 113Z" fill="#6D494F"/>
<path d="M364.548 52.2141L369 45L364.489 54L364 52.9997L364.548 52.2141Z" fill="#6D494F"/>
<path d="M363.341 60.2138L358 53L363.416 62L364 61.0009L363.341 60.2138Z" fill="#6D494F"/>
<path d="M254.5 66C267.477 66 278 55.2556 278 41.9993C278 28.7444 267.477 18 254.5 18C241.52 18 231 28.7444 231 41.9993C231 55.2556 241.52 66 254.5 66Z" fill="#4F7962"/>
<path d="M256 113H252L253.823 38L256 113Z" fill="#6D494F"/>
<path d="M254.548 52.2141L259 45L254.489 54L254 52.9997L254.548 52.2141Z" fill="#6D494F"/>
<path d="M253.341 60.2138L248 53L253.416 62L254 61.0009L253.341 60.2138Z" fill="#6D494F"/>
<path d="M1778 81C1786.84 81 1794 73.8363 1794 65C1794 56.1637 1786.84 49 1778 49C1769.16 49 1762 56.1637 1762 65C1762 73.8363 1769.16 81 1778 81Z" fill="#4F7962"/>
<path d="M1780 113H1776L1777.83 62L1780 113Z" fill="#6D494F"/>
<path d="M1778.44 71.8103L1782 67L1778.39 73L1778 72.3335L1778.44 71.8103Z" fill="#6D494F"/>
<path d="M1777.56 76.809L1774 72L1777.61 78L1778 77.3335L1777.56 76.809Z" fill="#6D494F"/>
<path d="M1734.34 54.2138L1729 47L1734.41 56L1735 55.0009L1734.34 54.2138Z" fill="#6D494F"/>
<path d="M1735.5 66C1748.48 66 1759 55.2556 1759 41.9993C1759 28.7444 1748.48 18 1735.5 18C1722.52 18 1712 28.7444 1712 41.9993C1712 55.2556 1722.52 66 1735.5 66Z" fill="#4F7962"/>
<path d="M1737 113H1733L1734.82 38L1737 113Z" fill="#6D494F"/>
<path d="M1735.55 52.2141L1740 45L1735.49 54L1735 52.9997L1735.55 52.2141Z" fill="#6D494F"/>
<path d="M1734.34 60.2138L1729 53L1734.42 62L1735 61.0009L1734.34 60.2138Z" fill="#6D494F"/>
<path d="M1585 81C1593.84 81 1601 73.8363 1601 65C1601 56.1637 1593.84 49 1585 49C1576.16 49 1569 56.1637 1569 65C1569 73.8363 1576.16 81 1585 81Z" fill="#4F7962"/>
<path d="M1587 113H1583L1584.83 62L1587 113Z" fill="#6D494F"/>
<path d="M1585.44 71.8103L1589 67L1585.39 73L1585 72.3335L1585.44 71.8103Z" fill="#6D494F"/>
<path d="M1584.56 76.809L1581 72L1584.61 78L1585 77.3335L1584.56 76.809Z" fill="#6D494F"/>
<path d="M1541.34 54.2138L1536 47L1541.41 56L1542 55.0009L1541.34 54.2138Z" fill="#6D494F"/>
<path d="M1542.5 66C1555.48 66 1566 55.2556 1566 41.9993C1566 28.7444 1555.48 18 1542.5 18C1529.52 18 1519 28.7444 1519 41.9993C1519 55.2556 1529.52 66 1542.5 66Z" fill="#4F7962"/>
<path d="M1544 113H1540L1541.82 38L1544 113Z" fill="#6D494F"/>
<path d="M1542.55 52.2141L1547 45L1542.49 54L1542 52.9997L1542.55 52.2141Z" fill="#6D494F"/>
<path d="M1541.34 60.2138L1536 53L1541.42 62L1542 61.0009L1541.34 60.2138Z" fill="#6D494F"/>
<path d="M1688.68 64.6266C1688.68 86.1838 1675.96 93.71 1660.27 93.71C1644.58 93.71 1631.86 86.1838 1631.86 64.6266C1631.86 43.0694 1660.27 15.6455 1660.27 15.6455C1660.27 15.6455 1688.68 43.0694 1688.68 64.6266Z" fill="#4F7962"/>
<path d="M1659.33 90.3022L1659.62 72.2877L1671.81 50.0009L1659.67 69.4615L1659.8 61.3609L1668.2 45.2372L1659.84 59.2173L1660.07 44.6496L1669.07 31.8127L1660.11 42.3588L1660.26 15.6455L1659.33 51.0089L1659.4 49.5501L1650.26 35.5587L1659.26 52.3502L1658.41 68.6207L1658.38 68.1894L1647.84 53.465L1658.35 69.7148L1658.24 71.7496L1658.22 71.7802L1658.23 71.9474L1656.07 113.226H1658.96L1659.3 91.9047L1669.79 75.6955L1659.33 90.3022Z" fill="#6D494F"/>
<path d="M1038.82 64.6266C1038.82 86.1838 1026.1 93.71 1010.41 93.71C994.72 93.71 982 86.1838 982 64.6266C982 43.0694 1010.41 15.6455 1010.41 15.6455C1010.41 15.6455 1038.82 43.0694 1038.82 64.6266Z" fill="#4F7962"/>
<path d="M1009.47 90.3022L1009.76 72.2877L1021.95 50.0009L1009.81 69.4615L1009.94 61.3609L1018.34 45.2372L1009.98 59.2173L1010.21 44.6496L1019.21 31.8127L1010.25 42.3588L1010.4 15.6455L1009.47 51.0089L1009.55 49.5501L1000.4 35.5587L1009.4 52.3502L1008.55 68.6207L1008.52 68.1894L997.98 53.465L1008.49 69.7148L1008.38 71.7496L1008.36 71.7802L1008.37 71.9474L1006.21 113.226H1009.1L1009.45 91.9047L1019.93 75.6955L1009.47 90.3022Z" fill="#6D494F"/>
<path d="M962 73.529C962 90.9262 951.703 97 939 97C926.297 97 916 90.9262 916 73.529C916 56.1318 939 34 939 34C939 34 962 56.1318 962 73.529Z" fill="#4F7962"/>
<path d="M938.109 94.4411L938.34 79.8568L948 61.8137L938.377 77.5687L938.481 71.0106L945.138 57.9571L938.509 69.2751L938.697 57.4814L945.825 47.0887L938.726 55.6268L938.843 34L938.106 62.6297L938.167 61.4487L930.919 50.1215L938.051 63.7156L937.376 76.888L937.355 76.5388L929 64.6182L937.33 77.7738L937.246 79.4211L937.231 79.4459L937.237 79.5813L935.524 113H937.813L938.088 95.7384L946.398 82.6157L938.109 94.4411Z" fill="#6D494F"/>
<path d="M215.82 70.6266C215.82 92.1838 203.1 99.71 187.41 99.71C171.72 99.71 159 92.1838 159 70.6266C159 49.0694 187.41 21.6455 187.41 21.6455C187.41 21.6455 215.82 49.0694 215.82 70.6266Z" fill="#4F7962"/>
<path d="M186.472 96.3022L186.765 78.2877L198.951 56.0009L186.811 75.4615L186.942 67.3609L195.341 51.2372L186.977 65.2173L187.214 50.6496L196.208 37.8127L187.251 48.3588L187.399 21.6455L186.469 57.0089L186.546 55.5501L177.402 41.5587L186.399 58.3502L185.547 74.6207L185.522 74.1894L174.98 59.465L185.49 75.7148L185.383 77.7496L185.364 77.7802L185.373 77.9474L183.211 119.226H186.099L186.446 97.9047L196.93 81.6955L186.472 96.3022Z" fill="#6D494F"/>
</g>
<path d="M1152.76 113.173H137.208V186.731H1152.76V113.173Z" fill="#3F3D56"/>
<path d="M2313 113H0V214H2313V113Z" fill="#3F3D56"/>
<path d="M231.68 167.574H186.306V170.497H231.68V167.574Z" fill="#E6AD47"/>
<path d="M98.3742 167.574H53V170.497H98.3742V167.574Z" fill="#E6AD47"/>
<path d="M618.093 167.574H572.72V170.497H618.093V167.574Z" fill="#E6AD47"/>
<path d="M743.373 167.574H698V170.497H743.373V167.574Z" fill="#E6AD47"/>
<path d="M365.373 167.574H320V170.497H365.373V167.574Z" fill="#E6AD47"/>
<path d="M490.653 167.574H445.28V170.497H490.653V167.574Z" fill="#E6AD47"/>
<path d="M871.373 167.574H826V170.497H871.373V167.574Z" fill="#E6AD47"/>
<path d="M1004.51 167.574H959.133V170.497H1004.51V167.574Z" fill="#E6AD47"/>
<path d="M1133.31 167.574H1087.94V170.497H1133.31V167.574Z" fill="#E6AD47"/>
<path d="M1260.43 167.574H1215.05V170.497H1260.43V167.574Z" fill="#E6AD47"/>
<path d="M1389.37 167.574H1344V170.497H1389.37V167.574Z" fill="#E6AD47"/>
<path d="M1518.18 167.574H1472.8V170.497H1518.18V167.574Z" fill="#E6AD47"/>
<path d="M1645.3 167.574H1599.92V170.497H1645.3V167.574Z" fill="#E6AD47"/>
<path d="M1774.37 167.574H1729V170.497H1774.37V167.574Z" fill="#E6AD47"/>
<path d="M1903.18 167.574H1857.8V170.497H1903.18V167.574Z" fill="#E6AD47"/>
<defs>
<clipPath id="clip0_834_2478">
<rect width="2313" height="263" fill="white"/>
</clipPath>
</defs>
</svg>
